<svg width="20" height="20" viewBox="0 0 20 20" fill="none" xmlns="http://www.w3.org/2000/svg">
<path d="M7.1294 14.4968C7.26388 14.3952 7.66533 14.092 7.89675 13.9114C8.36026 13.5496 8.97617 13.0554 9.59025 12.5222C10.2074 11.9863 10.8085 11.4234 11.2504 10.9233C11.4719 10.6726 11.6403 10.4523 11.7499 10.2705C11.8529 10.0995 11.8744 9.99855 11.8744 9.99855C11.8744 9.99855 11.8529 9.90053 11.7499 9.72958C11.6403 9.54781 11.472 9.32753 11.2504 9.07677C10.8085 8.57667 10.2074 8.01375 9.59024 7.47788C8.97616 6.94471 8.36024 6.45045 7.89673 6.08872C7.6653 5.90812 7.26441 5.60528 7.12993 5.50371C6.852 5.29902 6.79205 4.90735 6.99674 4.62941C7.20144 4.35147 7.59269 4.2921 7.87062 4.49679L7.87274 4.49839C8.01379 4.60493 8.42963 4.91901 8.66576 5.10329C9.13975 5.47318 9.77383 5.98188 10.4098 6.534C11.0426 7.08344 11.6915 7.68816 12.1871 8.24909C12.4343 8.52885 12.6566 8.81242 12.8204 9.08422C12.9739 9.33887 13.125 9.66128 13.125 10C13.125 10.3388 12.9739 10.6612 12.8204 10.9159C12.6566 11.1877 12.4343 11.4712 12.1871 11.751C11.6915 12.3119 11.0426 12.9166 10.4098 13.4661C9.77385 14.0182 9.13977 14.5269 8.66579 14.8968C8.4295 15.0812 8.01364 15.3953 7.87288 15.5016L7.87106 15.503C7.59313 15.7077 7.20148 15.6486 6.99679 15.3707C6.7921 15.0927 6.85149 14.7015 7.1294 14.4968Z" fill="#7C57FC"/>
</svg>
