<svg width="16" height="16" viewBox="0 0 16 16" fill="none" xmlns="http://www.w3.org/2000/svg">
<path d="M12.0771 2.74414C12.4025 2.41875 12.9304 2.41885 13.2559 2.74414C13.5813 3.06958 13.5813 3.59741 13.2559 3.92285L9.17871 8L13.2559 12.0771C13.5813 12.4026 13.5813 12.9304 13.2559 13.2559C12.9304 13.5813 12.4026 13.5813 12.0771 13.2559L8 9.17871L3.92285 13.2559C3.59741 13.5813 3.06958 13.5813 2.74414 13.2559C2.41885 12.9304 2.41875 12.4025 2.74414 12.0771L6.82129 8L2.74414 3.92285C2.4187 3.59741 2.4187 3.06958 2.74414 2.74414C3.06958 2.41871 3.59742 2.41871 3.92285 2.74414L8 6.82129L12.0771 2.74414Z" fill="black"/>
</svg>
