<svg width="20" height="20" viewBox="0 0 20 20" fill="none" xmlns="http://www.w3.org/2000/svg">
<path d="M11.9854 1.26465C15.9777 2.16796 18.9589 5.73617 18.959 10.002C18.959 10.3752 18.9361 10.7438 18.8916 11.1055C18.7425 10.9963 18.6091 10.9132 18.501 10.8574C18.4754 10.8443 18.449 10.8328 18.4219 10.8232C17.2811 10.4223 16.3883 10.8583 15.7354 11.2246C15.6525 11.2711 15.5757 11.3157 15.5029 11.3574C15.2697 11.491 15.08 11.5991 14.8818 11.6807C14.6432 11.7788 14.4614 11.805 14.2891 11.7705C12.7885 11.4704 11.6576 11.4458 10.8789 11.8057C10.4627 11.998 10.1568 12.2954 9.96582 12.6797C9.78228 13.0492 9.72266 13.463 9.72266 13.873C9.72265 14.6168 9.71738 14.8788 9.66309 15.0967C9.61192 15.3017 9.51357 15.483 9.18848 16.042C8.9653 16.4258 8.76041 16.9007 8.78809 17.416C8.8178 17.9685 9.10563 18.4456 9.61621 18.8281C9.665 18.8678 9.72089 18.9117 9.7832 18.958C4.93649 18.8421 1.04297 14.8765 1.04297 10.002C1.04302 8.14231 1.60999 6.41409 2.58008 4.98242C3.21897 4.67166 3.78679 4.6364 4.06836 4.67773C4.07647 4.67892 4.08463 4.6798 4.09277 4.68066C4.54349 4.72823 4.79531 4.9282 5.4668 5.6377C6.85474 7.10424 8.40019 7.35575 9.54492 6.75098C9.96227 6.53048 10.2308 6.24839 10.3945 5.91797C10.5276 5.64926 10.5772 5.36717 10.6094 5.18359L10.6191 5.12598C10.657 4.91812 10.6869 4.82227 10.7373 4.74609C10.7784 4.68428 10.8724 4.57851 11.1494 4.46875C11.7757 4.22056 12.1864 3.74795 12.3418 3.17578C12.4893 2.63248 12.3942 2.05169 12.1309 1.5498C12.0927 1.45842 12.0439 1.36285 11.9854 1.26465ZM16.3477 12.3164C16.9354 11.9866 17.3905 11.8049 17.9648 11.9902C18.0993 12.0672 18.3371 12.2382 18.6055 12.5078C17.6981 15.6305 15.1375 18.0499 11.9336 18.7539C11.2433 18.459 10.6702 18.0769 10.3975 17.8535C10.3897 17.8471 10.3812 17.841 10.373 17.835C10.0891 17.6245 10.0431 17.4616 10.0371 17.3506C10.0289 17.198 10.0902 16.9803 10.2695 16.6719L10.3066 16.6084C10.5809 16.1372 10.7787 15.7984 10.8779 15.4004C10.9741 15.0143 10.9738 14.5869 10.9736 13.958V13.874C10.9737 13.5749 11.0186 13.373 11.0859 13.2373C11.146 13.1164 11.2377 13.0184 11.4043 12.9414C11.7912 12.7626 12.5698 12.703 14.0449 12.998C14.5412 13.0973 14.9839 12.9929 15.3584 12.8389C15.6398 12.7231 15.9247 12.5588 16.1699 12.418C16.2319 12.3823 16.2914 12.348 16.3477 12.3164ZM9.95996 1.04297C10.6017 1.40779 10.9033 1.84283 10.9824 2.04395C10.9918 2.06762 11.0025 2.09092 11.0146 2.11328C11.1635 2.3874 11.188 2.6515 11.1348 2.84766C11.0861 3.02677 10.9611 3.19862 10.6885 3.30664C10.2331 3.48714 9.90802 3.73296 9.69434 4.05566C9.49019 4.36402 9.42876 4.68677 9.38965 4.90137L9.38379 4.93359C9.34346 5.15524 9.32412 5.26185 9.27441 5.3623C9.23779 5.4362 9.16835 5.53593 8.96094 5.64551C8.43963 5.92083 7.48592 5.952 6.375 4.77832C5.73308 4.10005 5.19332 3.54373 4.23633 3.43848C4.14283 3.42532 4.03998 3.41667 3.92969 3.41406C5.51608 1.95147 7.63397 1.05338 9.95996 1.04297Z" fill="#121212"/>
</svg>
