<svg width="20" height="20" viewBox="0 0 20 20" fill="none" xmlns="http://www.w3.org/2000/svg">
<path d="M10.001 1.04199C14.9485 1.04199 18.959 5.05245 18.959 10C18.959 14.9476 14.9485 18.958 10.001 18.958C5.05343 18.958 1.04297 14.9476 1.04297 10C1.04297 5.05245 5.05343 1.04199 10.001 1.04199ZM10.001 2.29199C5.74378 2.29199 2.29297 5.74281 2.29297 10C2.29297 14.2572 5.74378 17.708 10.001 17.708C14.2582 17.708 17.709 14.2572 17.709 10C17.709 5.74281 14.2582 2.29199 10.001 2.29199ZM9.39844 8.54199C9.56929 8.54192 9.75422 8.54154 9.91016 8.5625C10.0928 8.58709 10.3261 8.65039 10.5225 8.84668C10.719 9.04318 10.7821 9.27719 10.8066 9.45996C10.8276 9.6159 10.8282 9.80089 10.8281 9.97168V14.167C10.828 14.5119 10.548 14.7918 10.2031 14.792C9.85805 14.792 9.57829 14.512 9.57812 14.167V10C9.57812 9.9176 9.57808 9.85077 9.57715 9.79297C9.51927 9.79204 9.45171 9.79199 9.36914 9.79199C9.02422 9.79182 8.74431 9.51192 8.74414 9.16699C8.74414 8.82192 9.02411 8.54217 9.36914 8.54199C9.37866 8.54199 9.38882 8.542 9.39844 8.54199ZM10.002 5.83301C10.4622 5.83301 10.835 6.20676 10.835 6.66699C10.8348 7.12708 10.4621 7.5 10.002 7.5H9.99414C9.53416 7.49982 9.16131 7.12697 9.16113 6.66699C9.16113 6.20686 9.53405 5.83318 9.99414 5.83301H10.002Z" fill="#5E5E5E"/>
</svg>
