<svg width="28" height="28" viewBox="0 0 28 28" fill="none" xmlns="http://www.w3.org/2000/svg">
<path d="M13.999 1.45801C20.9256 1.45801 26.541 7.07343 26.541 14C26.541 20.9266 20.9256 26.542 13.999 26.542C7.07245 26.542 1.45703 20.9266 1.45703 14C1.45703 7.07343 7.07245 1.45801 13.999 1.45801ZM13.999 3.20801C8.03895 3.20801 3.20703 8.03993 3.20703 14C3.20703 19.9601 8.03895 24.792 13.999 24.792C19.9591 24.792 24.791 19.9601 24.791 14C24.791 8.03993 19.9591 3.20801 13.999 3.20801ZM13.1553 11.958C13.3943 11.9579 13.6528 11.958 13.8711 11.9873C14.127 12.0217 14.4544 12.1106 14.7295 12.3857C15.0044 12.6607 15.0925 12.9874 15.127 13.2432C15.1563 13.4616 15.1563 13.7207 15.1562 13.96V19.833C15.1562 20.3163 14.7645 20.708 14.2812 20.708C13.7982 20.7078 13.4062 20.3161 13.4062 19.833V14C13.4062 13.8845 13.4066 13.7909 13.4053 13.71C13.3243 13.7087 13.2307 13.708 13.1152 13.708C12.632 13.708 12.2402 13.3163 12.2402 12.833C12.2404 12.3499 12.6321 11.958 13.1152 11.958C13.1285 11.958 13.1419 11.958 13.1553 11.958ZM14 8.16699C14.6442 8.16699 15.1668 8.68883 15.167 9.33301C15.167 9.97734 14.6443 10.5 14 10.5H13.9902C13.3459 10.5 12.8232 9.97734 12.8232 9.33301C12.8234 8.68883 13.346 8.16699 13.9902 8.16699H14Z" fill="#7C57FC"/>
</svg>
