<svg width="52" height="52" viewBox="0 0 52 52" fill="none" xmlns="http://www.w3.org/2000/svg">
<g filter="url(#filter0_d_260_21383)">
<rect x="5.71484" y="5.71387" width="40" height="40" rx="20" fill="#7C57FC" shape-rendering="crispEdges"/>
<rect x="6.07199" y="6.07101" width="39.2857" height="39.2857" rx="19.6429" stroke="#D3D3D3" stroke-width="0.714286" shape-rendering="crispEdges"/>
<path d="M25.7129 41.0713C34.1944 41.0713 41.0703 34.1954 41.0703 25.7139C41.0702 17.2325 34.1943 10.3574 25.7129 10.3574C17.2315 10.3574 10.3556 17.2325 10.3555 25.7139C10.3555 34.1954 17.2314 41.0713 25.7129 41.0713ZM19.999 23.2139C19.0129 23.2139 18.213 22.4148 18.2129 21.4287C18.2129 20.4425 19.0128 19.6426 19.999 19.6426H20.0117C20.9978 19.6427 21.7969 20.4426 21.7969 21.4287C21.7967 22.4147 20.9977 23.2137 20.0117 23.2139H19.999ZM31.4141 23.2139C30.4281 23.2137 29.6291 22.4147 29.6289 21.4287C29.6289 20.4426 30.428 19.6427 31.4141 19.6426H31.4268C32.413 19.6426 33.2129 20.4425 33.2129 21.4287C33.2127 22.4148 32.4129 23.2139 31.4268 23.2139H31.4141ZM25.7129 33.9287C23.025 33.9287 20.6383 32.6363 19.1416 30.6436C18.7863 30.1704 18.8824 29.4989 19.3555 29.1436C19.8286 28.7882 20.5001 28.8833 20.8555 29.3564C21.9649 30.8335 23.7275 31.7851 25.7129 31.7852C27.6982 31.7852 29.4609 30.8335 30.5703 29.3564C30.9257 28.8833 31.5972 28.7882 32.0703 29.1436C32.5435 29.4989 32.6395 30.1704 32.2842 30.6436C30.7875 32.6363 28.4008 33.9287 25.7129 33.9287Z" fill="white"/>
</g>
<defs>
<filter id="filter0_d_260_21383" x="0.000557899" y="-0.000418663" width="51.4286" height="51.4286" filterUnits="userSpaceOnUse" color-interpolation-filters="sRGB">
<feFlood flood-opacity="0" result="BackgroundImageFix"/>
<feColorMatrix in="SourceAlpha" type="matrix" values="0 0 0 0 0 0 0 0 0 0 0 0 0 0 0 0 0 0 127 0" result="hardAlpha"/>
<feOffset/>
<feGaussianBlur stdDeviation="2.85714"/>
<feComposite in2="hardAlpha" operator="out"/>
<feColorMatrix type="matrix" values="0 0 0 0 0 0 0 0 0 0 0 0 0 0 0 0 0 0 0.12 0"/>
<feBlend mode="normal" in2="BackgroundImageFix" result="effect1_dropShadow_260_21383"/>
<feBlend mode="normal" in="SourceGraphic" in2="effect1_dropShadow_260_21383" result="shape"/>
</filter>
</defs>
</svg>
