<svg width="28" height="28" viewBox="0 0 28 28" fill="none" xmlns="http://www.w3.org/2000/svg">
<path d="M14.065 1.45801C16.2109 1.45799 17.9073 1.45798 19.2343 1.62987C20.5963 1.80629 21.7007 2.17752 22.5749 3.01974C23.4537 3.86637 23.8451 4.94334 24.0304 6.27079C24.2097 7.55559 24.2097 9.19542 24.2096 11.2574V21.0532C24.2097 22.3336 24.2097 23.3975 24.0868 24.1969C23.9595 25.024 23.663 25.8291 22.8451 26.2658C22.1158 26.6553 21.3135 26.5761 20.6333 26.3696C19.9453 26.1608 19.246 25.7817 18.6057 25.3771C17.9594 24.9687 17.2607 24.4551 16.7097 24.0479C16.1697 23.6487 15.7361 23.3281 15.4049 23.1287C14.9388 22.848 14.6444 22.672 14.4058 22.5596C14.1856 22.4559 14.0787 22.4394 14.0013 22.4394C13.924 22.4394 13.817 22.4559 13.5968 22.5596C13.3582 22.672 13.0638 22.848 12.5977 23.1287C12.2666 23.3281 11.8329 23.6487 11.2929 24.0479C10.7419 24.4551 10.0433 24.9687 9.39688 25.3771C8.7566 25.7817 8.0573 26.1608 7.36931 26.3696C6.68911 26.5761 5.88685 26.6553 5.15747 26.2658C4.33963 25.8291 4.04308 25.024 3.91585 24.1969C3.79289 23.3975 3.79292 22.3336 3.79297 21.0532L3.79297 11.2573C3.79295 9.19541 3.79294 7.55559 3.97223 6.27079C4.15747 4.94334 4.54897 3.86637 5.42772 3.01974C6.3019 2.17752 7.40627 1.80629 8.7683 1.62987C10.0953 1.45798 11.7917 1.45799 13.9376 1.45801H14.065Z" fill="#161616"/>
</svg>
