<svg width="24" height="24" viewBox="0 0 24 24" fill="none" xmlns="http://www.w3.org/2000/svg">
<path d="M10.5664 2.25C10.9805 2.24935 11.3166 2.58487 11.3174 2.99902C11.3179 3.41293 10.9832 3.74904 10.5693 3.75C8.62708 3.75349 7.21773 3.78066 6.1377 3.95508C5.0794 4.12603 4.41978 4.42693 3.92383 4.92188C3.38973 5.45498 3.08097 6.17776 2.91797 7.3877C2.75202 8.61951 2.75 10.2395 2.75 12.5C2.75 14.7601 2.75208 16.3796 2.91797 17.6113C3.08099 18.8214 3.38962 19.545 3.92383 20.0781C4.45823 20.6114 5.1833 20.9202 6.39649 21.083C7.63116 21.2487 9.2546 21.25 11.5195 21.25C13.7845 21.25 15.4079 21.2487 16.6426 21.083C17.8558 20.9202 18.5808 20.6114 19.1152 20.0781C19.863 19.3318 20.1616 18.2246 20.251 15.9707C20.2674 15.5569 20.6156 15.2348 21.0293 15.251C21.4431 15.2674 21.7652 15.6156 21.749 16.0293C21.6592 18.2958 21.3682 19.9486 20.1748 21.1396C19.3151 21.9976 18.2208 22.3843 16.8418 22.5693C15.4842 22.7515 13.742 22.75 11.5195 22.75C9.29703 22.75 7.55486 22.7515 6.19727 22.5693C4.81823 22.3843 3.72395 21.9976 2.86426 21.1396C2.00445 20.2816 1.61619 19.1893 1.43066 17.8125C1.2481 16.4573 1.25 14.7179 1.25 12.5C1.25 10.2821 1.24811 8.54272 1.43066 7.1875C1.61615 5.81067 2.00455 4.71847 2.86426 3.86035C3.66014 3.06608 4.65801 2.67401 5.89844 2.47363C7.11701 2.27684 8.64887 2.25345 10.5664 2.25Z" fill="#5A5D67"/>
<path fill-rule="evenodd" clip-rule="evenodd" d="M15.9932 4.32422C16.6515 4.12344 17.1906 4.3571 17.6445 4.67676C18.0517 4.96347 18.556 5.44311 19.1377 5.94824L20.8848 7.46582C21.4038 7.91656 21.8514 8.30338 22.1602 8.65332C22.4776 9.01318 22.75 9.44447 22.75 9.99609C22.7499 10.5476 22.4775 10.9781 22.1602 11.3379C21.8513 11.688 21.404 12.0754 20.8848 12.5264L19.1377 14.043C18.8328 14.3078 18.5815 14.5415 18.3496 14.7539C18.1259 14.9588 17.9055 15.1577 17.6914 15.3154C17.4747 15.475 17.2222 15.6253 16.9238 15.7002C16.6101 15.7789 16.3005 15.7607 15.9932 15.667C15.5286 15.5252 15.2446 15.1928 15.0859 14.8555C14.9359 14.5364 14.8813 14.1846 14.8604 13.8896C14.8444 13.6659 14.8472 13.4429 14.8545 13.2432C14.6315 13.2385 14.4085 13.2333 14.1875 13.2275C13.7022 13.2149 13.2242 13.2029 12.75 13.2041C11.7992 13.2065 10.8991 13.2627 10.0684 13.459C8.75207 13.7701 7.65864 14.5153 6.3916 15.292C6.16021 15.4337 5.87056 15.4392 5.63379 15.3066C5.39692 15.174 5.25 14.9238 5.25 14.6523C5.25003 12.9133 5.60348 11.1573 6.59277 9.72559C7.59737 8.27186 9.20083 7.23616 11.5244 6.8584C12.6251 6.67951 13.7954 6.70788 14.8545 6.72754C14.8478 6.53318 14.845 6.3176 14.8604 6.10156C14.8813 5.80675 14.936 5.45566 15.0859 5.13672C15.2446 4.79929 15.5284 4.46603 15.9932 4.32422ZM16.4434 5.77442C16.4068 5.85212 16.3718 5.99275 16.3564 6.20801C16.3417 6.41531 16.3479 6.64223 16.3604 6.86817C16.3711 7.06315 16.3916 7.32336 16.3916 7.48828C16.3916 7.90248 16.0558 8.23828 15.6416 8.23828C14.2428 8.23826 12.9873 8.14009 11.7646 8.33887C9.78855 8.66015 8.56976 9.50357 7.82715 10.5781C7.30349 11.3359 6.98786 12.2485 6.84375 13.2539C7.7034 12.7433 8.65312 12.2519 9.72266 11.999C10.7177 11.7638 11.7506 11.7066 12.7461 11.7041C13.2449 11.7028 13.7435 11.716 14.2266 11.7285C14.7131 11.7411 15.183 11.7529 15.6416 11.7529C16.0557 11.7529 16.3914 12.0889 16.3916 12.5029C16.3916 12.6678 16.3711 12.9281 16.3604 13.123C16.3479 13.3489 16.3417 13.5759 16.3564 13.7832C16.3718 13.9985 16.4068 14.1391 16.4434 14.2168C16.4473 14.2251 16.4513 14.2313 16.4541 14.2363C16.5165 14.2527 16.5421 14.2493 16.5586 14.2451C16.5923 14.2366 16.6641 14.2088 16.8018 14.1074C16.9421 14.0041 17.1072 13.8589 17.3369 13.6484C17.5586 13.4454 17.83 13.1918 18.1543 12.9102L19.9014 11.3936C20.4534 10.9141 20.8092 10.6029 21.0361 10.3457C21.2528 10.1001 21.25 10.0135 21.25 9.99609C21.25 9.97948 21.2544 9.89293 21.0361 9.64551C20.8092 9.3883 20.4535 9.07715 19.9014 8.59766L18.1543 7.08106C17.4773 6.49314 17.1049 6.13192 16.7803 5.90332C16.5716 5.75642 16.4925 5.74469 16.4561 5.75098C16.4529 5.75639 16.4484 5.7638 16.4434 5.77442Z" fill="#5A5D67"/>
</svg>
