<svg width="20" height="20" viewBox="0 0 20 20" fill="none" xmlns="http://www.w3.org/2000/svg">
<path d="M14.8203 3.36719C15.2197 2.96813 15.8673 2.96811 16.2666 3.36719C16.666 3.76659 16.666 4.41505 16.2666 4.81445L11.2627 9.81738L16.2666 14.8223C16.666 15.2217 16.666 15.8692 16.2666 16.2686C15.8672 16.6679 15.2197 16.6679 14.8203 16.2686L9.81543 11.2646L4.8125 16.2686C4.4131 16.668 3.76463 16.668 3.36523 16.2686C2.96616 15.8692 2.96618 15.2216 3.36523 14.8223L8.36914 9.81738L3.36523 4.81445C2.96585 4.41505 2.96584 3.76658 3.36523 3.36719C3.76463 2.96779 4.4131 2.9678 4.8125 3.36719L9.81543 8.37109L14.8203 3.36719Z" fill="black"/>
</svg>
