<svg width="20" height="20" viewBox="0 0 20 20" fill="none" xmlns="http://www.w3.org/2000/svg">
<path fill-rule="evenodd" clip-rule="evenodd" d="M3.45538 2.79596C5.93953 1.27219 8.16805 1.87948 9.51433 2.89051C9.73581 3.05683 9.88782 3.17067 10.001 3.24754C10.1141 3.17067 10.2661 3.05683 10.4876 2.89051C11.8339 1.87948 14.0624 1.27219 16.5466 2.79596C18.2643 3.8496 19.2308 6.0505 18.8916 8.57926C18.5509 11.1202 16.9062 13.9941 13.4232 16.5721C13.3941 16.5936 13.3652 16.615 13.3365 16.6363C12.127 17.532 11.326 18.1253 10.001 18.1253C8.67593 18.1253 7.87494 17.532 6.66545 16.6363C6.63679 16.615 6.60789 16.5936 6.57876 16.5721C3.09575 13.9941 1.4511 11.1202 1.11031 8.57926C0.771155 6.0505 1.73768 3.8496 3.45538 2.79596ZM9.87035 3.32808C9.86768 3.32929 9.86815 3.32889 9.87152 3.32754C9.87108 3.32774 9.8707 3.32792 9.87035 3.32808ZM10.1304 3.32754C10.1338 3.32889 10.1343 3.32929 10.1316 3.32808C10.1313 3.32792 10.1309 3.32774 10.1304 3.32754ZM8.7637 3.89004C7.7666 3.14123 6.09424 2.64371 4.10897 3.86148C2.89386 4.60682 2.06217 6.27288 2.34922 8.4131C2.63462 10.5411 4.04058 13.1383 7.32242 15.5674C8.64089 16.5432 9.12212 16.8753 10.001 16.8753C10.8798 16.8753 11.3611 16.5432 12.6795 15.5674C15.9614 13.1383 17.3673 10.5411 17.6527 8.4131C17.9398 6.27288 17.1081 4.60682 15.893 3.86148C13.9077 2.64371 12.2354 3.14123 11.2382 3.89004L11.2208 3.90313C10.9955 4.07235 10.802 4.2177 10.6471 4.31906C10.5667 4.37174 10.4776 4.42539 10.3851 4.46718C10.2973 4.50684 10.1625 4.55645 10.001 4.55645C9.83945 4.55645 9.70463 4.50684 9.61686 4.46718C9.52439 4.42539 9.43528 4.37174 9.35482 4.31906C9.19999 4.2177 9.00643 4.07233 8.7811 3.9031L8.7637 3.89004Z" fill="#707070"/>
</svg>
