<svg width="64" height="64" viewBox="0 0 64 64" fill="none" xmlns="http://www.w3.org/2000/svg">
<path d="M39.0645 27.4463C41.4331 27.2944 43.9028 27.2947 46.2666 27.4463C53.9275 27.9377 60.0887 33.9208 60.5967 41.5049C60.6885 42.8756 60.6885 44.2924 60.5967 45.6631C60.4057 48.5135 59.1319 51.0386 57.7715 53.0303C57.7023 53.1771 57.6575 53.4044 57.7227 53.7881C57.7989 54.2368 58.0088 54.7824 58.3398 55.3877L58.3867 55.4727C58.6252 55.9081 58.8999 56.4092 59.0645 56.8535C59.2439 57.3383 59.5078 58.3141 58.9111 59.2959C58.3818 60.1668 57.5519 60.4525 56.9941 60.5566C56.5497 60.6396 56.0226 60.6517 55.6035 60.6611L55.5137 60.6631C53.0736 60.7204 51.3106 60.0349 49.9082 59.0371L49.6953 58.8857C49.5683 58.9354 49.4234 58.9922 49.2539 59.0596C48.3061 59.4362 47.2427 59.6581 46.2666 59.7207C43.9028 59.8723 41.4331 59.8726 39.0645 59.7207C31.4036 59.2293 25.2424 53.247 24.7344 45.6631C24.6426 44.2924 24.6426 42.8756 24.7344 41.5049C25.2423 33.9208 31.4035 27.9377 39.0645 27.4463ZM25.0322 3.5127C28.7122 3.2727 32.5786 3.2727 36.2852 3.5127C47.9118 4.28603 57.1391 13.6195 57.8857 25.3262C57.9391 26.1794 57.9653 26.606 57.832 26.8193C57.6721 27.0593 57.4587 27.1657 57.2188 27.1924C56.9521 27.219 56.5519 26.9529 55.752 26.4463C53.0586 24.7396 49.8854 23.6733 46.5254 23.46C43.9921 23.2733 41.352 23.2733 38.792 23.46C29.2187 24.0733 21.3783 31.5664 20.7383 41.2197C20.6316 42.793 20.6316 44.3665 20.7383 45.9131C20.845 47.6196 21.1926 49.22 21.6992 50.7666C22.0991 51.9129 22.2855 52.473 22.0723 52.793C21.9923 52.9263 21.8853 53.0062 21.752 53.0596C21.4053 53.2462 20.8188 52.9792 19.6455 52.3926C19.6455 52.3926 19.6987 52.4199 19.6455 52.4199C19.6188 52.3933 19.6722 52.4192 19.6455 52.3926H19.4854C19.432 52.3926 19.3522 52.3933 19.2988 52.4199C19.1122 52.4466 19.0056 52.5263 18.7656 52.7129L18.5518 52.873C16.5252 54.3663 13.9653 55.4061 10.3389 55.3262H10.2324C9.53909 55.2995 8.79204 55.2727 8.17871 55.166C7.43207 55.0327 6.49876 54.6595 5.91211 53.6729C5.27211 52.5795 5.53832 51.486 5.77832 50.8193C6.01831 50.1794 6.39202 49.4595 6.79199 48.7129L6.8457 48.6064C8.01904 46.3664 8.33892 44.6059 7.72559 43.4326C5.61893 40.2593 3.72595 36.3125 3.43262 31.9658C3.2993 29.7792 3.29929 27.5127 3.43262 25.3262C4.1793 13.6195 13.4056 4.28603 25.0322 3.5127Z" fill="#616161"/>
</svg>
