<svg width="24" height="24" viewBox="0 0 24 24" fill="none" xmlns="http://www.w3.org/2000/svg">
<path d="M8.55723 17.3962C8.7186 17.2743 9.20035 16.9104 9.47806 16.6936C10.0343 16.2596 10.7734 15.6664 11.5103 15.0266C12.2509 14.3836 12.9722 13.7081 13.5024 13.108C13.7683 12.8071 13.9703 12.5427 14.1018 12.3246C14.2255 12.1194 14.2512 11.9983 14.2512 11.9983C14.2512 11.9983 14.2255 11.8806 14.1018 11.6755C13.9703 11.4574 13.7683 11.193 13.5024 10.8921C12.9722 10.292 12.2509 9.6165 11.5102 8.97346C10.7733 8.33365 10.0342 7.74054 9.47802 7.30647C9.20031 7.08974 8.71925 6.72634 8.55787 6.60445C8.22435 6.35882 8.15241 5.88881 8.39805 5.55529C8.64368 5.22177 9.11318 5.15052 9.4467 5.39615L9.44924 5.39807C9.6185 5.52591 10.1175 5.90281 10.4009 6.12394C10.9696 6.56782 11.7306 7.17825 12.4937 7.84081C13.253 8.50013 14.0317 9.22579 14.6265 9.89891C14.9231 10.2346 15.1898 10.5749 15.3864 10.9011C15.5707 11.2066 15.7519 11.5935 15.7519 12.0001C15.7519 12.4066 15.5707 12.7935 15.3864 13.099C15.1898 13.4252 14.9231 13.7655 14.6265 14.1012C14.0317 14.7743 13.253 15.5 12.4937 16.1593C11.7306 16.8218 10.9697 17.4323 10.4009 17.8762C10.1174 18.0974 9.61832 18.4744 9.44941 18.6019L9.44723 18.6036C9.11371 18.8492 8.64373 18.7783 8.3981 18.4448C8.15247 18.1113 8.22374 17.6418 8.55723 17.3962Z" fill="#969696"/>
</svg>
