<svg width="24" height="24" viewBox="0 0 24 24" fill="none" xmlns="http://www.w3.org/2000/svg">
<path d="M11.5027 1.4118C10.5926 1.32817 8.81159 1.19889 7.06909 1.27117C6.19922 1.30726 5.31403 1.39439 4.54077 1.57195C3.79218 1.74389 3.03325 2.02483 2.52905 2.52899C2.02485 3.03319 1.74396 3.79209 1.57202 4.5407C1.39444 5.31398 1.30733 6.19913 1.27124 7.06902C1.19895 8.81154 1.32823 10.5925 1.41186 11.5026C1.46411 12.0704 1.69652 12.5951 2.05932 13.0173C4.76856 16.1695 7.57689 19.0392 10.6433 21.7848C12.0464 23.0412 14.1421 23.0538 15.6033 21.9225C18.0126 20.057 20.0571 18.0126 21.9226 15.6032C23.0539 14.1421 23.0412 12.0464 21.7849 10.6432C19.0392 7.57674 16.1687 4.76857 13.0164 2.05926C12.5943 1.69662 12.0703 1.46405 11.5027 1.4118ZM16.2927 13.2927C16.6832 12.9023 17.3163 12.9024 17.7068 13.2927C18.0973 13.6831 18.0972 14.3162 17.7068 14.7067L14.7068 17.7067C14.3163 18.0972 13.6832 18.0972 13.2927 17.7067C12.9024 17.3162 12.9023 16.6831 13.2927 16.2927L16.2927 13.2927ZM6.49975 4.99969C7.32806 4.99969 7.99956 5.67142 7.99975 6.49969C7.99975 7.32812 7.32818 7.99969 6.49975 7.99969C5.67139 7.99961 4.99975 7.32806 4.99975 6.49969C4.99994 5.67147 5.67151 4.99977 6.49975 4.99969Z" fill="#7C57FC"/>
</svg>
