<svg preserveAspectRatio="none" width="100%" height="100%" overflow="visible" style="display: block;" viewBox="0 0 11.0917 11.0917" fill="none" xmlns="http://www.w3.org/2000/svg">
<g id="elements">
<path id="Icon" fill-rule="evenodd" clip-rule="evenodd" d="M5.54583 0.15C5.94854 0.15 6.275 0.476459 6.275 0.879167V4.81667H10.2125C10.6152 4.81667 10.9417 5.14313 10.9417 5.54583C10.9417 5.94854 10.6152 6.275 10.2125 6.275H6.275V10.2125C6.275 10.6152 5.94854 10.9417 5.54583 10.9417C5.14313 10.9417 4.81667 10.6152 4.81667 10.2125V6.275H0.879167C0.476459 6.275 0.15 5.94854 0.15 5.54583C0.15 5.14313 0.476459 4.81667 0.879167 4.81667H4.81667V0.879167C4.81667 0.476459 5.14313 0.15 5.54583 0.15Z" fill="var(--fill-0, #6A40F7)" stroke="var(--stroke-0, white)" stroke-width="0.3" stroke-linecap="round" stroke-linejoin="round"/>
</g>
</svg>
