<svg width="28" height="28" viewBox="0 0 28 28" fill="none" xmlns="http://www.w3.org/2000/svg">
<path fill-rule="evenodd" clip-rule="evenodd" d="M13.9987 3.20801C14.8041 3.20801 15.457 3.86093 15.457 4.66634V12.5413H23.332C24.1374 12.5413 24.7904 13.1943 24.7904 13.9997C24.7904 14.8051 24.1374 15.458 23.332 15.458H15.457V23.333C15.457 24.1384 14.8041 24.7913 13.9987 24.7913C13.1933 24.7913 12.5404 24.1384 12.5404 23.333V15.458H4.66536C3.85995 15.458 3.20703 14.8051 3.20703 13.9997C3.20703 13.1943 3.85995 12.5413 4.66536 12.5413H12.5404V4.66634C12.5404 3.86093 13.1933 3.20801 13.9987 3.20801Z" fill="white"/>
</svg>
