<svg width="20" height="20" viewBox="0 0 20 20" fill="none" xmlns="http://www.w3.org/2000/svg">
<path fill-rule="evenodd" clip-rule="evenodd" d="M9.9987 1.04199C11.553 1.04199 12.7793 1.04089 13.7365 1.16488C14.7094 1.29089 15.4981 1.55613 16.1226 2.15772C16.7502 2.76241 17.0303 3.5314 17.1626 4.47949C17.2921 5.40723 17.2904 6.59475 17.2904 8.09033V14.984C17.2904 15.9227 17.292 16.7016 17.2025 17.2839C17.1116 17.8746 16.8996 18.4498 16.3154 18.7617C15.7945 19.0398 15.2217 18.9833 14.7358 18.8358C14.2444 18.6866 13.7446 18.4159 13.2873 18.127C12.8257 17.8352 12.373 17.5023 11.9795 17.2114C11.5724 16.9105 11.2472 16.6694 11.0013 16.5213C10.6683 16.3208 10.458 16.1947 10.2876 16.1144C10.1304 16.0404 10.0539 16.029 9.9987 16.029C9.94346 16.029 9.86702 16.0404 9.7098 16.1144C9.53937 16.1947 9.32907 16.3208 8.9961 16.5213C8.75025 16.6694 8.425 16.9105 8.01791 17.2114C7.62437 17.5023 7.17173 17.8352 6.71013 18.127C6.2528 18.4159 5.75296 18.6866 5.26156 18.8358C4.77575 18.9833 4.20291 19.0398 3.68197 18.7617C3.0978 18.4498 2.8858 17.8746 2.79492 17.2839C2.7054 16.7016 2.70703 15.9227 2.70703 14.984V8.09033C2.70703 6.59475 2.70534 5.40723 2.8348 4.47949C2.96712 3.5314 3.24722 2.76241 3.87484 2.15772C4.49926 1.55613 5.28803 1.29089 6.26091 1.16488C7.21811 1.04089 8.44442 1.04199 9.9987 1.04199ZM9.9987 2.29199C8.41031 2.29199 7.27944 2.29313 6.42123 2.4043C5.57891 2.51342 5.09421 2.71886 4.74235 3.05778C4.39372 3.39367 4.18517 3.85196 4.07341 4.65283C3.95884 5.47411 3.95703 6.55831 3.95703 8.09033V14.984C3.95703 15.9668 3.95883 16.6297 4.03028 17.0942C4.10034 17.5495 4.21045 17.627 4.27035 17.659C4.37295 17.7138 4.56033 17.743 4.8986 17.6403C5.23126 17.5393 5.6198 17.3374 6.04199 17.0706C6.45993 16.8065 6.87843 16.4994 7.2749 16.2064C7.6577 15.9235 8.04199 15.6368 8.35156 15.4504C8.66272 15.263 8.93551 15.0977 9.17676 14.984C9.43125 14.8642 9.69546 14.779 9.9987 14.779C10.3019 14.779 10.5661 14.8642 10.8206 14.984C11.0619 15.0977 11.3347 15.263 11.6458 15.4504C11.9554 15.6368 12.3397 15.9235 12.7225 16.2064C13.119 16.4994 13.5375 16.8065 13.9554 17.0706C14.3776 17.3374 14.7661 17.5393 15.0988 17.6403C15.4371 17.743 15.6244 17.7138 15.7271 17.659C15.787 17.627 15.8971 17.5495 15.9671 17.0942C16.0386 16.6297 16.0404 15.9668 16.0404 14.984V8.09033C16.0404 6.55831 16.0386 5.47411 15.924 4.65283C15.8122 3.85196 15.6037 3.39367 15.255 3.05778C14.9032 2.71886 14.4185 2.51342 13.5762 2.4043C12.718 2.29313 11.5871 2.29199 9.9987 2.29199Z" fill="#5A5D67"/>
</svg>
