<svg width="18" height="18" viewBox="0 0 18 18" fill="none" xmlns="http://www.w3.org/2000/svg">
<path d="M11.25 14.25C11.25 13.8358 11.5858 13.5 12 13.5C12.4141 13.5002 12.75 13.8359 12.75 14.25V15.5625H11.25V14.25ZM11.25 9.5625C10.9393 9.5625 10.6875 9.31066 10.6875 9C10.6875 8.68934 10.9393 8.4375 11.25 8.4375H12.75C13.0606 8.43751 13.3125 8.68935 13.3125 9C13.3125 9.31065 13.0606 9.56249 12.75 9.5625L11.25 9.5625ZM11.25 11.8125C10.9393 11.8125 10.6875 11.5607 10.6875 11.25C10.6875 10.9393 10.9393 10.6875 11.25 10.6875L12.75 10.6875C13.0606 10.6875 13.3125 10.9393 13.3125 11.25C13.3125 11.5607 13.0606 11.8125 12.75 11.8125L11.25 11.8125ZM16.3125 9C16.3125 8.52245 16.2887 8.1005 16.21 7.74219C16.1298 7.37757 15.9853 7.04386 15.7207 6.7793C15.4561 6.51474 15.1224 6.37016 14.7578 6.29004C14.3995 6.21133 13.9775 6.1875 13.5 6.1875H10.5C10.0225 6.1875 9.6005 6.21132 9.24219 6.29004C8.87756 6.37016 8.54387 6.51473 8.2793 6.7793C8.01473 7.04386 7.87016 7.37757 7.79004 7.74219C7.71132 8.1005 7.6875 8.52245 7.6875 9L7.6875 15.5625H6.5625L6.5625 9C6.5625 8.49785 6.58631 7.97939 6.69141 7.50098C6.80064 7.00374 7.01919 6.4476 7.4834 5.9834C7.94761 5.51919 8.50374 5.30064 9.00098 5.19141C9.47939 5.08631 9.99785 5.0625 10.5 5.0625H11.3623C11.5739 5.0625 11.6802 5.0625 11.7461 4.99707C11.812 4.93117 11.8125 4.82444 11.8125 4.6123V3.75C11.8125 3.27245 11.7887 2.8505 11.71 2.49219C11.6298 2.12757 11.4853 1.79386 11.2207 1.5293C10.9561 1.26474 10.6224 1.12016 10.2578 1.04004C9.8995 0.961327 9.47754 0.9375 9 0.9375H4.5C4.02245 0.9375 3.6005 0.961325 3.24219 1.04004C2.87756 1.12016 2.54387 1.26473 2.2793 1.5293C2.01473 1.79386 1.87016 2.12757 1.79004 2.49219C1.71132 2.8505 1.6875 3.27245 1.6875 3.75L1.6875 3.9375H3.75C4.0605 3.93769 4.3125 4.18946 4.3125 4.5C4.3125 4.81054 4.0605 5.06231 3.75 5.0625H1.6875V6.9375H3.75C4.0605 6.93769 4.3125 7.18946 4.3125 7.5C4.3125 7.81054 4.0605 8.06231 3.75 8.0625H1.6875L1.6875 9.9375H3.75C4.0605 9.93769 4.3125 10.1895 4.3125 10.5C4.3125 10.8105 4.0605 11.0623 3.75 11.0625H1.6875L1.6875 15.5625C1.27329 15.5625 0.9375 15.8983 0.9375 16.3125C0.9375 16.7267 1.27329 17.0625 1.6875 17.0625L16.3125 17.0625C16.7267 17.0625 17.0625 16.7267 17.0625 16.3125C17.0625 15.8983 16.7267 15.5625 16.3125 15.5625V9Z" fill="#7C57FC"/>
</svg>
