<svg width="18" height="18" viewBox="0 0 18 18" fill="none" xmlns="http://www.w3.org/2000/svg">
<path fill-rule="evenodd" clip-rule="evenodd" d="M8.97644 0.9375H9.02357H9.02358C9.47663 0.937494 9.85168 0.937488 10.1614 0.963864C10.4859 0.991506 10.7792 1.05052 11.0621 1.19056C11.566 1.44006 11.8846 1.83658 12.1083 2.23425C12.2816 2.54253 12.4162 2.88886 12.5303 3.18238C12.5572 3.25165 12.583 3.31797 12.6079 3.38017L12.7184 3.65651C12.7728 3.79245 12.8 3.86042 12.8562 3.89902C12.9124 3.93762 12.9864 3.93859 13.1344 3.94052C13.8254 3.94956 14.3475 3.98864 14.806 4.18109C15.5169 4.47946 16.0939 5.02974 16.4304 5.7266C16.5805 6.03751 16.6569 6.37152 16.7075 6.75941C16.7569 7.13757 16.7856 7.60421 16.8216 8.18804L16.9417 10.1342C17.0316 11.5918 17.1026 12.7436 17.0363 13.647C16.9682 14.5747 16.7506 15.3313 16.1897 15.9365C15.6276 16.5428 14.8927 16.8116 13.9796 16.9389C13.0925 17.0625 11.9525 17.0625 10.5127 17.0625H7.48705C6.04733 17.0625 4.90726 17.0625 4.02021 16.9389C3.10711 16.8116 2.37223 16.5428 1.81015 15.9365C1.24916 15.3313 1.03164 14.5747 0.96352 13.647C0.897191 12.7436 0.968237 11.5918 1.05814 10.1342L1.17818 8.18791C1.21418 7.60414 1.24295 7.13754 1.29227 6.75941C1.34287 6.37152 1.41931 6.03751 1.56944 5.7266C1.90593 5.02974 2.4829 4.47946 3.19375 4.18109C3.6523 3.98863 4.17455 3.94955 4.86556 3.94052C5.01356 3.93859 5.08756 3.93762 5.14378 3.89902C5.20001 3.86042 5.22719 3.79245 5.28157 3.65651L5.39211 3.38017C5.41698 3.31798 5.44276 3.25166 5.46968 3.1824L5.46968 3.1824L5.46969 3.18238C5.58377 2.88886 5.71838 2.54252 5.89176 2.23425C6.11541 1.83658 6.43399 1.44006 6.93794 1.19056C7.22082 1.05052 7.51409 0.991506 7.83865 0.963864C8.14833 0.937488 8.52338 0.937494 8.97643 0.9375H8.97644ZM8.25147 4.5C8.25147 4.08579 8.58575 3.75 8.99811 3.75C9.40753 3.75 9.75147 4.08593 9.75147 4.5C9.75147 4.91407 9.40753 5.25 8.99811 5.25C8.58575 5.25 8.25147 4.91421 8.25147 4.5ZM9.00147 7.5C7.34461 7.5 6.00147 8.84315 6.00147 10.5C6.00147 12.1569 7.34461 13.5 9.00147 13.5C10.6583 13.5 12.0015 12.1569 12.0015 10.5C12.0015 8.84315 10.6583 7.5 9.00147 7.5Z" fill="#7C57FC"/>
</svg>
