<svg width="20" height="20" viewBox="0 0 20 20" fill="none" xmlns="http://www.w3.org/2000/svg">
<path fill-rule="evenodd" clip-rule="evenodd" d="M13.7513 8.54199C16.6011 8.54199 18.9596 10.7593 18.9596 13.5518C18.9596 14.8895 18.414 16.1011 17.5339 16.995C17.4978 17.0315 17.4779 17.0651 17.4696 17.0861C17.4639 17.1004 17.4656 17.1034 17.4655 17.0983C17.5227 17.3927 17.6503 17.6649 17.8333 17.8901C17.9724 18.0612 18.0111 18.2935 17.9351 18.5005C17.8589 18.7073 17.6797 18.8589 17.4631 18.8993C16.6608 19.0485 15.8306 18.9137 15.1193 18.5355C15.0312 18.4886 14.9727 18.4585 14.9297 18.437C14.8895 18.4437 14.8346 18.4534 14.7531 18.4688C14.4229 18.5307 14.0876 18.5611 13.7513 18.5607C10.9015 18.5607 8.54298 16.3442 8.54297 13.5518C8.54297 10.7593 10.9015 8.54199 13.7513 8.54199ZM13.7513 9.79199C11.5391 9.79199 9.79297 11.5013 9.79297 13.5518C9.79298 15.6022 11.5399 17.3115 13.7521 17.3115C14.0107 17.3118 14.2687 17.2876 14.5228 17.2399C14.6215 17.2214 14.7181 17.203 14.7987 17.1919C14.8567 17.1839 14.9374 17.1754 15.0282 17.1797L15.1217 17.1886L15.217 17.209C15.3079 17.2334 15.385 17.2679 15.4375 17.2928C15.5146 17.3294 15.6074 17.3795 15.7061 17.432C15.8994 17.5348 16.1064 17.6083 16.3188 17.6541C16.2858 17.5464 16.2579 17.4367 16.2367 17.3254C16.1398 16.8121 16.3868 16.3785 16.6427 16.1185C17.3076 15.4434 17.7096 14.5407 17.7096 13.5518C17.7096 11.5013 15.9635 9.79199 13.7513 9.79199Z" fill="#5A5D67"/>
<path d="M9.23389 1.04199C13.2093 1.04199 16.5565 3.74817 17.2808 7.37826C17.3482 7.7167 17.1285 8.04559 16.79 8.11312C16.4516 8.18054 16.1227 7.96084 16.0552 7.6224C15.4541 4.61015 12.6477 2.29199 9.23389 2.29199C5.36931 2.29206 2.29297 5.25599 2.29297 8.84229C2.29304 10.5697 3.00175 12.1443 4.16878 13.319C4.53542 13.6882 4.85958 14.272 4.73193 14.9425L4.73112 14.9434C4.65815 15.3231 4.53754 15.69 4.37467 16.0363C5.00956 16.0071 5.63593 15.8389 6.20003 15.5415C6.36634 15.4538 6.50965 15.3776 6.62646 15.3226C6.73637 15.2708 6.87873 15.2094 7.03418 15.1859C7.23362 15.1557 7.4414 15.1892 7.6071 15.2176C7.94724 15.276 8.17565 15.5993 8.11735 15.9395C8.05895 16.2797 7.73571 16.5081 7.39551 16.4497C7.31134 16.4353 7.25997 16.4282 7.22624 16.4253L7.22461 16.4245C7.21164 16.4297 7.19071 16.4391 7.1595 16.4538C7.07426 16.4939 6.95989 16.5541 6.78271 16.6475C5.68883 17.2241 4.41299 17.4285 3.18245 17.2017C2.96495 17.1616 2.78482 17.009 2.70882 16.8013C2.63288 16.5936 2.67194 16.3611 2.81217 16.1901C3.15957 15.7665 3.39843 15.2563 3.50391 14.7074C3.52694 14.5831 3.47589 14.395 3.28174 14.1995C1.89835 12.807 1.04304 10.9221 1.04297 8.84229C1.04297 4.50395 4.7423 1.04206 9.23389 1.04199Z" fill="#5A5D67"/>
</svg>
