<svg width="24" height="24" viewBox="0 0 24 24" fill="none" xmlns="http://www.w3.org/2000/svg">
<path fill-rule="evenodd" clip-rule="evenodd" d="M12.1233 1.2508C12.5848 1.2513 13.0006 1.25176 13.3473 1.28277C13.9124 1.33331 14.4435 1.50576 14.8996 1.84591C15.2369 2.09748 15.4712 2.40542 15.6714 2.73893C15.8569 3.04798 16.0437 3.4333 16.2555 3.8704L16.6819 4.75L21 4.7507C21.5523 4.7507 22 5.19842 22 5.7507C22 6.30299 21.5523 6.7507 21 6.7507H20.1275L19.5825 15.6564C19.5058 16.9096 19.4449 17.9041 19.3202 18.6984C19.1922 19.5131 18.9874 20.1915 18.5777 20.7849C18.2029 21.3278 17.7204 21.786 17.1608 22.1303C16.5491 22.5067 15.8661 22.6713 15.0531 22.75H8.92739C8.1135 22.671 7.42972 22.5061 6.8176 22.129C6.25763 21.7841 5.77494 21.3251 5.40028 20.7813C4.99073 20.1869 4.78656 19.5075 4.65957 18.6917C4.53574 17.8962 4.47623 16.9003 4.40122 15.6453L3.86958 6.7507H3C2.44772 6.7507 2 6.30299 2 5.7507C2 5.19842 2.44772 4.7507 3 4.7507L7.41008 4.75L7.76556 3.97016C7.97212 3.51696 8.15403 3.11782 8.33676 2.79754C8.53387 2.45207 8.76721 2.13237 9.10861 1.87046C9.57032 1.51626 10.1121 1.33669 10.6899 1.28409C11.0835 1.24826 11.4799 1.24931 11.8752 1.25035L12.1233 1.2508ZM13.5 15.4844H10.5C10.0858 15.4844 9.75 15.8202 9.75 16.2344C9.75 16.6486 10.0858 16.9844 10.5 16.9844H13.5C13.9142 16.9844 14.25 16.6486 14.25 16.2344C14.25 15.8202 13.9142 15.4844 13.5 15.4844ZM15 11.5664H9C8.58579 11.5664 8.25 11.9022 8.25 12.3164C8.25 12.7306 8.58579 13.0664 9 13.0664H15C15.4142 13.0664 15.75 12.7306 15.75 12.3164C15.75 11.9022 15.4142 11.5664 15 11.5664ZM12.2269 3.25079L12.0345 3.2507C11.4837 3.2507 11.137 3.25166 10.8712 3.27585C10.4971 3.30991 10.2639 3.45568 10.0739 3.78866C9.94948 4.00676 9.81401 4.29867 9.60808 4.75H14.4593C14.2329 4.28301 14.0879 3.98696 13.9566 3.7682C13.7643 3.44787 13.5339 3.30745 13.1691 3.27482C12.9422 3.25453 12.6551 3.25128 12.2269 3.25079Z" fill="#DF0000"/>
</svg>
