<svg width="20" height="20" viewBox="0 0 20 20" fill="none" xmlns="http://www.w3.org/2000/svg">
<path fill-rule="evenodd" clip-rule="evenodd" d="M10.4877 2.89074C11.834 1.87985 14.0626 1.27204 16.5465 2.79553C18.2641 3.84915 19.2309 6.05058 18.8919 8.57922C18.551 11.1201 16.9059 13.9937 13.4231 16.5716C12.1647 17.503 11.3574 18.125 10.0011 18.1251C8.64463 18.1251 7.8375 17.503 6.57902 16.5716C3.0961 13.9936 1.45109 11.1201 1.11027 8.57922C0.77118 6.05052 1.73799 3.84914 3.45565 2.79553C5.93959 1.27215 8.16822 1.87978 9.51441 2.89074C9.73521 3.05656 9.88803 3.16872 10.0011 3.24556C10.1141 3.16872 10.267 3.05646 10.4877 2.89074ZM15.893 3.86161C13.9079 2.64394 12.2352 3.14138 11.238 3.89009C11.0055 4.06473 10.8059 4.21505 10.6472 4.31896C10.5668 4.37159 10.4776 4.42531 10.3852 4.46708C10.2975 4.50672 10.1625 4.55655 10.0011 4.55659C9.83961 4.55659 9.70472 4.50673 9.61695 4.46708C9.52451 4.4253 9.43535 4.37162 9.3549 4.31896C9.19618 4.21505 8.99672 4.0648 8.76408 3.89009C7.76702 3.14132 6.0943 2.64403 4.10914 3.86161C2.89409 4.60696 2.06272 6.27309 2.3497 8.4132C2.63519 10.5412 4.04115 13.1384 7.32284 15.5673C8.64106 16.543 9.12228 16.8751 10.0011 16.8751C10.8797 16.8751 11.3611 16.543 12.6793 15.5673C15.9608 13.1384 17.3669 10.5411 17.6524 8.4132C17.9394 6.27317 17.108 4.60697 15.893 3.86161Z" fill="#5A5D67"/>
</svg>
