<svg width="20" height="20" viewBox="0 0 20 20" fill="none" xmlns="http://www.w3.org/2000/svg">
<path d="M9.9943 13.958C10.5696 13.958 11.036 14.4244 11.036 14.9997C11.036 15.575 10.5696 16.0413 9.9943 16.0413H9.98698C9.41168 16.0413 8.94531 15.575 8.94531 14.9997C8.94531 14.4244 9.41168 13.958 9.98698 13.958H9.9943Z" fill="#5A5D67"/>
<path d="M10.0008 8.95801C10.5761 8.95801 11.0425 9.42438 11.0425 9.99967C11.0425 10.575 10.5761 11.0413 10.0008 11.0413H9.99349C9.41819 11.0413 8.95182 10.575 8.95182 9.99967C8.95182 9.42438 9.41819 8.95801 9.99349 8.95801H10.0008Z" fill="#5A5D67"/>
<path d="M10.0073 3.95801C10.5826 3.95801 11.049 4.42438 11.049 4.99967C11.049 5.57497 10.5826 6.04134 10.0073 6.04134H10C9.4247 6.04134 8.95833 5.57497 8.95833 4.99967C8.95833 4.42438 9.4247 3.95801 10 3.95801H10.0073Z" fill="#5A5D67"/>
</svg>
