<svg width="20" height="20" viewBox="0 0 20 20" fill="none" xmlns="http://www.w3.org/2000/svg">
<path d="M8.80664 1.875C9.15175 1.87446 9.43183 2.15406 9.43246 2.49919C9.43291 2.84411 9.154 3.1242 8.80908 3.125C7.19054 3.12791 6.01608 3.15055 5.11605 3.2959C4.23414 3.43836 3.68445 3.68911 3.27116 4.10156C2.82608 4.54582 2.56878 5.14813 2.43294 6.15641C2.29465 7.18293 2.29297 8.53293 2.29297 10.4167C2.29297 12.3001 2.2947 13.6497 2.43294 14.6761C2.56879 15.6845 2.82599 16.2875 3.27116 16.7318C3.7165 17.1762 4.32072 17.4335 5.33171 17.5692C6.36061 17.7072 7.71347 17.7083 9.60091 17.7083C11.4884 17.7083 12.8412 17.7072 13.8701 17.5692C14.8811 17.4335 15.4853 17.1762 15.9307 16.7318C16.5538 16.1099 16.8027 15.1872 16.8771 13.3089C16.8908 12.9641 17.1809 12.6957 17.5257 12.7091C17.8705 12.7228 18.139 13.013 18.1255 13.3577C18.0506 15.2465 17.8082 16.6239 16.8136 17.6164C16.0972 18.3313 15.1853 18.6536 14.0361 18.8078C12.9048 18.9596 11.453 18.9583 9.60091 18.9583C7.74883 18.9583 6.29702 18.9596 5.16569 18.8078C4.01649 18.6536 3.10459 18.3313 2.38818 17.6164C1.67167 16.9013 1.34813 15.9911 1.19352 14.8438C1.04138 13.7144 1.04297 12.2649 1.04297 10.4167C1.04297 8.56841 1.04139 7.11893 1.19352 5.98958C1.34809 4.84223 1.67176 3.93206 2.38818 3.21696C3.05142 2.55507 3.88298 2.22834 4.91667 2.06136C5.93214 1.89737 7.20869 1.87787 8.80664 1.875Z" fill="#5A5D67"/>
<path fill-rule="evenodd" clip-rule="evenodd" d="M13.3289 3.60352C13.8775 3.4362 14.3268 3.63091 14.7051 3.8973C15.0444 4.13623 15.4647 4.53592 15.9494 4.95687L17.4053 6.22152C17.8378 6.59713 18.2108 6.91948 18.4681 7.2111C18.7326 7.51098 18.9596 7.87039 18.9596 8.33008C18.9595 8.78963 18.7326 9.14842 18.4681 9.44824C18.2107 9.73996 17.838 10.0629 17.4053 10.4386L15.9494 11.7025C15.6953 11.9231 15.4859 12.1179 15.2926 12.2949C15.1062 12.4657 14.9226 12.6314 14.7441 12.7629C14.5636 12.8958 14.3532 13.0211 14.1045 13.0835C13.8431 13.1491 13.585 13.1339 13.3289 13.0558C12.9418 12.9377 12.7051 12.6606 12.5729 12.3796C12.4479 12.1136 12.4024 11.8205 12.3849 11.5747C12.3717 11.3883 12.3739 11.2024 12.38 11.036C12.1942 11.0321 12.0084 11.0277 11.8242 11.023C11.4198 11.0125 11.0215 11.0024 10.6263 11.0034C9.83396 11.0054 9.08387 11.0522 8.3916 11.2158C7.29469 11.4751 6.3835 12.0961 5.32764 12.7433C5.13481 12.8614 4.89344 12.866 4.69613 12.7555C4.49873 12.645 4.3763 12.4365 4.3763 12.2103C4.37632 10.7611 4.67087 9.29775 5.49528 8.10466C6.33245 6.89321 7.66866 6.03014 9.60498 5.71533C10.5222 5.56626 11.4974 5.5899 12.38 5.60628C12.3745 5.44432 12.3721 5.26467 12.3849 5.08464C12.4024 4.83896 12.448 4.54639 12.5729 4.2806C12.7051 3.99941 12.9416 3.72169 13.3289 3.60352ZM13.7041 4.81201C13.6737 4.87676 13.6444 4.99396 13.6317 5.17334C13.6194 5.34609 13.6246 5.5352 13.6349 5.72347C13.6439 5.88596 13.661 6.1028 13.661 6.24024C13.661 6.5854 13.3811 6.86524 13.036 6.86524C11.8703 6.86522 10.8241 6.7834 9.80518 6.94906C8.15842 7.21679 7.14277 7.91965 6.52393 8.81511C6.08755 9.44658 5.82452 10.207 5.70443 11.0449C6.4208 10.6194 7.21223 10.2099 8.10352 9.99919C8.93268 9.80319 9.79348 9.75552 10.623 9.75342C11.0387 9.75237 11.4542 9.76332 11.8568 9.77376C12.2623 9.78428 12.6538 9.7941 13.036 9.79411C13.3811 9.79411 13.6608 10.0741 13.661 10.4191C13.661 10.5565 13.6439 10.7734 13.6349 10.9359C13.6246 11.1241 13.6194 11.3133 13.6317 11.486C13.6444 11.6654 13.6737 11.7826 13.7041 11.8473C13.7074 11.8542 13.7107 11.8594 13.7131 11.8636C13.765 11.8772 13.7864 11.8744 13.8001 11.8709C13.8282 11.8639 13.888 11.8407 14.0028 11.7562C14.1197 11.67 14.2573 11.5491 14.4487 11.3737C14.6334 11.2045 14.8596 10.9931 15.1299 10.7585L16.5858 9.49463C17.0458 9.09511 17.3423 8.83575 17.5314 8.62142C17.7119 8.41675 17.7097 8.34461 17.7096 8.33008C17.7096 8.31623 17.7133 8.24411 17.5314 8.03792C17.3423 7.82358 17.0459 7.56429 16.5858 7.16471L15.1299 5.90088C14.5657 5.41095 14.2554 5.10993 13.9849 4.91943C13.811 4.79702 13.745 4.78724 13.7147 4.79248C13.7121 4.79699 13.7083 4.80317 13.7041 4.81201Z" fill="#5A5D67"/>
</svg>
