<svg width="20" height="20" viewBox="0 0 20 20" fill="none" xmlns="http://www.w3.org/2000/svg">
<path d="M10.001 1.04199C14.9485 1.04199 18.959 5.05245 18.959 10C18.959 14.9476 14.9485 18.958 10.001 18.958C5.05343 18.958 1.04297 14.9476 1.04297 10C1.04297 5.05245 5.05343 1.04199 10.001 1.04199ZM13.9238 6.07715C13.5984 5.75177 13.0706 5.75187 12.7451 6.07715L10.001 8.82129L8.50684 7.32715C8.18138 7.00187 7.6535 7.00177 7.32812 7.32715C7.00276 7.65254 7.00286 8.18042 7.32812 8.50586L8.82227 10L8.57812 10.2441C8.25285 10.5696 8.25274 11.0975 8.57812 11.4229C8.90351 11.7482 9.43139 11.7481 9.75684 11.4229L10.001 11.1787L10.2451 11.4219C10.5706 11.7473 11.0984 11.7473 11.4238 11.4219C11.7488 11.0965 11.7488 10.5695 11.4238 10.2441L11.1797 10L13.9238 7.25586C14.2491 6.93041 14.2492 6.40253 13.9238 6.07715Z" fill="#7C57FC"/>
</svg>
