<svg width="24" height="24" viewBox="0 0 24 24" fill="none" xmlns="http://www.w3.org/2000/svg">
<path d="M21.8619 2.13888C21.4619 1.73888 20.8519 1.63887 20.3419 1.87887L2.60193 10.5488C2.08193 10.7988 1.75195 11.3287 1.75195 11.9087C1.75195 12.5487 2.15195 13.1188 2.75195 13.3288L6.51196 14.6687L17.032 7.90866L8.76196 15.4687V20.8488C8.76196 21.6188 9.39199 22.2487 10.162 22.2487C10.642 22.2487 11.1019 21.9888 11.3519 21.5688L13.902 17.2988L17.6219 18.6289C17.8119 18.6989 18.0019 18.7287 18.2019 18.7287C19.0519 18.7287 19.772 18.1088 19.912 17.2688L22.2319 3.29879C22.3019 2.87879 22.1619 2.44888 21.8619 2.13888Z" fill="#7C57FC"/>
</svg>
