<svg width="25" height="25" viewBox="0 0 25 25" fill="none" xmlns="http://www.w3.org/2000/svg">
<path d="M14.9805 1.58105C19.9707 2.71039 23.6973 7.17073 23.6973 12.5029C23.6973 12.9694 23.6688 13.4297 23.6133 13.8818C23.4268 13.7452 23.2592 13.6421 23.124 13.5723C23.0921 13.5558 23.0593 13.5412 23.0254 13.5293C21.5993 13.0281 20.4832 13.5733 19.667 14.0312C19.5634 14.0894 19.4669 14.1442 19.376 14.1963C19.0844 14.3633 18.8474 14.4987 18.5996 14.6006C18.3014 14.7232 18.0748 14.756 17.8594 14.7129C15.9837 14.3378 14.5701 14.3071 13.5967 14.7568C13.0763 14.9973 12.6938 15.3692 12.4551 15.8496C12.2256 16.3115 12.1504 16.8282 12.1504 17.3408C12.1504 18.2706 12.145 18.5978 12.0771 18.8701C12.0132 19.1266 11.8901 19.3533 11.4834 20.0527C11.2044 20.5325 10.9488 21.1263 10.9834 21.7705C11.0206 22.4609 11.3795 23.058 12.0176 23.5361C12.0785 23.5856 12.1488 23.6395 12.2266 23.6973C6.16822 23.5524 1.30088 18.5961 1.30078 12.5029C1.30078 10.1783 2.01 8.01818 3.22266 6.22852C4.02142 5.83991 4.731 5.795 5.08301 5.84668C5.0934 5.8482 5.10382 5.84948 5.11426 5.85059C5.6777 5.91005 5.99251 6.15981 6.83203 7.04688C8.56677 8.87985 10.4978 9.1951 11.9287 8.43945C12.4502 8.16396 12.7855 7.81122 12.9902 7.39844C13.1568 7.0624 13.2195 6.70907 13.2598 6.47949L13.2725 6.40723C13.3198 6.14775 13.356 6.02875 13.4189 5.93359C13.4701 5.85641 13.5875 5.72444 13.9346 5.58691C14.7175 5.2767 15.2306 4.68501 15.4248 3.96973C15.6092 3.29059 15.4903 2.56488 15.1611 1.9375C15.1135 1.82335 15.0536 1.70372 14.9805 1.58105ZM20.4326 15.3955C21.1673 14.9833 21.7362 14.7556 22.4541 14.9873C22.6222 15.0835 22.9195 15.2977 23.2549 15.6348C22.1206 19.5383 18.9191 22.5624 14.9141 23.4424C14.0513 23.0738 13.335 22.5966 12.9941 22.3174C12.9845 22.3095 12.9749 22.3014 12.9648 22.2939C12.6097 22.0308 12.5524 21.8273 12.5449 21.6885C12.5347 21.4977 12.6107 21.2255 12.835 20.8398L12.8809 20.7607C13.2238 20.1716 13.4707 19.7476 13.5947 19.25C13.7149 18.7674 13.7151 18.2332 13.7148 17.4473V17.3428C13.7149 16.9688 13.7712 16.7165 13.8555 16.5469C13.9306 16.3957 14.0448 16.273 14.2529 16.1768C14.7366 15.9532 15.7103 15.8782 17.5547 16.2471C18.1749 16.3711 18.7273 16.2403 19.1953 16.0479C19.5471 15.9032 19.9034 15.6985 20.21 15.5225C20.2876 15.4779 20.3621 15.4351 20.4326 15.3955ZM12.4482 1.30371C13.2504 1.75974 13.6267 2.30329 13.7256 2.55469C13.7373 2.58439 13.7514 2.61355 13.7666 2.6416C13.9525 2.98418 13.9836 3.31442 13.917 3.55957C13.8562 3.78354 13.6993 3.99775 13.3584 4.13281C12.7892 4.35839 12.3833 4.66605 12.1162 5.06934C11.8611 5.45465 11.7843 5.8577 11.7354 6.12598L11.7275 6.16699C11.6771 6.4442 11.653 6.5775 11.5908 6.70312C11.5451 6.79548 11.4584 6.91969 11.1992 7.05664C10.5476 7.40089 9.35557 7.4399 7.9668 5.97266C7.16446 5.12488 6.49 4.4295 5.29395 4.29785C5.17696 4.28137 5.04818 4.27084 4.91016 4.26758C6.89326 2.43924 9.54057 1.3166 12.4482 1.30371Z" fill="white"/>
</svg>
