<svg width="25" height="25" viewBox="0 0 25 25" fill="none" xmlns="http://www.w3.org/2000/svg">
<path d="M8.00946 15.0762C10.7571 13.3773 14.2423 13.3772 16.9899 15.0762C17.0709 15.1263 17.1738 15.1869 17.2917 15.2559C17.8253 15.5681 18.6718 16.064 19.2497 16.6514C19.6127 17.0204 19.9747 17.5233 20.0407 18.1504C20.1113 18.8212 19.827 19.4421 19.2839 19.9795C18.3865 20.8674 17.2746 21.6141 15.8171 21.6143H9.18231C7.72463 21.6142 6.613 20.8674 5.71552 19.9795C5.17233 19.4421 4.88717 18.8213 4.9577 18.1504C5.0237 17.5234 5.38581 17.0204 5.74872 16.6514C6.32666 16.0639 7.17407 15.5681 7.7077 15.2559C7.8256 15.1869 7.92845 15.1263 8.00946 15.0762ZM2.67645 13.8574C4.21543 12.8265 6.05141 12.5217 7.76532 12.9443C8.1693 13.044 8.37149 13.0943 8.38934 13.2363C8.40705 13.3783 8.20932 13.484 7.81513 13.6953C7.51615 13.8556 7.22284 14.0231 7.00751 14.1562C6.49229 14.4575 5.52198 15.0248 4.82099 15.7373C4.3686 16.1971 3.77453 16.9621 3.66376 18.0137C3.62957 18.3384 3.64493 18.65 3.70087 18.9453C3.75679 19.2406 3.78441 19.3883 3.70966 19.4658C3.63491 19.5433 3.5104 19.5242 3.26142 19.4863C2.19494 19.324 1.47396 18.7423 0.882509 18.1084C0.440406 17.6345 0.211676 17.0898 0.268251 16.5068C0.321437 15.9594 0.614266 15.5186 0.906923 15.1963C1.36888 14.6876 2.04992 14.2562 2.4577 13.998C2.54462 13.943 2.61914 13.8958 2.67645 13.8574ZM17.2341 12.9443C18.9479 12.5218 20.784 12.8266 22.3229 13.8574C22.3802 13.8958 22.4549 13.9431 22.5417 13.998C22.9495 14.2562 23.6306 14.6877 24.0925 15.1963C24.3851 15.5186 24.678 15.9595 24.7311 16.5068C24.7877 17.0898 24.559 17.6345 24.1169 18.1084C23.5256 18.7422 22.8051 19.3239 21.739 19.4863C21.4899 19.5242 21.3645 19.5432 21.2897 19.4658C21.2151 19.3883 21.2436 19.2405 21.2995 18.9453C21.3554 18.65 21.3708 18.3384 21.3366 18.0137C21.2259 16.9622 20.6308 16.1972 20.1784 15.7373C19.4775 15.0249 18.5071 14.4575 17.9919 14.1562C17.7766 14.0231 17.4832 13.8555 17.1843 13.6953C16.79 13.484 16.5932 13.3783 16.611 13.2363C16.6289 13.0944 16.8303 13.0439 17.2341 12.9443ZM6.2497 5.46875C6.42215 5.46877 6.59199 5.48194 6.75751 5.50684C6.95455 5.53647 7.0534 5.55109 7.10419 5.63281C7.15493 5.71487 7.11924 5.82411 7.04852 6.04199C6.86761 6.59945 6.7702 7.19474 6.7702 7.8125C6.7702 9.10403 7.19762 10.2957 7.91864 11.2539C8.05603 11.4365 8.12512 11.5282 8.10419 11.6221C8.08299 11.7161 7.99394 11.7629 7.81708 11.8555C7.34845 12.1008 6.81528 12.2392 6.2497 12.2393C4.38009 12.2393 2.86413 10.7241 2.86395 8.85449C2.86395 6.98478 4.37998 5.46875 6.2497 5.46875ZM12.4997 3.38574C14.9446 3.38591 16.9265 5.36759 16.9265 7.8125C16.9265 10.2574 14.9446 12.2391 12.4997 12.2393C10.0547 12.2393 8.07196 10.2575 8.07196 7.8125C8.07196 5.36749 10.0547 3.38574 12.4997 3.38574ZM18.7497 5.46875C20.6193 5.46891 22.1354 6.98488 22.1354 8.85449C22.1353 10.724 20.6192 12.2391 18.7497 12.2393C18.1842 12.2392 17.6509 12.1007 17.1823 11.8555C17.0055 11.7629 16.9164 11.7161 16.8952 11.6221C16.8743 11.5282 16.9434 11.4365 17.0808 11.2539C17.8017 10.2957 18.2292 9.10398 18.2292 7.8125C18.2292 7.19478 18.1318 6.59942 17.9509 6.04199C17.8802 5.82413 17.8445 5.71487 17.8952 5.63281C17.946 5.55111 18.0456 5.5365 18.2429 5.50684C18.4081 5.48202 18.5775 5.46877 18.7497 5.46875Z" fill="#F64675"/>
</svg>
