<svg preserveAspectRatio="none" width="100%" height="100%" overflow="visible" style="display: block;" viewBox="0 0 23 23" fill="none" xmlns="http://www.w3.org/2000/svg">
<g id="elements">
<path id="Icon" d="M11.5 0C12.0523 0 12.5 0.447715 12.5 1V2.0498C16.9545 2.50927 20.4951 6.04743 20.9609 10.5H22C22.5523 10.5 23 10.9477 23 11.5C23 12.0523 22.5523 12.5 22 12.5H20.9609C20.4951 16.9525 16.9544 20.4897 12.5 20.9492V22C12.5 22.5523 12.0523 23 11.5 23C10.9477 23 10.5 22.5523 10.5 22V20.9453C6.05849 20.4741 2.53127 16.9434 2.06641 12.5H1C0.447715 12.5 0 12.0523 0 11.5C0 10.9477 0.447715 10.5 1 10.5H2.06641C2.53128 6.05658 6.05844 2.52484 10.5 2.05371V1C10.5 0.447715 10.9477 0 11.5 0ZM11.5137 4C7.37154 4 4.01367 7.35786 4.01367 11.5C4.01367 15.6421 7.37154 19 11.5137 19C15.6104 19 18.9373 15.7152 19.0098 11.6357C19.0037 11.5913 19 11.5461 19 11.5C19 11.4536 19.0036 11.408 19.0098 11.3633C18.9368 7.28425 15.6101 4 11.5137 4ZM11.5 7.75C13.5711 7.75 15.25 9.42893 15.25 11.5C15.25 13.5711 13.5711 15.25 11.5 15.25C9.42893 15.25 7.75 13.5711 7.75 11.5C7.75 9.42893 9.42893 7.75 11.5 7.75Z" fill="var(--fill-0, #7C57FC)"/>
</g>
</svg>
