<svg preserveAspectRatio="none" width="100%" height="100%" overflow="visible" style="display: block;" viewBox="0 0 21.5 21.5" fill="none" xmlns="http://www.w3.org/2000/svg">
<path id="Icon" fill-rule="evenodd" clip-rule="evenodd" d="M10.75 0C16.6871 0 21.5 4.81294 21.5 10.75C21.5 16.6871 16.6871 21.5 10.75 21.5C4.81294 21.5 0 16.6871 0 10.75C0 4.81294 4.81294 0 10.75 0ZM10.7545 14.25C10.1957 14.25 9.75 14.6977 9.75 15.25C9.75 15.8023 10.1957 16.25 10.7455 16.25C11.3043 16.25 11.75 15.8023 11.75 15.25C11.75 14.6977 11.3043 14.25 10.7545 14.25ZM10.75 5.25C9.0931 5.25 7.75 6.59315 7.75 8.25C7.75 8.8023 8.19771 9.25 8.75 9.25C9.3023 9.25 9.75 8.8023 9.75 8.25C9.75 7.69772 10.1977 7.25 10.75 7.25C11.3023 7.25 11.75 7.69772 11.75 8.25C11.75 8.45057 11.692 8.63454 11.5922 8.7897C11.4741 8.9732 11.3239 9.1667 11.1389 9.3966L11.0493 9.5076C10.8941 9.6994 10.7187 9.9165 10.5588 10.1362C10.1828 10.653 9.75 11.3684 9.75 12.25C9.75 12.8023 10.1977 13.25 10.75 13.25C11.3023 13.25 11.75 12.8023 11.75 12.25C11.75 12.027 11.8599 11.7473 12.176 11.3129C12.3032 11.1381 12.4404 10.9682 12.5949 10.777L12.6971 10.6504C12.8837 10.4184 13.0933 10.1528 13.2741 9.8719C13.5753 9.4037 13.75 8.8457 13.75 8.25C13.75 6.59315 12.4069 5.25 10.75 5.25Z" fill="var(--fill-0, #7C57FC)"/>
</svg>
