<svg preserveAspectRatio="none" width="100%" height="100%" overflow="visible" style="display: block;" viewBox="0 0 22 21.7424" fill="none" xmlns="http://www.w3.org/2000/svg">
<g id="elements">
<path id="Icon" d="M14.6201 14.8809C14.7237 14.8873 14.8716 14.9036 15.0273 14.9668C15.5015 15.1593 15.7988 15.6125 15.8213 16.1016C15.8286 16.2614 15.7994 16.4018 15.7734 16.5029C15.749 16.5982 15.7138 16.7091 15.6787 16.8193C15.5566 17.2041 15.4291 17.6037 15.2695 17.8672C15.0264 18.2683 14.6792 18.5925 14.2676 18.8008L14.1797 19.2432C14.0887 19.7026 14.006 20.118 13.8086 20.4668C13.506 21.0014 13.0096 21.4142 12.4072 21.6133C12.0122 21.7438 11.4629 21.743 11 21.7422C10.5372 21.743 9.9879 21.7437 9.59277 21.6133C8.99026 21.4142 8.49305 21.0015 8.19043 20.4668C7.99312 20.118 7.91129 19.7025 7.82031 19.2432L7.73145 18.7988C7.32123 18.5905 6.9749 18.2673 6.73242 17.8672C6.57287 17.6037 6.44633 17.204 6.32422 16.8193C6.28911 16.709 6.25398 16.5983 6.22949 16.5029C6.20353 16.4018 6.17335 16.2615 6.18066 16.1016C6.20315 15.6126 6.50055 15.1593 6.97461 14.9668C7.13029 14.9036 7.27824 14.8873 7.38184 14.8809C7.47883 14.8749 7.59327 14.875 7.70312 14.875H14.2998C14.4095 14.875 14.5232 14.8749 14.6201 14.8809ZM9.67773 19.0596C9.76165 19.4651 9.7902 19.5551 9.82422 19.6152C9.91192 19.7702 10.0483 19.8765 10.1973 19.9258C10.2573 19.9456 10.3539 19.958 11 19.958C11.6453 19.958 11.7418 19.9456 11.8018 19.9258C11.9507 19.8766 12.0871 19.7701 12.1748 19.6152C12.2088 19.5551 12.2383 19.4652 12.3223 19.0596H9.67773ZM11 3.5C15.1713 3.5 18.5 6.97984 18.5 11.2061C18.5 12.3452 18.2586 13.4297 17.8242 14.4062C17.5997 14.9109 17.0085 15.1385 16.5039 14.9141C15.9994 14.6896 15.7727 14.0983 15.9971 13.5938C16.3194 12.8693 16.5 12.0611 16.5 11.2061C16.5 8.02516 14.0084 5.5 11 5.5C7.9916 5.5 5.5 8.02516 5.5 11.2061C5.50002 12.0611 5.68063 12.8693 6.00293 13.5938C6.2273 14.0983 6.00061 14.6896 5.49609 14.9141C4.99149 15.1385 4.40027 14.9109 4.17578 14.4062C3.74135 13.4297 3.50002 12.3452 3.5 11.2061C3.5 6.97984 6.8287 3.5 11 3.5ZM2 10C2.55228 10 3 10.4477 3 11C3 11.5523 2.55228 12 2 12H1C0.447715 12 0 11.5523 0 11C0 10.4477 0.447715 10 1 10H2ZM21 10C21.5523 10 22 10.4477 22 11C22 11.5523 21.5523 12 21 12H20C19.4477 12 19 11.5523 19 11C19 10.4477 19.4477 10 20 10H21ZM3.22266 3.22266C3.61318 2.83213 4.24619 2.83213 4.63672 3.22266L5.34375 3.92969C5.73415 4.32022 5.73423 4.95327 5.34375 5.34375C4.95326 5.73411 4.32018 5.73411 3.92969 5.34375L3.22266 4.63672C2.83217 4.24624 2.83225 3.61319 3.22266 3.22266ZM17.3633 3.22168C17.7538 2.83132 18.3869 2.83132 18.7773 3.22168C19.1678 3.61216 19.1677 4.24521 18.7773 4.63574L18.0703 5.34277C17.6798 5.7333 17.0468 5.7333 16.6562 5.34277C16.2658 4.95224 16.2658 4.31919 16.6562 3.92871L17.3633 3.22168ZM11 0C11.5523 0 12 0.447715 12 1V2C12 2.55228 11.5523 3 11 3C10.4477 3 10 2.55228 10 2V1C10 0.447715 10.4477 0 11 0Z" fill="#7C57FC"/>
</g>
</svg>
