<svg preserveAspectRatio="none" width="100%" height="100%" overflow="visible" style="display: block;" viewBox="0 0 21.5 21.5" fill="none" xmlns="http://www.w3.org/2000/svg">
<g id="elements">
<path id="Icon" fill-rule="evenodd" clip-rule="evenodd" d="M10.75 0C16.6871 0 21.5 4.81294 21.5 10.75C21.5 16.6871 16.6871 21.5 10.75 21.5C4.81294 21.5 0 16.6871 0 10.75C0 4.81294 4.81294 0 10.75 0ZM9.7894 9.74999H9.75C9.1977 9.74999 8.75 10.1977 8.75 10.75C8.75 11.3023 9.1977 11.75 9.75 11.75V15.75C9.75 16.3023 10.1977 16.75 10.75 16.75C11.3023 16.75 11.75 16.3023 11.75 15.75V11.7106C11.7501 11.5108 11.7503 11.2728 11.7228 11.0682C11.6896 10.8211 11.6007 10.4794 11.3107 10.1894C11.0207 9.8994 10.6789 9.8105 10.4319 9.7773C10.2272 9.7497 9.9893 9.7499 9.7894 9.74999ZM10.7544 5.75C10.1956 5.75 9.7499 6.19772 9.7499 6.75C9.7499 7.30228 10.1956 7.75 10.7454 7.75C11.3042 7.75 11.7499 7.30228 11.7499 6.75C11.7499 6.19772 11.3042 5.75 10.7544 5.75Z" fill="#7C57FC"/>
</g>
</svg>
