<svg preserveAspectRatio="none" width="100%" height="100%" overflow="visible" style="display: block;" viewBox="0 0 20.5 20.5" fill="none" xmlns="http://www.w3.org/2000/svg">
<g id="elements">
<path id="Icon" fill-rule="evenodd" clip-rule="evenodd" d="M10.3072 2.23171e-07H10.3072C12.4979 -1.29026e-05 14.2186 -2.3216e-05 15.562 0.180594C16.9386 0.365681 18.0309 0.752716 18.8891 1.61091C19.7473 2.46911 20.1343 3.56137 20.3194 4.93802C20.5 6.28144 20.5 8.00214 20.5 10.1928V10.3072C20.5 12.4979 20.5 14.2186 20.3194 15.562C20.1343 16.9386 19.7473 18.0309 18.8891 18.8891C18.0309 19.7473 16.9386 20.1343 15.562 20.3194C14.2186 20.5 12.4979 20.5 10.3072 20.5H10.1928C8.0021 20.5 6.28144 20.5 4.93802 20.3194C3.56137 20.1343 2.46911 19.7473 1.61091 18.8891C0.752716 18.0309 0.365681 16.9386 0.180594 15.562C-2.3216e-05 14.2186 -1.29026e-05 12.4979 2.23171e-07 10.3072V10.3072V10.1928V10.1928C-1.29026e-05 8.00211 -2.3216e-05 6.28144 0.180594 4.93802C0.365681 3.56137 0.752716 2.46911 1.61091 1.61091C2.46911 0.752716 3.56137 0.365681 4.93802 0.180594C6.28144 -2.3216e-05 8.00212 -1.29026e-05 10.1928 2.23171e-07H10.1928H10.3072ZM9.75 4.5C10.1642 4.5 10.5 4.83579 10.5 5.25V5.87931L15.25 5.87931C15.6642 5.87931 16 6.2151 16 6.62931C16 7.04352 15.6642 7.37931 15.25 7.37931H13.3033C12.7641 8.98013 11.8627 10.479 10.8489 11.8149L12.3262 13.3508C12.6134 13.6493 12.6042 14.1241 12.3057 14.4112C12.0071 14.6984 11.5323 14.6891 11.2452 14.3906L9.89731 12.9894C8.97743 14.0581 8.01369 15.0083 7.15051 15.8021C6.84561 16.0824 6.37115 16.0626 6.09078 15.7577C5.81041 15.4528 5.8303 14.9783 6.1352 14.6979C7.01185 13.8918 7.97949 12.9335 8.8854 11.8645C8.65691 11.5776 8.42079 11.2667 8.20417 10.9663C7.86723 10.499 7.53915 10.0049 7.37735 9.65774C7.20237 9.2823 7.36487 8.8361 7.74031 8.66112C8.11575 8.48614 8.56195 8.64864 8.73693 9.02408C8.83228 9.22865 9.08277 9.62011 9.42083 10.0889C9.55635 10.2769 9.69979 10.4688 9.84315 10.6548C10.6054 9.61754 11.2608 8.51546 11.7071 7.37931H5.25C4.83579 7.37931 4.5 7.04352 4.5 6.62931C4.5 6.2151 4.83579 5.87931 5.25 5.87931H9V5.25C9 4.83579 9.33579 4.5 9.75 4.5Z" fill="var(--fill-0, #7C57FC)"/>
</g>
</svg>
