<svg preserveAspectRatio="none" width="100%" height="100%" overflow="visible" style="display: block;" viewBox="0 0 19.5 21.5" fill="none" xmlns="http://www.w3.org/2000/svg">
<g id="elements">
<path id="Icon" fill-rule="evenodd" clip-rule="evenodd" d="M9.75 0C4.47451 0 0 4.35954 0 9.67577C0 12.3982 1.15187 14.6741 2.76689 16.5525C4.37496 18.4228 6.46834 19.9311 8.42824 21.1444L8.44112 21.1524L8.45432 21.1598C8.84955 21.3829 9.29604 21.5 9.75 21.5C10.204 21.5 10.6504 21.3829 11.0457 21.1598L11.0572 21.1533L11.0685 21.1464C13.0355 19.9428 15.1293 18.4296 16.7366 16.5538C18.3503 14.6706 19.5 12.3892 19.5 9.67577C19.5 4.35954 15.0255 0 9.75 0ZM9.75 5.75C7.54086 5.75 5.75 7.54086 5.75 9.75C5.75 11.9591 7.54086 13.75 9.75 13.75C11.9591 13.75 13.75 11.9591 13.75 9.75C13.75 7.54086 11.9591 5.75 9.75 5.75Z" fill="var(--fill-0, #7C57FC)"/>
</g>
</svg>
