<svg preserveAspectRatio="none" width="100%" height="100%" overflow="visible" style="display: block;" viewBox="0 0 19.5027 21.5" fill="none" xmlns="http://www.w3.org/2000/svg">
<g id="elements">
<path id="Icon" fill-rule="evenodd" clip-rule="evenodd" d="M9.75154 0C5.92538 0 2.27505 2.26303 0.747135 5.83468C-0.67482 9.15865 0.0949632 11.9873 1.69771 14.4095C3.01177 16.3954 4.92835 18.1678 6.65742 19.7668L6.65758 19.7669L6.65824 19.7675C6.98768 20.0722 7.31031 20.3706 7.62066 20.6629L7.62231 20.6645C8.19734 21.2028 8.96115 21.5 9.75154 21.5C10.5419 21.5 11.3058 21.2028 11.8808 20.6644C12.1743 20.3896 12.4786 20.1092 12.789 19.8232L12.7891 19.8232L12.7891 19.8232C14.537 18.2127 16.4804 16.422 17.8082 14.4109C19.4091 11.9862 20.1761 9.15453 18.7559 5.83468C17.228 2.26303 13.5777 0 9.75154 0ZM9.75 5.75C7.54086 5.75 5.75 7.54086 5.75 9.75C5.75 11.9591 7.54086 13.75 9.75 13.75C11.9591 13.75 13.75 11.9591 13.75 9.75C13.75 7.54086 11.9591 5.75 9.75 5.75Z" fill="#7C57FC"/>
</g>
</svg>
