<svg preserveAspectRatio="none" width="100%" height="100%" overflow="visible" style="display: block;" viewBox="0 0 17.5 20.0003" fill="none" xmlns="http://www.w3.org/2000/svg">
<g id="elements">
<path id="Icon" d="M6.66699 0.0572613C7.18779 -0.12655 7.75955 0.146814 7.94336 0.667613C8.12695 1.18826 7.85356 1.75913 7.33301 1.943L6.66992 2.17738C5.3594 2.63992 4.45523 2.96076 3.78125 3.28773C3.13006 3.60366 2.78546 3.88377 2.55078 4.21546C2.3162 4.54712 2.16711 4.96518 2.08594 5.68421C2.00193 6.42864 2 7.3881 2 8.77796V11.2223C2 12.6124 2.0019 13.5726 2.08594 14.317C2.16711 15.0357 2.31632 15.4532 2.55078 15.7848C2.78546 16.1165 3.13006 16.3966 3.78125 16.7125C4.45528 17.0395 5.35921 17.3613 6.66992 17.8239L7.33301 18.0573C7.85354 18.2411 8.12681 18.812 7.94336 19.3327C7.75955 19.8535 7.18779 20.1268 6.66699 19.943L5.9502 19.6901C4.70739 19.2515 3.69564 18.8944 2.9082 18.5123C2.08635 18.1136 1.41793 17.6467 0.917969 16.9401C0.4182 16.2335 0.201085 15.4482 0.0986332 14.5407C0.000488987 13.6711 -2.04753e-05 12.5986 3.81141e-07 11.2809V8.72035C-2.04805e-05 7.40234 0.000452964 6.32932 0.0986332 5.45961C0.201093 4.55199 0.418118 3.76678 0.917969 3.06019C1.41793 2.35355 2.08635 1.88666 2.9082 1.48793C3.69562 1.10593 4.70744 0.748788 5.9502 0.310191L6.66699 0.0572613ZM13.6758 6.8639C14.2423 6.58921 14.7421 6.89023 14.8506 6.9557L15.3193 7.29554C15.6951 7.59015 16.2097 7.99532 16.6006 8.37562C16.7957 8.56545 16.9964 8.78338 17.1553 9.01429C17.2964 9.21952 17.4999 9.56924 17.5 9.99964C17.5 10.4303 17.2965 10.7807 17.1553 10.986C16.9965 11.2167 16.7956 11.4339 16.6006 11.6237C16.2097 12.004 15.6951 12.4101 15.3193 12.7047L14.8506 13.0436C14.7424 13.1089 14.2425 13.4111 13.6758 13.1364C13.1107 12.8623 13.0383 12.287 13.0225 12.1598L13.0215 12.1559C12.9995 11.9795 12.9999 11.764 13 11.5885V11.0055H6.5C5.94772 11.0055 5.5 10.5578 5.5 10.0055C5.50018 9.45337 5.94783 9.0055 6.5 9.0055H13V8.41175C12.9999 8.23612 12.9994 8.01983 13.0215 7.84339L13.0225 7.84046C13.0382 7.71387 13.1103 7.13821 13.6758 6.8639Z" fill="var(--fill-0, #D81E16)"/>
</g>
</svg>
