<svg preserveAspectRatio="none" width="100%" height="100%" overflow="visible" style="display: block;" viewBox="0 0 20 21.5002" fill="none" xmlns="http://www.w3.org/2000/svg">
<g id="elements">
<path id="Icon" fill-rule="evenodd" clip-rule="evenodd" d="M10 0C5.54419 0 1.92789 3.59151 1.92786 8.02697C1.92776 9.05865 1.85838 9.83733 1.38271 10.5372C1.31657 10.6331 1.22882 10.7532 1.13294 10.8844L1.13291 10.8845C0.966356 11.1124 0.775277 11.374 0.630335 11.6005C0.374521 12.0003 0.124594 12.4824 0.0386759 13.0442C-0.241638 14.877 1.05056 16.0636 2.33746 16.5954C3.17397 16.941 4.0693 17.2228 5.00174 17.4409C4.99559 17.5447 5.00564 17.6511 5.03379 17.7571C5.61087 19.9286 7.63084 21.5002 10.0002 21.5002C12.3697 21.5002 14.3896 19.9286 14.9667 17.7571C14.9949 17.6511 15.0049 17.5446 14.9987 17.4408C15.931 17.2228 16.8262 16.9409 17.6625 16.5954C18.9494 16.0636 20.2416 14.877 19.9613 13.0442C19.8754 12.4824 19.6255 12.0003 19.3697 11.6005C19.2247 11.374 19.0337 11.1125 18.8671 10.8845L18.8671 10.8845C18.7712 10.7533 18.6835 10.6332 18.6173 10.5373C18.1416 9.83737 18.0722 9.05878 18.0721 8.02703C18.0721 3.59155 14.4558 0 10 0ZM12.8073 17.8288C10.9604 18.057 9.04009 18.0571 7.19319 17.8289C7.70009 18.8091 8.75637 19.5002 10.0002 19.5002C11.2442 19.5002 12.3005 18.809 12.8073 17.8288Z" fill="#7C57FC"/>
</g>
</svg>
