<svg preserveAspectRatio="none" width="100%" height="100%" overflow="visible" style="display: block;" viewBox="0 0 18.4977 18.4977" fill="none" xmlns="http://www.w3.org/2000/svg">
<g id="elements">
<path id="Icon" d="M14.5703 0.0075C15.3801 0.0776082 15.9205 0.617466 16.9004 1.59734C17.8703 2.57729 18.4102 3.10768 18.4902 3.91766C18.5002 4.04763 18.5002 4.19763 18.4902 4.33758C18.4202 5.13748 17.88 5.67734 16.9102 6.64715L7.0498 16.5173C6.1198 17.4373 5.63996 17.9277 4.95996 18.2077C4.26009 18.4976 3.55013 18.4977 2.27051 18.4977H0.75C0.340079 18.4977 0.000130386 18.1576 0 17.7477V16.2272C-1.65306e-09 14.9474 6.27411e-05 14.2375 0.290039 13.5475C0.580041 12.8476 1.08048 12.3577 1.98047 11.4577L11.8398 1.59734C12.8098 0.617371 13.35 0.077521 14.1699 0.0075C14.2999 -0.0025 14.4403 -0.0025 14.5703 0.0075ZM3.03027 12.5173C2.20027 13.3373 1.83016 13.7176 1.66016 14.1276C1.49019 14.5376 1.49023 15.1075 1.49023 16.2272V16.9977H2.25977C3.38958 16.9977 3.94991 16.9977 4.37988 16.8278C4.77988 16.6578 5.17043 16.2777 5.94043 15.4977L13.6895 7.74773L10.7402 4.79852L3.03027 12.5173ZM14.29 1.48797C14.01 1.50797 13.5896 1.93715 12.8896 2.64715L11.7998 3.73797L14.749 6.68719L15.8398 5.59734C16.5198 4.91735 16.9702 4.46719 16.9902 4.18719V4.06707C16.9599 3.77706 16.5098 3.32683 15.8301 2.64715C15.1502 1.96724 14.6997 1.51797 14.4297 1.48797H14.29Z" fill="var(--fill-0, white)"/>
</g>
</svg>
