<svg preserveAspectRatio="none" width="100%" height="100%" overflow="visible" style="display: block;" viewBox="0 0 21.5 21.5" fill="none" xmlns="http://www.w3.org/2000/svg">
<g id="elements">
<path id="Icon" d="M11.7499 0C17.1347 0 21.4999 4.36522 21.4999 9.75C21.4999 15.1348 17.1347 19.5 11.7499 19.5C9.32734 19.5 7.11335 18.6138 5.40815 17.1514L1.28022 21.2803C0.987323 21.5732 0.512563 21.5732 0.21967 21.2803C-0.0732232 20.9874 -0.0732232 20.5126 0.21967 20.2197L4.3476 16.0908C2.88568 14.3858 1.99994 12.1721 1.99994 9.75C1.99994 4.36522 6.36517 0 11.7499 0ZM11.7499 1.5C7.19359 1.5 3.49994 5.19365 3.49994 9.75C3.49994 14.3063 7.19359 18 11.7499 18C16.3063 18 19.9999 14.3063 19.9999 9.75C19.9999 5.19365 16.3063 1.5 11.7499 1.5Z" fill="#858591"/>
</g>
</svg>
