<svg preserveAspectRatio="none" width="100%" height="100%" overflow="visible" style="display: block;" viewBox="0 0 20.4974 21.5" fill="none" xmlns="http://www.w3.org/2000/svg">
<g id="content">
<path id="Icon" d="M10.2466 0C11.9278 0 13.2951 0.568002 14.4878 1.18555C14.8482 1.37213 15.1835 1.55702 15.5035 1.7334C16.2864 2.16503 16.9808 2.54707 17.7427 2.79004C18.1899 2.93264 18.5859 3.0599 18.8667 3.16992C19.1311 3.2735 19.4456 3.41537 19.6685 3.66309C19.8686 3.88551 19.9714 4.13517 20.0396 4.37402C20.1015 4.59102 20.1548 4.88515 20.2056 5.16699C21.4439 12.0324 18.7397 18.5374 12.1294 21.0684C11.4797 21.3172 11.0006 21.5 10.2495 21.5C9.49878 21.4999 9.02019 21.3171 8.37064 21.0684C1.76019 18.5375 -0.946399 12.0327 0.291541 5.16699C0.342319 4.88521 0.394659 4.59097 0.45658 4.37402C0.524802 4.13512 0.628477 3.88556 0.828651 3.66309C1.05148 3.41554 1.36517 3.2735 1.62943 3.16992C1.91036 3.05984 2.30715 2.93274 2.75443 2.79004C3.51587 2.54705 4.2094 2.16496 4.99174 1.7334L5.48392 1.46289C5.65254 1.37139 5.82633 1.27883 6.00639 1.18555C7.19849 0.567949 8.56539 1.79994e-05 10.2466 0ZM10.2476 5C8.89285 5.00003 7.7476 6.06585 7.7476 7.4375V8.49902C7.67256 8.52177 7.59803 8.54917 7.52396 8.58203C6.90386 8.85723 6.42646 9.37744 6.18119 10.0117C6.07529 10.2856 6.03504 10.5676 6.01615 10.8643C5.99799 11.1497 5.99759 11.4975 5.9976 11.9141V11.9609C5.99759 12.3775 5.99799 12.7253 6.01615 13.0107C6.03504 13.3074 6.07529 13.5894 6.18119 13.8633C6.42646 14.4976 6.90386 15.0178 7.52396 15.293C7.79621 15.4137 8.07542 15.4596 8.36088 15.4805C8.63233 15.5003 8.96114 15.5 9.34623 15.5H11.149C11.5343 15.5 11.8637 15.5003 12.1353 15.4805C12.4206 15.4596 12.6991 15.4136 12.9712 15.293C13.5913 15.0178 14.0687 14.4975 14.314 13.8633C14.4199 13.5894 14.4602 13.3074 14.479 13.0107C14.4972 12.7253 14.4976 12.3775 14.4976 11.9609V11.9141C14.4976 11.4975 14.4972 11.1497 14.479 10.8643C14.4602 10.5676 14.4199 10.2856 14.314 10.0117C14.0687 9.37746 13.5913 8.85723 12.9712 8.58203C12.8972 8.54919 12.8226 8.52176 12.7476 8.49902V7.4375C12.7476 6.06583 11.6024 5 10.2476 5ZM10.2476 6.5C10.8258 6.5 11.2476 6.94521 11.2476 7.4375V8.375H9.2476V7.4375C9.2476 6.94522 9.6694 6.50003 10.2476 6.5Z" fill="var(--fill-0, #7C57FC)"/>
</g>
</svg>
