<svg preserveAspectRatio="none" width="100%" height="100%" overflow="visible" style="display: block;" viewBox="0 0 20.4974 21.5" fill="none" xmlns="http://www.w3.org/2000/svg">
<g id="content">
<path id="Icon" d="M10.2466 0C11.9278 0 13.2951 0.568002 14.4878 1.18555C14.8482 1.37213 15.1835 1.55702 15.5035 1.7334C16.2864 2.16503 16.9808 2.54707 17.7427 2.79004C18.1899 2.93264 18.5859 3.0599 18.8667 3.16992C19.1311 3.2735 19.4456 3.41537 19.6685 3.66309C19.8686 3.88551 19.9714 4.13517 20.0396 4.37402C20.1015 4.59102 20.1548 4.88515 20.2056 5.16699C21.4439 12.0324 18.7397 18.5374 12.1294 21.0684C11.4797 21.3172 11.0006 21.5 10.2495 21.5C9.49878 21.4999 9.02019 21.3171 8.37064 21.0684C1.76019 18.5375 -0.946399 12.0327 0.291541 5.16699C0.342319 4.88521 0.394659 4.59097 0.45658 4.37402C0.524802 4.13512 0.628477 3.88556 0.828651 3.66309C1.05148 3.41554 1.36517 3.2735 1.62943 3.16992C1.91036 3.05984 2.30715 2.93274 2.75443 2.79004C3.51587 2.54705 4.2094 2.16496 4.99174 1.7334L5.48392 1.46289C5.65254 1.37139 5.82633 1.27883 6.00639 1.18555C7.19849 0.567949 8.56539 1.79994e-05 10.2466 0ZM16.19 7.41602C16.0054 6.89572 15.4341 6.62329 14.9136 6.80762C14.0356 7.11862 13.1961 7.71148 12.4595 8.35742C11.7127 9.0124 11.0146 9.7733 10.4214 10.4844C9.98221 11.0109 9.59302 11.5185 9.27787 11.9492C8.98921 11.6035 8.70146 11.3508 8.42728 11.168C8.15291 10.9851 7.79977 10.75 7.2476 10.75C6.69543 10.75 6.24774 11.1979 6.2476 11.75C6.2476 12.2707 6.64554 12.6988 7.15385 12.7461C7.35788 12.765 7.9124 13.316 8.35306 14.1973C8.51424 14.5196 8.83688 14.7306 9.19681 14.749C9.55656 14.7673 9.89811 14.5901 10.0913 14.2861C10.0964 14.2786 10.441 13.7626 10.605 13.5303C10.9361 13.0613 11.4047 12.4271 11.9566 11.7656C12.5103 11.1019 13.1353 10.4249 13.7779 9.86133C14.4309 9.28863 15.048 8.88237 15.5816 8.69336C16.1022 8.50898 16.3744 7.93661 16.19 7.41602Z" fill="var(--fill-0, #7C57FC)"/>
</g>
</svg>
