<svg preserveAspectRatio="none" width="100%" height="100%" overflow="visible" style="display: block;" viewBox="0 0 21.5004 21.5004" fill="none" xmlns="http://www.w3.org/2000/svg">
<g id="elements">
<path id="Icon" d="M10.9255 0.00654781C11.4291 0.0442876 11.8378 0.271442 12.2106 0.563188C12.5613 0.837578 12.9493 1.22563 13.403 1.6794L14.1052 2.30635C14.1165 2.30821 14.5795 2.38448 15.2175 2.38448C15.9286 2.38444 16.5364 2.38365 17.0222 2.44893C17.5409 2.51867 18.0316 2.67518 18.4284 3.07198C18.8252 3.46877 18.9808 3.95955 19.0505 4.47823C19.1158 4.96397 19.116 5.5718 19.1159 6.28292L19.1696 7.33663L19.821 8.09737C20.2748 8.55108 20.6628 8.93906 20.9372 9.28975C21.2289 9.66263 21.4561 10.0713 21.4939 10.5749C21.5026 10.6916 21.5026 10.8088 21.4939 10.9255C21.4561 11.4291 21.229 11.8378 20.9372 12.2106C20.6628 12.5613 20.2748 12.9493 19.821 13.403L19.1696 14.1638L19.1159 15.2175C19.116 15.9286 19.1158 16.5364 19.0505 17.0222C18.9808 17.5409 18.8252 18.0316 18.4284 18.4284C18.0316 18.8252 17.5409 18.9808 17.0222 19.0505C16.5364 19.1158 15.9286 19.116 15.2175 19.1159L14.1638 19.1696L13.403 19.821C12.9493 20.2748 12.5613 20.6628 12.2106 20.9372C11.8378 21.229 11.4291 21.4561 10.9255 21.4939C10.8088 21.5026 10.6916 21.5026 10.5749 21.4939C10.0713 21.4561 9.66263 21.2289 9.28975 20.9372C8.93906 20.6628 8.55108 20.2748 8.09737 19.821L7.33663 19.1696L6.28292 19.1159C5.5718 19.116 4.96397 19.1158 4.47823 19.0505C3.95955 18.9808 3.46877 18.8252 3.07198 18.4284C2.67518 18.0316 2.51867 17.5409 2.44893 17.0222C2.38365 16.5364 2.38444 15.9286 2.38448 15.2175L2.33077 14.1638L1.6794 13.403C1.22563 12.9493 0.837578 12.5613 0.563188 12.2106C0.271442 11.8378 0.0442876 11.4291 0.00654781 10.9255C-0.00218507 10.8088 -0.00218014 10.6916 0.00654781 10.5749C0.0442877 10.0713 0.271442 9.66265 0.563188 9.28975C0.83757 8.93905 1.22563 8.5511 1.6794 8.09737L2.33077 7.33663L2.38448 6.28292C2.38444 5.57186 2.38366 4.96395 2.44893 4.47823C2.51867 3.95953 2.67518 3.46878 3.07198 3.07198C3.46878 2.67518 3.95953 2.51867 4.47823 2.44893C4.96395 2.38366 5.57186 2.38444 6.28292 2.38448C6.92451 2.38447 7.33122 2.33147 7.33663 2.33077L8.09737 1.6794C8.5511 1.22563 8.93905 0.837571 9.28975 0.563188C9.66265 0.271442 10.0713 0.0442877 10.5749 0.00654781C10.6916 -0.00218014 10.8088 -0.00218507 10.9255 0.00654781ZM10.7497 6.49971C8.40285 6.49995 6.49995 8.40285 6.49971 10.7497C6.49971 13.0968 8.4027 14.9995 10.7497 14.9997C13.0969 14.9997 14.9997 13.0969 14.9997 10.7497C14.9995 8.4027 13.0968 6.49971 10.7497 6.49971Z" fill="#7C57FC"/>
</g>
</svg>
