<svg preserveAspectRatio="none" width="100%" height="100%" overflow="visible" style="display: block;" viewBox="0 0 19.5 18.5" fill="none" xmlns="http://www.w3.org/2000/svg">
<g id="elements">
<path id="Icon" d="M15.75 0C17.8211 0 19.5 1.67893 19.5 3.75C19.5 5.82107 17.8211 7.5 15.75 7.5C14.5929 7.5 13.558 6.97608 12.8701 6.15234L7.45215 8.65234C7.48333 8.84699 7.5 9.04657 7.5 9.25C7.5 9.45415 7.48257 9.65431 7.45117 9.84961L12.8691 12.3486C13.557 11.5243 14.5924 11 15.75 11C17.8211 11 19.5 12.6789 19.5 14.75C19.5 16.8211 17.8211 18.5 15.75 18.5C13.6789 18.5 12 16.8211 12 14.75C12 14.5531 12.0147 14.3596 12.0439 14.1709L6.61523 11.667C5.92735 12.4816 4.89969 13 3.75 13C1.67893 13 0 11.3211 0 9.25C0 7.17893 1.67893 5.5 3.75 5.5C4.90041 5.5 5.9293 6.01847 6.61719 6.83398L12.0439 4.33008C12.0146 4.14105 12 3.94725 12 3.75C12 1.67893 13.6789 0 15.75 0Z" fill="var(--fill-0, #7C57FC)"/>
</g>
</svg>
