<svg preserveAspectRatio="none" width="100%" height="100%" overflow="visible" style="display: block;" viewBox="0 0 17.5 21.5" fill="none" xmlns="http://www.w3.org/2000/svg">
<g id="content">
<path id="Icon" d="M8.75 0C11.7876 0 14.25 2.46243 14.25 5.5V7.27734C15.8176 7.7571 17.0009 9.13658 17.2256 10.8057C17.3737 11.9059 17.5 13.062 17.5 14.25C17.5 15.438 17.3737 16.5941 17.2256 17.6943C16.954 19.7113 15.2827 21.3058 13.2246 21.4004C11.7962 21.4661 10.3458 21.5 8.75 21.5C7.15423 21.5 5.70376 21.4661 4.27539 21.4004C2.21733 21.3058 0.545984 19.7113 0.274414 17.6943C0.126287 16.5941 1.35213e-07 15.438 0 14.25C0 13.062 0.126287 11.9059 0.274414 10.8057C0.499139 9.13658 1.68236 7.7571 3.25 7.27734V5.5C3.25 2.46243 5.71243 0 8.75 0ZM8.74316 12.75C7.9185 12.7501 7.25 13.4216 7.25 14.25C7.25 15.0784 7.9185 15.7499 8.74316 15.75H8.75684C9.5815 15.7499 10.25 15.0784 10.25 14.25C10.25 13.4216 9.5815 12.7501 8.75684 12.75H8.74316ZM8.75 2C6.817 2 5.25 3.567 5.25 5.5V7.06055C6.36773 7.02087 7.51537 7 8.75 7C9.98463 7 11.1323 7.02087 12.25 7.06055V5.5C12.25 3.567 10.683 2 8.75 2Z" fill="#7C57FC"/>
</g>
</svg>
