<svg preserveAspectRatio="none" width="100%" height="100%" overflow="visible" style="display: block;" viewBox="0 0 21.5002 21.5" fill="none" xmlns="http://www.w3.org/2000/svg">
<g id="elements">
<path id="Icon" d="M17.2496 11.5C19.5834 11.5 21.4996 13.3603 21.4996 15.6846C21.4995 17.0354 20.8208 18.0111 20.1246 18.79C19.9074 19.0331 19.6628 19.2843 19.4332 19.5195C19.31 19.6458 19.1906 19.7671 19.0826 19.8809C18.7522 20.2291 18.4724 20.5538 18.2604 20.8916C18.0794 21.18 17.746 21.5 17.2555 21.5C16.7731 21.4999 16.4393 21.1888 16.2525 20.9111C16.0293 20.5794 15.7401 20.2547 15.4039 19.9014C15.3156 19.8085 15.2223 19.7123 15.1266 19.6133V19.6123C14.8738 19.3509 14.6032 19.0711 14.357 18.7891C13.6663 17.9975 12.9997 17.0086 12.9996 15.6846C12.9996 13.3604 14.916 11.5001 17.2496 11.5ZM16.8346 0C18.3335 0 19.558 1.20767 19.5582 2.70898C19.5582 3.25928 19.7028 3.80085 19.9781 4.2793L20.9645 5.99316C21.2232 6.44228 21.4342 6.80708 21.485 7.41699C21.5056 7.66462 21.5077 7.87309 21.4762 8.07422C21.446 8.26693 21.3878 8.42148 21.3453 8.53516L21.3395 8.55273C20.8065 9.98309 19.4222 10.9999 17.8014 11C16.4453 11 15.2524 10.2872 14.5875 9.21484C13.6839 10.3078 12.2942 11 10.7496 11C9.20526 10.9999 7.81625 10.3076 6.9127 9.21484C6.24786 10.2872 5.05495 10.9999 3.69883 11C3.37085 11 3.05311 10.9552 2.74962 10.877V13.5C2.74962 14.9423 2.75242 15.9234 2.85118 16.6582C2.94609 17.3641 3.11303 17.6915 3.33555 17.9141C3.55812 18.1366 3.88536 18.3045 4.59141 18.3994C5.32618 18.4982 6.30737 18.5 7.74962 18.5H10.7496C11.3019 18.5 11.7496 18.9477 11.7496 19.5C11.7496 20.0523 11.3019 20.5 10.7496 20.5H7.6793C6.32518 20.5 5.20857 20.4997 4.32481 20.3809C3.39698 20.2561 2.5776 19.9842 1.92149 19.3281C1.26546 18.672 0.993493 17.8526 0.868756 16.9248C0.74997 16.0411 0.749581 14.9243 0.749615 13.5703V9.58496C0.502244 9.27653 0.301196 8.92961 0.160748 8.55273L0.153912 8.53516C0.111462 8.42149 0.0542417 8.26685 0.0240293 8.07422C-0.00750331 7.87306 -0.00537262 7.66468 0.0152402 7.41699C0.0660212 6.80716 0.276054 6.4422 0.534771 5.99316L1.5211 4.2793C1.79651 3.8008 1.94102 3.25935 1.94102 2.70898C1.94121 1.20777 3.16582 0.00015118 4.66465 0H16.8346ZM17.2428 14.25C16.4182 14.2502 15.7496 14.9217 15.7496 15.75C15.7496 16.5783 16.4182 17.2498 17.2428 17.25H17.2565C18.0812 17.25 18.7496 16.5784 18.7496 15.75C18.7496 14.9216 18.0812 14.25 17.2565 14.25H17.2428ZM9.74962 14.75C10.3019 14.75 10.7496 15.1977 10.7496 15.75C10.7496 16.3023 10.3019 16.75 9.74962 16.75H5.74962C5.19742 16.7499 4.74962 16.3022 4.74962 15.75C4.74962 15.1978 5.19742 14.7501 5.74962 14.75H9.74962Z" fill="var(--fill-0, #7C57FC)"/>
</g>
</svg>
