<svg preserveAspectRatio="none" width="100%" height="100%" overflow="visible" style="display: block;" viewBox="0 0 21.4999 21.4999" fill="none" xmlns="http://www.w3.org/2000/svg">
<g id="elements">
<path id="Icon" d="M11.2473 0.161798C12.1574 0.0781714 13.9384 -0.0511129 15.6809 0.0211726C16.5508 0.0572598 17.436 0.14439 18.2092 0.321954C18.9578 0.493885 19.7167 0.774826 20.221 1.27899C20.7252 1.78319 21.006 2.54209 21.178 3.2907C21.3556 4.06398 21.4427 4.94913 21.4788 5.81902C21.5511 7.56154 21.4218 9.34252 21.3381 10.2526C21.2859 10.8204 21.0535 11.3451 20.6907 11.7673C17.9814 14.9195 15.1731 17.7892 12.1067 20.5348C10.7036 21.7912 8.60786 21.8038 7.14673 20.6725C4.73736 18.807 2.69295 16.7626 0.827397 14.3532C-0.303906 12.8921 -0.291222 10.7964 0.965092 9.39324C3.71076 6.32674 6.58132 3.51857 9.73365 0.809258C10.1557 0.446622 10.6797 0.214055 11.2473 0.161798ZM6.45728 12.0427C6.06683 11.6523 5.43373 11.6524 5.04322 12.0427C4.65273 12.4331 4.65279 13.0662 5.04322 13.4567L8.04322 16.4567C8.43374 16.8472 9.06676 16.8472 9.45728 16.4567C9.84756 16.0662 9.84772 15.4331 9.45728 15.0427L6.45728 12.0427ZM16.2502 3.74969C15.4219 3.74969 14.7504 4.42142 14.7502 5.24969C14.7502 6.07812 15.4218 6.74969 16.2502 6.74969C17.0786 6.74961 17.7502 6.07806 17.7502 5.24969C17.7501 4.42147 17.0785 3.74977 16.2502 3.74969Z" fill="var(--fill-0, #7C57FC)"/>
</g>
</svg>
