<svg preserveAspectRatio="none" width="100%" height="100%" overflow="visible" style="display: block;" viewBox="0 0 21.498 19.5" fill="none" xmlns="http://www.w3.org/2000/svg">
<g id="elements">
<path id="Icon" d="M9.75 11C12.9256 11 15.5 13.5744 15.5 16.75C15.5 18.2688 14.2688 19.5 12.75 19.5H2.75C1.23122 19.5 0 18.2688 0 16.75C0 13.5744 2.57436 11 5.75 11H9.75ZM15.748 11C18.9235 11.0002 21.498 13.5745 21.498 16.75C21.498 18.2686 20.2666 19.4998 18.748 19.5H15.9883C16.6179 18.7588 16.998 17.7987 16.998 16.75C16.998 14.408 15.8871 12.3254 14.1641 11H15.748ZM7.75 0C10.3734 0 12.5 2.12665 12.5 4.75C12.5 7.37335 10.3734 9.5 7.75 9.5C5.12665 9.5 3 7.37335 3 4.75C3 2.12665 5.12665 0 7.75 0ZM13.751 0C16.3743 0 18.501 2.12665 18.501 4.75C18.501 7.37335 16.3743 9.5 13.751 9.5C13.1799 9.49999 12.6322 9.3996 12.125 9.21484C13.2827 8.08045 14.001 6.49889 14.001 4.75C14.001 3.00111 13.2827 1.41955 12.125 0.285156C12.6322 0.100399 13.1799 5.28746e-06 13.751 0Z" fill="#7C57FC"/>
</g>
</svg>
