<svg preserveAspectRatio="none" width="100%" height="100%" overflow="visible" style="display: block;" viewBox="0 0 21.7502 21.75" fill="none" xmlns="http://www.w3.org/2000/svg">
<g id="elements">
<path id="Icon" d="M17.2501 12.75C19.7354 12.75 21.7501 14.7647 21.7501 17.25C21.7501 19.7353 19.7354 21.75 17.2501 21.75C14.7648 21.75 12.7501 19.7353 12.7501 17.25C12.7501 14.7647 14.7648 12.75 17.2501 12.75ZM8.14562 12.1123C9.2093 11.9623 10.2909 11.9623 11.3546 12.1123C11.7087 12.1622 12.0613 12.2293 12.4103 12.3125C12.8462 12.4165 13.0641 12.4683 13.1163 12.6279C13.1685 12.7875 13.0052 12.9803 12.6778 13.3652C11.7877 14.412 11.2501 15.7683 11.2501 17.25C11.2501 18.3892 11.5679 19.4541 12.1193 20.3613C12.4562 20.9158 12.6247 21.1937 12.5392 21.3467C12.4532 21.4996 12.156 21.5 11.5626 21.5H5.34093C3.52274 21.4999 2.11683 20.6053 0.945426 19.4893C0.266619 18.8424 -0.0719361 18.1146 0.0128091 17.3389C0.0925548 16.6093 0.53161 16.0134 0.993278 15.5615C1.73144 14.8391 2.80888 14.2312 3.5216 13.8291C3.68416 13.7374 3.8282 13.6561 3.94445 13.5869C5.24921 12.8101 6.68127 12.3188 8.14562 12.1123ZM14.922 16.3359C14.8108 16.6189 14.7501 16.9276 14.7501 17.25C14.7501 18.6307 15.8694 19.75 17.2501 19.75C17.5725 19.75 17.8812 19.6893 18.1642 19.5781L14.922 16.3359ZM17.2501 14.75C16.9277 14.75 16.619 14.8107 16.3361 14.9219L19.5782 18.1641C19.6894 17.8811 19.7501 17.5724 19.7501 17.25C19.7501 15.8693 18.6308 14.75 17.2501 14.75ZM10.7501 0C13.6496 0 16.0001 2.3505 16.0001 5.25C16.0001 8.14949 13.6496 10.5 10.7501 10.5C7.85062 10.5 5.50011 8.14949 5.50011 5.25C5.50011 2.3505 7.85062 0 10.7501 0Z" fill="var(--fill-0, #7C57FC)"/>
</g>
</svg>
