<svg preserveAspectRatio="none" width="100%" height="100%" overflow="visible" style="display: block;" viewBox="0 0 21.7501 21.75" fill="none" xmlns="http://www.w3.org/2000/svg">
<g id="elements">
<path id="Icon" d="M17.2501 12.75C17.8024 12.75 18.2501 13.1977 18.2501 13.75V16.25H20.7501C21.3024 16.25 21.7501 16.6977 21.7501 17.25C21.7501 17.8023 21.3024 18.25 20.7501 18.25H18.2501V20.75C18.2501 21.3023 17.8024 21.75 17.2501 21.75C16.6978 21.75 16.2501 21.3023 16.2501 20.75V18.25H13.7501C13.1978 18.25 12.7501 17.8023 12.7501 17.25C12.7501 16.6977 13.1978 16.25 13.7501 16.25H16.2501V13.75C16.2501 13.1977 16.6978 12.75 17.2501 12.75ZM8.14562 12.1123C9.2093 11.9623 10.2909 11.9623 11.3546 12.1123C12.4694 12.2695 13.5662 12.5915 14.6017 13.0791C14.7273 13.1383 14.791 13.2783 14.7726 13.416C14.758 13.5253 14.7501 13.6367 14.7501 13.75V14.4502C14.75 14.6157 14.6158 14.7499 14.4503 14.75H13.7501C12.3694 14.75 11.2501 15.8693 11.2501 17.25C11.2501 18.6307 12.3694 19.75 13.7501 19.75H14.4503C14.6158 19.7501 14.75 19.8843 14.7501 20.0498V20.75C14.7501 20.8733 14.7592 20.9948 14.7765 21.1133C14.8028 21.2955 14.6857 21.4774 14.5021 21.4893C14.3896 21.4963 14.275 21.5 14.1593 21.5H5.34093C3.52274 21.4999 2.11683 20.6053 0.945426 19.4893C0.266619 18.8424 -0.0719361 18.1146 0.0128091 17.3389C0.0925548 16.6093 0.53161 16.0134 0.993278 15.5615C1.73144 14.8391 2.80888 14.2312 3.5216 13.8291C3.68416 13.7374 3.8282 13.6561 3.94445 13.5869C5.24921 12.8101 6.68127 12.3188 8.14562 12.1123ZM10.7501 0C13.6496 0 16.0001 2.3505 16.0001 5.25C16.0001 8.1495 13.6496 10.5 10.7501 10.5C7.85062 10.5 5.50011 8.1495 5.50011 5.25C5.50011 2.3505 7.85062 0 10.7501 0Z" fill="var(--fill-0, #7C57FC)"/>
</g>
</svg>
