<svg preserveAspectRatio="none" width="100%" height="100%" overflow="visible" style="display: block;" viewBox="0 0 19.5004 21.5" fill="none" xmlns="http://www.w3.org/2000/svg">
<g id="elements">
<path id="Icon" d="M3.94445 13.5869C7.49845 11.4708 12.0028 11.4707 15.5568 13.5869C15.6729 13.656 15.8162 13.7374 15.9786 13.8291C16.6914 14.2312 17.7697 14.839 18.5079 15.5615C18.9696 16.0134 19.4076 16.6093 19.4874 17.3389C19.5722 18.1146 19.2337 18.8424 18.5548 19.4893C17.3834 20.6053 15.9776 21.5 14.1593 21.5H5.34094C3.52274 21.4999 2.11683 20.6052 0.945432 19.4893C0.266618 18.8424 -0.0719515 18.1145 0.0128144 17.3389C0.0925644 16.6093 0.531613 16.0134 0.993283 15.5615C1.73145 14.8391 2.80889 14.2311 3.5216 13.8291C3.68419 13.7373 3.82819 13.6561 3.94445 13.5869ZM9.75012 0C12.6496 0 15.0001 2.3505 15.0001 5.25C15.0001 8.14949 12.6496 10.5 9.75012 10.5C6.8507 10.5 4.50012 8.14946 4.50012 5.25C4.50012 2.35053 6.8507 4.97378e-05 9.75012 0Z" fill="var(--fill-0, #7C57FC)"/>
</g>
</svg>
