<svg width="18" height="18" viewBox="0 0 18 18" fill="none" xmlns="http://www.w3.org/2000/svg">
<path d="M4.95279 6.41646C5.0442 6.53749 5.31713 6.8988 5.47968 7.10708C5.80523 7.52424 6.25007 8.07856 6.72992 8.63123C7.2122 9.1867 7.71884 9.72767 8.16892 10.1253C8.3946 10.3248 8.59286 10.4763 8.75645 10.5749C8.91032 10.6677 9.00121 10.6869 9.00121 10.6869C9.00121 10.6869 9.08943 10.6677 9.24328 10.5749C9.40688 10.4763 9.60513 10.3248 9.83081 10.1254C10.2809 9.72767 10.7875 9.18669 11.2698 8.63122C11.7497 8.07855 12.1945 7.52422 12.5201 7.10706C12.6826 6.89877 12.9552 6.53798 13.0466 6.41695C13.2308 6.1668 13.5833 6.11285 13.8334 6.29708C14.0836 6.4813 14.137 6.83342 13.9528 7.08357L13.9513 7.08548C13.8555 7.21244 13.5728 7.58668 13.4069 7.79919C13.074 8.22578 12.6162 8.79646 12.1193 9.36878C11.6248 9.93831 11.0806 10.5223 10.5757 10.9684C10.3239 11.1909 10.0687 11.3909 9.8241 11.5384C9.59492 11.6765 9.30475 11.8125 8.99986 11.8125C8.69498 11.8125 8.40482 11.6765 8.17563 11.5384C7.93101 11.3909 7.67579 11.1909 7.42402 10.9684C6.91918 10.5223 6.37493 9.93832 5.88044 9.3688C5.38352 8.79647 4.9257 8.2258 4.59279 7.79922C4.42683 7.58656 4.14415 7.21231 4.04846 7.08561L4.04721 7.08396C3.86298 6.83382 3.91616 6.48134 4.1663 6.29711C4.41643 6.11289 4.76856 6.16634 4.95279 6.41646Z" fill="#7C57FC"/>
</svg>
