<svg width="18" height="18" viewBox="0 0 18 18" fill="none" xmlns="http://www.w3.org/2000/svg">
<path d="M7.40723 4.96875C7.82142 4.96873 8.15722 4.63295 8.15723 4.21875C8.15723 3.78241 8.26788 3.39663 8.41504 3.10059C8.57181 2.78526 8.73701 2.63505 8.7832 2.60645C9.13512 2.38834 9.24329 1.92628 9.02539 1.57422C8.80733 1.22209 8.34531 1.11304 7.99316 1.33105C7.62927 1.5564 7.30333 1.96876 7.07227 2.43359C6.83163 2.91777 6.65723 3.53021 6.65723 4.21875C6.65723 4.63296 6.99301 4.96875 7.40723 4.96875ZM10.0313 4.96875C10.4455 4.96875 10.7812 4.63296 10.7813 4.21875C10.7813 4.1232 10.8074 3.95018 10.8584 3.78711C10.8776 3.72576 10.8953 3.67983 10.9092 3.65039C11.1737 3.41234 11.2387 3.01247 11.0449 2.69922C10.8269 2.34716 10.3648 2.23822 10.0127 2.45605C9.79385 2.59158 9.66748 2.79401 9.60352 2.91113C9.52827 3.04896 9.4705 3.19913 9.42676 3.33887C9.34107 3.6128 9.28125 3.9393 9.28125 4.21875C9.28125 4.63296 9.61704 4.96875 10.0313 4.96875ZM5.15625 4.96875C5.57046 4.96875 5.90625 4.63296 5.90625 4.21875C5.90625 3.9844 5.9683 3.82464 6.01855 3.73145C6.04443 3.68351 6.06857 3.65117 6.08105 3.63574L6.08691 3.62793C6.37487 3.34477 6.38764 2.88226 6.11133 2.58398C5.82984 2.28014 5.35562 2.26248 5.05176 2.54395C4.92713 2.6594 4.77357 2.87899 4.69824 3.01855C4.54613 3.3004 4.40625 3.70329 4.40625 4.21875C4.40625 4.63296 4.74204 4.96875 5.15625 4.96875ZM8.0957 16.7812C8.62158 16.7812 9.087 16.754 9.52734 16.6387C9.97888 16.5204 10.3777 16.3172 10.7891 16.001C11.5838 15.39 12.1796 14.704 12.627 13.9688C12.6794 13.9708 12.7333 13.9665 12.7871 13.957C14.4166 13.6693 15.5223 12.9799 16.2168 12.0566C16.9001 11.148 17.1234 10.0953 17.1543 9.18164C17.1736 8.61058 17.0757 7.95271 16.4561 7.55859C16.1938 7.39189 15.8952 7.31492 15.6113 7.27344C15.324 7.23147 14.9953 7.21875 14.6367 7.21875H13.9141C13.8445 6.86397 13.6936 6.53952 13.375 6.30176C13.1262 6.11617 12.8262 6.0233 12.5156 5.97266C12.2038 5.92183 11.8346 5.90626 11.4121 5.90625L3.40039 5.90625C2.97786 5.90626 2.60868 5.92183 2.29688 5.97266C1.98631 6.0233 1.68632 6.11617 1.4375 6.30176C0.898798 6.70386 0.832778 7.35288 0.844727 7.97949C0.900065 10.8804 1.27144 13.8851 4.02344 16.001C4.43481 16.3172 4.83362 16.5204 5.28516 16.6387C5.72551 16.754 6.19092 16.7812 6.7168 16.7812H8.0957ZM13.3965 12.2598C13.759 11.1224 13.8934 9.91908 13.9443 8.71875H14.6367C14.972 8.71876 15.2152 8.73162 15.3945 8.75781C15.534 8.77819 15.6039 8.80296 15.6338 8.81641C15.645 8.85652 15.6614 8.94859 15.6553 9.13086C15.6308 9.85466 15.4566 10.5727 15.0186 11.1553C14.6959 11.5843 14.1936 11.9873 13.3965 12.2598Z" fill="#7C57FC"/>
</svg>
