<svg width="24" height="24" viewBox="0 0 24 24" fill="none" xmlns="http://www.w3.org/2000/svg">
<path fill-rule="evenodd" clip-rule="evenodd" d="M11.9686 1.25H12.0314H12.0314C12.6355 1.24999 13.1356 1.24998 13.5485 1.28515C13.9812 1.32201 14.3723 1.40069 14.7494 1.58742C15.4213 1.92009 15.8461 2.44877 16.1443 2.979C16.3755 3.39004 16.555 3.85182 16.7071 4.24318C16.743 4.33553 16.7774 4.42396 16.8105 4.50689L16.9579 4.87534C17.0304 5.0566 17.0667 5.14722 17.1416 5.19869C17.2166 5.25016 17.3153 5.25145 17.5126 5.25403C18.4338 5.26608 19.1301 5.31819 19.7414 5.57479C20.6892 5.97261 21.4585 6.70632 21.9071 7.63547C22.1073 8.05002 22.2092 8.49536 22.2767 9.01254C22.3425 9.51676 22.3808 10.1389 22.4288 10.9174L22.5889 13.5123C22.7087 15.4557 22.8035 16.9915 22.715 18.196C22.6242 19.4329 22.3342 20.4418 21.5862 21.2486C20.8368 22.0571 19.8569 22.4154 18.6395 22.5851C17.4567 22.75 15.9366 22.75 14.017 22.75H9.98273C8.06311 22.75 6.54301 22.75 5.36028 22.5851C4.14282 22.4154 3.16298 22.0571 2.41353 21.2486C1.66555 20.4418 1.37551 19.4329 1.28469 18.196C1.19625 16.9915 1.29098 15.4557 1.41085 13.5123L1.5709 10.9172C1.6189 10.1388 1.65726 9.51672 1.72303 9.01254C1.79049 8.49536 1.89241 8.05002 2.09258 7.63547C2.54124 6.70632 3.31053 5.97261 4.25833 5.57479C4.86974 5.31817 5.56607 5.26607 6.48741 5.25403C6.68475 5.25145 6.78341 5.25016 6.85838 5.19869C6.93334 5.14722 6.96959 5.0566 7.04209 4.87534L7.18947 4.50689C7.22264 4.42397 7.25701 4.33554 7.2929 4.2432L7.2929 4.2432L7.29291 4.24317C7.44503 3.85181 7.62451 3.39003 7.85567 2.979C8.15388 2.44877 8.57866 1.92009 9.25059 1.58742C9.62775 1.40069 10.0188 1.32201 10.4515 1.28515C10.8644 1.24998 11.3645 1.24999 11.9686 1.25H11.9686ZM11.002 6C11.002 5.44772 11.4477 5 11.9975 5C12.5434 5 13.002 5.44791 13.002 6C13.002 6.55209 12.5434 7 11.9975 7C11.4477 7 11.002 6.55229 11.002 6ZM12.002 10C9.79281 10 8.00195 11.7909 8.00195 14C8.00195 16.2091 9.79281 18 12.002 18C14.2111 18 16.002 16.2091 16.002 14C16.002 11.7909 14.2111 10 12.002 10Z" fill="#7C57FC"/>
</svg>
