<svg width="24" height="24" viewBox="0 0 24 24" fill="none" xmlns="http://www.w3.org/2000/svg">
<path fill-rule="evenodd" clip-rule="evenodd" d="M12.0001 1.24609C13.2021 1.24609 14.3181 1.61509 15.2411 2.24609H19.3571C19.8311 2.24609 20.4191 2.3671 20.8991 2.8131C21.8441 3.6911 22.3091 5.06309 22.7211 6.60709C22.7941 6.88109 22.7281 7.1711 22.5431 7.3931C22.3581 7.6161 22.0741 7.74609 21.7731 7.74609H21.7501V18.0481C21.7501 18.9461 21.7501 19.6961 21.6701 20.2901C21.5861 20.9181 21.4001 21.4851 20.9451 21.9411C20.4891 22.3961 19.9221 22.5821 19.2941 22.6661C18.7001 22.7461 17.9501 22.7461 17.0521 22.7461H15.2001C15.0901 22.7461 15.0001 22.6561 15.0001 22.5461V18.7461C15.0001 17.0891 13.6571 15.7461 12.0001 15.7461C10.3431 15.7461 9.00012 17.0891 9.00012 18.7461V22.5461C9.00012 22.6561 8.91012 22.7461 8.80012 22.7461H6.94812C6.05012 22.7461 5.30011 22.7461 4.70611 22.6661C4.07811 22.5821 3.51111 22.3961 3.05511 21.9411C2.60011 21.4851 2.41412 20.9181 2.33012 20.2901C2.26012 19.7703 2.25137 19.1319 2.25027 18.3782L2.25012 7.74609H2.22713C1.92613 7.74609 1.64212 7.6161 1.45712 7.3931C1.27212 7.1711 1.20613 6.88109 1.27913 6.60709C1.69113 5.06309 2.15612 3.6911 3.10112 2.8131C3.58112 2.3671 4.16913 2.24609 4.64313 2.24609H8.75912C9.68212 1.61509 10.7981 1.24609 12.0001 1.24609ZM6.50012 13.7461H6.00012C5.58612 13.7461 5.25012 14.0821 5.25012 14.4961C5.25012 14.9101 5.58612 15.2461 6.00012 15.2461H6.50012C6.91412 15.2461 7.25012 14.9101 7.25012 14.4961C7.25012 14.0821 6.91412 13.7461 6.50012 13.7461ZM18.0001 13.7461H17.5001C17.0861 13.7461 16.7501 14.0821 16.7501 14.4961C16.7501 14.9101 17.0861 15.2461 17.5001 15.2461H18.0001C18.4141 15.2461 18.7501 14.9101 18.7501 14.4961C18.7501 14.0821 18.4141 13.7461 18.0001 13.7461ZM6.50012 10.2461H6.00012C5.58612 10.2461 5.25012 10.5821 5.25012 10.9961C5.25012 11.4101 5.58612 11.7461 6.00012 11.7461H6.50012C6.91412 11.7461 7.25012 11.4101 7.25012 10.9961C7.25012 10.5821 6.91412 10.2461 6.50012 10.2461ZM18.0001 10.2461H17.5001C17.0861 10.2461 16.7501 10.5821 16.7501 10.9961C16.7501 11.4101 17.0861 11.7461 17.5001 11.7461H18.0001C18.4141 11.7461 18.7501 11.4101 18.7501 10.9961C18.7501 10.5821 18.4141 10.2461 18.0001 10.2461ZM13.5001 7.24609C13.0861 7.24609 12.7501 7.58209 12.7501 7.99609V8.5461C12.7501 8.6561 12.6601 8.74609 12.5501 8.74609H11.4501C11.3401 8.74609 11.2501 8.6561 11.2501 8.5461V7.99609C11.2501 7.58209 10.9141 7.24609 10.5001 7.24609C10.0861 7.24609 9.75012 7.58209 9.75012 7.99609V10.9961C9.75012 11.4101 10.0861 11.7461 10.5001 11.7461C10.9141 11.7461 11.2501 11.4101 11.2501 10.9961V10.4461C11.2501 10.3361 11.3401 10.2461 11.4501 10.2461H12.5501C12.6601 10.2461 12.7501 10.3361 12.7501 10.4461V10.9961C12.7501 11.4101 13.0861 11.7461 13.5001 11.7461C13.9141 11.7461 14.2501 11.4101 14.2501 10.9961V7.99609C14.2501 7.58209 13.9141 7.24609 13.5001 7.24609ZM7.04413 4.07909H4.64313C4.57613 4.07909 4.53512 4.08809 4.51312 4.09509C4.49612 4.10009 4.48713 4.1061 4.47713 4.1151C4.10813 4.4581 3.81012 5.01609 3.51112 5.91309H6.35213C6.47713 5.25509 6.71513 4.63709 7.04413 4.07909ZM19.3571 4.07909H16.9561C17.2851 4.63709 17.5231 5.25509 17.6481 5.91309H20.4891C20.1901 5.01609 19.8921 4.4581 19.5231 4.1151C19.5131 4.1061 19.5041 4.10009 19.4871 4.09509C19.4651 4.08809 19.4241 4.07909 19.3571 4.07909ZM13.0001 22.5461V18.7461C13.0001 18.1941 12.5521 17.7461 12.0001 17.7461C11.4481 17.7461 11.0001 18.1941 11.0001 18.7461V22.5461C11.0001 22.6561 11.0901 22.7461 11.2001 22.7461H12.8001C12.9101 22.7461 13.0001 22.6561 13.0001 22.5461Z" fill="#7C57FC"/>
</svg>
