<svg width="24" height="24" viewBox="0 0 24 24" fill="none" xmlns="http://www.w3.org/2000/svg">
<path d="M10.0732 1C11.8967 0.999972 13.3665 0.999861 14.5225 1.15527C15.7226 1.31663 16.7326 1.66231 17.5352 2.46484C18.2508 3.1805 18.6019 4.06135 18.7842 5.09473C19.8663 5.27281 20.7856 5.62348 21.5273 6.36523C22.3334 7.17145 22.6805 8.18666 22.8428 9.39355C22.9991 10.5565 22.9991 12.0356 22.999 13.8711V14.0176C22.9991 15.8527 22.9991 17.3313 22.8428 18.4941C22.6805 19.7012 22.3336 20.7171 21.5273 21.5234C20.7211 22.3297 19.7051 22.6766 18.498 22.8389C17.3352 22.9952 15.8567 22.9951 14.0215 22.9951H13.875C12.0395 22.9951 10.5604 22.9952 9.39746 22.8389C8.19056 22.6766 7.17535 22.3295 6.36914 21.5234C5.62851 20.7828 5.27796 19.8651 5.09961 18.7852C4.06411 18.6032 3.18163 18.2519 2.46484 17.5352C1.66231 16.7326 1.31663 15.7226 1.15527 14.5225C0.999861 13.3665 0.999972 11.8967 1 10.0732V9.92676C0.999972 8.10334 0.999861 6.63348 1.15527 5.47754C1.31664 4.27744 1.66231 3.26737 2.46484 2.46484C3.26737 1.66231 4.27744 1.31664 5.47754 1.15527C6.63348 0.999861 8.10334 0.999972 9.92676 1H10.0732ZM18.9707 7.17383C18.9985 7.98392 19 8.89915 19 9.92676V10.0732C19 11.8967 19.0001 13.3665 18.8447 14.5225C18.6834 15.7226 18.3377 16.7326 17.5352 17.5352C16.7326 18.3377 15.7226 18.6834 14.5225 18.8447C13.3665 19.0001 11.8967 19 10.0732 19H9.92676C8.90121 19 7.9876 18.9983 7.17871 18.9707C7.31941 19.5017 7.51781 19.844 7.7832 20.1094C8.15593 20.482 8.67902 20.724 9.66406 20.8564C10.6782 20.9928 12.0223 20.9951 13.9482 20.9951C15.8738 20.9951 17.2174 20.9927 18.2314 20.8564C19.2168 20.724 19.7405 20.4821 20.1133 20.1094C20.486 19.7366 20.7279 19.2129 20.8604 18.2275C20.9966 17.2135 20.999 15.8699 20.999 13.9443C20.999 12.0184 20.9967 10.6742 20.8604 9.66016C20.7279 8.67512 20.4859 8.15202 20.1133 7.7793C19.8472 7.51325 19.504 7.31459 18.9707 7.17383ZM10 3C8.08611 3 6.75127 3.00229 5.74414 3.1377C4.7658 3.26923 4.24792 3.50989 3.87891 3.87891C3.50989 4.24792 3.26923 4.7658 3.1377 5.74414C3.00229 6.75127 3 8.08611 3 10C3 10.0935 2.99997 10.1856 3 10.2764C3.29147 10.2604 3.58361 10.2515 3.87598 10.252C6.67993 10.2019 9.43049 10.9616 11.6367 12.416C13.2994 13.5122 14.5796 14.9585 15.3438 16.6064C15.6785 16.4791 15.922 16.3202 16.1211 16.1211C16.4901 15.7521 16.7308 15.2342 16.8623 14.2559C16.9977 13.2487 17 11.9139 17 10C17 8.08611 16.9977 6.75127 16.8623 5.74414C16.7308 4.7658 16.4901 4.24792 16.1211 3.87891C15.7521 3.50989 15.2342 3.26923 14.2559 3.1377C13.2487 3.00229 11.9139 3 10 3ZM13.2441 5.5C13.9265 5.5 14.5 6.05988 14.5 6.75C14.5 7.44012 13.9265 8 13.2441 8C12.557 7.99985 12 7.44027 12 6.75C12 6.05973 12.557 5.50015 13.2441 5.5Z" fill="white"/>
</svg>
