<svg width="24" height="24" viewBox="0 0 24 24" fill="none" xmlns="http://www.w3.org/2000/svg">
<path d="M12 20.0674C12 21.0475 12 21.5378 11.5527 21.8369C11.1052 22.136 10.754 21.9868 10.0527 21.6875C8.25886 20.9218 7.00004 19.1299 7 17.042C7 14.2574 9.23858 12 12 12V20.0674ZM20.0674 12C21.0475 12 21.5378 12 21.8369 12.4473C22.136 12.8948 21.9868 13.246 21.6875 13.9473C20.9218 15.7411 19.1299 17 17.042 17C14.2574 17 12 14.7614 12 12H20.0674ZM12.4473 2.16309C12.8948 1.86404 13.246 2.01319 13.9473 2.3125C15.7411 3.07819 17 4.87012 17 6.95801C17 9.74257 14.7614 12 12 12V3.93262C12 2.95248 12 2.46217 12.4473 2.16309ZM6.95801 7C9.74256 7 12 9.23858 12 12H3.93262C2.95248 12 2.46217 12 2.16309 11.5527C1.86404 11.1052 2.01319 10.754 2.3125 10.0527C3.07819 8.25886 4.87012 7.00004 6.95801 7Z" fill="white"/>
</svg>
