<svg width="24" height="24" viewBox="0 0 24 24" fill="none" xmlns="http://www.w3.org/2000/svg">
<path d="M12.0742 1.5C14.2502 1.49998 15.9856 1.49975 17.3457 1.68262C18.7499 1.87145 19.9031 2.27226 20.8154 3.18457C21.7277 4.09688 22.1285 5.25009 22.3174 6.6543C22.5002 8.01444 22.5 9.74979 22.5 11.9258V12.0742C22.5 14.2502 22.5002 15.9856 22.3174 17.3457C22.1285 18.7499 21.7277 19.9031 20.8154 20.8154C19.9031 21.7277 18.7499 22.1285 17.3457 22.3174C15.9856 22.5002 14.2502 22.5 12.0742 22.5H11.9258C9.74979 22.5 8.01444 22.5002 6.6543 22.3174C5.25009 22.1285 4.09688 21.7277 3.18457 20.8154C2.27226 19.9031 1.87145 18.7499 1.68262 17.3457C1.49975 15.9856 1.49998 14.2502 1.5 12.0742V11.9258C1.49998 9.74981 1.49975 8.01443 1.68262 6.6543C1.87145 5.25009 2.27226 4.09688 3.18457 3.18457C4.09688 2.27226 5.25009 1.87145 6.6543 1.68262C8.01443 1.49975 9.74981 1.49998 11.9258 1.5H12.0742ZM16.5225 12.7568C15.1532 12.8212 13.8567 13.3427 12.5967 14.1875C10.4162 15.6496 8.47508 17.9775 6.57031 20.2812C6.68154 20.3006 6.79798 20.3186 6.91992 20.335C8.13129 20.4978 9.73161 20.5 11.999 20.5C14.2661 20.5 15.8659 20.4978 17.0771 20.335C18.2598 20.176 18.9215 19.8802 19.4004 19.4014C19.8791 18.9226 20.175 18.2614 20.334 17.0791C20.4496 16.2193 20.4838 15.1635 20.4941 13.8125C19.037 12.9928 17.7229 12.7005 16.5225 12.7568ZM7.5 5.5C6.39543 5.5 5.5 6.39543 5.5 7.5C5.5 8.60457 6.39543 9.5 7.5 9.5C8.60457 9.5 9.5 8.60457 9.5 7.5C9.5 6.39543 8.60457 5.5 7.5 5.5Z" fill="white"/>
</svg>
