<svg width="20" height="20" viewBox="0 0 20 20" fill="none" xmlns="http://www.w3.org/2000/svg">
<path d="M15 0.833008C15.4602 0.833008 15.833 1.20675 15.833 1.66699V2.04102C15.6456 1.98158 15.4509 1.9328 15.249 1.8916C16.1342 2.07227 16.8815 2.40969 17.4854 3.0625C18.1756 3.80886 18.4728 4.74426 18.6133 5.87402C18.7501 6.97416 18.75 8.37828 18.75 10.1445V10.6885C18.75 12.4547 18.75 13.8588 18.6133 14.959C18.4728 16.0889 18.1758 17.0251 17.4854 17.7715C16.7864 18.5271 15.8953 18.8604 14.8203 19.0166C13.7903 19.1663 12.4808 19.167 10.8574 19.167H9.14258C7.51915 19.167 6.20971 19.1663 5.17969 19.0166C4.1047 18.8604 3.21363 18.5271 2.51465 17.7715C1.82422 17.0251 1.52724 16.0889 1.38672 14.959C1.24995 13.8588 1.24998 12.4547 1.25 10.6885V10.1445C1.24998 8.37828 1.24992 6.97416 1.38672 5.87402C1.52722 4.74426 1.82445 3.80886 2.51465 3.0625C3.11828 2.40992 3.86524 2.07232 4.75 1.8916C4.54848 1.93276 4.3541 1.98167 4.16699 2.04102V1.66699C4.16699 1.20675 4.53976 0.833008 5 0.833008C5.46024 0.833008 5.83301 1.20675 5.83301 1.66699V1.74316C5.78429 1.74724 5.73616 1.75231 5.68848 1.75684C6.63094 1.66743 7.7754 1.66697 9.14258 1.66699H10.8574C12.2241 1.66697 13.3683 1.66753 14.3105 1.75684C14.2632 1.75235 14.2154 1.74721 14.167 1.74316V1.66699C14.167 1.20676 14.5398 0.833008 15 0.833008ZM3.74805 7.5C3.36596 7.5 3.17442 7.5 3.05273 7.62012C2.93126 7.74026 2.92872 7.92955 2.92383 8.30664C2.91656 8.86751 2.91699 9.49573 2.91699 10.2031V10.6309C2.91699 12.4681 2.91848 13.7686 3.04102 14.7539C3.16136 15.7214 3.38531 16.2581 3.73828 16.6396C4.08269 17.012 4.55388 17.2414 5.41895 17.3672C6.3152 17.4975 7.50339 17.5 9.20801 17.5H10.792C12.4966 17.5 13.6848 17.4975 14.5811 17.3672C15.4461 17.2414 15.9173 17.012 16.2617 16.6396C16.6147 16.2581 16.8386 15.7214 16.959 14.7539C17.0815 13.7686 17.083 12.4681 17.083 10.6309V10.2031C17.083 9.49573 17.0834 8.86751 17.0762 8.30664C17.0713 7.92955 17.0687 7.74026 16.9473 7.62012C16.8256 7.5 16.634 7.5 16.252 7.5H3.74805ZM6.67383 13.125C7.24913 13.125 7.71582 13.5917 7.71582 14.167C7.71564 14.7421 7.24902 15.208 6.67383 15.208H6.66699C6.0918 15.208 5.62518 14.7421 5.625 14.167C5.625 13.5917 6.0917 13.125 6.66699 13.125H6.67383ZM10.0039 13.125C10.5791 13.1251 11.0449 13.5918 11.0449 14.167C11.0447 14.7421 10.579 15.2079 10.0039 15.208H9.99609C9.42098 15.2079 8.95525 14.7421 8.95508 14.167C8.95508 13.5918 9.42087 13.1251 9.99609 13.125H10.0039ZM6.67383 9.79199C7.24902 9.79199 7.71564 10.2579 7.71582 10.833C7.71582 11.4083 7.24913 11.875 6.67383 11.875H6.66699C6.0917 11.875 5.625 11.4083 5.625 10.833C5.62518 10.2579 6.0918 9.79199 6.66699 9.79199H6.67383ZM10.0039 9.79199C10.579 9.79208 11.0447 10.2579 11.0449 10.833C11.0449 11.4082 10.5791 11.8749 10.0039 11.875H9.99609C9.42087 11.8749 8.95508 11.4082 8.95508 10.833C8.95525 10.2579 9.42098 9.79208 9.99609 9.79199H10.0039ZM13.333 9.79199C13.9082 9.79199 14.3748 10.2579 14.375 10.833C14.375 11.4083 13.9083 11.875 13.333 11.875H13.3262C12.7509 11.875 12.2842 11.4083 12.2842 10.833C12.2844 10.2579 12.751 9.79199 13.3262 9.79199H13.333Z" fill="#4A4A4A"/>
</svg>
