<svg width="20" height="20" viewBox="0 0 20 20" fill="none" xmlns="http://www.w3.org/2000/svg">
<path d="M1.51833 14.0695C1.57997 14.0695 1.65459 14.1199 1.80446 14.2365C2.2103 14.5365 2.71864 14.6275 3.21364 14.6525C3.77769 14.6691 4.34448 14.6199 4.90602 14.5783C5.26095 14.5533 5.7291 14.5194 6.24392 14.4445C6.48642 14.4195 6.60811 14.4033 6.68727 14.4533C6.76717 14.5116 6.79541 14.6361 6.85036 14.8859C6.8995 15.1107 6.96238 15.3276 7.03981 15.5441C7.3648 16.444 7.23911 17.486 6.49587 18.2277C5.78007 18.936 4.56503 19.0695 3.77419 18.2863C3.19761 17.7114 2.46662 16.9865 2.06325 16.3449C1.71833 15.795 1.48711 15.1947 1.3904 14.4533C1.36878 14.2786 1.35732 14.1947 1.3904 14.1447C1.41873 14.103 1.4675 14.0778 1.51833 14.0695ZM2.08669 8.58705C2.21324 8.55387 2.33646 8.66218 2.58278 8.88686C3.27359 9.49517 3.96833 9.99507 4.69997 10.4201C5.75497 11.0284 6.87192 11.4791 8.13942 11.8624C8.20639 11.8872 8.23951 11.8957 8.26442 11.9122C8.35018 11.9622 8.39819 12.0536 8.38747 12.1535C8.31497 12.8118 7.52871 12.9372 7.00954 13.0539C6.19737 13.2287 5.38598 13.2866 4.7986 13.3283C3.50112 13.4283 2.65832 13.4453 1.67751 12.4787C1.34004 12.1454 1.13179 11.6455 1.16091 11.1622C1.17091 10.9956 1.19868 10.8955 1.25368 10.6955C1.39116 10.1705 1.5704 9.6121 1.78786 9.05385C1.90203 8.76218 1.96002 8.62039 2.08669 8.58705ZM6.02907 2.72866C6.73059 2.3455 7.12652 2.52872 7.65895 3.10366C9.20211 4.75366 10.2352 7.23721 10.5935 9.46205C10.6941 10.0869 10.2416 10.7198 9.62673 10.8781C8.4201 11.1863 6.30863 9.91208 5.32692 9.33705C4.54942 8.88705 3.80691 8.33647 3.04274 7.61147C2.70449 7.28655 2.53515 7.12816 2.49099 6.84487C2.44688 6.56996 2.55311 6.37019 2.76638 5.97866C3.48554 4.66199 4.53886 3.55326 5.8572 2.82826C5.91462 2.79498 5.97165 2.76194 6.02907 2.72866ZM10.6785 1.23744C11.5301 1.00454 12.7802 1.85483 13.116 2.58803C13.4692 3.36287 13.4585 4.32906 13.406 5.16225C13.3494 6.07058 13.2835 7.97905 12.2351 8.37905C12.0322 8.45388 11.9308 8.49612 11.8591 8.47963C11.8141 8.4713 11.7704 8.44604 11.7371 8.42104C11.6838 8.37102 11.6633 8.27902 11.6209 8.11244C11.4467 7.42085 11.2152 6.77106 10.9744 6.27944L10.1101 4.52065C9.88251 4.05392 9.39119 3.27064 8.83474 2.57924C8.63003 2.32128 8.52721 2.19626 8.55935 2.07143C8.59184 1.9548 8.73462 1.89604 9.02028 1.77944C9.58528 1.56277 10.1643 1.37078 10.6785 1.23744ZM14.1365 1.42787C14.1942 1.40315 14.3334 1.43605 14.6111 1.51088C15.9893 1.88586 17.2659 2.76963 18.3025 3.80287C19.095 4.58619 18.9596 5.803 18.2429 6.51967C17.5004 7.26134 16.46 7.38666 15.5584 7.06166C15.3676 6.99502 15.1738 6.93587 14.9763 6.88588C14.7207 6.82759 14.5929 6.80308 14.5379 6.71987C14.4837 6.63653 14.5027 6.51088 14.5427 6.26088C14.5969 5.91108 14.6334 5.56962 14.655 5.23647C14.7059 4.4198 14.6648 3.62768 14.534 2.97768C14.4681 2.64441 14.3773 2.33609 14.2556 2.06948C14.109 1.74448 14.0346 1.58582 14.0554 1.52748C14.0713 1.47778 14.0933 1.4528 14.1365 1.42787Z" fill="#4A4A4A"/>
</svg>
