<svg width="20" height="20" viewBox="0 0 20 20" fill="none" xmlns="http://www.w3.org/2000/svg">
<path d="M12.3434 12.6074C12.4304 12.5549 12.5428 12.5804 12.7672 12.6318L17.6109 13.7431C17.8463 13.7971 17.9644 13.8244 17.9898 13.9228C18.0148 14.0209 17.9305 14.0962 17.7623 14.246C17.7261 14.2783 17.6887 14.3102 17.651 14.3417C17.2168 14.704 16.6144 15.0784 15.8863 15.5312L12.1197 17.873C11.7034 18.1319 11.3503 18.352 11.0406 18.5029C10.9933 18.5259 10.9695 18.5374 10.943 18.541C10.8523 18.5535 10.7581 18.4768 10.7525 18.3857C10.7509 18.359 10.7587 18.3296 10.774 18.2714L12.1685 12.9921C12.2271 12.7705 12.2564 12.6598 12.3434 12.6074ZM9.78964 12.6679C10.1324 12.6142 10.304 12.5878 10.3951 12.6884C10.4862 12.7889 10.4424 12.9566 10.3541 13.291L8.97812 18.4999C8.9776 18.5016 8.97585 18.5024 8.97421 18.5019C8.66461 18.3511 8.31134 18.1318 7.89511 17.873L4.12753 15.5302C3.39967 15.0776 2.79788 14.7029 2.36386 14.3408C2.35485 14.3332 2.34544 14.3259 2.33652 14.3183C2.14792 14.1586 2.05362 14.0786 2.08261 13.9755C2.11168 13.8724 2.2417 13.8522 2.50155 13.8115L9.78964 12.6679ZM8.97421 1.36713C9.06496 1.40034 9.0839 1.50924 9.12167 1.72553L10.6266 10.3476C10.6678 10.5835 10.6888 10.7017 10.6275 10.7871C10.5662 10.8721 10.4469 10.8905 10.2096 10.9277L1.85995 12.2372C1.65592 12.2692 1.55359 12.285 1.49277 12.2148C1.43223 12.1446 1.46089 12.0547 1.51718 11.8749C1.57614 11.6868 1.65586 11.4998 1.75058 11.3124C2.00814 10.8032 2.41513 10.2127 2.90976 9.49506L6.66562 4.04584C7.29039 3.13931 7.79878 2.40201 8.26718 1.8974C8.38982 1.76529 8.51666 1.64115 8.64902 1.53022C8.80483 1.39962 8.88326 1.33408 8.97421 1.36713ZM10.8531 1.27045C10.9505 1.2113 11.0485 1.28503 11.2437 1.43256C11.4212 1.56668 11.5876 1.72501 11.7476 1.8974C12.216 2.402 12.7244 3.13931 13.3492 4.04584L17.1051 9.49506C17.5997 10.2126 18.0067 10.8032 18.2642 11.3124C18.3461 11.4742 18.4174 11.6355 18.4732 11.7978C18.5398 11.9915 18.5724 12.0881 18.5064 12.1611C18.4405 12.234 18.3318 12.209 18.1139 12.1591L12.7437 10.9277C12.5861 10.8915 12.5068 10.8731 12.4547 10.8183C12.4026 10.7635 12.3886 10.684 12.3609 10.5253L10.8248 1.72455C10.7788 1.46122 10.7557 1.32959 10.8531 1.27045Z" fill="#7C57FC"/>
</svg>
