<svg width="20" height="20" viewBox="0 0 20 20" fill="none" xmlns="http://www.w3.org/2000/svg">
<path d="M10 1.04199C11.97 1.04199 13.6742 2.21742 14.2012 3.87207C15.7321 4.31746 16.8749 5.60254 16.875 7.16406C16.875 8.70261 15.7691 9.96912 14.2715 10.4336L13.6426 12.4854C13.0336 14.4705 12.5571 16.0221 12.0801 17.0732C11.8393 17.6038 11.5755 18.0606 11.2559 18.3906C10.9204 18.737 10.5039 18.9619 10 18.9619C9.49617 18.9619 9.07961 18.737 8.74414 18.3906C8.42457 18.0605 8.16071 17.6038 7.91992 17.0732C7.44284 16.022 6.96644 14.4697 6.35742 12.4844L5.67773 10.2705C4.1849 9.65961 3.12501 8.31822 3.125 6.7207C3.125 4.93611 4.45196 3.46599 6.22168 2.98438C6.98413 1.81272 8.40059 1.04199 10 1.04199ZM10 2.63867C8.90052 2.63867 7.97863 3.21869 7.57422 4.0166C7.45723 4.2474 7.22857 4.41277 6.95898 4.46094C5.72274 4.68138 4.84375 5.63349 4.84375 6.7207C4.84376 7.95851 5.98993 9.02719 7.49316 9.02734C8.23393 9.02734 8.89574 8.7639 9.37207 8.34668C9.22236 7.97795 9.14062 7.57921 9.14062 7.16406C9.14079 6.72313 9.52548 6.36621 10 6.36621C10.4745 6.36621 10.8592 6.72313 10.8594 7.16406C10.8594 7.49119 10.9562 7.79816 11.1279 8.06641C11.489 8.63006 12.1866 9.02734 13.0078 9.02734C14.2344 9.02734 15.1562 8.15693 15.1562 7.16406C15.1561 6.56712 14.8246 6.01652 14.293 5.6709C14.2218 6.00912 14.1022 6.33248 13.9404 6.63379C13.7285 7.02828 13.2127 7.18801 12.7881 6.99121C12.3635 6.79439 12.1907 6.31553 12.4023 5.9209C12.5613 5.62484 12.6494 5.29499 12.6494 4.94629C12.6494 4.84376 12.6416 4.74281 12.627 4.64453C12.4621 3.54231 11.3778 2.63867 10 2.63867Z" fill="#4A4A4A"/>
</svg>
