<svg width="16" height="16" viewBox="0 0 16 16" fill="none" xmlns="http://www.w3.org/2000/svg">
<path fill-rule="evenodd" clip-rule="evenodd" d="M5.83268 4.49967C5.83268 3.30306 6.80273 2.33301 7.99935 2.33301C9.19597 2.33301 10.166 3.30306 10.166 4.49967V5.33301H5.83268V4.49967ZM4.83268 5.37981V4.49967C4.83268 2.75077 6.25045 1.33301 7.99935 1.33301C9.74825 1.33301 11.166 2.75077 11.166 4.49967V5.37981C12.3998 5.61384 13.3327 6.69781 13.3327 7.99967V11.9997C13.3327 13.4724 12.1388 14.6663 10.666 14.6663H5.33268C3.85992 14.6663 2.66602 13.4724 2.66602 11.9997V7.99967C2.66602 6.69781 3.59892 5.61384 4.83268 5.37981ZM9.33268 9.99967C9.33268 10.7361 8.73573 11.333 7.99935 11.333C7.26297 11.333 6.66602 10.7361 6.66602 9.99967C6.66602 9.26329 7.26297 8.66634 7.99935 8.66634C8.73573 8.66634 9.33268 9.26329 9.33268 9.99967Z" fill="#7C57FC"/>
</svg>
