<svg width="20" height="20" viewBox="0 0 20 20" fill="none" xmlns="http://www.w3.org/2000/svg">
<path d="M10.625 17.708H11.667C12.0119 17.7082 12.2918 17.9881 12.292 18.333C12.292 18.6781 12.012 18.9578 11.667 18.958H8.33301C7.98798 18.9578 7.70801 18.6781 7.70801 18.333C7.70818 17.9881 7.98809 17.7082 8.33301 17.708H9.375V14.792H10.625V17.708ZM10 1.04199C12.6987 1.04199 14.5461 3.02961 14.7686 5.42676C16.7138 6.03674 18.125 7.85313 18.125 10C18.125 12.6464 15.9794 14.792 13.333 14.792H10.625V12.7588L12.5254 10.8584C12.7693 10.6143 12.7694 10.2186 12.5254 9.97461C12.2814 9.73059 11.8857 9.73069 11.6416 9.97461L10.625 10.9912V7.5C10.625 7.15482 10.3452 6.875 10 6.875C9.65482 6.875 9.375 7.15482 9.375 7.5V9.32422L8.3584 8.30762C8.11435 8.06392 7.71859 8.06381 7.47461 8.30762C7.23053 8.55169 7.23053 8.94831 7.47461 9.19238L9.375 11.0918V14.792H6.66699C4.02063 14.792 1.875 12.6464 1.875 10C1.875 7.85313 3.28623 6.03674 5.23145 5.42676C5.45392 3.02961 7.30132 1.04199 10 1.04199Z" fill="#4A4A4A"/>
</svg>
