<svg width="32" height="32" viewBox="0 0 32 32" fill="none" xmlns="http://www.w3.org/2000/svg">
<path d="M7.92528 19.7832C12.664 16.9616 18.669 16.9616 23.4077 19.7832C23.5627 19.8754 23.7545 19.9831 23.9712 20.1055C24.9215 20.6416 26.358 21.4527 27.3423 22.416C27.9579 23.0185 28.5435 23.8124 28.6499 24.7852C28.7629 25.8195 28.311 26.7899 27.4057 27.6523C25.8439 29.1403 23.9697 30.333 21.5454 30.333H9.78758C7.36317 30.333 5.48917 29.1403 3.92723 27.6523C3.02192 26.7898 2.57006 25.8195 2.68309 24.7852C2.78941 23.8125 3.37427 23.0185 3.98973 22.416C4.97396 21.4527 6.41139 20.6416 7.3618 20.1055C7.57849 19.9832 7.77031 19.8754 7.92528 19.7832ZM15.6665 1.66699C19.5324 1.6671 22.6665 4.80106 22.6665 8.66699C22.6663 12.5328 19.5323 15.6669 15.6665 15.667C11.8007 15.667 8.66667 12.5328 8.66649 8.66699C8.66649 4.80099 11.8005 1.66699 15.6665 1.66699Z" fill="#7C57FC"/>
</svg>
