<svg width="20" height="20" viewBox="0 0 20 20" fill="none" xmlns="http://www.w3.org/2000/svg">
<path d="M3.13573 12.5342C5.55421 11.1527 8.61476 11.1526 11.0332 12.5342C11.1065 12.5761 11.1991 12.6255 11.3047 12.6826C11.7797 12.9395 12.5253 13.3426 13.0351 13.8213C13.3526 14.1194 13.6809 14.5363 13.7412 15.0654C13.8063 15.6379 13.5414 16.1548 13.0654 16.5898C12.2663 17.3203 11.2945 17.917 10.0342 17.917H4.13476C2.87451 17.917 1.90263 17.3203 1.10351 16.5898C0.62748 16.1547 0.3626 15.6379 0.427725 15.0654C0.488012 14.5363 0.816341 14.1194 1.13378 13.8213C1.64356 13.3427 2.38828 12.9395 2.86327 12.6826C2.96905 12.6254 3.06231 12.5761 3.13573 12.5342ZM12.6211 11.625C12.6991 11.4393 13.0409 11.4727 13.7236 11.54C14.7822 11.6444 15.8187 11.9181 16.7607 12.3604C16.834 12.3948 16.9267 12.4361 17.0332 12.4834C17.5166 12.6981 18.2846 13.0385 18.8105 13.4443C19.1315 13.692 19.5037 14.0659 19.5732 14.5674C19.6505 15.1257 19.3291 15.5993 18.8398 15.9668C18.0143 16.5868 17.0214 17.083 15.7451 17.083C15.2955 17.083 15.0704 17.0832 14.9853 16.9824C14.9801 16.9762 14.9773 16.9724 14.9726 16.9658C14.8969 16.8592 14.984 16.6337 15.1592 16.1836C15.3063 15.8056 15.3719 15.3868 15.3154 14.9326C15.1934 13.9523 14.5467 13.2691 14.1055 12.8896C13.9094 12.7211 13.6859 12.5593 13.4551 12.4082C12.8471 12.0102 12.5431 11.8107 12.6211 11.625ZM7.08398 2.08301C9.34049 2.08301 11.1698 3.90332 11.1699 6.14844C11.1699 8.39365 9.34056 10.2139 7.08398 10.2139C4.82745 10.2138 2.99804 8.39361 2.99804 6.14844C2.99815 3.90337 4.82752 2.08308 7.08398 2.08301ZM13.2109 3.75C15.1662 3.75017 16.7508 5.19423 16.751 6.97559C16.751 8.75704 15.1663 10.201 13.2109 10.2012C12.644 10.2012 12.1079 10.0801 11.6328 9.86426C11.4047 9.76065 11.2904 9.70895 11.2578 9.5957C11.2253 9.48223 11.311 9.36698 11.4824 9.1377C12.1261 8.27646 12.5019 7.23573 12.5019 6.11523C12.5019 5.53731 12.4021 4.98071 12.2168 4.45898C12.1229 4.19468 12.0762 4.06254 12.1426 3.96191C12.2089 3.86129 12.3347 3.84056 12.5859 3.7998C12.7887 3.76693 12.9978 3.75 13.2109 3.75Z" fill="#7C57FC"/>
</svg>
