<svg width="20" height="20" viewBox="0 0 20 20" fill="none" xmlns="http://www.w3.org/2000/svg">
<path fill-rule="evenodd" clip-rule="evenodd" d="M10.0327 1.875H9.94935C9.19935 1.875 8.57436 1.87507 8.08269 1.94173C7.55769 2.0084 7.09102 2.16672 6.70768 2.55005C6.33268 2.92505 6.17435 3.39997 6.10768 3.92497C6.05768 4.2833 6.04935 4.71667 6.04102 5.21667C5.53268 5.22501 5.09101 5.24174 4.69935 5.28341C3.95768 5.35841 3.34102 5.51671 2.79935 5.87504C2.36602 6.16671 1.99935 6.53342 1.70768 6.96676C1.34935 7.50842 1.19103 8.12511 1.11603 8.86678C1.04103 9.58345 1.04102 10.5584 1.04102 11.7C1.04102 12.8417 1.04103 13.7501 1.11603 14.4668C1.19103 15.2084 1.34935 15.8251 1.70768 16.3668C1.99935 16.8001 2.36602 17.1666 2.79935 17.4583C3.34102 17.8166 3.95768 17.9749 4.69935 18.0499C5.42435 18.1249 6.32435 18.125 7.46602 18.125H12.5327C13.6744 18.125 14.5743 18.1249 15.2993 18.0499C16.041 17.9749 16.6577 17.8166 17.1993 17.4583C17.6327 17.1666 17.9994 16.8001 18.291 16.3668C18.6494 15.8251 18.8077 15.2084 18.8827 14.4668C18.9577 13.7501 18.9577 12.8417 18.9577 11.7C18.9577 10.5584 18.9577 9.58345 18.8827 8.86678C18.8077 8.12511 18.6494 7.50842 18.291 6.96676C17.9994 6.53342 17.6327 6.16671 17.1993 5.87504C16.6577 5.51671 16.041 5.35841 15.2993 5.28341C14.9077 5.24174 14.466 5.22501 13.9577 5.21667C13.9577 4.71667 13.941 4.2833 13.891 3.92497C13.8243 3.39997 13.666 2.92505 13.291 2.55005C12.9077 2.16672 12.441 2.0084 11.916 1.94173C11.4244 1.87507 10.7994 1.875 10.0494 1.875H10.0327ZM12.6994 5.20833C12.6994 4.73333 12.6827 4.37493 12.641 4.09159C12.591 3.69993 12.4994 3.54176 12.391 3.43343C12.2827 3.3251 12.116 3.23339 11.7327 3.18339C11.3327 3.12506 10.791 3.125 9.98269 3.125C9.17436 3.125 8.64102 3.12506 8.23269 3.18339C7.84935 3.23339 7.68269 3.3251 7.57436 3.43343C7.46603 3.54176 7.37436 3.69993 7.32436 4.09159C7.28269 4.37493 7.27435 4.73333 7.26602 5.20833H12.6827H12.6994ZM4.39102 8.98336C4.49102 8.65002 4.84102 8.46669 5.17435 8.56669L5.71602 8.74166C8.45768 9.58332 11.516 9.58332 14.2577 8.74166L14.7994 8.56669C15.1327 8.46669 15.4827 8.65002 15.5827 8.98336C15.6827 9.30836 15.4994 9.65831 15.1744 9.76664L14.6327 9.93327C13.341 10.3333 11.9827 10.5583 10.616 10.6167V11.6667C10.616 12.0083 10.3327 12.2917 9.99102 12.2917C9.64935 12.2917 9.36602 12.0083 9.36602 11.6667V10.6167C7.99935 10.5583 6.64101 10.3333 5.34935 9.93327L4.80769 9.76664C4.47435 9.65831 4.29101 9.30836 4.39935 8.98336H4.39102Z" fill="#7C57FC"/>
</svg>
