<svg width="18" height="18" viewBox="0 0 18 18" fill="none" xmlns="http://www.w3.org/2000/svg">
<path fill-rule="evenodd" clip-rule="evenodd" d="M5.25 1.5C5.25 1.08579 4.91421 0.75 4.5 0.75C4.08579 0.75 3.75 1.08579 3.75 1.5V1.83664C3.17912 2.01772 2.683 2.30245 2.26352 2.75595C1.64212 3.42773 1.37459 4.26954 1.24812 5.28649C1.12498 6.2767 1.12499 7.54054 1.125 9.13039V9.1304V9.61959V9.6196C1.12499 11.2094 1.12498 12.4733 1.24812 13.4635C1.37459 14.4805 1.64212 15.3223 2.26352 15.9941C2.8926 16.6741 3.69401 16.9747 4.6615 17.1153C5.58856 17.25 6.7672 17.25 8.22842 17.25H9.77157C11.2328 17.25 12.4114 17.25 13.3385 17.1153C14.306 16.9747 15.1074 16.6741 15.7365 15.9941C16.3579 15.3223 16.6254 14.4805 16.7519 13.4635C16.875 12.4733 16.875 11.2094 16.875 9.61958V9.13043C16.875 7.54056 16.875 6.27671 16.7519 5.28649C16.6254 4.26954 16.3579 3.42773 15.7365 2.75595C15.317 2.30245 14.8209 2.01772 14.25 1.83664V1.5C14.25 1.08579 13.9142 0.75 13.5 0.75C13.0858 0.75 12.75 1.08579 12.75 1.5V1.5688C11.9272 1.49997 10.9397 1.49998 9.77158 1.5H8.22842H8.22841C7.06031 1.49998 6.07278 1.49997 5.25 1.5688V1.5ZM3.37337 6.75H3.37337C3.0294 6.75 2.85742 6.75 2.74789 6.85812C2.63836 6.96625 2.63615 7.13604 2.63175 7.47564C2.6252 7.98051 2.625 8.54564 2.625 9.18243V9.56757C2.625 11.2212 2.62637 12.3916 2.73665 13.2784C2.84495 14.1492 3.04697 14.632 3.36466 14.9755C3.67467 15.3106 4.09852 15.5177 4.87725 15.6309C5.68393 15.7481 6.75319 15.75 8.2875 15.75H9.7125C11.2468 15.75 12.3161 15.7481 13.1228 15.6309C13.9015 15.5177 14.3253 15.3106 14.6353 14.9755C14.953 14.632 15.155 14.1492 15.2633 13.2784C15.3736 12.3916 15.375 11.2212 15.375 9.56757V9.18243C15.375 8.54564 15.3748 7.98051 15.3683 7.47564V7.47563C15.3638 7.13604 15.3616 6.96625 15.2521 6.85812C15.1426 6.75 14.9706 6.75 14.6266 6.75H3.37337ZM6 8.8125C5.48223 8.8125 5.0625 9.23223 5.0625 9.75C5.0625 10.2678 5.48223 10.6875 6 10.6875H6.00673C6.5245 10.6875 6.94423 10.2678 6.94423 9.75C6.94423 9.23223 6.5245 8.8125 6.00673 8.8125H6ZM8.99664 8.8125C8.47887 8.8125 8.05914 9.23223 8.05914 9.75C8.05914 10.2678 8.47887 10.6875 8.99664 10.6875H9.00336C9.52113 10.6875 9.94086 10.2678 9.94086 9.75C9.94086 9.23223 9.52113 8.8125 9.00336 8.8125H8.99664ZM11.9933 8.8125C11.4755 8.8125 11.0558 9.23223 11.0558 9.75C11.0558 10.2678 11.4755 10.6875 11.9933 10.6875H12C12.5178 10.6875 12.9375 10.2678 12.9375 9.75C12.9375 9.23223 12.5178 8.8125 12 8.8125H11.9933ZM6 11.8125C5.48223 11.8125 5.0625 12.2322 5.0625 12.75C5.0625 13.2678 5.48223 13.6875 6 13.6875H6.00673C6.5245 13.6875 6.94423 13.2678 6.94423 12.75C6.94423 12.2322 6.5245 11.8125 6.00673 11.8125H6ZM8.99664 11.8125C8.47887 11.8125 8.05914 12.2322 8.05914 12.75C8.05914 13.2678 8.47887 13.6875 8.99664 13.6875H9.00336C9.52113 13.6875 9.94086 13.2678 9.94086 12.75C9.94086 12.2322 9.52113 11.8125 9.00336 11.8125H8.99664Z" fill="#7C57FC"/>
</svg>
