<svg preserveAspectRatio="none" width="100%" height="100%" overflow="visible" style="display: block;" viewBox="0 0 16 16" fill="none" xmlns="http://www.w3.org/2000/svg">
<g id="plane-alt-svgrepo-com 2">
<path id="Vector" d="M2.276 9.18533L1.33333 10.128L4.63267 11.542L6.04733 14.842L6.99 13.8993L6.51867 11.542L8.72733 9.33333L11.134 14.4693L12.0267 13.5767L11.2333 6.828L13.1187 4.942C13.246 4.819 13.3476 4.67188 13.4175 4.50921C13.4873 4.34653 13.5241 4.17157 13.5257 3.99453C13.5272 3.8175 13.4935 3.64192 13.4264 3.47806C13.3594 3.3142 13.2604 3.16533 13.1352 3.04014C13.01 2.91495 12.8611 2.81595 12.6973 2.7489C12.5334 2.68186 12.3578 2.64813 12.1808 2.64967C12.0038 2.6512 11.8288 2.68799 11.6661 2.75787C11.5035 2.82774 11.3563 2.92932 11.2333 3.05667L9.298 4.992L2.54933 4.198L1.706 5.042L6.802 7.48867L4.63333 9.65733L2.276 9.18533Z" fill="var(--fill-0, white)"/>
</g>
</svg>
