<svg preserveAspectRatio="none" width="100%" height="100%" overflow="visible" style="display: block;" viewBox="0 0 16 16" fill="none" xmlns="http://www.w3.org/2000/svg">
<g id="ball-controller-game-sports-svgrepo-com 1">
<path id="Vector" d="M12.2006 13.1646C13.6965 11.9421 14.6513 10.0825 14.6513 7.99999C14.6513 5.91753 13.6965 4.05808 12.2008 2.83555L13.1226 3.75734C10.7794 6.10048 10.7794 9.89946 13.1226 12.2426L12.2006 13.1646Z" fill="var(--fill-0, white)"/>
<path id="Vector_2" d="M12.1852 13.1833C9.32427 10.32 9.32427 5.68003 12.1852 2.81672C11.0399 1.88907 9.58101 1.33336 7.99227 1.33336C6.40349 1.33336 4.94451 1.88913 3.79915 2.81687C6.65994 5.68013 6.65994 10.3199 3.79913 13.1832C4.9445 14.1109 6.40348 14.6667 7.99227 14.6667C9.58101 14.6667 11.0399 14.111 12.1852 13.1833Z" fill="var(--fill-0, white)"/>
<path id="Vector_3" d="M3.78227 13.1632C2.28747 11.9406 1.33334 10.0818 1.33334 8.00002C1.33334 5.91838 2.2874 4.05958 3.7821 2.83703L2.86177 3.75736C5.20492 6.1005 5.20492 9.89948 2.86177 12.2426L3.78227 13.1632Z" fill="var(--fill-0, white)"/>
</g>
</svg>
