<svg preserveAspectRatio="none" width="100%" height="100%" overflow="visible" style="display: block;" viewBox="0 0 14 8.14518" fill="none" xmlns="http://www.w3.org/2000/svg">
<g id="Group">
<path id="Vector" d="M14 2.83612V1.18254C14 0.52943 13.4706 1.05913e-09 12.8176 1.05913e-09H1.1824C0.529402 -2.73427e-05 0 0.529402 0 1.18251V2.84714C0.600387 2.93338 1.06241 3.44838 1.06241 4.07266C1.06241 4.69695 0.600387 5.21199 0 5.29802V6.96287C0 7.61575 0.529402 8.14518 1.1824 8.14518H12.8175C13.4705 8.14518 14 7.61575 14 6.96287V5.30904C13.343 5.2783 12.8195 4.73736 12.8195 4.07269C12.8195 3.40804 13.343 2.8671 14 2.83612ZM3.32268 7.39911H2.91588V6.33812H3.32268V7.39911ZM3.32268 5.53506H2.91588V4.47409H3.32268V5.53506ZM3.32268 3.67106H2.91588V2.60985H3.32268V3.67106ZM3.32268 1.80707H2.91588V0.746074H3.32268V1.80707Z" fill="var(--fill-0, white)"/>
</g>
</svg>
