<svg preserveAspectRatio="none" width="100%" height="100%" overflow="visible" style="display: block;" viewBox="0 0 15.9999 12.5472" fill="none" xmlns="http://www.w3.org/2000/svg">
<path id="Vector" d="M13.3521 9.87835C14.9366 9.87835 15.9999 8.15303 15.9999 6.54189C15.9999 5.37294 15.2784 5.21454 14.5727 5.21454C14.3712 5.21454 14.1538 5.22814 13.9238 5.24238C13.7382 5.2526 13.5457 5.26167 13.3516 5.2662L13.3539 5.21454H0.0879744C0.0879744 7.71077 1.49022 9.88177 3.55616 10.9956C1.4403 11.1347 0 11.4084 0 11.7223C0 12.1793 3.00891 12.5472 6.72062 12.5472C10.4323 12.5472 13.4407 12.1793 13.4407 11.7223C13.4407 11.4066 11.9936 11.1335 9.86975 10.995C10.4874 10.6623 11.0472 10.2394 11.5275 9.73749C12.0878 9.87835 12.7515 9.87835 13.3521 9.87835ZM13.3277 5.72717C13.5417 5.72205 13.7513 5.71299 13.9516 5.69991C14.1742 5.688 14.3853 5.67551 14.5732 5.67551C15.242 5.67551 15.5412 5.80096 15.5412 6.54183C15.5412 7.90264 14.6425 9.41901 13.3526 9.41901C12.786 9.41901 12.2893 9.4071 11.8834 9.3401C12.6999 8.33757 13.2215 7.0903 13.3277 5.72717ZM5.75157 3.92183C5.7192 3.89005 4.97212 3.11286 5.76063 2.15961C6.72405 0.997469 5.76122 0.0096458 5.75157 0L5.54267 0.208896C5.57504 0.240099 6.32212 1.01845 5.53303 1.97111C4.56961 3.13494 5.53245 4.12335 5.54267 4.13241L5.75157 3.92183ZM6.89948 3.92183C6.86711 3.89005 6.12003 3.11286 6.90912 2.15961C7.87138 0.997469 6.90912 0.0096458 6.89948 0L6.69 0.208896C6.72237 0.240099 7.46945 1.01845 6.68094 1.97111C5.71868 3.13552 6.68036 4.12335 6.69058 4.13299L6.89948 3.92183ZM8.1496 3.92183C8.11723 3.89005 7.37015 3.11286 8.15866 2.15961C9.1215 0.997469 8.15866 0.0096458 8.1496 0L7.93954 0.208896C7.97132 0.240099 8.71957 1.01845 7.92989 1.97111C6.96764 3.13552 7.92989 4.12335 7.94012 4.13299L8.1496 3.92183Z" fill="var(--fill-0, white)"/>
</svg>
