<svg preserveAspectRatio="none" width="100%" height="100%" overflow="visible" style="display: block;" viewBox="0 0 16 16" fill="none" xmlns="http://www.w3.org/2000/svg">
<g id="farm-tree-garden-svgrepo-com 1" clip-path="url(#clip0_3635_20124)">
<path id="Vector" d="M11.5 6.55V5.5C11.5 3.55 9.95 2 8 2C6.05 2 4.5 3.55 4.5 5.5V6.55C3.1 6.8 2 8 2 9.5C2 11.15 3.35 12.5 5 12.5H7V16C7 16 7.7 16 8 16C8.3 16 9 16.3 9 16V12.5H11C12.65 12.5 14 11.15 14 9.5C14 8 12.9 6.8 11.5 6.55Z" fill="var(--fill-0, white)"/>
</g>
<defs>
<clipPath id="clip0_3635_20124">
<rect width="16" height="16" fill="white"/>
</clipPath>
</defs>
</svg>
