<svg preserveAspectRatio="none" width="100%" height="100%" overflow="visible" style="display: block;" viewBox="0 0 21.5 19.5" fill="none" xmlns="http://www.w3.org/2000/svg">
<path id="Vector" d="M8.75 5.75V3.75M8.75 15.75V13.75M8.75 10.75V8.75M4.75 18.75C2.54086 18.75 0.75 16.9591 0.75 14.75V13.75C0.75 13.1977 1.21 12.7663 1.73189 12.5856C2.90653 12.1789 3.75 11.063 3.75 9.75C3.75 8.43703 2.90653 7.32105 1.73189 6.91437C1.21 6.73368 0.75 6.30228 0.75 5.75V4.75C0.75 2.54086 2.54086 0.75 4.75 0.75H16.75C18.9591 0.75 20.75 2.54086 20.75 4.75V5.75C20.75 6.30228 20.29 6.73368 19.7681 6.91437C18.5935 7.32105 17.75 8.43703 17.75 9.75C17.75 11.063 18.5935 12.1789 19.7681 12.5856C20.29 12.7663 20.75 13.1977 20.75 13.75V14.75C20.75 16.9591 18.9591 18.75 16.75 18.75H4.75Z" stroke="var(--stroke-0, #7C57FC)" stroke-width="1.5" stroke-linecap="round" stroke-linejoin="round"/>
</svg>
