<svg preserveAspectRatio="none" width="100%" height="100%" overflow="visible" style="display: block;" viewBox="0 0 20.403 16" fill="none" xmlns="http://www.w3.org/2000/svg">
<g id="Group">
<path id="Vector" d="M17.0265 12.5968C19.047 12.5968 20.403 10.3967 20.403 8.34215C20.403 6.85152 19.4828 6.64953 18.583 6.64953C18.326 6.64953 18.0487 6.66687 17.7555 6.68502C17.5188 6.69807 17.2734 6.70962 17.0258 6.7154L17.0287 6.64953H0.112184C0.112184 9.8327 1.90031 12.6011 4.53478 14.0215C1.83666 14.1988 0 14.5478 0 14.9481C0 15.5309 3.83693 16 8.57007 16C13.3032 16 17.1394 15.5309 17.1394 14.9481C17.1394 14.5456 15.2941 14.1973 12.5858 14.0207C13.3735 13.5965 14.0872 13.0571 14.6997 12.4172C15.4143 12.5968 16.2606 12.5968 17.0265 12.5968ZM16.9954 7.30322C17.2683 7.2967 17.5355 7.28514 17.7909 7.26847C18.0747 7.25328 18.344 7.23735 18.5836 7.23735C19.4364 7.23735 19.818 7.39733 19.818 8.34207C19.818 10.0774 18.672 12.011 17.0271 12.011C16.3046 12.011 15.6712 11.9958 15.1536 11.9104C16.1947 10.632 16.86 9.04148 16.9954 7.30322ZM7.33434 5.00108C7.29307 4.96055 6.3404 3.96949 7.3459 2.75392C8.57444 1.27196 7.34664 0.0123002 7.33434 0L7.06796 0.266381C7.10923 0.306172 8.06191 1.29871 7.05566 2.51354C5.82712 3.99765 7.05492 5.25805 7.06796 5.26961L7.33434 5.00108ZM8.79814 5.00108C8.75687 4.96055 7.8042 3.96949 8.81044 2.75392C10.0375 1.27196 8.81044 0.0123002 8.79814 0L8.53102 0.266381C8.57229 0.306172 9.52497 1.29871 8.51946 2.51354C7.2924 3.99839 8.51872 5.25805 8.53176 5.27035L8.79814 5.00108ZM10.3923 5.00108C10.351 4.96055 9.39834 3.96949 10.4038 2.75392C11.6316 1.27196 10.4038 0.0123002 10.3923 0L10.1244 0.266381C10.165 0.306172 11.1191 1.29871 10.1121 2.51354C8.88506 3.99839 10.1121 5.25805 10.1252 5.27035L10.3923 5.00108Z" fill="var(--fill-0, black)"/>
</g>
</svg>
