<svg width="28" height="28" viewBox="0 0 28 28" fill="none" xmlns="http://www.w3.org/2000/svg">
<path d="M13.999 1.45801C20.9256 1.45801 26.541 7.07343 26.541 14C26.541 20.9266 20.9256 26.542 13.999 26.542C7.07245 26.542 1.45703 20.9266 1.45703 14C1.45703 7.07343 7.07245 1.45801 13.999 1.45801ZM13.999 3.20801C8.03895 3.20801 3.20703 8.03993 3.20703 14C3.20703 19.9601 8.03895 24.792 13.999 24.792C19.9591 24.792 24.791 19.9601 24.791 14C24.791 8.03993 19.9591 3.20801 13.999 3.20801ZM13.999 8.45801C14.4822 8.45801 14.8738 8.84991 14.874 9.33301V13.125H18.666C19.1491 13.1252 19.541 13.5169 19.541 14C19.541 14.4831 19.1491 14.8748 18.666 14.875H14.874V18.667C14.8738 19.1501 14.4822 19.542 13.999 19.542C13.5159 19.542 13.1242 19.1501 13.124 18.667V14.875H9.33203C8.84893 14.8748 8.45703 14.4831 8.45703 14C8.45703 13.5169 8.84893 13.1252 9.33203 13.125H13.124V9.33301C13.1242 8.84991 13.5159 8.45801 13.999 8.45801Z" fill="#161616"/>
</svg>
