<svg width="24" height="24" viewBox="0 0 24 24" fill="none" xmlns="http://www.w3.org/2000/svg">
<path d="M8.55528 17.3962C8.71665 17.2743 9.19839 16.9104 9.4761 16.6936C10.0323 16.2596 10.7714 15.6664 11.5083 15.0266C12.2489 14.3836 12.9702 13.7081 13.5005 13.108C13.7663 12.8071 13.9684 12.5427 14.0999 12.3246C14.2235 12.1194 14.2493 11.9983 14.2493 11.9983C14.2493 11.9983 14.2235 11.8806 14.0999 11.6755C13.9684 11.4574 13.7663 11.193 13.5005 10.8921C12.9702 10.292 12.2489 9.6165 11.5083 8.97346C10.7714 8.33365 10.0323 7.74054 9.47607 7.30647C9.19836 7.08974 8.71729 6.72634 8.55592 6.60445C8.2224 6.35882 8.15046 5.88881 8.39609 5.55529C8.64173 5.22177 9.11122 5.15052 9.44475 5.39615L9.44729 5.39807C9.61654 5.52591 10.1156 5.90281 10.3989 6.12394C10.9677 6.56782 11.7286 7.17825 12.4917 7.84081C13.2511 8.50013 14.0298 9.22579 14.6245 9.89891C14.9212 10.2346 15.1879 10.5749 15.3845 10.9011C15.5687 11.2066 15.75 11.5935 15.75 12.0001C15.75 12.4066 15.5687 12.7935 15.3845 13.099C15.1879 13.4252 14.9211 13.7655 14.6245 14.1012C14.0298 14.7743 13.2511 15.5 12.4917 16.1593C11.7286 16.8218 10.9677 17.4323 10.399 17.8762C10.1154 18.0974 9.61637 18.4744 9.44746 18.6019L9.44527 18.6036C9.11175 18.8492 8.64178 18.7783 8.39614 18.4448C8.15052 18.1113 8.22178 17.6418 8.55528 17.3962Z" fill="#737373"/>
</svg>
