<svg preserveAspectRatio="none" width="100%" height="100%" overflow="visible" style="display: block;" viewBox="0 0 20.001 14.7279" fill="none" xmlns="http://www.w3.org/2000/svg">
<path id="Vector" d="M2.9285 0.293202C3.11601 0.105562 3.37038 9.38308e-05 3.63565 6.25777e-08C3.90092 -9.37056e-05 4.15536 0.105195 4.343 0.292703C4.53064 0.480211 4.63611 0.734579 4.6362 0.999849C4.6363 1.26512 4.53101 1.51956 4.3435 1.7072C2.84343 3.20746 2.00071 5.24214 2.00071 7.3637C2.00071 9.48526 2.84343 11.5199 4.3435 13.0202C4.53114 13.2077 4.63661 13.4621 4.6367 13.7273C4.6368 13.9926 4.53151 14.2471 4.344 14.4347C4.15649 14.6223 3.90212 14.7278 3.63685 14.7279C3.37158 14.728 3.11714 14.6227 2.9295 14.4352C-0.9765 10.5302 -0.9765 4.1982 2.9295 0.293202M15.6575 0.293202C15.845 0.105731 16.0993 0.000416341 16.3645 0.000416341C16.6297 0.000416341 16.884 0.105731 17.0715 0.293202C20.9775 4.1982 20.9775 10.5302 17.0715 14.4352C16.8839 14.6227 16.6294 14.728 16.3641 14.7279C16.0989 14.7278 15.8445 14.6223 15.657 14.4347C15.4695 14.2471 15.3642 13.9926 15.3643 13.7273C15.3644 13.4621 15.4699 13.2077 15.6575 13.0202C17.1576 11.5199 18.0003 9.48526 18.0003 7.3637C18.0003 5.24214 17.1576 3.20746 15.6575 1.7072C15.47 1.51967 15.3647 1.26537 15.3647 1.0002C15.3647 0.735039 15.47 0.48073 15.6575 0.293202ZM5.7575 3.1212C5.94597 2.93891 6.1985 2.83793 6.46071 2.84002C6.72291 2.84211 6.9738 2.9471 7.15934 3.13238C7.34488 3.31766 7.45022 3.5684 7.45269 3.8306C7.45515 4.0928 7.35453 4.34547 7.1725 4.5342C6.80104 4.90564 6.50639 5.34661 6.30536 5.83192C6.10432 6.31724 6.00085 6.8374 6.00085 7.3627C6.00085 7.88801 6.10432 8.40817 6.30536 8.89348C6.50639 9.3788 6.80104 9.81977 7.1725 10.1912C7.35466 10.3798 7.45545 10.6324 7.45317 10.8946C7.4509 11.1568 7.34573 11.4076 7.16032 11.593C6.97491 11.7784 6.7241 11.8836 6.4619 11.8859C6.1997 11.8882 5.9471 11.7874 5.7585 11.6052C4.63337 10.48 4.00128 8.95393 4.00128 7.3627C4.00128 5.77147 4.63337 4.24541 5.7585 3.1202M12.8295 3.1202C13.017 2.93273 13.2713 2.82742 13.5365 2.82742C13.8017 2.82742 14.056 2.93273 14.2435 3.1202C15.3686 4.24541 16.0007 5.77147 16.0007 7.3627C16.0007 8.95393 15.3686 10.48 14.2435 11.6052C14.0549 11.7874 13.8023 11.8882 13.5401 11.8859C13.2779 11.8836 13.0271 11.7784 12.8417 11.593C12.6563 11.4076 12.5511 11.1568 12.5488 10.8946C12.5465 10.6324 12.6473 10.3798 12.8295 10.1912C13.201 9.81977 13.4956 9.3788 13.6966 8.89348C13.8977 8.40817 14.0011 7.88801 14.0011 7.3627C14.0011 6.8374 13.8977 6.31724 13.6966 5.83192C13.4956 5.34661 13.201 4.90564 12.8295 4.5342C12.642 4.34667 12.5367 4.09237 12.5367 3.8272C12.5367 3.56204 12.642 3.30773 12.8295 3.1202ZM9.9985 5.8642C10.3963 5.8642 10.7779 6.02224 11.0592 6.30354C11.3405 6.58485 11.4985 6.96638 11.4985 7.3642C11.4985 7.76203 11.3405 8.14356 11.0592 8.42486C10.7779 8.70617 10.3963 8.8642 9.9985 8.8642C9.60068 8.8642 9.21914 8.70617 8.93784 8.42486C8.65653 8.14356 8.4985 7.76203 8.4985 7.3642C8.4985 6.96638 8.65653 6.58485 8.93784 6.30354C9.21914 6.02224 9.60068 5.8642 9.9985 5.8642Z" fill="var(--fill-0, #82858C)"/>
</svg>
