<svg preserveAspectRatio="none" width="100%" height="100%" overflow="visible" style="display: block;" viewBox="0 0 18.5 18.5" fill="none" xmlns="http://www.w3.org/2000/svg">
<g id="elements">
<path id="Icon" fill-rule="evenodd" clip-rule="evenodd" d="M9.25 0C9.94036 0 10.5 0.559644 10.5 1.25V8H17.25C17.9404 8 18.5 8.55964 18.5 9.25C18.5 9.94036 17.9404 10.5 17.25 10.5H10.5V17.25C10.5 17.9404 9.94036 18.5 9.25 18.5C8.55964 18.5 8 17.9404 8 17.25V10.5H1.25C0.559644 10.5 0 9.94036 0 9.25C0 8.55964 0.559644 8 1.25 8H8V1.25C8 0.559644 8.55964 0 9.25 0Z" fill="var(--fill-0, #161616)"/>
</g>
</svg>
