<svg preserveAspectRatio="none" width="100%" height="100%" overflow="visible" style="display: block;" viewBox="0 0 20 16.231" fill="none" xmlns="http://www.w3.org/2000/svg">
<g id="Vector">
<path d="M16.6667 12.8977C15.4394 12.8977 14.4444 11.9028 14.4444 10.6755C14.4444 9.44818 13.4495 8.45325 12.2222 8.45325C10.9949 8.45325 10 7.45833 10 6.23103C10 5.00373 10.9949 4.00881 12.2222 4.00881C13.4495 4.00881 14.4444 3.01389 14.4444 1.78659C14.4444 1.05437 14.7986 0.404859 15.3449 0C18.1427 1.77271 20 4.89608 20 8.45325C20 10.0497 19.6259 11.5589 18.9605 12.8977H16.6667Z" fill="var(--fill-0, #7C57FC)"/>
<path d="M2.22222 7.34214C3.44952 7.34214 4.44445 8.33707 4.44445 9.56437C4.44445 10.7917 5.43937 11.7866 6.66667 11.7866C7.89397 11.7866 8.88889 12.7815 8.88889 14.0088C8.88889 15.2361 7.89397 16.231 6.66667 16.231L3.71407 16.231C1.44852 14.3977 0 11.5947 0 8.45325C0 8.07769 0.0207036 7.70696 0.061032 7.34214H2.22222Z" fill="var(--fill-0, #7C57FC)"/>
</g>
</svg>
