<svg preserveAspectRatio="none" width="100%" height="100%" overflow="visible" style="display: block;" viewBox="0 0 27.75 30.833" fill="none" xmlns="http://www.w3.org/2000/svg">
<g id="combo shape">
<mask id="path-1-inside-1_3635_20147" fill="white">
<path d="M13.875 0C21.538 0 27.75 6.13575 27.75 13.7041C27.7497 21.2724 19.078 30.833 13.875 30.833C8.67197 30.833 0.000303757 21.2724 0 13.7041C0 6.13575 6.21205 0 13.875 0Z"/>
</mask>
<path d="M13.875 0C21.538 0 27.75 6.13575 27.75 13.7041C27.7497 21.2724 19.078 30.833 13.875 30.833C8.67197 30.833 0.000303757 21.2724 0 13.7041C0 6.13575 6.21205 0 13.875 0Z" fill="var(--fill-0, #E96D2B)"/>
<path d="M27.75 13.7041L28.75 13.7041V13.7041H27.75ZM0 13.7041H-1V13.7041L0 13.7041ZM13.875 0V1C20.9974 1 26.75 6.69968 26.75 13.7041H27.75H28.75C28.75 5.57183 22.0785 -1 13.875 -1V0ZM27.75 13.7041L26.75 13.7041C26.7499 17.154 24.7436 21.2131 21.9996 24.4613C20.6409 26.0697 19.1394 27.4324 17.689 28.3851C16.2181 29.3512 14.8959 29.833 13.875 29.833V30.833V31.833C15.4556 31.833 17.1685 31.1198 18.7869 30.0567C20.4258 28.9803 22.0678 27.4798 23.5274 25.752C26.4201 22.3278 28.7498 17.8225 28.75 13.7041L27.75 13.7041ZM13.875 30.833V29.833C12.8541 29.833 11.5319 29.3512 10.061 28.3851C8.61061 27.4324 7.10908 26.0697 5.75038 24.4613C3.00637 21.2131 1.00014 17.154 1 13.7041L0 13.7041L-1 13.7041C-0.999835 17.8225 1.32991 22.3278 4.22257 25.752C5.6822 27.4798 7.32418 28.9803 8.96305 30.0567C10.5815 31.1198 12.2944 31.833 13.875 31.833V30.833ZM0 13.7041H1C1 6.69968 6.75262 1 13.875 1V0V-1C5.67147 -1 -1 5.57183 -1 13.7041H0Z" fill="var(--stroke-0, white)" mask="url(#path-1-inside-1_3635_20147)"/>
</g>
</svg>
