<svg width="27" height="27" viewBox="0 0 27 27" fill="none" xmlns="http://www.w3.org/2000/svg">
<g filter="url(#filter0_d_264_33373)">
<mask id="path-1-outside-1_264_33373" maskUnits="userSpaceOnUse" x="0.199219" y="0.201172" width="26" height="26" fill="black">
<rect fill="white" x="0.199219" y="0.201172" width="26" height="26"/>
<path d="M24.1865 16.6582C24.7448 16.6582 25.1971 17.1195 25.1973 17.6885V22.3516C25.1971 22.7782 24.858 23.1239 24.4395 23.124C24.0555 23.124 23.7377 22.8333 23.6875 22.4561L23.6807 22.3516V19.5986L22.5146 21.0547C18.0398 25.9452 9.92644 26.7452 5.12793 22.1846C4.01513 21.1268 4.14196 20.5371 4.43066 20.293L4.4707 20.2617L4.56543 20.2002C4.81967 20.058 5.10279 20.0962 5.88086 20.793L6.16309 21.0547C10.2743 24.9616 17.2683 24.2733 21.1621 20.2617L21.3721 20.0391L22.4531 18.6875L22.835 18.2041H19.1123C18.7285 18.2041 18.4116 17.9133 18.3613 17.5361L18.3535 17.4307C18.3537 17.0396 18.6398 16.7162 19.0098 16.665L19.1123 16.6582H24.1865ZM3.88184 5.34766C8.3566 0.456898 16.4699 -0.343881 21.2686 4.2168C22.3817 5.27472 22.2555 5.86519 21.9668 6.10938L21.9258 6.14062L21.8311 6.20117C21.5768 6.34337 21.2945 6.30507 20.5166 5.6084L20.2344 5.34766C16.1231 1.4402 9.12826 2.12869 5.23438 6.14062L5.02441 6.36328L3.94336 7.71484L3.5625 8.19727L7.28418 8.19824C7.66808 8.19824 7.98592 8.48897 8.03613 8.86621L8.04297 8.9707C8.04297 9.36188 7.75769 9.68502 7.3877 9.73633L7.28418 9.74316H2.20996C1.65171 9.74298 1.19922 9.28191 1.19922 8.71289V4.05078C1.19922 3.62393 1.5392 3.27734 1.95801 3.27734C2.34155 3.27758 2.6586 3.56844 2.70898 3.94531L2.71582 4.05078V6.80273L3.88184 5.34766Z"/>
</mask>
<path d="M24.1865 16.6582C24.7448 16.6582 25.1971 17.1195 25.1973 17.6885V22.3516C25.1971 22.7782 24.858 23.1239 24.4395 23.124C24.0555 23.124 23.7377 22.8333 23.6875 22.4561L23.6807 22.3516V19.5986L22.5146 21.0547C18.0398 25.9452 9.92644 26.7452 5.12793 22.1846C4.01513 21.1268 4.14196 20.5371 4.43066 20.293L4.4707 20.2617L4.56543 20.2002C4.81967 20.058 5.10279 20.0962 5.88086 20.793L6.16309 21.0547C10.2743 24.9616 17.2683 24.2733 21.1621 20.2617L21.3721 20.0391L22.4531 18.6875L22.835 18.2041H19.1123C18.7285 18.2041 18.4116 17.9133 18.3613 17.5361L18.3535 17.4307C18.3537 17.0396 18.6398 16.7162 19.0098 16.665L19.1123 16.6582H24.1865ZM3.88184 5.34766C8.3566 0.456898 16.4699 -0.343881 21.2686 4.2168C22.3817 5.27472 22.2555 5.86519 21.9668 6.10938L21.9258 6.14062L21.8311 6.20117C21.5768 6.34337 21.2945 6.30507 20.5166 5.6084L20.2344 5.34766C16.1231 1.4402 9.12826 2.12869 5.23438 6.14062L5.02441 6.36328L3.94336 7.71484L3.5625 8.19727L7.28418 8.19824C7.66808 8.19824 7.98592 8.48897 8.03613 8.86621L8.04297 8.9707C8.04297 9.36188 7.75769 9.68502 7.3877 9.73633L7.28418 9.74316H2.20996C1.65171 9.74298 1.19922 9.28191 1.19922 8.71289V4.05078C1.19922 3.62393 1.5392 3.27734 1.95801 3.27734C2.34155 3.27758 2.6586 3.56844 2.70898 3.94531L2.71582 4.05078V6.80273L3.88184 5.34766Z" fill="white"/>
<path d="M24.1865 16.6582L24.1865 16.4582H24.1865V16.6582ZM25.1973 17.6885H25.3973V17.6884L25.1973 17.6885ZM25.1973 22.3516L25.3973 22.3517V22.3516H25.1973ZM24.4395 23.124V23.324H24.4395L24.4395 23.124ZM23.6875 22.4561L23.4875 22.4691L23.4892 22.4824L23.6875 22.4561ZM23.6807 22.3516H23.4802L23.4811 22.3646L23.6807 22.3516ZM23.6807 19.5986H23.8807V19.0289L23.5246 19.4736L23.6807 19.5986ZM22.5146 21.0547L22.6625 21.19L22.6708 21.1797L22.5146 21.0547ZM5.12793 22.1846L4.99014 22.3295L4.99015 22.3295L5.12793 22.1846ZM4.43066 20.293L4.30752 20.1352L4.30152 20.1402L4.43066 20.293ZM4.4707 20.2617L4.36177 20.094L4.35449 20.0987L4.34765 20.1041L4.4707 20.2617ZM4.56543 20.2002L4.46757 20.0253L4.45649 20.0325L4.56543 20.2002ZM5.88086 20.793L6.01687 20.6463L6.01429 20.644L5.88086 20.793ZM6.16309 21.0547L6.30087 20.9097L6.29908 20.908L6.16309 21.0547ZM21.1621 20.2617L21.3056 20.401L21.3076 20.3989L21.1621 20.2617ZM21.3721 20.0391L21.5176 20.1763L21.5232 20.1703L21.5283 20.164L21.3721 20.0391ZM22.4531 18.6875L22.6093 18.8124L22.6101 18.8115L22.4531 18.6875ZM22.835 18.2041L22.9919 18.3281L23.2478 18.0041H22.835V18.2041ZM18.3613 17.5361L18.1615 17.5509L18.1631 17.5626L18.3613 17.5361ZM18.3535 17.4307L18.1535 17.4306L18.1535 17.438L18.1541 17.4454L18.3535 17.4307ZM19.0098 16.665L18.9965 16.4655L18.9894 16.466L18.9824 16.4669L19.0098 16.665ZM19.1123 16.6582V16.4578L19.099 16.4586L19.1123 16.6582ZM3.88184 5.34766L3.73396 5.21236L3.72576 5.22259L3.88184 5.34766ZM21.2686 4.2168L21.4063 4.07183L21.4063 4.07183L21.2686 4.2168ZM21.9668 6.10938L22.0882 6.26867L22.096 6.26208L21.9668 6.10938ZM21.9258 6.14062L22.0335 6.30914L22.0404 6.3047L22.047 6.29971L21.9258 6.14062ZM21.8311 6.20117L21.9289 6.37602L21.9388 6.36969L21.8311 6.20117ZM20.5166 5.6084L20.3809 5.75532L20.3832 5.75739L20.5166 5.6084ZM20.2344 5.34766L20.0966 5.49264L20.0987 5.49456L20.2344 5.34766ZM5.23438 6.14062L5.09084 6.00132L5.08887 6.00341L5.23438 6.14062ZM5.02441 6.36328L4.87891 6.22607L4.87332 6.232L4.86823 6.23836L5.02441 6.36328ZM3.94336 7.71484L3.78717 7.58992L3.78638 7.59091L3.94336 7.71484ZM3.5625 8.19727L3.40552 8.07334L3.14988 8.39716L3.56245 8.39727L3.5625 8.19727ZM7.28418 8.19824L7.28413 8.39824H7.28418V8.19824ZM8.03613 8.86621L8.23616 8.85313L8.23438 8.83982L8.03613 8.86621ZM8.04297 8.9707H8.2434L8.24254 8.95765L8.04297 8.9707ZM7.3877 9.73633L7.40087 9.93589L7.40805 9.93542L7.41517 9.93443L7.3877 9.73633ZM7.28418 9.74316V9.9436L7.29736 9.94273L7.28418 9.74316ZM2.20996 9.74316L2.20989 9.94316H2.20996V9.74316ZM1.95801 3.27734L1.95813 3.07734H1.95801V3.27734ZM2.70898 3.94531L2.90903 3.93235L2.90722 3.91881L2.70898 3.94531ZM2.71582 4.05078H2.91624L2.9154 4.03785L2.71582 4.05078ZM2.71582 6.80273H2.51582V7.37215L2.87189 6.9278L2.71582 6.80273ZM24.1865 16.6582L24.1865 16.8582C24.6307 16.8582 24.9972 17.2263 24.9973 17.6885L25.1973 17.6885L25.3973 17.6884C25.3971 17.0127 24.8589 16.4582 24.1865 16.4582L24.1865 16.6582ZM25.1973 17.6885H24.9973V22.3516H25.1973H25.3973V17.6885H25.1973ZM25.1973 22.3516L24.9973 22.3515C24.9971 22.6714 24.7439 22.9239 24.4394 22.924L24.4395 23.124L24.4395 23.324C24.9721 23.3239 25.397 22.885 25.3973 22.3517L25.1973 22.3516ZM24.4395 23.124V22.924C24.1598 22.924 23.9233 22.7116 23.8858 22.4297L23.6875 22.4561L23.4892 22.4824C23.5522 22.955 23.9513 23.324 24.4395 23.324V23.124ZM23.6875 22.4561L23.8871 22.443L23.8802 22.3385L23.6807 22.3516L23.4811 22.3646L23.4879 22.4691L23.6875 22.4561ZM23.6807 22.3516H23.8807V19.5986H23.6807H23.4807V22.3516H23.6807ZM23.6807 19.5986L23.5246 19.4736L22.3585 20.9297L22.5146 21.0547L22.6708 21.1797L23.8368 19.7236L23.6807 19.5986ZM22.5146 21.0547L22.3671 20.9197C17.9572 25.7392 9.97209 26.5127 5.26571 22.0396L5.12793 22.1846L4.99015 22.3295C9.88079 26.9777 18.1225 26.1511 22.6622 21.1897L22.5146 21.0547ZM5.12793 22.1846L5.26572 22.0396C4.72085 21.5217 4.50708 21.143 4.44865 20.8888C4.39397 20.651 4.47311 20.519 4.5598 20.4457L4.43066 20.293L4.30152 20.1402C4.09951 20.3111 3.97088 20.596 4.05882 20.9785C4.143 21.3446 4.42221 21.7897 4.99014 22.3295L5.12793 22.1846ZM4.43066 20.293L4.55372 20.4506L4.59376 20.4194L4.4707 20.2617L4.34765 20.1041L4.30761 20.1353L4.43066 20.293ZM4.4707 20.2617L4.57964 20.4294L4.67437 20.3679L4.56543 20.2002L4.45649 20.0325L4.36177 20.094L4.4707 20.2617ZM4.56543 20.2002L4.66307 20.3747C4.70877 20.3492 4.74585 20.3371 4.78363 20.3343C4.82182 20.3314 4.87497 20.3371 4.95328 20.368C5.11779 20.4329 5.36076 20.5957 5.74743 20.942L5.88086 20.793L6.01429 20.644C5.62288 20.2935 5.33526 20.0887 5.10014 19.9959C4.97863 19.948 4.8647 19.9272 4.75398 19.9354C4.64285 19.9436 4.54921 19.9801 4.46779 20.0257L4.56543 20.2002ZM5.88086 20.793L5.74487 20.9396L6.02709 21.2013L6.16309 21.0547L6.29908 20.908L6.01685 20.6463L5.88086 20.793ZM6.16309 21.0547L6.02531 21.1997C10.2285 25.194 17.348 24.4783 21.3056 20.401L21.1621 20.2617L21.0186 20.1224C17.1885 24.0683 10.3201 24.7293 6.30086 20.9097L6.16309 21.0547ZM21.1621 20.2617L21.3076 20.3989L21.5176 20.1763L21.3721 20.0391L21.2266 19.9018L21.0166 20.1245L21.1621 20.2617ZM21.3721 20.0391L21.5283 20.164L22.6093 18.8124L22.4531 18.6875L22.2969 18.5626L21.2159 19.9141L21.3721 20.0391ZM22.4531 18.6875L22.6101 18.8115L22.9919 18.3281L22.835 18.2041L22.678 18.0801L22.2962 18.5635L22.4531 18.6875ZM22.835 18.2041V18.0041H19.1123V18.2041V18.4041H22.835V18.2041ZM19.1123 18.2041V18.0041C18.8331 18.0041 18.5972 17.7919 18.5596 17.5097L18.3613 17.5361L18.1631 17.5626C18.2261 18.0346 18.6238 18.4041 19.1123 18.4041V18.2041ZM18.3613 17.5361L18.5608 17.5214L18.553 17.4159L18.3535 17.4307L18.1541 17.4454L18.1619 17.5509L18.3613 17.5361ZM18.3535 17.4307L18.5535 17.4308C18.5537 17.1382 18.7673 16.9005 19.0372 16.8632L19.0098 16.665L18.9824 16.4669C18.5122 16.5319 18.1538 16.9409 18.1535 17.4306L18.3535 17.4307ZM19.0098 16.665L19.0231 16.8646L19.1256 16.8578L19.1123 16.6582L19.099 16.4586L18.9965 16.4655L19.0098 16.665ZM19.1123 16.6582V16.8582H24.1865V16.6582V16.4582H19.1123V16.6582ZM3.88184 5.34766L4.02939 5.48266C8.43926 0.662834 16.4243 -0.111333 21.1308 4.36177L21.2686 4.2168L21.4063 4.07183C16.5156 -0.576429 8.27394 0.250961 3.73428 5.21265L3.88184 5.34766ZM21.2686 4.2168L21.1308 4.36177C21.6758 4.87976 21.8898 5.2587 21.9485 5.51314C22.0033 5.75133 21.9242 5.88346 21.8376 5.95667L21.9668 6.10938L22.096 6.26208C22.2981 6.0911 22.4264 5.80591 22.3382 5.42333C22.2538 5.05701 21.9744 4.61176 21.4063 4.07183L21.2686 4.2168ZM21.9668 6.10938L21.8456 5.95029L21.8046 5.98154L21.9258 6.14062L22.047 6.29971L22.088 6.26846L21.9668 6.10938ZM21.9258 6.14062L21.8181 5.97211L21.7233 6.03265L21.8311 6.20117L21.9388 6.36969L22.0335 6.30914L21.9258 6.14062ZM21.8311 6.20117L21.7334 6.02662C21.6877 6.0522 21.6507 6.06427 21.613 6.06706C21.5749 6.06989 21.5219 6.06427 21.4437 6.03336C21.2794 5.96842 21.0367 5.80566 20.65 5.45941L20.5166 5.6084L20.3832 5.75739C20.7745 6.1078 21.0618 6.31253 21.2967 6.40536C21.4181 6.45334 21.532 6.47418 21.6426 6.46596C21.7537 6.45772 21.8473 6.42124 21.9287 6.37572L21.8311 6.20117ZM20.5166 5.6084L20.6523 5.4615L20.3701 5.20075L20.2344 5.34766L20.0987 5.49456L20.3809 5.7553L20.5166 5.6084ZM20.2344 5.34766L20.3722 5.20269C16.1689 1.20783 9.04852 1.92369 5.09086 6.00133L5.23438 6.14062L5.37789 6.27992C9.20801 2.33369 16.0773 1.67258 20.0966 5.49263L20.2344 5.34766ZM5.23438 6.14062L5.08887 6.00341L4.87891 6.22607L5.02441 6.36328L5.16992 6.50049L5.37988 6.27784L5.23438 6.14062ZM5.02441 6.36328L4.86823 6.23836L3.78717 7.58992L3.94336 7.71484L4.09954 7.83977L5.1806 6.48821L5.02441 6.36328ZM3.94336 7.71484L3.78638 7.59091L3.40552 8.07334L3.5625 8.19727L3.71948 8.32119L4.10034 7.83877L3.94336 7.71484ZM3.5625 8.19727L3.56245 8.39727L7.28413 8.39824L7.28418 8.19824L7.28423 7.99824L3.56255 7.99727L3.5625 8.19727ZM7.28418 8.19824V8.39824C7.56379 8.39824 7.80036 8.61069 7.83788 8.8926L8.03613 8.86621L8.23438 8.83982C8.17148 8.36725 7.77237 7.99824 7.28418 7.99824V8.19824ZM8.03613 8.86621L7.83656 8.87927L7.8434 8.98376L8.04297 8.9707L8.24254 8.95765L8.23571 8.85315L8.03613 8.86621ZM8.04297 8.9707H7.84297C7.84297 9.26346 7.62992 9.50083 7.36023 9.53822L7.3877 9.73633L7.41517 9.93443C7.88546 9.86922 8.24297 9.4603 8.24297 8.9707H8.04297ZM7.3877 9.73633L7.37452 9.53676L7.271 9.5436L7.28418 9.74316L7.29736 9.94273L7.40087 9.93589L7.3877 9.73633ZM7.28418 9.74316V9.54316H2.20996V9.74316V9.94316H7.28418V9.74316ZM2.20996 9.74316L2.21003 9.54316C1.76572 9.54301 1.39922 9.17501 1.39922 8.71289H1.19922H0.999219C0.999219 9.3888 1.53771 9.94294 2.20989 9.94316L2.20996 9.74316ZM1.19922 8.71289H1.39922V4.05078H1.19922H0.999219V8.71289H1.19922ZM1.19922 4.05078H1.39922C1.39922 3.73076 1.65326 3.47734 1.95801 3.47734V3.27734V3.07734C1.42515 3.07734 0.999219 3.51711 0.999219 4.05078H1.19922ZM1.95801 3.27734L1.95788 3.47734C2.23693 3.47752 2.47306 3.68987 2.51075 3.97181L2.70898 3.94531L2.90722 3.91881C2.84415 3.44701 2.44617 3.07765 1.95813 3.07734L1.95801 3.27734ZM2.70898 3.94531L2.5094 3.95825L2.51624 4.06372L2.71582 4.05078L2.9154 4.03785L2.90857 3.93238L2.70898 3.94531ZM2.71582 4.05078H2.51582V6.80273H2.71582H2.91582V4.05078H2.71582ZM2.71582 6.80273L2.87189 6.9278L4.03791 5.47272L3.88184 5.34766L3.72576 5.22259L2.55975 6.67767L2.71582 6.80273Z" fill="black" fill-opacity="0.2" mask="url(#path-1-outside-1_264_33373)"/>
</g>
<defs>
<filter id="filter0_d_264_33373" x="0" y="0" width="26.3984" height="26.4004" filterUnits="userSpaceOnUse" color-interpolation-filters="sRGB">
<feFlood flood-opacity="0" result="BackgroundImageFix"/>
<feColorMatrix in="SourceAlpha" type="matrix" values="0 0 0 0 0 0 0 0 0 0 0 0 0 0 0 0 0 0 127 0" result="hardAlpha"/>
<feOffset/>
<feGaussianBlur stdDeviation="0.5"/>
<feColorMatrix type="matrix" values="0 0 0 0 0.14902 0 0 0 0 0.14902 0 0 0 0 0.14902 0 0 0 0.4 0"/>
<feBlend mode="normal" in2="BackgroundImageFix" result="effect1_dropShadow_264_33373"/>
<feBlend mode="normal" in="SourceGraphic" in2="effect1_dropShadow_264_33373" result="shape"/>
</filter>
</defs>
</svg>
