<svg preserveAspectRatio="none" width="100%" height="100%" overflow="visible" style="display: block;" viewBox="0 0 21.5 21.5" fill="none" xmlns="http://www.w3.org/2000/svg">
<g id="elements">
<path id="Icon" fill-rule="evenodd" clip-rule="evenodd" d="M0 10.3167C0 4.58838 4.84523 0 10.75 0C16.6548 0 21.5 4.58838 21.5 10.3167C21.5 16.045 16.6548 20.6334 10.75 20.6334C10.0541 20.6343 9.36035 20.5699 8.67698 20.4416C8.43979 20.397 8.28909 20.3689 8.17696 20.3536C8.09334 20.3407 8.00931 20.3719 7.97775 20.3891C7.86322 20.4435 7.71068 20.5244 7.47714 20.6486C6.04542 21.41 4.37504 21.68 2.76396 21.3803C2.50381 21.3319 2.2884 21.15 2.19713 20.9017C2.10586 20.6533 2.15224 20.3752 2.31917 20.1699C2.78697 19.5945 3.10863 18.9013 3.25088 18.1552C3.28937 17.95 3.20227 17.6713 2.93451 17.3994C1.11972 15.5565 0 13.0644 0 10.3167ZM6.75 9.75C6.19772 9.75 5.75 10.1977 5.75 10.75C5.75 11.3023 6.19772 11.75 6.75 11.75H6.75897C7.31126 11.75 7.75897 11.3023 7.75897 10.75C7.75897 10.1977 7.31126 9.75 6.75897 9.75H6.75ZM10.7455 9.75C10.1932 9.75 9.74551 10.1977 9.74551 10.75C9.74551 11.3023 10.1932 11.75 10.7455 11.75H10.7545C11.3068 11.75 11.7545 11.3023 11.7545 10.75C11.7545 10.1977 11.3068 9.75 10.7545 9.75H10.7455ZM13.741 10.75C13.741 10.1977 14.1887 9.75 14.741 9.75H14.75C15.3023 9.75 15.75 10.1977 15.75 10.75C15.75 11.3023 15.3023 11.75 14.75 11.75H14.741C14.1887 11.75 13.741 11.3023 13.741 10.75Z" fill="#464646"/>
</g>
</svg>
