<svg width="28" height="28" viewBox="0 0 28 28" fill="none" xmlns="http://www.w3.org/2000/svg">
<path fill-rule="evenodd" clip-rule="evenodd" d="M14.1425 1.45992C14.681 1.4605 15.1661 1.46104 15.5705 1.49722C16.2298 1.55618 16.8494 1.75737 17.3816 2.15421C17.7751 2.44771 18.0484 2.80697 18.282 3.19607C18.4984 3.55663 18.7163 4.00617 18.9634 4.51612L19.4609 5.54232L24.4987 5.54313C25.143 5.54313 25.6654 6.06547 25.6654 6.7098C25.6654 7.35414 25.143 7.87647 24.4987 7.87647H23.4808L22.8449 18.2665C22.7555 19.7285 22.6844 20.8888 22.5389 21.8155C22.3896 22.7659 22.1507 23.5574 21.6727 24.2497C21.2354 24.8831 20.6725 25.4177 20.0196 25.8193C19.306 26.2585 18.5091 26.4505 17.5606 26.5423H10.414C9.46445 26.4502 8.6667 26.2578 7.95256 25.8178C7.29927 25.4154 6.73613 24.8799 6.29902 24.2455C5.82122 23.552 5.58302 22.7594 5.43486 21.8076C5.29039 20.8796 5.22097 19.7177 5.13345 18.2535L4.51321 7.87647H3.4987C2.85437 7.87647 2.33203 7.35414 2.33203 6.7098C2.33203 6.06547 2.85437 5.54313 3.4987 5.54313L8.64379 5.54232L9.05852 4.6325C9.29951 4.10377 9.51173 3.63811 9.72492 3.26445C9.95488 2.8614 10.2271 2.48842 10.6254 2.18285C11.1641 1.76962 11.7961 1.56012 12.4702 1.49876C12.9294 1.45695 13.3919 1.45818 13.8531 1.45939L14.1425 1.45992ZM15.7487 18.0658H12.2487C11.7655 18.0658 11.3737 18.4576 11.3737 18.9408C11.3737 19.424 11.7655 19.8158 12.2487 19.8158H15.7487C16.2319 19.8158 16.6237 19.424 16.6237 18.9408C16.6237 18.4576 16.2319 18.0658 15.7487 18.0658ZM17.4987 13.4948H10.4987C10.0155 13.4948 9.6237 13.8866 9.6237 14.3698C9.6237 14.853 10.0155 15.2448 10.4987 15.2448H17.4987C17.9819 15.2448 18.3737 14.853 18.3737 14.3698C18.3737 13.8866 17.9819 13.4948 17.4987 13.4948ZM14.2634 3.79323L14.0389 3.79313C13.3963 3.79313 12.9919 3.79425 12.6818 3.82248C12.2453 3.86221 11.9732 4.03228 11.7516 4.42075C11.6064 4.6752 11.4484 5.01577 11.2081 5.54232H16.8679C16.6037 4.9975 16.4346 4.6521 16.2814 4.39688C16.057 4.02317 15.7882 3.85934 15.3626 3.82127C15.0979 3.7976 14.763 3.79381 14.2634 3.79323Z" fill="#DF0000"/>
</svg>
