<svg width="24" height="24" viewBox="0 0 24 24" fill="none" xmlns="http://www.w3.org/2000/svg">
<path d="M9.78125 2.31738C10.9911 2.2374 12.5908 2.25717 13.9307 2.32715C14.3006 2.33715 14.4813 2.34729 14.5713 2.44727C14.6513 2.54727 14.6213 2.74746 14.5713 3.14746C14.5513 3.29745 14.5412 3.43762 14.5312 3.55762C14.5113 3.68749 14.5014 3.75764 14.4814 3.80762C14.4514 3.86759 14.3914 3.91784 14.2715 4.00781C13.7215 4.45781 13.2912 5.05778 13.0312 5.71777C12.8513 6.19768 12.7915 6.64764 12.7715 7.01758C12.7515 7.34743 12.751 7.73715 12.751 8.12695V8.24707C12.751 8.62707 12.7515 9.01742 12.7715 9.35742C12.7915 9.71741 12.8513 10.1775 13.0312 10.6475C13.4112 11.6373 14.1611 12.4672 15.1709 12.9072C15.6608 13.1272 16.131 13.1975 16.501 13.2275C16.831 13.2475 17.2115 13.2471 17.5615 13.2471H19.4414C19.7913 13.2471 20.1711 13.2475 20.501 13.2275C20.871 13.1975 21.3411 13.1272 21.8311 12.9072C22.2211 12.7372 22.4212 12.6477 22.5312 12.6777C22.591 12.6977 22.6408 12.7275 22.6807 12.7871C22.7507 12.8771 22.7407 13.0577 22.7207 13.4277C22.7109 13.4576 22.7109 13.4974 22.7109 13.5371C22.4109 18.1471 18.7907 21.8377 14.2207 22.1377C12.7609 22.2377 11.241 22.2377 9.78125 22.1377C9.21135 22.0977 8.60145 21.9672 8.06152 21.7373C7.97152 21.7073 7.90105 21.6775 7.83105 21.6475C7.69109 21.5875 7.62077 21.5672 7.55078 21.5771C7.47095 21.5872 7.41085 21.6279 7.29102 21.7178C7.26118 21.7377 7.23113 21.7573 7.19141 21.7871C6.40146 22.3671 5.40128 22.777 3.98145 22.7471H3.94141C3.66141 22.7371 3.37086 22.7275 3.13086 22.6875C2.84095 22.6275 2.49143 22.4872 2.27148 22.1074C2.03156 21.6976 2.12074 21.2876 2.2207 21.0176C2.3107 20.7776 2.46111 20.4875 2.62109 20.1875L2.6416 20.1475C3.10144 19.2577 3.23122 18.5376 2.98145 18.0576C2.15145 16.7976 1.40102 15.2571 1.29102 13.5371C1.24104 12.6772 1.24102 11.7769 1.29102 10.917C1.59122 6.3072 5.2114 2.62737 9.78125 2.31738ZM8.50098 14.2471C8.09117 14.2472 7.75117 14.5873 7.75098 14.9971C7.75098 15.407 8.09105 15.747 8.50098 15.7471H15.501C15.911 15.7471 16.251 15.4071 16.251 14.9971C16.2508 14.5872 15.9109 14.2471 15.501 14.2471H8.50098ZM18.502 1.25C19.8519 1.25011 21.002 2.3205 21.002 3.69043V4.75C21.0819 4.77 21.1517 4.80011 21.2217 4.83008C21.8416 5.11003 22.3213 5.62991 22.5713 6.25977C22.6713 6.53977 22.7114 6.82035 22.7314 7.11035C22.7514 7.40028 22.752 7.75033 22.752 8.16016V8.20996C22.752 8.62987 22.7514 8.97979 22.7314 9.25977C22.7114 9.55977 22.6713 9.84035 22.5713 10.1104C22.3212 10.7501 21.8415 11.2701 21.2217 11.54C20.9517 11.66 20.6716 11.7105 20.3916 11.7305C20.1216 11.7505 19.7913 11.75 19.4014 11.75H17.6016C17.2116 11.75 16.8813 11.7505 16.6113 11.7305C16.3314 11.7105 16.0511 11.66 15.7812 11.54C15.1615 11.27 14.6816 10.7501 14.4316 10.1104C14.3316 9.84035 14.2915 9.55977 14.2715 9.25977C14.2515 8.9798 14.252 8.62985 14.252 8.20996V8.16016C14.252 7.75035 14.2515 7.40027 14.2715 7.11035C14.2915 6.82035 14.3316 6.53977 14.4316 6.25977C14.6816 5.62997 15.1615 5.1101 15.7812 4.83008C15.8512 4.80008 15.922 4.77 16.002 4.75V3.69043C16.002 2.32043 17.152 1.25 18.502 1.25ZM8.50098 9.24707C8.09117 9.24717 7.75117 9.58729 7.75098 9.99707C7.75098 10.407 8.09105 10.747 8.50098 10.7471H11.001C11.411 10.7471 11.751 10.4071 11.751 9.99707C11.7508 9.58723 11.4109 9.24707 11.001 9.24707H8.50098ZM18.502 2.75C17.922 2.75 17.502 3.20043 17.502 3.69043V4.62988H19.502V3.69043C19.502 3.20049 19.0818 2.75011 18.502 2.75Z" fill="white"/>
</svg>
