<svg preserveAspectRatio="none" width="100%" height="100%" overflow="visible" style="display: block;" viewBox="0 0 21.4997 21.5" fill="none" xmlns="http://www.w3.org/2000/svg">
<g id="elements">
<path id="Icon" fill-rule="evenodd" clip-rule="evenodd" d="M10.7186 2.77886e-07H10.7814H10.7814C11.3855 -8.53559e-06 11.8856 -1.58288e-05 12.2985 0.0351516C12.7312 0.0720082 13.1223 0.150687 13.4994 0.337418C14.1713 0.670086 14.5961 1.19877 14.8943 1.729C15.1255 2.14004 15.305 2.60182 15.4571 2.99318C15.493 3.08553 15.5274 3.17396 15.5605 3.25689L15.7079 3.62534C15.7804 3.8066 15.8167 3.89722 15.8916 3.94869C15.9666 4.00016 16.0653 4.00145 16.2626 4.00403C17.1838 4.01608 17.8801 4.06819 18.4914 4.32479C19.4392 4.72261 20.2085 5.45632 20.6571 6.38547C20.8573 6.80002 20.9592 7.24536 21.0267 7.76254C21.0925 8.26676 21.1308 8.88894 21.1788 9.66739L21.3389 12.2623C21.4587 14.2057 21.5535 15.7415 21.465 16.946C21.3742 18.1829 21.0842 19.1918 20.3362 19.9986C19.5868 20.8071 18.6069 21.1654 17.3895 21.3351C16.2067 21.5 14.6866 21.5 12.767 21.5H8.73273C6.81311 21.5 5.29301 21.5 4.11028 21.3351C2.89282 21.1654 1.91298 20.8071 1.16353 19.9986C0.415552 19.1918 0.125514 18.1829 0.0346929 16.946C-0.0537454 15.7415 0.0409821 14.2057 0.160852 12.2623L0.320901 9.66721C0.3689 8.88885 0.407265 8.26672 0.47303 7.76254C0.540491 7.24536 0.642414 6.80002 0.842585 6.38547C1.29124 5.45632 2.06053 4.72261 3.00833 4.32479C3.61974 4.06817 4.31607 4.01607 5.23741 4.00403C5.43475 4.00145 5.53341 4.00016 5.60838 3.94869C5.68334 3.89722 5.71959 3.8066 5.79209 3.62534L5.93947 3.25689C5.97264 3.17397 6.00701 3.08554 6.0429 2.9932L6.0429 2.9932L6.04291 2.99317C6.19503 2.60181 6.37451 2.14003 6.60567 1.729C6.90388 1.19877 7.32866 0.670086 8.00059 0.337418C8.37775 0.150687 8.76879 0.0720082 9.20153 0.0351516C9.61444 -1.58288e-05 10.1145 -8.53558e-06 10.7186 2.77886e-07H10.7186ZM9.75195 4.75C9.75195 4.19772 10.1977 3.75 10.7475 3.75C11.2934 3.75 11.752 4.19791 11.752 4.75C11.752 5.30209 11.2934 5.75 10.7475 5.75C10.1977 5.75 9.75195 5.30229 9.75195 4.75ZM10.752 8.75C8.54281 8.75 6.75195 10.5409 6.75195 12.75C6.75195 14.9591 8.54281 16.75 10.752 16.75C12.9611 16.75 14.752 14.9591 14.752 12.75C14.752 10.5409 12.9611 8.75 10.752 8.75Z" fill="var(--fill-0, #494949)"/>
</g>
</svg>
