<svg preserveAspectRatio="none" width="100%" height="100%" overflow="visible" style="display: block;" viewBox="0 0 17.5 17.5" fill="none" xmlns="http://www.w3.org/2000/svg">
<g id="elements">
<path id="Icon" fill-rule="evenodd" clip-rule="evenodd" d="M3.70063 1.82582e-06C3.71703 2.71989e-06 3.73349 3.61396e-06 3.75 3.61396e-06C3.76652 3.61396e-06 3.78297 2.71989e-06 3.79938 1.82582e-06C4.46424 -3.54867e-05 5.0371 -6.76736e-05 5.49585 0.061609C5.98748 0.127708 6.45875 0.276767 6.84099 0.659013C7.22324 1.04126 7.3723 1.51252 7.4384 2.00416C7.50007 2.46291 7.50004 3.03577 7.50001 3.70064V13.7994C7.50004 14.4642 7.50007 15.0371 7.4384 15.4958C7.3723 15.9875 7.22324 16.4587 6.84099 16.841C6.45875 17.2232 5.98748 17.3723 5.49585 17.4384C5.0371 17.5001 4.46424 17.5 3.79937 17.5H3.70064C3.03577 17.5 2.46291 17.5001 2.00416 17.4384C1.51252 17.3723 1.04126 17.2232 0.659013 16.841C0.276767 16.4587 0.127708 15.9875 0.061609 15.4958C-6.76736e-05 15.0371 -3.54867e-05 14.4642 1.82582e-06 13.7994L3.61396e-06 3.75C3.61396e-06 3.73349 2.71989e-06 3.71703 1.82582e-06 3.70063C-3.54867e-05 3.03577 -6.76736e-05 2.46291 0.061609 2.00416C0.127708 1.51252 0.276767 1.04126 0.659013 0.659013C1.04126 0.276767 1.51252 0.127708 2.00416 0.061609C2.46291 -6.76736e-05 3.03577 -3.54867e-05 3.70063 1.82582e-06ZM2.20403 1.54823C1.87873 1.59197 1.77677 1.66258 1.71967 1.71967C1.66258 1.77677 1.59197 1.87873 1.54823 2.20403C1.5016 2.55091 1.5 3.02169 1.5 3.75V13.75C1.5 14.4783 1.5016 14.9491 1.54823 15.296C1.59197 15.6213 1.66258 15.7232 1.71967 15.7803C1.77677 15.8374 1.87873 15.908 2.20403 15.9518C2.55091 15.9984 3.02169 16 3.75 16C4.47831 16 4.9491 15.9984 5.29598 15.9518C5.62128 15.908 5.72324 15.8374 5.78033 15.7803C5.83743 15.7232 5.90804 15.6213 5.95177 15.296C5.99841 14.9491 6 14.4783 6 13.75V3.75C6 3.02169 5.99841 2.55091 5.95177 2.20403C5.90804 1.87873 5.83743 1.77677 5.78033 1.71967C5.72324 1.66258 5.62128 1.59197 5.29598 1.54823C4.9491 1.5016 4.47831 1.5 3.75 1.5C3.02169 1.5 2.55091 1.5016 2.20403 1.54823Z" fill="var(--fill-0, #161616)"/>
<path id="Tone" opacity="0.4" fill-rule="evenodd" clip-rule="evenodd" d="M13.7006 1.82582e-06C13.717 2.71989e-06 13.7335 3.61396e-06 13.75 3.61396e-06C13.7665 3.61396e-06 13.783 2.71989e-06 13.7994 1.82582e-06C14.4642 -3.54867e-05 15.0371 -6.76736e-05 15.4958 0.061609C15.9875 0.127708 16.4587 0.276767 16.841 0.659013C17.2232 1.04126 17.3723 1.51252 17.4384 2.00416C17.5001 2.46291 17.5 3.03577 17.5 3.70064V13.7994C17.5 14.4642 17.5001 15.0371 17.4384 15.4958C17.3723 15.9875 17.2232 16.4587 16.841 16.841C16.4587 17.2232 15.9875 17.3723 15.4958 17.4384C15.0371 17.5001 14.4642 17.5 13.7994 17.5H13.7006C13.0358 17.5 12.4629 17.5001 12.0042 17.4384C11.5125 17.3723 11.0413 17.2232 10.659 16.841C10.2768 16.4587 10.1277 15.9875 10.0616 15.4958C9.99993 15.0371 9.99996 14.4642 10 13.7994L10 3.75C10 3.73349 10 3.71703 10 3.70063C9.99996 3.03577 9.99993 2.46291 10.0616 2.00416C10.1277 1.51252 10.2768 1.04126 10.659 0.659013C11.0413 0.276767 11.5125 0.127708 12.0042 0.061609C12.4629 -6.76736e-05 13.0358 -3.54867e-05 13.7006 1.82582e-06ZM12.204 1.54823C11.8787 1.59197 11.7768 1.66258 11.7197 1.71967C11.6626 1.77677 11.592 1.87873 11.5482 2.20403C11.5016 2.55091 11.5 3.02169 11.5 3.75V13.75C11.5 14.4783 11.5016 14.9491 11.5482 15.296C11.592 15.6213 11.6626 15.7232 11.7197 15.7803C11.7768 15.8374 11.8787 15.908 12.204 15.9518C12.5509 15.9984 13.0217 16 13.75 16C14.4783 16 14.9491 15.9984 15.296 15.9518C15.6213 15.908 15.7232 15.8374 15.7803 15.7803C15.8374 15.7232 15.908 15.6213 15.9518 15.296C15.9984 14.9491 16 14.4783 16 13.75V3.75C16 3.02169 15.9984 2.55091 15.9518 2.20403C15.908 1.87873 15.8374 1.77677 15.7803 1.71967C15.7232 1.66258 15.6213 1.59197 15.296 1.54823C14.9491 1.5016 14.4783 1.5 13.75 1.5C13.0217 1.5 12.5509 1.5016 12.204 1.54823Z" fill="var(--fill-0, #161616)"/>
</g>
</svg>
