<svg preserveAspectRatio="none" width="100%" height="100%" overflow="visible" style="display: block;" viewBox="0 0 17.5 21.5" fill="none" xmlns="http://www.w3.org/2000/svg">
<g id="elements">
<path id="Icon" d="M1.5 9.75C1.5 13.7541 4.74594 17 8.75 17C12.7541 17 16 13.7541 16 9.75H17.5C17.5 14.3298 13.9814 18.0883 9.5 18.4688V20H11.75V21.5H5.75V20H8V18.4688C3.5186 18.0883 0 14.3298 0 9.75H1.5ZM8.75 0C11.9256 0 14.5 2.57436 14.5 5.75V9.75C14.5 12.9256 11.9256 15.5 8.75 15.5C5.57436 15.5 3 12.9256 3 9.75V5.75C3 2.57436 5.57436 0 8.75 0ZM8.75 1.5C6.40279 1.5 4.5 3.40279 4.5 5.75V9.75C4.5 12.0972 6.40279 14 8.75 14C10.8412 14 12.5783 12.4894 12.9326 10.5H9.75V9H13V6.5H9.75V5H12.9326C12.5783 3.01061 10.8412 1.5 8.75 1.5Z" fill="var(--fill-0, #161616)"/>
</g>
</svg>
