<svg preserveAspectRatio="none" width="100%" height="100%" overflow="visible" style="display: block;" viewBox="0 0 17.5 17.5" fill="none" xmlns="http://www.w3.org/2000/svg">
<g id="elements">
<path id="Icon" d="M3.79981 1.84646e-06C4.46454 -3.36351e-05 5.03742 -0.000141959 5.4961 0.0615253C5.98766 0.127628 6.45862 0.277012 6.84082 0.659182C7.223 1.04136 7.37236 1.51236 7.43848 2.00391C7.50014 2.46255 7.50004 3.03552 7.5 3.7002V13.7998C7.50004 14.4645 7.50014 15.0374 7.43848 15.4961C7.37236 15.9876 7.223 16.4586 6.84082 16.8408C6.45862 17.223 5.98767 17.3724 5.4961 17.4385C5.03742 17.5001 4.46454 17.5 3.79981 17.5H3.70117C3.03631 17.5 2.46265 17.5002 2.00391 17.4385C1.5124 17.3724 1.04133 17.223 0.659182 16.8408C0.277039 16.4586 0.127635 15.9876 0.0615253 15.4961C-0.000138188 15.0374 -3.36535e-05 14.4645 1.82414e-06 13.7998V3.7002C-3.36532e-05 3.03552 -0.000137928 2.46255 0.0615253 2.00391C0.127636 1.51238 0.277038 1.04136 0.659182 0.659182C1.04134 0.277028 1.5124 0.127648 2.00391 0.0615253C2.46264 -0.00014978 3.03633 -3.36419e-05 3.70117 1.84646e-06H3.79981ZM13.7998 1.84646e-06C14.4645 -3.36312e-05 15.0374 -0.000138184 15.4961 0.0615253C15.9876 0.127639 16.4586 0.276998 16.8408 0.659182C17.223 1.04137 17.3724 1.51236 17.4385 2.00391C17.5001 2.46255 17.5 3.03552 17.5 3.7002V13.7998C17.5 14.4645 17.5001 15.0374 17.4385 15.4961C17.3724 15.9876 17.223 16.4586 16.8408 16.8408C16.4586 17.223 15.9876 17.3724 15.4961 17.4385C15.0374 17.5001 14.4645 17.5 13.7998 17.5H13.7002C13.0355 17.5 12.4626 17.5001 12.0039 17.4385C11.5124 17.3724 11.0414 17.223 10.6592 16.8408C10.277 16.4586 10.1276 15.9876 10.0615 15.4961C9.99986 15.0374 9.99997 14.4645 10 13.7998V3.7002C9.99997 3.03552 9.99986 2.46255 10.0615 2.00391C10.1276 1.51236 10.277 1.04137 10.6592 0.659182C11.0414 0.276997 11.5124 0.12764 12.0039 0.0615253C12.4626 -0.000137931 13.0355 -3.36309e-05 13.7002 1.84646e-06H13.7998Z" fill="var(--fill-0, #161616)"/>
</g>
</svg>
