<svg preserveAspectRatio="none" width="100%" height="100%" overflow="visible" style="display: block;" viewBox="0 0 17.5 21.5" fill="none" xmlns="http://www.w3.org/2000/svg">
<g id="elements">
<path id="Tone" opacity="0.4" d="M3 5.75C3 2.57436 5.57436 0 8.75 0C11.9256 0 14.5 2.57436 14.5 5.75V9.75C14.5 12.9256 11.9256 15.5 8.75 15.5C5.57436 15.5 3 12.9256 3 9.75V5.75Z" fill="var(--fill-0, #161616)"/>
<path id="Icon" d="M16.5273 9C17.0643 9 17.5 9.43087 17.5 9.96191C17.4998 14.416 14.0973 18.084 9.72266 18.5625V19.5771H11.667C12.2037 19.5773 12.6385 20.0073 12.6387 20.5381C12.6387 21.069 12.2038 21.4998 11.667 21.5H5.83301C5.29621 21.4998 4.86133 21.069 4.86133 20.5381C4.86153 20.0073 5.29634 19.5773 5.83301 19.5771H7.77734V18.5625C3.40272 18.084 0.000191289 14.416 0 9.96191C0 9.43087 0.435713 9 0.972656 9C1.5094 9.00023 1.94434 9.43101 1.94434 9.96191C1.94454 13.679 4.99152 16.6924 8.75 16.6924C12.5085 16.6924 15.5555 13.679 15.5557 9.96191C15.5557 9.43101 15.9906 9.00023 16.5273 9ZM14.5 9.75C14.5 10.0042 14.4831 10.2545 14.4512 10.5H10.75C10.3358 10.5 10 10.1642 10 9.75C10 9.33579 10.3358 9 10.75 9H14.5V9.75ZM14.4512 5C14.4831 5.24547 14.5 5.49581 14.5 5.75V6.5H10.75C10.3358 6.5 10 6.16421 10 5.75C10 5.33579 10.3358 5 10.75 5H14.4512Z" fill="var(--fill-0, #161616)"/>
</g>
</svg>
