<svg preserveAspectRatio="none" width="100%" height="100%" overflow="visible" style="display: block;" viewBox="0 0 20.5 21.5" fill="none" xmlns="http://www.w3.org/2000/svg">
<g id="elements">
<path id="Icon" fill-rule="evenodd" clip-rule="evenodd" d="M6.75 5.36364C6.75 3.53473 8.28777 2 10.25 2C12.2122 2 13.75 3.53473 13.75 5.36364V5.57342C13.2482 5.52219 12.7096 5.5 12.1316 5.5H8.36842C7.79332 5.5 7.25446 5.52063 6.75 5.57095V5.36364ZM4.75 6.01121V5.36364C4.75 2.3726 7.24166 0 10.25 0C13.2583 0 15.75 2.3726 15.75 5.36364V6.01584C16.187 6.18308 16.5846 6.39746 16.9464 6.66803C18.1308 7.55389 18.7925 8.93865 19.3208 10.7805L19.3331 10.8231C19.807 12.4755 20.1791 13.7727 20.3648 14.8191C20.5534 15.8819 20.5714 16.7913 20.246 17.6329C19.8807 18.5777 19.2338 19.3922 18.3922 19.9765C17.5677 20.5489 16.2869 20.9197 14.894 21.1537C13.4729 21.3925 11.8306 21.5051 10.2029 21.4998C8.57517 21.4946 6.94116 21.3713 5.53633 21.13C4.1616 20.8939 2.90266 20.5283 2.10779 19.9765C1.26618 19.3922 0.619358 18.5777 0.254004 17.6329C-0.0714052 16.7913 -0.0533525 15.8819 0.135237 14.8191C0.320923 13.7727 0.692981 12.4756 1.16694 10.8232L1.16694 10.8232L1.16694 10.8232L1.17918 10.7805C1.73157 8.85465 2.43716 7.46854 3.64181 6.60346C3.98196 6.35919 4.35078 6.16461 4.75 6.01121ZM8.25 9.75C8.25 9.19772 8.69771 8.75 9.25 8.75H11.25C11.8023 8.75 12.25 9.19772 12.25 9.75C12.25 10.3023 11.8023 10.75 11.25 10.75H9.25C8.69771 10.75 8.25 10.3023 8.25 9.75Z" fill="var(--fill-0, #82858C)"/>
</g>
</svg>
