<svg preserveAspectRatio="none" width="100%" height="100%" overflow="visible" style="display: block;" viewBox="0 0 8.74999 15.7499" fill="none" xmlns="http://www.w3.org/2000/svg">
<g id="elements">
<path id="Icon" d="M8.39383 1.57935C8.20556 1.72155 7.64353 2.14611 7.31953 2.39896C6.67062 2.90538 5.80835 3.59734 4.94864 4.34378C4.08458 5.09399 3.24308 5.88209 2.62446 6.58222C2.31427 6.93329 2.07856 7.24168 1.92515 7.49616C1.78086 7.73551 1.75086 7.87689 1.75086 7.87689C1.75086 7.87689 1.78086 8.01412 1.92514 8.25345C2.07856 8.50793 2.31426 8.81632 2.62445 9.16739C3.24307 9.86752 4.08459 10.6556 4.94865 11.4058C5.80837 12.1523 6.67065 12.8442 7.31957 13.3507C7.64357 13.6035 8.20481 14.0275 8.39308 14.1697C8.78219 14.4562 8.86612 15.0046 8.57955 15.3937C8.29298 15.7828 7.74523 15.8659 7.35612 15.5794L7.35304 15.577C7.15546 15.4278 6.57344 14.9882 6.24293 14.7303C5.57935 14.2124 4.69162 13.5002 3.80134 12.7273C2.9154 11.9581 2.00691 11.1114 1.31303 10.3261C0.966979 9.93448 0.655809 9.53747 0.426412 9.15695C0.211494 8.80044 -4.03313e-06 8.34906 0 7.8748C4.03336e-06 7.40054 0.211501 6.94917 0.426419 6.59266C0.655816 6.21214 0.966984 5.81513 1.31304 5.42348C2.00691 4.63818 2.91539 3.79156 3.80132 3.02236C4.69159 2.24938 5.57931 1.53721 6.24288 1.01935C6.57365 0.761216 7.15575 0.321547 7.35288 0.172653L7.3555 0.170672C7.74461 -0.115902 8.29292 -0.0331903 8.57949 0.355918C8.86605 0.745014 8.78291 1.29277 8.39383 1.57935Z" fill="var(--fill-0, #161616)"/>
</g>
</svg>
