<svg width="28" height="28" viewBox="0 0 28 28" fill="none" xmlns="http://www.w3.org/2000/svg">
<path fill-rule="evenodd" clip-rule="evenodd" d="M13.9987 26.5413C7.0722 26.5413 1.45703 20.9262 1.45703 13.9997C1.45703 7.07317 7.0722 1.45801 13.9987 1.45801C20.9252 1.45801 26.5404 7.07317 26.5404 13.9997C26.5404 20.9262 20.9252 26.5413 13.9987 26.5413ZM19.2254 10.9406C19.7912 10.6315 19.9989 9.9222 19.6897 9.35636C19.3805 8.7917 18.6712 8.58401 18.1054 8.89317C15.9727 10.0598 14.2087 12.3115 13.0222 14.128C12.5835 14.7989 12.209 15.4347 11.9092 15.9725C11.6304 15.7019 11.3539 15.4662 11.1054 15.2702C10.7822 15.0147 10.4905 14.8128 10.2782 14.6728L9.91069 14.4453C9.35069 14.1257 8.63787 14.3205 8.31937 14.8805C7.99971 15.4393 8.19454 16.1522 8.75337 16.4718L8.99952 16.6247C9.16635 16.7343 9.3997 16.8954 9.6587 17.1007C10.193 17.523 10.7682 18.076 11.131 18.6827C11.3539 19.0537 11.7634 19.2719 12.1962 19.2485C12.629 19.224 13.0129 18.9627 13.1937 18.5684L13.308 18.3292C13.3874 18.167 13.5052 17.9314 13.6592 17.6397C13.9672 17.0575 14.4164 16.2595 14.9752 15.4031C16.1232 13.6473 17.6259 11.8156 19.2254 10.9406Z" fill="#161616"/>
</svg>
