<svg width="24" height="24" viewBox="0 0 24 24" fill="none" xmlns="http://www.w3.org/2000/svg">
<path d="M21.7461 20.75C22.2983 20.7501 22.7461 21.1978 22.7461 21.75C22.7459 22.302 22.2981 22.7499 21.7461 22.75H13.7461C13.194 22.75 12.7463 22.3021 12.7461 21.75C12.7461 21.1977 13.1938 20.75 13.7461 20.75H21.7461ZM12.2939 4.84082C12.4215 4.8385 12.5252 4.9422 12.7324 5.14941L18.9902 11.4072C19.1937 11.6107 19.2961 11.713 19.2949 11.8389C19.2935 11.9646 19.1894 12.0643 18.9824 12.2637L11.1465 19.8105C9.76569 21.141 8.9148 21.9612 7.83789 22.3818C6.75945 22.803 5.58653 22.7726 3.68945 22.7227C3.67287 22.7222 2.64134 22.6947 2.41113 22.6562C2.14473 22.6118 1.82843 22.5096 1.57812 22.2256C1.33002 21.944 1.26591 21.6189 1.25098 21.3516C1.23786 21.1162 1.32244 20.0317 1.32324 20.0215L1.32422 20.0186C1.45335 18.3579 1.5316 17.3421 1.93262 16.4189C2.33447 15.494 3.02154 14.7503 4.1416 13.5371L11.8672 5.16699C12.0662 4.95141 12.1662 4.84338 12.2939 4.84082ZM15.2012 1.79395C16.3858 1.08943 17.847 1.06745 19.0518 1.73633C19.5514 2.0138 20.0077 2.47994 20.6855 3.17285L20.8691 3.36035C21.5495 4.05488 22.005 4.52017 22.2754 5.02832C22.9239 6.24739 22.9023 7.72242 22.2188 8.92188C22.0113 9.28583 21.7067 9.62409 21.2861 10.041C21.0903 10.2352 20.9918 10.3321 20.8682 10.332C20.7443 10.3318 20.645 10.2329 20.4473 10.0352L14.0557 3.64453C13.8621 3.45102 13.7656 3.35395 13.7637 3.23242C13.7619 3.11076 13.8551 3.01171 14.041 2.81445C14.4781 2.35078 14.8252 2.01758 15.2012 1.79395Z" fill="white"/>
</svg>
