<svg preserveAspectRatio="none" width="100%" height="100%" overflow="visible" style="display: block;" viewBox="0 0 21.5 21.5" fill="none" xmlns="http://www.w3.org/2000/svg">
<g id="elements">
<path id="Icon" d="M10.75 0C16.6871 0 21.5 4.81294 21.5 10.75C21.5 16.6871 16.6871 21.5 10.75 21.5C4.81294 21.5 0 16.6871 0 10.75C0 4.81294 4.81294 0 10.75 0ZM15.6348 5.86523C15.4008 5.63171 14.957 5.77995 14.0713 6.0752L11.1514 7.04785C9.64125 7.55122 8.88622 7.80323 8.34473 8.34473C7.80323 8.88622 7.55122 9.64126 7.04785 11.1514L6.0752 14.0713C5.77995 14.957 5.63171 15.4008 5.86523 15.6348C6.09923 15.868 6.54321 15.7209 7.42871 15.4258L10.3486 14.4521C11.8586 13.9488 12.6138 13.6968 13.1553 13.1553C13.6968 12.6138 13.9488 11.8587 14.4521 10.3486L15.4258 7.42871C15.7209 6.54321 15.868 6.09923 15.6348 5.86523ZM10.0488 10.042C10.4381 9.65304 11.0688 9.65304 11.458 10.042C11.8469 10.4313 11.8471 11.063 11.458 11.4521L11.4521 11.458C11.063 11.8471 10.4313 11.8469 10.042 11.458C9.65304 11.0688 9.65304 10.4381 10.042 10.0488L10.0488 10.042Z" fill="#82858C"/>
</g>
</svg>
