<svg width="64" height="64" viewBox="0 0 64 64" fill="none" xmlns="http://www.w3.org/2000/svg">
<path d="M31.999 3.33301C43.8811 3.33301 53.5242 12.9105 53.5244 24.7383C53.5246 27.4896 53.71 29.5663 54.9785 31.4326C55.1548 31.6883 55.3889 32.0086 55.6445 32.3584C56.0886 32.9662 56.5989 33.6636 56.9854 34.2676C57.6675 35.3337 58.3334 36.6201 58.5625 38.1182C59.3098 43.0054 55.8643 46.17 52.4326 47.5879C50.2016 48.5097 47.8131 49.2593 45.3262 49.8408C45.3428 50.1181 45.3184 50.4024 45.2432 50.6855C43.7043 56.476 38.3183 60.6669 32 60.667C25.6816 60.667 20.2947 56.4762 18.7559 50.6855C18.6807 50.4028 18.6554 50.1187 18.6719 49.8418C16.1849 49.2603 13.7965 48.5097 11.5654 47.5879C8.1338 46.17 4.68826 43.0054 5.43555 38.1182C5.66466 36.6201 6.3315 35.3337 7.01367 34.2676C7.40015 33.6636 7.9095 32.9662 8.35352 32.3584C8.60915 32.0085 8.84318 31.6883 9.01953 31.4326C10.288 29.5663 10.4734 27.4894 10.4736 24.7383C10.4739 12.9106 20.117 3.33304 31.999 3.33301ZM39.4844 50.876C34.5597 51.4845 29.4394 51.4844 24.5146 50.876C25.8663 53.4902 28.6827 55.334 32 55.334C35.3171 55.3339 38.1328 53.49 39.4844 50.876Z" fill="#616161"/>
</svg>
