<svg width="24" height="24" viewBox="0 0 24 24" fill="none" xmlns="http://www.w3.org/2000/svg">
<path d="M12 1.25C16.4558 1.25 20.0723 4.84186 20.0723 9.27734C20.0724 10.3088 20.1417 11.0874 20.6172 11.7871C20.6833 11.883 20.7713 12.0035 20.8672 12.1348C21.0337 12.3627 21.2252 12.6241 21.3701 12.8506C21.6259 13.2503 21.876 13.7323 21.9619 14.2939C22.2422 16.1267 20.9499 17.3139 19.6631 17.8457C18.8266 18.1913 17.9305 18.4714 16.998 18.6895C17.0044 18.7936 16.995 18.9005 16.9668 19.0068C16.3897 21.1783 14.3694 22.75 12 22.75C9.63079 22.7498 7.61122 21.1782 7.03418 19.0068C7.00593 18.9005 6.99563 18.7936 7.00195 18.6895C6.06974 18.4714 5.17422 18.1912 4.33789 17.8457C3.05099 17.314 1.75875 16.1267 2.03906 14.2939C2.12502 13.7323 2.37509 13.2503 2.63086 12.8506C2.77573 12.6242 2.96634 12.3626 3.13281 12.1348C3.2287 12.0035 3.31668 11.883 3.38281 11.7871C3.85842 11.0873 3.92763 10.3088 3.92773 9.27734C3.92777 4.84196 7.54428 1.25011 12 1.25ZM14.8047 19.0771C12.9592 19.305 11.0408 19.305 9.19531 19.0771C9.70204 20.0575 10.7561 20.7498 12 20.75C13.244 20.75 14.2978 20.0575 14.8047 19.0771Z" fill="#616161"/>
</svg>
