<svg width="20" height="20" viewBox="0 0 20 20" fill="none" xmlns="http://www.w3.org/2000/svg">
<path d="M18.7705 3.40234C19.5252 4.0784 20 5.0613 20 6.1543V16.3076C20 18.3468 18.3468 20 16.3076 20H6.15332C5.05997 19.9999 4.07738 19.5248 3.40137 18.7695H16.3076C17.667 18.7695 18.7695 17.6671 18.7695 16.3076L18.7705 3.40234ZM13.8457 0C15.8849 0 17.5381 1.65318 17.5381 3.69238V13.8457C17.5381 15.8849 15.8849 17.5381 13.8457 17.5381H3.69238C1.65318 17.5381 0 15.8849 0 13.8457V3.69238C0 1.65318 1.65318 0 3.69238 0H13.8457ZM3.69238 1.23047C2.33291 1.23047 1.23047 2.33291 1.23047 3.69238V13.8457C1.23047 15.2052 2.33291 16.3076 3.69238 16.3076H13.8457C15.2052 16.3076 16.3076 15.2052 16.3076 13.8457V3.69238C16.3076 2.33291 15.2052 1.23047 13.8457 1.23047H3.69238Z" fill="white"/>
</svg>
