<svg width="20" height="20" viewBox="0 0 20 20" fill="none" xmlns="http://www.w3.org/2000/svg">
<path d="M4.4304 1.07247C4.90264 1.17007 5.27872 1.48735 5.51238 1.90654L6.25672 3.24192C6.5309 3.73375 6.76162 4.14766 6.9123 4.50747C7.07214 4.88915 7.16707 5.26553 7.12367 5.68166C7.08028 6.0978 6.90973 6.44649 6.67459 6.78698C6.45291 7.10797 6.14175 7.46536 5.772 7.89005L4.67783 9.14687C4.48175 9.37209 4.38372 9.4847 4.37476 9.62545C4.3658 9.7662 4.44615 9.88642 4.60685 10.1269C5.9765 12.1761 7.82246 14.0227 9.87337 15.3935C10.1138 15.5542 10.234 15.6346 10.3748 15.6256C10.5155 15.6166 10.6281 15.5186 10.8534 15.3225L12.1103 14.2283C12.5349 13.8585 12.8923 13.5474 13.2133 13.3257C13.5538 13.0906 13.9025 12.92 14.3186 12.8766C14.7348 12.8332 15.1112 12.9282 15.4928 13.088C15.8526 13.2387 16.2665 13.4694 16.7583 13.7435L18.0938 14.4879C18.513 14.7216 18.8302 15.0977 18.9278 15.5699C19.0265 16.0471 18.881 16.5267 18.5597 16.9209C17.3939 18.3512 15.5262 19.2619 13.5669 18.8666C12.3625 18.6237 11.1741 18.2189 9.73689 17.3947C6.8491 15.7385 4.25987 13.1479 2.60564 10.2634C1.78138 8.82615 1.37662 7.63783 1.13366 6.43344C0.738416 4.47409 1.64911 2.60636 3.07941 1.4406C3.47361 1.11932 3.95323 0.973843 4.4304 1.07247Z" fill="#7C57FC"/>
</svg>
