<svg width="16" height="12" viewBox="0 0 16 12" fill="none" xmlns="http://www.w3.org/2000/svg">
<g clip-path="url(#clip0_324_35337)">
<rect width="16" height="12" fill="white"/>
<rect width="16" height="12" fill="#006923"/>
<path fill-rule="evenodd" clip-rule="evenodd" d="M6.66982 3C6.65891 3 6.64254 3.00546 6.62163 3.01818C6.57254 3.05091 6.47617 3.15183 6.47253 3.2682C6.4698 3.33457 6.45708 3.33457 6.49981 3.3773C6.53072 3.42094 6.56345 3.4173 6.62527 3.38367C6.66164 3.35639 6.67346 3.34093 6.68618 3.29639C6.70073 3.22365 6.60709 3.33275 6.59527 3.24911C6.57436 3.17274 6.63436 3.14001 6.69073 3.06728C6.69255 3.03091 6.69255 3.00364 6.66982 3.00182V3ZM7.58171 3.00455C7.56352 3.00818 7.54261 3.03182 7.51261 3.08455C7.4917 3.14092 7.39987 3.22638 7.46715 3.40276C7.51988 3.51458 7.54261 3.69551 7.51806 3.89825C7.47988 3.95553 7.47261 3.97553 7.4226 4.0328C7.35351 4.10826 7.27714 4.08917 7.22077 4.06008C7.16622 4.02371 7.1244 4.00553 7.09985 3.89098C7.1044 3.70914 7.11531 3.4073 7.08167 3.34366C7.03257 3.24547 6.95075 3.28002 6.9162 3.31002C6.74983 3.46458 6.66709 3.72187 6.61618 3.92825C6.57072 4.07735 6.52072 4.03371 6.48617 3.97371C6.40162 3.8937 6.39525 3.27366 6.29343 3.37639C6.12978 3.8437 6.38707 4.35556 6.56618 4.30555C6.69346 4.3601 6.77528 4.11463 6.82801 3.84643C6.86438 3.77097 6.89165 3.76188 6.90984 3.80097C6.90529 4.15736 6.93711 4.23737 7.02803 4.34465C7.23168 4.50284 7.40078 4.36465 7.41442 4.35192L7.57352 4.19372C7.60989 4.15736 7.65535 4.15372 7.70535 4.18645C7.75445 4.23191 7.74808 4.30737 7.85082 4.35919C7.93991 4.39556 8.12629 4.36828 8.16902 4.29282C8.22812 4.19282 8.24175 4.15827 8.26903 4.12008C8.31085 4.06553 8.38267 4.09008 8.38267 4.10736C8.37631 4.13918 8.33449 4.171 8.36267 4.22555C8.41268 4.26191 8.4245 4.23827 8.45359 4.23009C8.55723 4.181 8.63542 3.95553 8.63542 3.95553C8.63997 3.87188 8.59269 3.87825 8.56269 3.89552C8.52178 3.92007 8.51996 3.92825 8.48086 3.9528C8.42904 3.96007 8.33085 3.99371 8.28267 3.91825C8.23266 3.82733 8.23266 3.70187 8.19448 3.60914C8.19448 3.60368 8.12811 3.4664 8.18902 3.45822C8.21903 3.46367 8.2863 3.48094 8.2963 3.42549C8.32903 3.37094 8.2263 3.21638 8.15629 3.14001C8.09629 3.07364 8.01265 3.06546 7.93173 3.13274C7.87445 3.18547 7.88355 3.24365 7.87173 3.29911C7.85809 3.36275 7.86082 3.44185 7.92628 3.5264C7.98264 3.63732 8.08538 3.78097 8.05083 3.9828C8.05083 3.9828 7.99174 4.07917 7.88718 4.06644C7.84172 4.05735 7.77081 4.03917 7.73263 3.75733C7.70535 3.5455 7.7399 3.2482 7.6508 3.1091C7.62989 3.05728 7.61262 3.00636 7.58352 3.00909L7.58171 3.00455ZM7.29259 3.02818C7.26532 3.03091 7.23532 3.06273 7.21077 3.12365C7.18986 3.17092 7.16349 3.41458 7.16804 3.41458C7.14986 3.48731 7.2435 3.51822 7.28623 3.42549C7.34987 3.25275 7.34987 3.18001 7.35351 3.1091C7.34442 3.05455 7.31987 3.02637 7.29259 3.02818ZM8.35904 3.04637C8.33176 3.05 8.30903 3.06637 8.30085 3.10819C8.28903 3.20456 8.29539 3.2582 8.31176 3.33912C8.32358 3.39367 8.40268 3.48276 8.44086 3.53549C8.62542 3.78369 8.80452 4.0328 8.97545 4.2901C9.00272 4.48284 9.0209 4.67012 9.03454 4.85741C9.06363 5.26653 9.07091 5.77566 9.04636 6.20751C9.12273 6.21024 9.24637 6.08296 9.2891 5.8984C9.31638 5.6402 9.28001 5.11652 9.27638 4.96378L9.26728 4.7474C9.4673 5.0747 9.66004 5.42018 9.84915 5.79839C9.91915 5.76566 9.9037 5.37563 9.86369 5.32108C9.71095 4.99378 9.50003 4.67012 9.43366 4.54557C9.40911 4.50011 9.32638 4.37556 9.2291 4.231C9.21092 4.02371 9.19092 3.84915 9.17819 3.79642C9.14637 3.57822 9.26729 3.82097 9.25092 3.6946C9.21092 3.4764 9.09091 3.32912 8.94908 3.1291C8.90362 3.06546 8.90362 3.05091 8.83362 3.14547C8.7927 3.24093 8.7927 3.32093 8.80634 3.39548C8.78634 3.36821 8.76361 3.3373 8.73088 3.29729L8.49905 3.10092C8.46723 3.07819 8.4054 3.04364 8.35904 3.04637ZM11.5193 3.08001C11.5056 3.07819 11.492 3.08455 11.4738 3.1091C11.442 3.13637 11.4084 3.1882 11.4102 3.25456C11.4165 3.36821 11.4374 3.48549 11.4447 3.60004L11.4538 3.6455C11.4411 3.63096 11.4302 3.61823 11.4238 3.61277C11.1992 3.37639 11.5265 3.57277 11.3802 3.39185C11.2574 3.25547 11.2211 3.21365 11.1165 3.13183C11.062 3.0991 11.0311 3.03364 11.0138 3.14456C11.0065 3.24184 10.9992 3.35548 11.0047 3.43731C11.0047 3.48276 11.0529 3.56913 11.0938 3.61914C11.2429 3.8037 11.3956 3.99917 11.5484 4.20282C11.5811 4.6183 11.5893 4.99924 11.6211 5.41563C11.6175 5.59383 11.5629 5.83021 11.512 5.85203C11.512 5.85203 11.432 5.89749 11.3793 5.84748C11.3402 5.83203 11.1865 5.59019 11.1865 5.59019C11.1074 5.51746 11.0547 5.53837 10.9992 5.59019C10.8447 5.73929 10.7738 6.01932 10.6692 6.21206C10.6419 6.25479 10.5665 6.29206 10.4819 6.20842C10.2665 5.91385 10.391 5.49473 10.3655 5.60292C10.1746 5.8193 10.2583 6.17751 10.3019 6.25479C10.3655 6.38207 10.4165 6.46389 10.5383 6.52481C10.6519 6.60663 10.7383 6.55663 10.7874 6.49753C10.9001 6.38116 10.902 6.08205 10.9547 6.02295C10.991 5.91385 11.0847 5.93204 11.1302 5.98113C11.1756 6.04477 11.2265 6.08568 11.2911 6.12023C11.3965 6.21297 11.522 6.22933 11.6456 6.14478C11.7302 6.0975 11.7857 6.03568 11.8347 5.91385C11.8893 5.77202 11.862 5.02651 11.8502 4.61194L12.0866 4.95378C12.1193 5.31744 12.1348 5.67656 12.123 6.02022C12.1157 6.08841 12.3621 5.81657 12.3593 5.68747C12.3593 5.57565 12.3612 5.47291 12.3593 5.37836C12.4803 5.56928 12.5957 5.76293 12.7048 5.96022C12.773 5.92385 12.7503 5.53928 12.7075 5.48746C12.593 5.29472 12.4457 5.08743 12.3321 4.9256C12.3093 4.72286 12.2793 4.48375 12.2648 4.4101C12.2439 4.29555 12.222 4.12372 12.1893 3.98826C12.1802 3.93643 12.153 3.76733 12.162 3.75187C12.1748 3.71278 12.2257 3.75187 12.2502 3.70823C12.2866 3.66732 12.1211 3.23547 12.0366 3.11365C12.0066 3.0591 11.9511 3.07728 11.8838 3.16819C11.8202 3.22638 11.8438 3.36094 11.8675 3.48913C11.9293 3.81642 11.9857 4.14736 12.0293 4.48011C11.9475 4.35737 11.8475 4.21009 11.7493 4.06917L11.7366 4.00553C11.7366 3.99826 11.7238 3.73733 11.712 3.6755C11.7093 3.65005 11.7029 3.64278 11.7302 3.64641C11.7575 3.67005 11.7611 3.67096 11.7784 3.67914C11.8075 3.68278 11.8329 3.6355 11.8147 3.59095L11.5511 3.10546C11.542 3.09364 11.5293 3.08273 11.5147 3.08092L11.5193 3.08001ZM3.36412 3.0891C3.31412 3.08728 3.26138 3.11637 3.2823 3.17547C3.26957 3.20729 3.37685 3.31457 3.39594 3.37366C3.4114 3.41639 3.37776 3.55095 3.41412 3.56459C3.44594 3.57822 3.49049 3.47004 3.50686 3.37094C3.51595 3.31639 3.50958 3.1291 3.3823 3.09092C3.37594 3.0891 3.36957 3.0891 3.3623 3.08819L3.36412 3.0891ZM12.6557 3.0891C12.6439 3.09092 12.6303 3.10728 12.6103 3.15274C12.5603 3.23456 12.543 3.38003 12.563 3.50731C12.6812 4.31646 12.7721 5.10016 12.7903 5.81657C12.7794 5.88567 12.7757 5.92204 12.7448 6.0075C12.6739 6.09841 12.5957 6.21115 12.5221 6.2657C12.4493 6.32025 12.293 6.37298 12.2421 6.41298C12.0784 6.50571 12.0784 6.613 12.2093 6.61754C12.4348 6.59027 12.7021 6.57208 12.8857 6.29479C12.9348 6.21751 12.993 6.00659 12.9948 5.87658C13.013 5.12198 12.9857 4.38101 12.8721 3.83461C12.8648 3.78006 12.8412 3.65914 12.8503 3.64368C12.8639 3.6055 12.9376 3.64641 12.9639 3.60368C13.003 3.56368 12.773 3.27002 12.693 3.14456C12.6766 3.11364 12.6657 3.08728 12.653 3.09001L12.6557 3.0891ZM10.2892 3.10183C10.2801 3.10364 10.2674 3.11819 10.2419 3.15183C10.1783 3.3573 10.1564 3.52458 10.181 3.65369C10.3446 4.4992 10.5083 5.26744 10.4828 6.07205C10.5592 6.07205 10.6483 5.89658 10.6865 5.72202C10.7074 5.48109 10.6719 5.33472 10.6665 5.19471C10.6601 5.05288 10.5065 3.90734 10.4756 3.80097C10.4374 3.59914 10.6247 3.77369 10.6047 3.65732C10.5392 3.50822 10.3774 3.29366 10.3283 3.16365C10.3101 3.1291 10.3065 3.09728 10.2919 3.10001L10.2892 3.10183ZM4.53057 3.11819C4.51239 3.12183 4.49148 3.13819 4.48511 3.16365C4.48057 3.18183 4.49238 3.21183 4.47602 3.22093C4.46693 3.23002 4.43238 3.22365 4.4342 3.17547C4.4342 3.1591 4.42238 3.14274 4.41602 3.13274C4.40874 3.1291 4.4042 3.12819 4.39147 3.12819C4.37601 3.12819 4.37601 3.13274 4.36783 3.14637C4.36419 3.1591 4.35874 3.17183 4.35874 3.18638C4.35692 3.20456 4.34965 3.20911 4.33783 3.21183C4.32328 3.21183 4.32601 3.21365 4.3151 3.20547C4.30601 3.19911 4.29873 3.19638 4.29873 3.18365C4.29873 3.17001 4.2951 3.14728 4.29146 3.14001C4.2851 3.13092 4.2751 3.12728 4.26419 3.12456C4.20418 3.12456 4.20055 3.19547 4.20327 3.22093C4.19873 3.22638 4.19691 3.34821 4.27873 3.38276C4.38783 3.43549 4.59512 3.41276 4.58785 3.23547C4.58785 3.22002 4.5833 3.16729 4.58148 3.15365C4.57057 3.12637 4.54966 3.11728 4.52966 3.12001L4.53057 3.11819ZM6.00886 3.12001C5.97068 3.12183 5.93613 3.13274 5.90885 3.14728C5.83612 3.21729 5.81794 3.32912 5.87612 3.39912C5.93067 3.4264 5.98795 3.48094 5.95068 3.51277C5.79248 3.68096 5.38063 3.96371 5.35972 4.01553V4.02098H5.36336V4.0228C5.38427 4.03644 5.64247 4.03644 5.67065 4.0228H5.67247C5.76157 3.98916 6.1816 3.50913 6.1816 3.50913C6.15978 3.49095 6.13978 3.4764 6.11796 3.45731C6.09432 3.43731 6.09705 3.4173 6.11796 3.3973C6.2216 3.3373 6.18887 3.20365 6.13432 3.14274C6.08887 3.12274 6.04705 3.11546 6.00886 3.11819V3.12001ZM9.87279 3.12001C9.86188 3.12274 9.84824 3.13819 9.82733 3.18365C9.77732 3.26547 9.74368 3.40639 9.74823 3.53822C9.85551 4.28373 9.88824 4.9356 9.95915 5.68111C9.96461 5.75384 9.9537 5.85749 9.90642 5.89931C9.72823 6.08477 9.47275 6.31206 9.19455 6.41753C9.16455 6.45117 9.2691 6.5939 9.40366 6.5939C9.62913 6.56663 9.82733 6.44116 10.0128 6.1075C10.061 6.03023 10.1474 5.86385 10.1492 5.73475C10.1674 4.97833 10.1128 4.38919 9.99825 3.8437C9.99188 3.78915 9.99643 3.72551 10.0055 3.71096C10.0201 3.69278 10.0692 3.71096 10.0964 3.66823C10.1346 3.62823 9.99279 3.30184 9.91279 3.17729C9.89642 3.14547 9.88733 3.1191 9.87279 3.12001ZM3.88689 3.14456C3.85597 3.14819 3.82688 3.17183 3.81233 3.2082C3.80779 3.32639 3.80688 3.44458 3.82143 3.5555C3.87598 3.74915 3.89143 3.91916 3.9178 4.11645C3.92689 4.38192 3.76506 4.231 3.77233 4.10008C3.8087 3.92916 3.79961 3.66096 3.76688 3.59277C3.7396 3.52458 3.71051 3.50822 3.64687 3.52004C3.59686 3.5164 3.46685 3.65641 3.43049 3.89279C3.43049 3.89279 3.39958 4.0128 3.38685 4.12008C3.36866 4.241 3.28866 4.32737 3.23229 4.10372C3.18411 3.94007 3.15501 3.54004 3.0741 3.63277C3.05046 3.94553 3.02318 4.49647 3.28866 4.55284C3.6105 4.58375 3.43231 4.00917 3.54868 3.90461C3.57141 3.85461 3.61232 3.8537 3.61505 3.91825V4.40647C3.61141 4.56466 3.71505 4.61194 3.79688 4.64467C3.88143 4.6383 3.93689 4.64103 3.96962 4.72286L4.01053 5.56837C4.01053 5.56837 4.20509 5.62292 4.21418 5.09288C4.22327 4.78104 4.15054 4.52011 4.19327 4.4592C4.19509 4.3992 4.27146 4.39556 4.32419 4.42556C4.40874 4.48466 4.44602 4.55739 4.57694 4.5283C4.77695 4.47375 4.89514 4.37738 4.89787 4.22464C4.88878 4.07917 4.87059 3.93371 4.80695 3.78824C4.81605 3.76278 4.77059 3.6946 4.77968 3.66823C4.81423 3.72278 4.86878 3.71914 4.87969 3.66823C4.84696 3.5564 4.79423 3.45003 4.70876 3.40458C4.63876 3.34093 4.53602 3.35457 4.49784 3.48367C4.47966 3.63277 4.55239 3.80915 4.66149 3.95371C4.68331 4.01008 4.71604 4.10372 4.70149 4.18827C4.64421 4.221 4.58694 4.20645 4.53784 4.15645C4.53784 4.15645 4.38056 4.03826 4.38056 4.01098C4.42329 3.74278 4.38965 3.71096 4.36692 3.63823C4.35056 3.53459 4.30146 3.50186 4.26237 3.43094C4.22236 3.38821 4.16872 3.38821 4.14418 3.43094C4.07326 3.55186 4.10599 3.81279 4.15691 3.92825C4.19327 4.03553 4.24964 4.10281 4.22327 4.10281C4.20145 4.1619 4.156 4.14827 4.12327 4.07826C4.07781 3.9328 4.0669 3.71824 4.0669 3.62096C4.05326 3.50095 4.03781 3.24365 3.9578 3.1782C3.93689 3.1491 3.91234 3.1391 3.88779 3.14183L3.88689 3.14456ZM5.01606 3.14456C5.0006 3.14819 4.98242 3.15728 4.96151 3.16274C4.89332 3.18365 4.82968 3.24275 4.84968 3.3573C4.93151 3.84824 4.98333 4.22373 5.06425 4.71467C5.07606 4.77286 5.02788 4.84832 4.96606 4.84196C4.86059 4.76922 4.83423 4.62376 4.65422 4.63103C4.5233 4.63103 4.37419 4.77468 4.35601 4.91105C4.33419 5.02015 4.32692 5.13834 4.35601 5.23289C4.44693 5.34199 4.55784 5.33108 4.65422 5.30563C4.73331 5.27381 4.79968 5.19653 4.82696 5.21471C4.84514 5.24471 4.82514 5.50019 4.4542 5.69656C4.22509 5.80021 4.04326 5.82385 3.94507 5.63838C3.88507 5.52201 3.95053 5.07834 3.80142 5.18016C3.35957 6.31843 4.83514 6.47662 4.9997 5.22744C5.01061 5.19107 5.04243 5.15652 5.06606 5.16562C5.07516 5.17016 5.08425 5.1838 5.08788 5.20926C5.05334 6.34025 3.94598 6.41844 3.75869 6.06205C3.71142 5.9784 3.69778 5.79112 3.69323 5.6802C3.68414 5.61201 3.66778 5.57292 3.64778 5.55746C3.60232 5.52382 3.54231 5.61201 3.52959 5.76384C3.5114 5.88658 3.51595 5.92022 3.51595 6.03841C3.57595 6.93211 5.0006 6.54754 5.23244 5.81112C5.34699 5.42927 5.22971 5.14107 5.26881 5.10561L5.27153 5.10379H5.27426L5.27881 5.10197C5.42064 5.25471 5.61883 5.12016 5.66247 5.06834C5.68066 5.04106 5.72793 5.02288 5.76066 5.05924C5.86976 5.13743 6.06432 5.10016 6.10432 4.95924C6.12796 4.82286 6.14796 4.68285 6.15251 4.53648C6.07978 4.55921 6.02159 4.57557 5.99795 4.60012C5.9925 4.60648 5.98886 4.61376 5.98704 4.62103L5.96886 4.74195C5.96886 4.74649 5.96704 4.74922 5.96522 4.75104C5.96249 4.7574 5.95613 4.76195 5.95249 4.76468C5.92704 4.77831 5.88249 4.77104 5.87976 4.73377C5.84612 4.57921 5.7052 4.55921 5.61974 4.80013C5.56246 4.84559 5.45609 4.85468 5.447 4.78559C5.46064 4.62376 5.39518 4.60194 5.26517 4.67831L5.13971 3.73278C5.19426 3.73005 5.24335 3.76915 5.29426 3.70733C5.23971 3.54004 5.12607 3.20002 5.06152 3.16729H5.0597L5.05061 3.15819C5.05061 3.15638 5.04788 3.15547 5.04606 3.15456L5.04243 3.1491C5.03879 3.1491 5.03515 3.14728 5.03333 3.14637C5.02697 3.14456 5.02242 3.14456 5.01606 3.14456ZM9.41821 3.14819C9.36184 3.14637 9.30001 3.18183 9.32365 3.25275C9.30911 3.29184 9.44457 3.42276 9.46639 3.49367C9.50548 3.60277 9.43639 3.70914 9.4773 3.7246C9.51549 3.74096 9.56822 3.61095 9.5864 3.49004C9.61004 3.39185 9.54094 3.19183 9.44093 3.15092L9.41821 3.1491V3.14819ZM5.98795 3.26729C6.01341 3.26547 6.04432 3.28911 6.06068 3.32184C6.07614 3.35821 6.06796 3.39185 6.0425 3.39821C6.01523 3.40458 5.98068 3.38185 5.96431 3.34548C5.94795 3.30911 5.95522 3.27548 5.9825 3.26911H5.98795V3.26729ZM12.3493 3.43276C12.2975 3.43094 12.2402 3.46913 12.2639 3.5464C12.2511 3.58823 12.373 3.73005 12.3939 3.80824C12.4121 3.86279 12.3666 4.04099 12.403 4.05735C12.4375 4.07553 12.4848 3.93371 12.503 3.80279C12.5139 3.73005 12.4612 3.48004 12.3712 3.43549C12.3648 3.43367 12.3575 3.43185 12.3502 3.43185L12.3493 3.43276ZM8.83089 3.52004C8.83725 3.54095 8.8418 3.56186 8.84453 3.58368C8.85544 3.62914 8.86453 3.6746 8.87362 3.72187C8.83362 3.6655 8.80089 3.62005 8.78543 3.60368C8.69452 3.49458 8.78725 3.53277 8.83089 3.52004ZM9.64277 3.91825C9.62277 3.92189 9.60367 3.93916 9.59731 3.96644C9.59185 3.9828 9.60458 4.01189 9.58822 4.02098C9.57913 4.03008 9.54276 4.02462 9.54549 3.97553C9.54549 3.95916 9.53367 3.94189 9.5273 3.9328C9.52003 3.92825 9.51549 3.92643 9.50276 3.92643C9.4873 3.92643 9.4873 3.93098 9.47912 3.94462C9.47548 3.95734 9.47003 3.97007 9.47003 3.98553C9.47003 4.00371 9.46275 4.00917 9.45003 4.0128C9.43548 4.0128 9.43821 4.0128 9.42639 4.00644C9.41911 3.99735 9.41093 3.99553 9.41093 3.9828C9.41093 3.96916 9.40821 3.94825 9.40366 3.93916C9.3973 3.93007 9.3882 3.92734 9.37638 3.92371C9.31729 3.92371 9.31274 3.9928 9.31638 4.01826C9.31274 4.02371 9.31002 4.14736 9.39184 4.18191C9.50276 4.23373 9.71005 4.20918 9.70095 4.0328C9.70095 4.01735 9.69641 3.96462 9.6955 3.95098C9.68368 3.92371 9.66277 3.91461 9.64368 3.91734L9.64277 3.91825ZM5.94249 3.95462C5.92976 3.95462 5.91158 3.95825 5.89067 3.97098C5.79339 4.02371 5.75612 4.18009 5.81794 4.271C5.87249 4.35283 5.9634 4.32283 5.97522 4.32283C6.07068 4.33555 6.12705 4.14463 6.12705 4.14463C6.12705 4.14463 6.12978 4.09008 6.01795 4.19191C5.96886 4.201 5.9634 4.18282 5.95068 4.15554C5.93977 4.10736 5.94158 4.05553 5.96431 4.00735C5.97522 3.97735 5.96431 3.95825 5.94249 3.95643V3.95462ZM11.1729 3.97916C11.1183 3.97644 11.0611 4.01189 11.0456 4.08554C11.0456 4.12917 11.0656 4.15281 11.062 4.19282C11.0574 4.21554 11.0347 4.22918 10.9783 4.20373C10.9874 4.19463 10.942 4.13281 10.942 4.13281C10.8992 4.10554 10.8419 4.13281 10.8038 4.15827C10.7829 4.19645 10.7674 4.261 10.791 4.32646C10.8529 4.44193 11.0665 4.6383 11.1683 4.64012C11.1702 4.53648 11.1802 4.39829 11.1865 4.31282C11.1883 4.2801 11.1956 4.24464 11.2274 4.23646C11.2583 4.22736 11.312 4.26737 11.312 4.23373C11.3065 4.16827 11.2938 4.07008 11.2574 4.02462C11.2374 3.99735 11.2056 3.98098 11.1738 3.97916H11.1729ZM6.84256 4.3401L6.83983 4.34283C6.83983 4.34283 6.83801 4.34283 6.8371 4.34465C6.82619 4.35374 6.81347 4.37192 6.78528 4.3901C6.7371 4.44465 6.72891 4.48375 6.73073 4.59285C6.73437 4.60466 6.82165 4.85014 6.89711 5.02197C6.94802 5.20107 6.99439 5.40654 6.96075 5.60019C6.84256 5.85658 6.60618 6.08659 6.37616 6.21206C6.25797 6.24842 6.15796 6.23569 6.13069 6.21024C6.06341 6.16478 6.0625 6.08296 6.06705 6.07023V6.0675C6.25979 5.93295 6.48071 5.82385 6.65345 5.46109C6.70437 5.32199 6.72073 5.23835 6.66982 5.0247C6.64982 4.94287 6.62436 4.87923 6.56981 4.82104H6.57163C6.60436 4.80559 6.68982 4.86832 6.70346 4.83014C6.68255 4.72649 6.61254 4.58921 6.53526 4.51829C6.46617 4.45465 6.3898 4.44829 6.32798 4.50557C6.25706 4.54557 6.24251 4.6874 6.27615 4.81104C6.31434 4.90378 6.41707 4.92014 6.48981 5.10834C6.49162 5.12107 6.51435 5.24926 6.47799 5.30199C6.44708 5.39472 6.06432 5.69656 6.03705 5.71475L6.03432 5.71657L6.0325 5.71838H6.03068H6.02886V5.71566C6.02704 5.70838 6.02886 5.68838 6.02886 5.65838C6.02613 5.60201 6.04977 5.47382 6.04705 5.45109V5.44927C5.91976 5.5311 5.87703 5.78112 5.8543 5.85567C5.53337 6.07659 5.16971 6.24115 4.95969 6.4648C4.85059 6.63754 5.71248 6.27024 5.81248 6.22569L5.81521 6.22842C5.83521 6.24933 5.83612 6.32207 5.8934 6.38843C5.98431 6.50935 6.17342 6.5839 6.35889 6.53754C6.66982 6.42571 6.84983 6.21388 7.03166 5.9784C7.05712 5.94204 7.09803 5.91113 7.13622 5.94022C7.26077 6.22024 7.62262 6.42025 8.08902 6.44026C8.19812 6.30934 8.14629 6.24479 8.10265 6.21751C8.08902 6.20842 7.87082 6.12296 7.83627 6.03841C7.81536 5.96022 7.86718 5.89021 7.97083 5.83839C8.27085 5.80203 8.56541 5.76111 8.85089 5.66929C8.85362 5.57292 8.90999 5.43018 8.94817 5.36745C8.97545 5.32472 8.9909 5.32017 8.99726 5.31472V5.3129H8.99908V5.31017V5.30108L8.94999 5.27199L7.99265 5.26835C7.98083 5.2638 7.97264 5.25926 7.96719 5.25471L7.96537 5.25199C7.96537 5.25199 7.96355 5.25199 7.96355 5.25017C7.96355 5.24835 7.96173 5.24835 7.96173 5.24835V5.24744V5.24562V5.2438L7.96355 5.24108C7.9681 5.23562 7.97992 5.22926 7.99355 5.22289C8.22266 5.19289 8.62815 5.12652 8.65542 4.73649C8.65088 4.53284 8.56814 4.4001 8.31903 4.36374C8.13538 4.37738 8.00446 4.55466 8.02537 4.74922C8.01628 4.80104 8.04356 4.90378 7.98901 4.9156C7.63807 4.94833 7.25441 5.16834 7.24168 5.32654H7.23986H7.23804H7.23622C7.23622 5.32836 7.2335 5.32835 7.2335 5.32835H7.22986H7.22804H7.22441C7.20168 5.32108 7.17258 5.2829 7.17713 5.23108C7.16349 4.95833 7.07439 4.64921 6.9362 4.41283C6.8862 4.36283 6.86347 4.34283 6.85074 4.3401H6.84801H6.84529H6.84256ZM7.75899 4.48375C7.74081 4.48738 7.7199 4.50375 7.71353 4.53102C7.70899 4.54921 7.72262 4.5783 7.70626 4.58739C7.69717 4.59648 7.6608 4.59103 7.66262 4.54193C7.66262 4.52648 7.6508 4.5092 7.64444 4.4992C7.63716 4.49466 7.63262 4.49375 7.6208 4.49375C7.60534 4.49375 7.60443 4.49738 7.59625 4.51011C7.59171 4.52284 7.58716 4.53739 7.58716 4.55102C7.58534 4.56921 7.57807 4.57466 7.56625 4.57648C7.5517 4.57648 7.55534 4.57921 7.54352 4.57194C7.53625 4.56466 7.52716 4.56103 7.52716 4.5483C7.52716 4.53466 7.52443 4.51193 7.52079 4.50284C7.51443 4.49647 7.50443 4.49375 7.49352 4.49011C7.4326 4.49011 7.42988 4.5583 7.4326 4.58466C7.42806 4.58921 7.42533 4.71195 7.50715 4.74649C7.61625 4.79922 7.87991 4.76831 7.81627 4.5983C7.81627 4.58284 7.81172 4.53011 7.81081 4.51648C7.79899 4.4892 7.77808 4.48011 7.75808 4.48284L7.75899 4.48375ZM11.4547 4.63558H11.4456C11.4456 4.63558 10.9347 4.99924 10.9229 5.01197C10.8719 5.05743 10.8974 5.21471 10.9229 5.19653C10.9592 5.21016 11.4729 4.86196 11.4629 4.82104C11.4856 4.82286 11.4965 4.64194 11.4538 4.63467L11.4547 4.63558ZM8.24175 4.69013C8.26176 4.6874 8.28903 4.69467 8.31449 4.70831C8.35358 4.73195 8.37813 4.76468 8.37358 4.79013V4.79377C8.37176 4.79377 8.37176 4.79377 8.37176 4.79559V4.79741C8.37176 4.79741 8.36995 4.79741 8.36995 4.79922C8.36995 4.80104 8.36722 4.80286 8.3654 4.80468C8.34722 4.82286 8.3054 4.81923 8.26539 4.79559C8.22721 4.77468 8.20448 4.74104 8.2063 4.7174V4.71467L8.21084 4.70558C8.21084 4.70558 8.21084 4.70376 8.21266 4.70285L8.21721 4.6974C8.22357 4.69285 8.23175 4.68831 8.24175 4.68831V4.69013ZM3.77051 4.78104C3.50686 4.7865 3.11865 5.12834 3.10865 5.31745L3.94507 4.91742C3.89961 4.84832 3.94234 4.7865 3.77051 4.78104ZM4.62785 4.89923C4.65331 4.90105 4.68058 4.91378 4.69513 4.95015C4.70786 4.98378 4.69513 5.01833 4.67967 5.03561V5.03833C4.66694 5.05288 4.62876 5.04743 4.60057 5.04743C4.56694 5.04561 4.55057 5.04015 4.53057 5.01288C4.51966 4.98106 4.54875 4.95105 4.56239 4.92923L4.56875 4.92014C4.57785 4.91105 4.59603 4.90378 4.61421 4.90196L4.62603 4.90014L4.62785 4.89923ZM11.3556 5.0056C11.3074 5.01106 11.2629 5.05561 11.2829 5.12652C11.2702 5.16834 11.3465 5.31472 11.3674 5.392C11.3856 5.44655 11.3438 5.60383 11.3811 5.61929C11.4156 5.63747 11.5056 5.52837 11.5029 5.38836C11.512 5.31563 11.4774 5.05197 11.3874 5.00833C11.3765 5.0056 11.3665 5.00469 11.3556 5.0056ZM5.64247 5.2638C5.60065 5.26653 5.56337 5.28835 5.58065 5.34745C5.57792 5.38927 5.69884 5.44109 5.7052 5.53837C5.72157 5.58019 5.67793 5.71111 5.71429 5.72202C5.74702 5.73566 5.79248 5.6311 5.80976 5.53655C5.81885 5.48382 5.76793 5.30017 5.68247 5.26653C5.66884 5.2629 5.6552 5.26199 5.64156 5.2629L5.64247 5.2638ZM7.35169 5.49655H7.3626C7.46988 5.52564 7.62625 5.52928 7.76263 5.54201C7.87445 5.5511 7.929 5.63656 7.82627 5.67384C7.72262 5.70838 7.62353 5.73748 7.62353 5.88476C7.63626 5.95749 7.63262 5.99568 7.62171 6.01204C7.62171 6.01477 7.61807 6.0175 7.61807 6.0175C7.61807 6.0175 7.61807 6.01932 7.61625 6.01932V6.02113H7.61353L7.60716 6.02386H7.60262C7.57807 6.02841 7.54261 6.00568 7.51625 5.99113C7.45261 5.94567 7.27532 5.83657 7.24986 5.60019C7.24623 5.54564 7.28623 5.50019 7.34987 5.49564L7.35169 5.49655ZM3.17501 5.67838C3.16865 5.67838 3.15683 5.69838 3.13865 5.72111C2.98045 5.97113 2.96591 6.34479 3.05319 6.45753C3.09864 6.50935 3.17501 6.53299 3.23138 6.51663C3.33139 6.47389 3.37412 6.27297 3.34957 6.20024C3.31775 6.14842 3.29139 6.14023 3.25866 6.18387C3.18865 6.32479 3.15865 6.22751 3.1541 6.14751C3.14319 5.99931 3.15774 5.86112 3.17411 5.75202C3.1832 5.69747 3.1832 5.67656 3.17411 5.67656L3.17501 5.67838ZM8.53632 6.0075C8.5245 6.0075 8.51268 6.00931 8.49996 6.01659C8.49723 6.01659 8.38722 6.08932 8.35176 6.14205C8.32994 6.15842 8.33358 6.17205 8.33903 6.20115C8.3554 6.24024 8.38449 6.22842 8.41904 6.21024C8.4645 6.20297 8.48541 6.23297 8.48268 6.28661C8.46177 6.35479 8.49177 6.37934 8.49177 6.38389C8.49177 6.38752 8.5345 6.4248 8.58542 6.39571C8.69179 6.35479 8.75816 6.31388 8.90817 6.28206C8.94726 6.28206 8.94453 6.1766 8.88271 6.17296C8.80089 6.1766 8.72815 6.18205 8.64633 6.2457C8.59633 6.25661 8.58814 6.22569 8.57632 6.19842C8.5636 6.13114 8.60542 6.08387 8.59633 6.03295C8.59814 6.03568 8.57087 6.01113 8.53541 6.00931L8.53632 6.0075ZM11.9693 6.13478L11.8966 6.14205C11.8638 6.14842 11.8529 6.16296 11.8466 6.20297C11.8493 6.26206 11.8857 6.25933 11.9238 6.28297C11.9457 6.31025 11.9602 6.3357 11.922 6.38298C11.8857 6.4148 11.8611 6.43298 11.8247 6.4648C11.8093 6.4939 11.7975 6.53754 11.8502 6.55208C11.9457 6.57936 12.1666 6.43571 12.1666 6.43389C12.203 6.40662 12.1902 6.35479 12.1875 6.35479C12.1657 6.33116 12.1184 6.3457 12.0875 6.34116C12.072 6.34116 12.0239 6.33388 12.0457 6.29024C12.0657 6.26297 12.0729 6.24751 12.0866 6.21388C12.1002 6.18115 12.0866 6.15933 12.0339 6.14114C12.0066 6.13569 11.9884 6.13387 11.9675 6.13478H11.9693Z" fill="white"/>
<path d="M11.9401 7.90956H11.8066H11.0053V7.72871C11.0053 7.62877 10.9455 7.54785 10.8718 7.54785C10.798 7.54785 10.7382 7.62872 10.7382 7.72871V7.90956H3.66016C3.92723 8.27121 4.46142 8.45212 4.86209 8.45212C5.14943 8.45212 8.73366 8.45212 10.7382 8.45212V8.81377C10.7382 8.91371 10.798 8.99463 10.8718 8.99463H11.9401C12.1611 8.99463 12.3408 8.75125 12.3408 8.45207C12.3408 8.15288 12.1611 7.90956 11.9401 7.90956ZM11.9401 8.63292H11.0053V8.45207C11.6489 8.45207 12.0737 8.45207 12.0737 8.45207L12.0497 8.35473C12.0636 8.38321 12.0737 8.41538 12.0737 8.45207C12.0737 8.5519 12.0137 8.63292 11.9401 8.63292Z" fill="white"/>
</g>
<defs>
<clipPath id="clip0_324_35337">
<rect width="16" height="12" fill="white"/>
</clipPath>
</defs>
</svg>
