<svg width="20" height="20" viewBox="0 0 20 20" fill="none" xmlns="http://www.w3.org/2000/svg">
<path d="M7.58366 17.0529C9.20073 17.0935 10.8019 17.0935 12.4189 17.0529C15.0427 16.9869 16.3546 16.954 17.2972 16.0078C18.2398 15.0616 18.267 13.7843 18.3215 11.2297V11.2297C18.339 10.4083 18.339 9.59173 18.3215 8.77033C18.284 7.01051 18.2594 5.85684 17.9395 5L10.0013 9.16667L2.06306 5C1.74324 5.85684 1.71863 7.0105 1.68111 8.77032C1.66359 9.59172 1.66359 10.4083 1.68111 11.2297C1.73559 13.7843 1.76283 15.0616 2.70543 16.0078C3.64804 16.954 4.95991 16.9869 7.58366 17.0529Z" fill="#666776"/>
<path d="M7.56797 2.32265C9.19534 2.28178 10.8068 2.28177 12.4342 2.32265L12.483 2.32363C13.7535 2.35554 14.7759 2.38113 15.5953 2.52383C16.4532 2.67324 17.1508 2.95988 17.7398 3.55117C18.3263 4.13995 18.6109 4.82736 18.7574 5.67129C18.897 6.47493 18.9186 7.47269 18.9449 8.7084L18.9459 8.75723C18.9636 9.58746 18.9636 10.4133 18.9459 11.2436L18.9449 11.2924C18.9186 12.5278 18.8969 13.525 18.7574 14.3285C18.6109 15.1724 18.3262 15.8599 17.7398 16.4486C17.1508 17.0399 16.4532 17.3266 15.5953 17.476C14.7759 17.6187 13.7535 17.6443 12.483 17.6762L12.4342 17.6781C10.8068 17.719 9.19533 17.719 7.56797 17.6781L7.51914 17.6762C6.24863 17.6443 5.22621 17.6186 4.40683 17.476C3.54892 17.3266 2.85135 17.0399 2.2623 16.4486C1.67581 15.8598 1.3903 15.1725 1.24375 14.3285C1.10427 13.525 1.08355 12.5277 1.05722 11.2924L1.05625 11.2436C1.03854 10.4133 1.03854 9.58747 1.05625 8.75723L1.05722 8.7084C1.08355 7.47273 1.1042 6.47492 1.24375 5.67129C1.39031 4.82728 1.67572 4.13999 2.2623 3.55117C2.85135 2.9599 3.54894 2.67323 4.40683 2.52383C5.2262 2.38118 6.24864 2.35553 7.51914 2.32363L7.56797 2.32265ZM2.43515 6.1498C2.34855 6.81016 2.32955 7.6451 2.30527 8.78359C2.28795 9.59604 2.28795 10.4038 2.30527 11.2162C2.33291 12.5122 2.35377 13.4151 2.47519 14.1146C2.59152 14.7845 2.79202 15.2094 3.14804 15.5668C3.50153 15.9216 3.93134 16.1244 4.6207 16.2445C5.3384 16.3695 6.26866 16.3947 7.59922 16.4281C9.20573 16.4685 10.7964 16.4685 12.4029 16.4281C13.7332 16.3947 14.6628 16.3695 15.3805 16.2445C16.0701 16.1244 16.5005 15.9217 16.8541 15.5668C17.2101 15.2094 17.4097 14.7845 17.526 14.1146C17.6474 13.4151 17.6683 12.5123 17.6959 11.2162C17.7132 10.4038 17.7132 9.59604 17.6959 8.78359C17.6716 7.64554 17.6516 6.81102 17.565 6.15078L12.8824 8.80508C11.8048 9.41569 10.9286 9.78843 10.0016 9.78848C9.07449 9.78848 8.19843 9.41573 7.1207 8.80508L2.43515 6.1498ZM12.4029 3.57168C10.7964 3.53131 9.20572 3.53132 7.59922 3.57168C6.26866 3.60511 5.3384 3.63028 4.6207 3.75527C3.93142 3.87534 3.5015 4.07834 3.14804 4.43301C3.0037 4.5779 2.88554 4.73463 2.78769 4.91348L7.73691 7.71719C8.78299 8.3099 9.41806 8.53848 10.0016 8.53848C10.585 8.53843 11.2202 8.30984 12.2662 7.71719L17.2125 4.91445C17.1146 4.73558 16.9985 4.57792 16.8541 4.43301C16.5006 4.07819 16.07 3.87536 15.3805 3.75527C14.6628 3.63034 13.7332 3.6051 12.4029 3.57168Z" fill="#666776"/>
</svg>
