<svg width="24" height="24" viewBox="0 0 24 24" fill="none" xmlns="http://www.w3.org/2000/svg">
<path d="M8.90488 5.83879C9.47497 4.38914 11.5252 4.3892 12.0953 5.83879L13.0055 8.14934C13.5155 9.44917 14.5453 10.4789 15.8551 10.9989L18.1656 11.9091C19.6153 12.4792 19.6153 14.5295 18.1656 15.0995L15.8551 16.0087C14.5551 16.5187 13.5255 17.5493 13.0055 18.8593L12.0953 21.1689C11.5253 22.6189 9.47488 22.6189 8.90488 21.1689L7.9957 18.8593C7.4857 17.5593 6.45512 16.5287 5.14512 16.0087L2.83555 15.0995C1.38555 14.5295 1.38555 12.4791 2.83555 11.9091L5.14512 10.9989C6.44512 10.4889 7.4757 9.45934 7.9957 8.14934L8.90488 5.83879ZM17.4664 2.44914C17.8364 1.50914 19.1667 1.50914 19.5367 2.44914L19.8766 3.31926C20.0166 3.68905 20.3066 3.97907 20.6764 4.11906L21.5465 4.45891C22.4865 4.82891 22.4865 6.15922 21.5465 6.52922L20.6764 6.86906C20.3065 7.0091 20.0165 7.29897 19.8766 7.66887L19.5367 8.53898C19.1667 9.47895 17.8364 9.47897 17.4664 8.53898L17.1266 7.66887C16.9866 7.29894 16.6967 7.00907 16.3268 6.86906L15.4566 6.52922C14.5166 6.15922 14.5167 4.82892 15.4566 4.45891L16.3268 4.11906C16.6966 3.9791 16.9865 3.68908 17.1266 3.31926L17.4664 2.44914Z" fill="#7C57FC"/>
</svg>
