<svg width="40" height="40" viewBox="0 0 40 40" fill="none" xmlns="http://www.w3.org/2000/svg">
<path fill-rule="evenodd" clip-rule="evenodd" d="M19.9463 2.08301H20.0511H20.0511C21.0579 2.08299 21.8913 2.08298 22.5795 2.14159C23.3007 2.20302 23.9525 2.33415 24.5811 2.64537C25.7009 3.19982 26.4089 4.08095 26.9059 4.96468C27.2912 5.64974 27.5903 6.41937 27.8439 7.07164C27.9037 7.22555 27.961 7.37294 28.0163 7.51116L28.2619 8.12524C28.3827 8.42733 28.4431 8.57838 28.5681 8.66416C28.693 8.74995 28.8575 8.7521 29.1863 8.7564C30.7217 8.77647 31.8821 8.86333 32.901 9.29099C34.4807 9.95402 35.7629 11.1769 36.5106 12.7255C36.8442 13.4164 37.0141 14.1586 37.1265 15.0206C37.2361 15.8609 37.3001 16.8979 37.3801 18.1953L37.6468 22.5202C37.8466 25.7592 38.0045 28.3188 37.8571 30.3263C37.7057 32.3879 37.2223 34.0693 35.9757 35.4141C34.7266 36.7615 33.0936 37.3587 31.0644 37.6416C29.0932 37.9163 26.5597 37.9163 23.3604 37.9163H16.6366C13.4372 37.9163 10.9037 37.9163 8.9325 37.6416C6.90339 37.3587 5.27033 36.7615 4.02125 35.4141C2.77462 34.0693 2.29122 32.3879 2.13985 30.3263C1.99246 28.3188 2.15033 25.7592 2.35012 22.5202L2.61687 18.195C2.69686 16.8978 2.76081 15.8609 2.87041 15.0206C2.98285 14.1586 3.15272 13.4164 3.48634 12.7255C4.2341 11.1769 5.51624 9.95402 7.09592 9.29099C8.11492 8.86329 9.27547 8.77645 10.8111 8.75639C11.1399 8.7521 11.3044 8.74995 11.4293 8.66417C11.5543 8.57838 11.6147 8.42734 11.7355 8.12524L11.9812 7.51116C12.0364 7.37295 12.0937 7.22558 12.1535 7.07168L12.1535 7.07167L12.1536 7.07163C12.4071 6.41937 12.7062 5.64973 13.0915 4.96468C13.5885 4.08095 14.2965 3.19982 15.4163 2.64537C16.045 2.33415 16.6967 2.20302 17.4179 2.14159C18.1061 2.08298 18.9395 2.08299 19.9463 2.08301H19.9463ZM18.3353 9.99968C18.3353 9.0792 19.0781 8.33301 19.9945 8.33301C20.9043 8.33301 21.6686 9.07952 21.6686 9.99968C21.6686 10.9198 20.9043 11.6663 19.9945 11.6663C19.0781 11.6663 18.3353 10.9201 18.3353 9.99968ZM20.002 16.6663C16.3201 16.6663 13.3353 19.6511 13.3353 23.333C13.3353 27.0149 16.3201 29.9997 20.002 29.9997C23.6839 29.9997 26.6686 27.0149 26.6686 23.333C26.6686 19.6511 23.6839 16.6663 20.002 16.6663Z" fill="white"/>
</svg>
