<svg width="24" height="24" viewBox="0 0 24 24" fill="none" xmlns="http://www.w3.org/2000/svg">
<path d="M12 22.75C12.972 22.75 13.8868 22.3635 15.3057 21.7637C17.1987 20.964 18.9084 20.2419 19.9268 19.6309C20.9327 19.0272 21.75 18.2815 21.75 17.1611L21.75 6.5C21.75 5.7042 21.1845 5.21564 20.7344 4.91797C20.2848 4.62072 19.6455 4.31781 18.9209 3.97461L15.8096 2.50098C14.2449 1.75881 13.1725 1.25 12 1.25C10.8275 1.25 9.75506 1.75881 8.19043 2.50098L5.0791 3.97461C4.3545 4.3178 3.7152 4.62073 3.26563 4.91797C2.81549 5.21564 2.25 5.7042 2.25 6.5L2.25 17.1611C2.25 18.2815 3.06726 19.0272 4.07324 19.6309C5.09164 20.2419 6.8013 20.964 8.69434 21.7637C10.1132 22.3635 11.028 22.75 12 22.75ZM5.99414 7.33887C5.18355 6.95486 4.67575 6.71139 4.35742 6.50098C4.67576 6.29056 5.18354 6.0471 5.99414 5.66309L8.84277 4.31445C10.6849 3.44175 11.3303 3.16018 12 3.16016C12.613 3.16016 13.206 3.39531 14.7148 4.10449L7.06836 7.84766L5.99414 7.33887ZM12 9.8418C11.387 9.84178 10.794 9.60668 9.28516 8.89746L16.9316 5.1543L18.0059 5.66309C18.8164 6.04708 19.3242 6.29057 19.6426 6.50098C19.3242 6.71139 18.8165 6.95485 18.0059 7.33887L15.1572 8.68848C13.3153 9.56105 12.6697 9.8418 12 9.8418ZM8.6709 13.335C8.48571 13.7053 8.03547 13.8559 7.66504 13.6709L5.66504 12.6709C5.29456 12.4857 5.14386 12.0345 5.3291 11.6641C5.51442 11.2937 5.96553 11.1439 6.33594 11.3291L8.33594 12.3291C8.70612 12.5144 8.85591 12.9646 8.6709 13.335Z" fill="#7C57FC"/>
</svg>
