<svg width="28" height="28" viewBox="0 0 28 28" fill="none" xmlns="http://www.w3.org/2000/svg">
<path d="M14.065 1.45898C16.2109 1.45897 17.9073 1.45896 19.2343 1.63084C20.5963 1.80727 21.7007 2.1785 22.5749 3.02072C23.4537 3.86735 23.8451 4.94432 24.0304 6.27177C24.2097 7.55657 24.2097 9.1964 24.2096 11.2583V21.0541C24.2097 22.3346 24.2097 23.3985 24.0868 24.1979C23.9595 25.025 23.663 25.8301 22.8451 26.2668C22.1158 26.6563 21.3135 26.5771 20.6333 26.3706C19.9453 26.1617 19.246 25.7827 18.6057 25.3781C17.9594 24.9697 17.2607 24.4561 16.7097 24.0488C16.1697 23.6497 15.7361 23.3291 15.4049 23.1297C14.9388 22.849 14.6444 22.673 14.4058 22.5606C14.1856 22.4569 14.0787 22.4404 14.0013 22.4404C13.924 22.4404 13.817 22.4569 13.5968 22.5606C13.3582 22.673 13.0638 22.849 12.5977 23.1297C12.2666 23.3291 11.8329 23.6497 11.2929 24.0488C10.7419 24.4561 10.0433 24.9697 9.39688 25.3781C8.7566 25.7827 8.0573 26.1617 7.36931 26.3706C6.68911 26.5771 5.88685 26.6563 5.15747 26.2668C4.33963 25.8301 4.04308 25.025 3.91585 24.1979C3.79289 23.3985 3.79292 22.3346 3.79297 21.0542L3.79297 11.2583C3.79295 9.19639 3.79294 7.55656 3.97223 6.27177C4.15747 4.94432 4.54897 3.86735 5.42772 3.02072C6.3019 2.1785 7.40627 1.80727 8.7683 1.63084C10.0953 1.45896 11.7917 1.45897 13.9376 1.45898H14.065Z" fill="#161616"/>
</svg>
