<svg width="28" height="28" viewBox="0 0 28 28" fill="none" xmlns="http://www.w3.org/2000/svg">
<path fill-rule="evenodd" clip-rule="evenodd" d="M13.9376 1.45898H14.065C16.2109 1.45897 17.9073 1.45895 19.2343 1.63084C20.5963 1.80727 21.7007 2.1785 22.5749 3.02072C23.4536 3.86735 23.8451 4.94431 24.0304 6.27177C24.2097 7.55657 24.2097 9.1964 24.2096 11.2583V21.0541C24.2097 22.3346 24.2097 23.3985 24.0868 24.1979C23.9595 25.025 23.663 25.8301 22.8451 26.2668C22.1158 26.6563 21.3135 26.5771 20.6333 26.3706C19.9453 26.1617 19.246 25.7827 18.6057 25.3781C17.9594 24.9697 17.3255 24.504 16.7745 24.0967L16.7097 24.0488C16.1697 23.6497 15.7361 23.3291 15.4049 23.1297C14.9388 22.849 14.6444 22.673 14.4058 22.5606C14.1856 22.4569 14.0787 22.4404 14.0013 22.4404C13.924 22.4404 13.817 22.4569 13.5968 22.5606C13.3582 22.673 13.0638 22.849 12.5977 23.1297C12.2666 23.3291 11.8329 23.6497 11.2929 24.0488L11.2281 24.0967C10.6771 24.504 10.0433 24.9697 9.39688 25.3781C8.75659 25.7827 8.05729 26.1617 7.36931 26.3706C6.6891 26.5771 5.88685 26.6563 5.15747 26.2668C4.33963 25.8301 4.04308 25.025 3.91585 24.1979C3.79288 23.3985 3.79292 22.3346 3.79297 21.0541L3.79297 11.2583C3.79295 9.19639 3.79293 7.55656 3.97222 6.27177C4.15747 4.94431 4.54896 3.86735 5.42771 3.02072C6.3019 2.1785 7.40627 1.80727 8.7683 1.63084C10.0953 1.45895 11.7917 1.45897 13.9376 1.45898ZM8.9931 3.36634C7.81354 3.51913 7.13455 3.80634 6.6419 4.28098C6.15382 4.75122 5.86189 5.39241 5.70543 6.51364C5.54497 7.66348 5.54297 9.18099 5.54297 11.3261V20.9783C5.54297 22.3541 5.54548 23.2816 5.64551 23.9319C5.7437 24.5702 5.89797 24.6784 5.98178 24.7231C6.12543 24.7998 6.38735 24.8398 6.86094 24.6961C7.32674 24.5546 7.87084 24.2723 8.46205 23.8987C9.04716 23.529 9.63292 23.0996 10.188 22.6894C10.2229 22.6636 10.2578 22.6378 10.2927 22.612C10.7935 22.2415 11.2897 21.8745 11.6949 21.6305L11.7292 21.6099C12.1509 21.3559 12.5219 21.1325 12.851 20.9775C13.2073 20.8096 13.5768 20.6904 14.0013 20.6904C14.4258 20.6904 14.7953 20.8096 15.1516 20.9775C15.4807 21.1325 15.8517 21.3559 16.2734 21.6099L16.3077 21.6305C16.7129 21.8745 17.2091 22.2415 17.7099 22.6119C17.7448 22.6378 17.7797 22.6636 17.8146 22.6894C18.3697 23.0996 18.9554 23.529 19.5406 23.8987C20.1318 24.2723 20.6759 24.5546 21.1417 24.6961C21.6153 24.8398 21.8772 24.7998 22.0208 24.7231C22.1046 24.6784 22.2589 24.5702 22.3571 23.9319C22.4571 23.2816 22.4596 22.3541 22.4596 20.9783V11.3261C22.4596 9.18099 22.4576 7.66348 22.2972 6.51364C22.1407 5.39241 21.8488 4.75122 21.3607 4.28098C20.8681 3.80634 20.1891 3.51913 19.0095 3.36634C17.808 3.21071 16.225 3.20898 14.0013 3.20898C11.7776 3.20898 10.1946 3.21071 8.9931 3.36634Z" fill="#161616"/>
</svg>
