<svg width="32" height="32" viewBox="0 0 32 32" fill="none" xmlns="http://www.w3.org/2000/svg">
<path d="M24.1543 5.48828C24.8052 4.83741 25.8608 4.83741 26.5117 5.48828C27.1624 6.13913 27.1624 7.19388 26.5117 7.84473L18.3564 15.999L26.5117 24.1543C27.1626 24.8052 27.1626 25.8608 26.5117 26.5117C25.8608 27.1625 24.8052 27.1626 24.1543 26.5117L15.999 18.3564L7.84473 26.5117C7.19387 27.1623 6.13909 27.1624 5.48828 26.5117C4.83741 25.8608 4.83741 24.8052 5.48828 24.1543L13.6426 15.999L5.48828 7.84473C4.83747 7.19387 4.83747 6.13914 5.48828 5.48828C6.13914 4.83742 7.19385 4.83746 7.84473 5.48828L15.999 13.6426L24.1543 5.48828Z" fill="white"/>
</svg>
