<svg width="24" height="24" viewBox="0 0 24 24" fill="none" xmlns="http://www.w3.org/2000/svg">
<path d="M6.00879 10.25C6.97529 10.25 7.75879 11.0335 7.75879 12C7.75879 12.9665 6.97529 13.75 6.00879 13.75H6C5.0335 13.75 4.25 12.9665 4.25 12C4.25 11.0335 5.0335 10.25 6 10.25H6.00879ZM12.0049 10.25C12.9714 10.25 13.7549 11.0335 13.7549 12C13.7549 12.9665 12.9714 13.75 12.0049 13.75H11.9961C11.0297 13.7499 10.2461 12.9664 10.2461 12C10.2461 11.0336 11.0297 10.2501 11.9961 10.25H12.0049ZM18.0088 10.25C18.9753 10.25 19.7588 11.0335 19.7588 12C19.7588 12.9665 18.9753 13.75 18.0088 13.75H18C17.0336 13.7499 16.25 12.9664 16.25 12C16.25 11.0336 17.0336 10.2501 18 10.25H18.0088Z" fill="white"/>
</svg>
