<svg width="24" height="24" viewBox="0 0 24 24" fill="none" xmlns="http://www.w3.org/2000/svg">
<path d="M3.76074 15.041C6.66299 13.383 10.337 13.383 13.2393 15.041C13.3272 15.0913 13.4378 15.1512 13.5645 15.2197C14.1345 15.528 15.0288 16.0115 15.6406 16.5859C16.0215 16.9437 16.4159 17.4432 16.4883 18.0781C16.5666 18.7652 16.2481 19.386 15.6768 19.9082C14.7179 20.7845 13.5521 21.4999 12.04 21.5H4.95996C3.44791 21.4999 2.28209 20.7845 1.32324 19.9082C0.751925 19.386 0.433438 18.7652 0.511719 18.0781C0.584073 17.4432 0.978455 16.9437 1.35938 16.5859C1.97116 16.0115 2.86551 15.528 3.43555 15.2197C3.56219 15.1512 3.67276 15.0913 3.76074 15.041ZM15.1445 13.9502C15.2381 13.7273 15.6475 13.7679 16.4668 13.8486C17.7371 13.9738 18.9809 14.3014 20.1113 14.832C20.1994 14.8734 20.3113 14.9236 20.4395 14.9805C21.0196 15.2382 21.9403 15.6469 22.5713 16.1338C22.9564 16.431 23.4029 16.8788 23.4863 17.4805C23.5792 18.1504 23.1944 18.7182 22.6074 19.1592C21.6166 19.9034 20.4245 20.5 18.8926 20.5C18.3533 20.5 18.0835 20.4998 17.9814 20.3789C17.975 20.3713 17.9716 20.3665 17.9658 20.3584C17.8749 20.2303 17.9801 19.9603 18.1904 19.4199C18.367 18.9663 18.4457 18.464 18.3779 17.9189C18.2316 16.7428 17.4553 15.9232 16.9258 15.4678C16.6906 15.2656 16.4224 15.0709 16.1455 14.8896C15.416 14.4121 15.051 14.1731 15.1445 13.9502ZM8.5 2.5C11.2076 2.50012 13.4031 4.68396 13.4033 7.37793C13.4033 10.0721 11.2078 12.2567 8.5 12.2568C5.7921 12.2568 3.59668 10.0722 3.59668 7.37793C3.59692 4.68388 5.79225 2.5 8.5 2.5ZM15.8516 4.5C18.1982 4.50001 20.1006 6.23322 20.1006 8.37109C20.1005 10.5089 18.1982 12.2422 15.8516 12.2422C15.1712 12.2422 14.5281 12.0959 13.958 11.8369C13.6842 11.7126 13.5468 11.6507 13.5078 11.5146C13.4688 11.3785 13.5718 11.2408 13.7773 10.9658C14.5498 9.93232 15.0019 8.68352 15.002 7.33887C15.002 6.6452 14.8816 5.97678 14.6592 5.35059C14.5466 5.0335 14.4897 4.87464 14.5693 4.75391C14.6489 4.63317 14.8002 4.60945 15.1016 4.56055C15.345 4.52105 15.5957 4.5 15.8516 4.5Z" fill="#5D5D5D"/>
</svg>
