<svg preserveAspectRatio="none" width="100%" height="100%" overflow="visible" style="display: block;" viewBox="0 0 16.1248 16.125" fill="none" xmlns="http://www.w3.org/2000/svg">
<g id="elements">
<path id="Icon" fill-rule="evenodd" clip-rule="evenodd" d="M8.03894 2.08414e-07H8.08607H8.08608C8.53913 -6.40169e-06 8.91418 -1.18716e-05 9.22386 0.0263637C9.54842 0.0540061 9.84169 0.113015 10.1246 0.253064C10.6285 0.502564 10.9471 0.899076 11.1708 1.29675C11.3441 1.60503 11.4787 1.95136 11.5928 2.24488C11.6197 2.31415 11.6455 2.38047 11.6704 2.44267L11.7809 2.71901C11.8353 2.85495 11.8625 2.92292 11.9187 2.96152C11.9749 3.00012 12.0489 3.00109 12.1969 3.00302C12.8879 3.01206 13.41 3.05114 13.8685 3.24359C14.5794 3.54196 15.1564 4.09224 15.4929 4.7891C15.643 5.10001 15.7194 5.43402 15.77 5.82191C15.8194 6.20007 15.8481 6.66671 15.8841 7.25054L16.0042 9.19673C16.0941 10.6543 16.1651 11.8061 16.0988 12.7095C16.0307 13.6372 15.8131 14.3938 15.2522 14.999C14.6901 15.6053 13.9552 15.8741 13.0421 16.0014C12.155 16.125 11.015 16.125 9.57525 16.125H6.54955C5.10983 16.125 3.96976 16.125 3.08271 16.0014C2.16961 15.8741 1.43473 15.6053 0.872647 14.999C0.311664 14.3938 0.0941356 13.6372 0.0260197 12.7095C-0.040309 11.8061 0.0307366 10.6543 0.120639 9.19675L0.240676 7.25041C0.276675 6.66664 0.305449 6.20004 0.354773 5.82191C0.405368 5.43402 0.481811 5.10001 0.631939 4.7891C0.968429 4.09224 1.5454 3.54196 2.25625 3.24359C2.7148 3.05113 3.23705 3.01205 3.92806 3.00302C4.07606 3.00109 4.15006 3.00012 4.20628 2.96152C4.26251 2.92292 4.28969 2.85495 4.34407 2.71901L4.45461 2.44267C4.47948 2.38048 4.50526 2.31416 4.53218 2.2449L4.53218 2.2449L4.53219 2.24488C4.64627 1.95136 4.78088 1.60502 4.95426 1.29675C5.17791 0.899076 5.49649 0.502565 6.00044 0.253064C6.28332 0.113015 6.57659 0.0540061 6.90115 0.0263637C7.21083 -1.18716e-05 7.58588 -6.40169e-06 8.03893 2.08414e-07H8.03894ZM7.31397 3.5625C7.31397 3.14829 7.64825 2.8125 8.06061 2.8125C8.47002 2.8125 8.81397 3.14843 8.81397 3.5625C8.81397 3.97657 8.47002 4.3125 8.06061 4.3125C7.64825 4.3125 7.31397 3.97671 7.31397 3.5625ZM8.06397 6.5625C6.40711 6.5625 5.06397 7.90565 5.06397 9.5625C5.06397 11.2194 6.40711 12.5625 8.06397 12.5625C9.72082 12.5625 11.064 11.2194 11.064 9.5625C11.064 7.90565 9.72082 6.5625 8.06397 6.5625Z" fill="var(--fill-0, #7C57FC)"/>
</g>
</svg>
