<svg preserveAspectRatio="none" width="100%" height="100%" overflow="visible" style="display: block;" viewBox="0 0 17.9162 16.2501" fill="none" xmlns="http://www.w3.org/2000/svg">
<g id="elements">
<path id="Icon" fill-rule="evenodd" clip-rule="evenodd" d="M9.44475 1.01574C10.791 0.00484963 13.0196 -0.602956 15.5035 0.920526C17.2211 1.97415 18.1879 4.17558 17.8489 6.70422C17.5081 9.24509 15.8629 12.1187 12.3801 14.6966C11.1217 15.628 10.3144 16.25 8.95809 16.2501C7.60166 16.2501 6.79453 15.628 5.53606 14.6966C2.05313 12.1186 0.408118 9.24515 0.0673056 6.70422C-0.271789 4.17552 0.695017 1.97414 2.41268 0.920526C4.89662 -0.602854 7.12525 0.0047791 8.47144 1.01574C8.69224 1.18156 8.84506 1.29372 8.95809 1.37056C9.07111 1.29372 9.22407 1.18146 9.44475 1.01574ZM14.85 1.98661C12.8649 0.768936 11.1922 1.26638 10.1951 2.01509C9.96253 2.18973 9.76295 2.34005 9.60425 2.44396C9.52387 2.49659 9.43459 2.55031 9.34221 2.59208C9.25448 2.63172 9.11952 2.68155 8.95809 2.68159C8.79664 2.68159 8.66175 2.63173 8.57398 2.59208C8.48154 2.5503 8.39238 2.49662 8.31193 2.44396C8.15321 2.34005 7.95375 2.1898 7.72111 2.01509C6.72405 1.26632 5.05133 0.769032 3.06617 1.98661C1.85112 2.73196 1.01975 4.39809 1.30673 6.5382C1.59222 8.66617 2.99818 11.2634 6.27987 13.6923C7.59809 14.668 8.07931 15.0001 8.95809 15.0001C9.83675 15.0001 10.3182 14.668 11.6363 13.6923C14.9178 11.2634 16.324 8.66612 16.6095 6.5382C16.8964 4.39817 16.065 2.73197 14.85 1.98661Z" fill="var(--fill-0, #5A5D67)"/>
</g>
</svg>
