<svg preserveAspectRatio="none" width="100%" height="100%" overflow="visible" style="display: block;" viewBox="0 0 17.916 17.916" fill="none" xmlns="http://www.w3.org/2000/svg">
<g id="elements">
<path id="Icon" d="M8.95801 0C13.9056 1.69129e-07 17.916 4.01046 17.916 8.95801C17.916 13.9056 13.9056 17.916 8.95801 17.916C4.01046 17.916 1.69123e-07 13.9056 0 8.95801C0 4.01046 4.01046 0 8.95801 0ZM12.8809 5.03516C12.5555 4.70977 12.0276 4.70988 11.7021 5.03516L8.95801 7.7793L7.46387 6.28516C7.13841 5.95988 6.61054 5.95978 6.28516 6.28516C5.95979 6.61054 5.95989 7.13843 6.28516 7.46387L7.7793 8.95801L7.53516 9.20215C7.20988 9.5276 7.20977 10.0555 7.53516 10.3809C7.86054 10.7062 8.38842 10.7061 8.71387 10.3809L8.95801 10.1367L9.20215 10.3799C9.5276 10.7053 10.0554 10.7053 10.3809 10.3799C10.7058 10.0545 10.7058 9.52748 10.3809 9.20215L10.1367 8.95801L12.8809 6.21387C13.2061 5.88842 13.2062 5.36054 12.8809 5.03516Z" fill="var(--fill-0, #7C57FC)"/>
</g>
</svg>
