<svg preserveAspectRatio="none" width="100%" height="100%" overflow="visible" style="display: block;" viewBox="0 0 17.9167 17.0833" fill="none" xmlns="http://www.w3.org/2000/svg">
<g id="elements">
<g id="Icon">
<path d="M7.76367 7.88082e-07C8.10878 -0.0005417 8.38887 0.279058 8.38949 0.624187C8.38994 0.96911 8.11103 1.2492 7.76611 1.25C6.14757 1.25291 4.97311 1.27555 4.07308 1.4209C3.19117 1.56336 2.64148 1.81411 2.22819 2.22656C1.78311 2.67082 1.52581 3.27313 1.38997 4.28141C1.25168 5.30793 1.25 6.65793 1.25 8.54167C1.25 10.4251 1.25173 11.7747 1.38997 12.8011C1.52583 13.8095 1.78302 14.4125 2.22819 14.8568C2.67353 15.3012 3.27775 15.5585 4.28874 15.6942C5.31764 15.8322 6.6705 15.8333 8.55794 15.8333C10.4454 15.8333 11.7982 15.8322 12.8271 15.6942C13.8381 15.5585 14.4424 15.3012 14.8877 14.8568C15.5109 14.2349 15.7597 13.3122 15.8341 11.4339C15.8478 11.0891 16.138 10.8207 16.4827 10.8341C16.8275 10.8478 17.096 11.138 17.0825 11.4827C17.0077 13.3715 16.7652 14.7489 15.7707 15.7414C15.0543 16.4563 14.1424 16.7786 12.9932 16.9328C11.8618 17.0846 10.41 17.0833 8.55794 17.0833C6.70586 17.0833 5.25405 17.0846 4.12272 16.9328C2.97352 16.7786 2.06162 16.4563 1.34522 15.7414C0.628704 15.0263 0.305159 14.1161 0.150554 12.9688C-0.00158655 11.8394 2.78653e-07 10.3899 6.8717e-07 8.54167C1.0344e-06 6.69341 -0.00157735 5.24393 0.150554 4.11458C0.305125 2.96723 0.628792 2.05706 1.34522 1.34196C2.00845 0.680068 2.84001 0.35334 3.8737 0.186361C4.88917 0.0223673 6.16572 0.00287267 7.76367 7.88082e-07Z" fill="var(--fill-0, #5A5D67)"/>
<path fill-rule="evenodd" clip-rule="evenodd" d="M12.286 1.72852C12.8345 1.5612 13.2838 1.75591 13.6621 2.0223C14.0014 2.26123 14.4217 2.66092 14.9064 3.08187L16.3623 4.34652C16.7948 4.72213 17.1678 5.04448 17.4251 5.3361C17.6897 5.63598 17.9167 5.99539 17.9167 6.45508C17.9166 6.91463 17.6896 7.27342 17.4251 7.57324C17.1678 7.86496 16.795 8.18786 16.3623 8.56364L14.9064 9.82748C14.6523 10.0481 14.4429 10.2429 14.2497 10.4199C14.0632 10.5907 13.8796 10.7564 13.7012 10.8879C13.5206 11.0208 13.3102 11.1461 13.0615 11.2085C12.8001 11.2741 12.5421 11.2589 12.286 11.1808C11.8988 11.0627 11.6622 10.7856 11.5299 10.5046C11.4049 10.2386 11.3594 9.9455 11.342 9.69971C11.3287 9.51326 11.331 9.32738 11.3371 9.16097C11.1512 9.15707 10.9654 9.15273 10.7813 9.14795C10.3768 9.13746 9.97853 9.12743 9.58333 9.12842C8.79099 9.13042 8.0409 9.17722 7.34863 9.34082C6.25173 9.60011 5.34053 10.2211 4.28467 10.8683C4.09184 10.9864 3.85047 10.991 3.65316 10.8805C3.45576 10.77 3.33333 10.5615 3.33333 10.3353C3.33336 8.88611 3.6279 7.42275 4.45231 6.22966C5.28948 5.01821 6.62569 4.15514 8.56201 3.84033C9.47924 3.69126 10.4545 3.7149 11.3371 3.73128C11.3315 3.56932 11.3292 3.38967 11.342 3.20964C11.3594 2.96396 11.405 2.67139 11.5299 2.4056C11.6622 2.12441 11.8987 1.84669 12.286 1.72852ZM12.6611 2.93701C12.6307 3.00176 12.6015 3.11896 12.5887 3.29834C12.5764 3.47109 12.5816 3.6602 12.592 3.84847C12.6009 4.01096 12.618 4.2278 12.618 4.36524C12.618 4.7104 12.3382 4.99024 11.993 4.99024C10.8273 4.99022 9.78112 4.9084 8.76221 5.07406C7.11546 5.34179 6.0998 6.04465 5.48096 6.94011C5.04458 7.57158 4.78155 8.33205 4.66146 9.16992C5.37783 8.74439 6.16927 8.3349 7.06055 8.12419C7.88971 7.92819 8.75051 7.88052 9.58008 7.87842C9.99572 7.87737 10.4112 7.88832 10.8138 7.89876C11.2193 7.90928 11.6108 7.9191 11.993 7.91911C12.3381 7.91911 12.6179 8.19905 12.618 8.54411C12.618 8.68148 12.6009 8.89841 12.592 9.06087C12.5816 9.24912 12.5764 9.43828 12.5887 9.611C12.6015 9.79042 12.6307 9.90755 12.6611 9.97233C12.6644 9.97924 12.6678 9.9844 12.6701 9.98861C12.7221 10.0022 12.7434 9.99938 12.7572 9.99593C12.7852 9.98887 12.8451 9.96568 12.9598 9.88119C13.0767 9.79505 13.2143 9.67406 13.4058 9.4987C13.5905 9.32951 13.8167 9.11814 14.0869 8.88346L15.5428 7.61963C16.0029 7.22011 16.2994 6.96075 16.4884 6.74642C16.669 6.54175 16.6667 6.46961 16.6667 6.45508C16.6667 6.44123 16.6703 6.36911 16.4884 6.16292C16.2994 5.94858 16.0029 5.68929 15.5428 5.28971L14.0869 4.02588C13.5228 3.53595 13.2124 3.23493 12.9419 3.04443C12.768 2.92202 12.702 2.91224 12.6717 2.91748C12.6691 2.92199 12.6653 2.92817 12.6611 2.93701Z" fill="var(--fill-0, #5A5D67)"/>
</g>
</g>
</svg>
