<svg preserveAspectRatio="none" width="100%" height="100%" overflow="visible" style="display: block;" viewBox="0 0 21.5833 21.5833" fill="none" xmlns="http://www.w3.org/2000/svg">
<g id="elements">
<path id="Icon" fill-rule="evenodd" clip-rule="evenodd" d="M10.7917 0C11.5971 0 12.25 0.652918 12.25 1.45833V9.33333H20.125C20.9304 9.33333 21.5833 9.98625 21.5833 10.7917C21.5833 11.5971 20.9304 12.25 20.125 12.25H12.25V20.125C12.25 20.9304 11.5971 21.5833 10.7917 21.5833C9.98625 21.5833 9.33333 20.9304 9.33333 20.125V12.25H1.45833C0.652918 12.25 0 11.5971 0 10.7917C0 9.98625 0.652918 9.33333 1.45833 9.33333H9.33333V1.45833C9.33333 0.652918 9.98625 0 10.7917 0Z" fill="var(--fill-0, white)"/>
</g>
</svg>
