<svg preserveAspectRatio="none" width="100%" height="100%" overflow="visible" style="display: block;" viewBox="0 0 2.10368 12.0833" fill="none" xmlns="http://www.w3.org/2000/svg">
<g id="elements">
<g id="Icon">
<path d="M1.04899 10C1.62429 10 2.09066 10.4664 2.09066 11.0417C2.09066 11.617 1.62429 12.0833 1.04899 12.0833H1.04167C0.46637 12.0833 0 11.617 0 11.0417C0 10.4664 0.46637 10 1.04167 10H1.04899Z" fill="var(--fill-0, #5A5D67)"/>
<path d="M1.0555 5C1.6308 5 2.09717 5.46637 2.09717 6.04167C2.09717 6.61696 1.6308 7.08333 1.0555 7.08333H1.04818C0.47288 7.08333 0.00651042 6.61696 0.00651042 6.04167C0.00651042 5.46637 0.47288 5 1.04818 5H1.0555Z" fill="var(--fill-0, #5A5D67)"/>
<path d="M1.06201 0C1.63731 0 2.10368 0.46637 2.10368 1.04167C2.10368 1.61696 1.63731 2.08333 1.06201 2.08333H1.05469C0.479391 2.08333 0.0130208 1.61696 0.0130208 1.04167C0.0130208 0.46637 0.479391 0 1.05469 0H1.06201Z" fill="var(--fill-0, #5A5D67)"/>
</g>
</g>
</svg>
