<svg width="24" height="24" viewBox="0 0 24 24" fill="none" xmlns="http://www.w3.org/2000/svg">
<path d="M18 9.75C18.3137 9.75 18.5941 9.55479 18.7031 9.26074L18.9248 8.66309C19.2385 7.81531 19.3292 7.61421 19.4717 7.47168C19.6142 7.32915 19.8153 7.23851 20.6631 6.9248L21.2607 6.70313C21.5548 6.59408 21.75 6.31365 21.75 6C21.75 5.68635 21.5548 5.40592 21.2607 5.29688L20.6631 5.0752C19.8153 4.76149 19.6142 4.67085 19.4717 4.52832C19.3292 4.3858 19.2385 4.18469 18.9248 3.33691L18.7031 2.73926C18.5941 2.44521 18.3137 2.25 18 2.25C17.6863 2.25 17.4059 2.44521 17.2969 2.73926L17.0752 3.33691C16.7615 4.18469 16.6708 4.3858 16.5283 4.52832C16.3858 4.67085 16.1847 4.76149 15.3369 5.0752L14.7393 5.29688C14.4452 5.40592 14.25 5.68634 14.25 6C14.25 6.31365 14.4452 6.59408 14.7393 6.70313L15.3369 6.9248C16.1847 7.23851 16.3858 7.32915 16.5283 7.47168C16.6708 7.61421 16.7615 7.81531 17.0752 8.66309L17.2969 9.26074C17.4059 9.55479 17.6863 9.75 18 9.75ZM10 21.75C10.3137 21.75 10.5941 21.5548 10.7031 21.2607L11.2188 19.8662C11.919 17.9739 12.204 17.2511 12.7275 16.7275C13.2511 16.204 13.9739 15.919 15.8662 15.2188L17.2607 14.7031C17.5548 14.5941 17.75 14.3137 17.75 14C17.75 13.6863 17.5548 13.4059 17.2607 13.2969L15.8662 12.7813C13.9739 12.081 13.2511 11.796 12.7275 11.2725C12.204 10.7489 11.919 10.0261 11.2188 8.13379L10.7031 6.73926C10.5941 6.44521 10.3137 6.25 10 6.25C9.68635 6.25 9.40592 6.44521 9.29688 6.73926L8.78125 8.13379C8.08102 10.0261 7.79599 10.7489 7.27246 11.2725C6.74894 11.796 6.02613 12.081 4.13379 12.7812L2.73926 13.2969C2.44521 13.4059 2.25 13.6863 2.25 14C2.25 14.3137 2.44521 14.5941 2.73926 14.7031L4.13379 15.2188C6.02613 15.919 6.74894 16.204 7.27246 16.7275C7.79599 17.2511 8.08102 17.9739 8.78125 19.8662L9.29688 21.2607C9.40592 21.5548 9.68635 21.75 10 21.75Z" fill="#7C57FC"/>
</svg>
