<svg width="20" height="20" viewBox="0 0 20 20" fill="none" xmlns="http://www.w3.org/2000/svg">
<path d="M8.22989 5.52051C8.69012 5.52051 9.06387 5.14774 9.06387 4.6875C9.06387 4.20268 9.18747 3.77425 9.35098 3.44531C9.52515 3.09506 9.70787 2.92729 9.75918 2.89551C10.15 2.65313 10.2707 2.14012 10.0287 1.74902C9.7864 1.35774 9.27254 1.23718 8.88125 1.47949C8.47704 1.72992 8.1145 2.18774 7.85782 2.7041C7.5905 3.24204 7.39688 3.92257 7.39688 4.6875C7.39688 5.14758 7.76986 5.52026 8.22989 5.52051ZM5.72891 5.52051C6.18915 5.52051 6.56289 5.14774 6.56289 4.6875C6.56289 4.4269 6.63203 4.24902 6.68789 4.14551C6.71648 4.09261 6.74238 4.0572 6.75625 4.04004L6.76407 4.03125C7.08379 3.71659 7.09739 3.20243 6.79043 2.87109C6.47765 2.53349 5.95031 2.5134 5.6127 2.82617C5.47422 2.95446 5.30479 3.19942 5.2211 3.35449C5.05211 3.66764 4.8959 4.11484 4.8959 4.6875C4.8959 5.1476 5.26886 5.52029 5.72891 5.52051ZM11.1459 5.52051C11.6061 5.52051 11.9789 5.14774 11.9789 4.6875C11.9789 4.58133 12.0082 4.3892 12.0648 4.20801C12.0861 4.14004 12.106 4.08938 12.1215 4.05664C12.4155 3.79208 12.4874 3.34712 12.2719 2.99902C12.0296 2.60778 11.5167 2.48727 11.1254 2.72949C10.8823 2.88005 10.7424 3.10423 10.6713 3.23438C10.5876 3.38766 10.5227 3.55453 10.474 3.70996C10.3788 4.01433 10.3129 4.377 10.3129 4.6875C10.3129 5.14771 10.6857 5.52047 11.1459 5.52051ZM8.99551 18.6455C9.57961 18.6455 10.0962 18.6153 10.5854 18.4873C11.0873 18.3559 11.5314 18.1299 11.9887 17.7783C12.8716 17.0994 13.5327 16.3375 14.0297 15.5205C14.0881 15.5228 14.1475 15.5184 14.2074 15.5078C16.0183 15.1882 17.2473 14.4225 18.0189 13.3965C18.7782 12.3869 19.0257 11.2174 19.06 10.2021C19.0814 9.56757 18.9732 8.83739 18.2846 8.39941C17.9931 8.21403 17.6616 8.12716 17.3461 8.08105C17.0268 8.03443 16.6615 8.02051 16.2631 8.02051H15.4604C15.3831 7.6263 15.2148 7.26609 14.8607 7.00195C14.5843 6.79576 14.2517 6.693 13.9066 6.63672C13.5601 6.5802 13.1498 6.5625 12.6801 6.5625L3.77871 6.5625C3.30904 6.5625 2.8987 6.58021 2.55215 6.63672C2.20708 6.69299 1.87452 6.79575 1.59805 7.00195C0.999064 7.44872 0.925585 8.16978 0.938871 8.86621C1.00036 12.0894 1.41245 15.4274 4.47012 17.7783C4.92734 18.1299 5.37063 18.3559 5.87246 18.4873C6.36174 18.6154 6.87897 18.6455 7.46328 18.6455H8.99551ZM14.8852 13.623C15.2882 12.359 15.4369 11.0215 15.4936 9.6875H16.2631C16.6358 9.6875 16.9065 9.70134 17.1059 9.73047C17.2609 9.75316 17.3384 9.78099 17.3715 9.7959C17.384 9.84049 17.4017 9.94294 17.3949 10.1455C17.3677 10.9498 17.1737 11.7472 16.6869 12.3945C16.3283 12.8713 15.771 13.3203 14.8852 13.623Z" fill="#7C57FC"/>
</svg>
