<svg width="20" height="20" viewBox="0 0 20 20" fill="none" xmlns="http://www.w3.org/2000/svg">
<path d="M9.99902 0.9375C11.9379 0.9375 13.3873 2.61458 13.3262 4.41406C14.4437 4.81911 15.1395 6.01947 14.96 7.18457C15.5531 7.50983 15.9671 7.99296 16.2334 8.55859C16.5911 9.31868 16.666 10.1894 16.666 10.9375C16.666 10.9506 16.6637 10.9636 16.6631 10.9766C17.0516 11.3652 17.291 11.9053 17.291 12.5615C17.291 13.2463 17.1006 13.8616 16.8643 14.4111C16.7118 14.7657 16.5205 15.1316 16.3447 15.4688C16.0209 16.1211 15.5051 17.1444 15.2441 17.5576C14.9718 17.9887 14.6759 18.3363 14.2656 18.5918C13.8549 18.8475 13.413 18.959 12.9072 19.0117C12.4233 19.0621 11.8322 19.0625 11.1084 19.0625H8.88965C8.16581 19.0625 7.5747 19.0621 7.09082 19.0117C6.58502 18.959 6.14319 18.8475 5.73242 18.5918C5.32211 18.3363 5.0262 17.9887 4.75391 17.5576C4.49297 17.1444 3.9771 16.1211 3.65332 15.4688C3.47755 15.1316 3.28627 14.7657 3.13379 14.4111C2.89749 13.8616 2.70705 13.2463 2.70703 12.5615C2.70703 11.9056 2.94573 11.3652 3.33398 10.9766C3.33339 10.9636 3.33203 10.9506 3.33203 10.9375C3.33203 9.29212 4.30153 7.82395 5.7666 7.16016C5.84665 6.42379 6.07935 5.83398 6.4209 5.3418C6.82582 4.75836 7.35561 4.36084 7.77148 4.04883L7.78418 4.03906C8.23326 3.7021 8.55371 3.45818 8.78809 3.13379C8.99833 2.84266 9.16602 2.44348 9.16602 1.77051C9.16619 1.31042 9.53889 0.9375 9.99902 0.9375ZM12.8223 6.01367C12.5647 6.39252 12.226 6.695 11.8643 6.9375C11.3265 7.29795 10.6948 7.5547 10.0801 7.75C9.46165 7.94645 8.82002 8.09369 8.25 8.21777C8.14295 8.24108 8.03861 8.2626 7.93848 8.28418C7.48763 8.38132 7.10716 8.46369 6.79883 8.55176C5.93915 8.79738 5.29462 9.47919 5.07812 10.3154C5.59899 10.3317 6.1337 10.5074 6.55371 10.8711C6.59217 10.9044 6.63008 10.9386 6.66602 10.9746C6.70184 10.9388 6.73901 10.9043 6.77734 10.8711C7.21859 10.4889 7.78661 10.3126 8.33203 10.3125C8.87755 10.3125 9.44636 10.4889 9.8877 10.8711C9.92602 10.9043 9.96321 10.9388 9.99902 10.9746C10.0348 10.9388 10.072 10.9043 10.1104 10.8711C10.5517 10.4889 11.1205 10.3125 11.666 10.3125C12.2114 10.3126 12.7795 10.4889 13.2207 10.8711C13.259 10.9043 13.2962 10.9388 13.332 10.9746C13.368 10.9386 13.4059 10.9044 13.4443 10.8711C13.8783 10.4953 14.4346 10.3193 14.9717 10.3135C14.9353 9.90695 14.8599 9.55295 14.7256 9.26758C14.6052 9.01197 14.435 8.79908 14.1631 8.64844C13.8981 8.90148 13.6021 9.10231 13.333 9.25781C12.9345 9.48803 12.4246 9.35164 12.1943 8.95312C11.9643 8.55464 12.1006 8.04563 12.499 7.81543C12.8324 7.62283 13.0764 7.41411 13.2012 7.21973C13.4746 6.79355 13.247 6.21812 12.8223 6.01367ZM10.7285 2.78223C10.6143 3.29933 10.4103 3.73438 10.1387 4.11035C9.74826 4.65065 9.24035 5.03109 8.83984 5.33105C8.8212 5.34502 8.80234 5.35845 8.78418 5.37207C8.34463 5.70188 8.024 5.95489 7.79004 6.29199C7.71741 6.39666 7.64973 6.51541 7.5918 6.6543C7.59785 6.653 7.6043 6.65169 7.61035 6.65039C7.70542 6.62994 7.80092 6.60946 7.89551 6.58887C8.4597 6.46605 9.03622 6.33233 9.5752 6.16113C10.1181 5.98868 10.5837 5.79021 10.9365 5.55371C11.2855 5.31978 11.4809 5.07829 11.5693 4.83008C11.8539 4.03116 11.4412 3.15132 10.7285 2.78223Z" fill="#4A4A4A"/>
</svg>
