<svg width="20" height="20" viewBox="0 0 20 20" fill="none" xmlns="http://www.w3.org/2000/svg">
<path d="M3.37737 1.40322C3.52288 0.966701 3.99455 0.730542 4.43109 0.87588L6.4555 1.55068C7.04111 1.74593 7.4712 2.24939 7.57269 2.8583L7.82562 4.3749H9.30511C10.4767 4.37488 11.4258 4.37499 12.1225 4.47451C12.8155 4.57353 13.5007 4.80242 13.8188 5.48037C14.1385 6.16228 13.8693 6.83186 13.4955 7.41885C13.1205 8.00765 12.5046 8.72141 11.7465 9.60049L8.63714 13.206L8.61566 13.2313C8.52376 13.338 8.4284 13.4471 8.33441 13.5438V17.4999H8.7514C9.21137 17.5002 9.58432 17.8729 9.58441 18.3329C9.58441 18.793 9.21142 19.1666 8.7514 19.1669H6.2514C5.79116 19.1669 5.41741 18.7931 5.41741 18.3329C5.4175 17.8727 5.79121 17.4999 6.2514 17.4999H6.66741V13.5419C6.57392 13.4455 6.47853 13.3374 6.38714 13.2313L6.36663 13.206L3.25726 9.60049C2.49914 8.7214 1.88323 8.00766 1.50823 7.41885C1.13446 6.83184 0.865191 6.16232 1.18499 5.48037C1.50307 4.80239 2.18821 4.57352 2.88128 4.47451C3.57799 4.37499 4.52697 4.37488 5.69866 4.3749H6.13519L5.95355 3.28018C5.9383 3.18887 5.8734 3.11316 5.78558 3.08389L3.90472 2.45693C3.46812 2.3114 3.23188 1.83982 3.37737 1.40322ZM15.4037 1.8749C17.365 1.8749 18.9604 3.4579 18.9604 5.4169C18.9601 7.37567 17.3648 8.95791 15.4037 8.95791C14.9366 8.95789 14.4903 8.86819 14.0815 8.70498C13.9248 8.64242 13.8458 8.61108 13.8227 8.53408C13.7996 8.45696 13.8523 8.38163 13.9565 8.23233C14.0344 8.12055 14.1059 8.01411 14.1684 7.91592C14.2016 7.86371 14.2375 7.80894 14.2748 7.75186C14.6996 7.10156 15.3268 6.14172 14.8002 5.01943C14.3084 3.97116 13.3422 3.86778 12.5991 3.78799C12.5226 3.77978 12.4842 3.77538 12.4535 3.75772C12.3977 3.72523 12.3619 3.64961 12.3725 3.58584C12.3784 3.55087 12.399 3.52076 12.4389 3.46084C13.0762 2.50447 14.1667 1.87497 15.4037 1.8749Z" fill="#4A4A4A"/>
</svg>
