<svg width="20" height="20" viewBox="0 0 20 20" fill="none" xmlns="http://www.w3.org/2000/svg">
<path d="M13.1172 9.94474C13.7274 10.2033 14.4172 10.2033 15.0273 9.94474L15.1572 9.88517L15.291 9.81193C15.5993 9.62665 15.8797 9.34637 16.1973 9.02873C16.2235 9.00245 16.2495 8.9754 16.2764 8.94865L18.7197 6.51212C19.0378 6.19487 19.0378 5.67997 18.7197 5.36271C18.4017 5.04569 17.8863 5.04567 17.5684 5.36271L15.125 7.80021C14.6346 8.28943 14.5232 8.38484 14.4336 8.42912C14.2058 8.5417 13.9387 8.54162 13.7109 8.42912C13.6214 8.38485 13.5098 8.2893 13.0195 7.80021C12.5298 7.31169 12.4332 7.20003 12.3887 7.11076C12.2758 6.88347 12.2758 6.61636 12.3887 6.38908C12.4331 6.29975 12.5291 6.1888 13.0195 5.69962L15.4619 3.26212C15.78 2.94487 15.78 2.43094 15.4619 2.11369C15.1439 1.79649 14.6286 1.79645 14.3105 2.11369L11.8672 4.55021C11.8402 4.57708 11.8136 4.60397 11.7871 4.63029C11.4233 4.99226 11.1086 5.30531 10.9287 5.6674C10.59 6.34914 10.5902 7.14968 10.9287 7.83146C11.0215 8.01822 11.15 8.19251 11.3027 8.36662L11.0537 8.61564C10.7357 8.93289 10.7357 9.4478 11.0537 9.76505C11.3717 10.0819 11.8871 10.082 12.2051 9.76505L12.4551 9.51505C12.6284 9.66602 12.8014 9.79326 12.9873 9.88517L13.1172 9.94474ZM15.9404 17.8852C16.2584 18.2023 16.7738 18.2023 17.0918 17.8852C17.4098 17.5679 17.4098 17.053 17.0918 16.7358L2.43262 2.11369C2.1997 1.88135 1.84924 1.81119 1.54492 1.93693C1.24076 2.06273 1.04297 2.35943 1.04297 2.68791C1.04299 6.02428 2.37131 9.22424 4.73633 11.5834L6.98145 13.8236C7.13413 13.976 7.34169 14.0609 7.55762 14.061C7.77354 14.061 7.98108 13.9759 8.13379 13.8236L10.001 11.9604L15.9404 17.8852ZM13.4961 7.32658C13.8141 7.64383 14.3304 7.64383 14.6484 7.32658L17.0908 4.89005C17.4089 4.5728 17.4089 4.05789 17.0908 3.74064C16.7728 3.42379 16.2574 3.42363 15.9395 3.74064L13.4961 6.17814C13.1783 6.4953 13.1784 7.00935 13.4961 7.32658ZM2.91016 17.8881C3.2282 18.2053 3.74449 18.2053 4.0625 17.8881L6.50586 15.4496C6.82382 15.1324 6.82373 14.6184 6.50586 14.3012C6.18781 13.984 5.67252 13.9839 5.35449 14.3012L2.91016 16.7387C2.59218 17.056 2.59212 17.5709 2.91016 17.8881Z" fill="#4A4A4A"/>
</svg>
