<svg preserveAspectRatio="none" width="100%" height="100%" overflow="visible" style="display: block;" viewBox="0 0 9.55 9.55" fill="none" xmlns="http://www.w3.org/2000/svg">
<g id="elements">
<path id="Icon" fill-rule="evenodd" clip-rule="evenodd" d="M4.775 0.15C5.12018 0.15 5.4 0.429822 5.4 0.775V4.15H8.775C9.12018 4.15 9.4 4.42982 9.4 4.775C9.4 5.12018 9.12018 5.4 8.775 5.4H5.4V8.775C5.4 9.12018 5.12018 9.4 4.775 9.4C4.42982 9.4 4.15 9.12018 4.15 8.775V5.4H0.775C0.429822 5.4 0.15 5.12018 0.15 4.775C0.15 4.42982 0.429822 4.15 0.775 4.15H4.15V0.775C4.15 0.429822 4.42982 0.15 4.775 0.15Z" fill="var(--fill-0, #6A40F7)" stroke="var(--stroke-0, white)" stroke-width="0.3" stroke-linecap="round" stroke-linejoin="round"/>
</g>
</svg>
