<svg preserveAspectRatio="none" width="100%" height="100%" overflow="visible" style="display: block;" viewBox="0 0 14.5833 17.9164" fill="none" xmlns="http://www.w3.org/2000/svg">
<g id="elements">
<path id="Icon" fill-rule="evenodd" clip-rule="evenodd" d="M7.29167 3.33207e-07C8.84595 3.33207e-07 10.0723 -0.00109809 11.0295 0.122884C12.0023 0.248903 12.7911 0.514135 13.4155 1.11572C14.0432 1.72042 14.3232 2.48941 14.4556 3.4375C14.585 4.36524 14.5833 5.55276 14.5833 7.04834V13.9421C14.5833 14.8807 14.585 15.6596 14.4954 16.2419C14.4046 16.8327 14.1926 17.4078 13.6084 17.7197C13.0875 17.9978 12.5146 17.9413 12.0288 17.7938C11.5374 17.6446 11.0376 17.3739 10.5802 17.085C10.1186 16.7933 9.666 16.4603 9.27246 16.1694C8.86537 15.8686 8.54012 15.6274 8.29427 15.4793C7.9613 15.2788 7.75099 15.1527 7.58057 15.0724C7.42335 14.9984 7.34691 14.987 7.29167 14.987C7.23643 14.987 7.15999 14.9984 7.00277 15.0724C6.83234 15.1527 6.62204 15.2788 6.28906 15.4793C6.04322 15.6274 5.71797 15.8686 5.31087 16.1694C4.91733 16.4603 4.46469 16.7933 4.00309 17.085C3.54577 17.3739 3.04592 17.6446 2.55453 17.7938C2.06872 17.9413 1.49588 17.9978 0.974937 17.7197C0.390764 17.4078 0.178768 16.8326 0.0878927 16.2419C-0.00163615 15.6596 2.04181e-06 14.8807 2.04181e-06 13.9421V7.04834C2.04155e-06 5.55276 -0.00169589 4.36524 0.127769 3.4375C0.260093 2.48941 0.540186 1.72042 1.16781 1.11572C1.79222 0.514134 2.581 0.248903 3.55388 0.122884C4.51108 -0.00109831 5.73739 3.32247e-07 7.29167 3.33207e-07ZM7.29167 1.25C5.70328 1.25 4.57241 1.25114 3.71419 1.3623C2.87188 1.47143 2.38718 1.67687 2.03532 2.01579C1.68669 2.35167 1.47814 2.80997 1.36638 3.61084C1.25181 4.43211 1.25 5.51632 1.25 7.04834V13.9421C1.25 14.9248 1.2518 15.5878 1.32324 16.0522C1.39331 16.5076 1.50342 16.585 1.56332 16.617C1.66592 16.6718 1.8533 16.701 2.19157 16.5983C2.52423 16.4973 2.91277 16.2954 3.33496 16.0286C3.7529 15.7645 4.1714 15.4574 4.56787 15.1644C4.95067 14.8815 5.33496 14.5948 5.64453 14.4084C5.95569 14.221 6.22848 14.0557 6.46973 13.9421C6.72422 13.8222 6.98842 13.737 7.29167 13.737C7.59491 13.737 7.85911 13.8222 8.11361 13.9421C8.35486 14.0557 8.62764 14.221 8.9388 14.4084C9.24838 14.5948 9.63266 14.8815 10.0155 15.1644C10.4119 15.4574 10.8304 15.7645 11.2484 16.0286C11.6706 16.2954 12.0591 16.4973 12.3918 16.5983C12.73 16.701 12.9174 16.6718 13.02 16.617C13.0799 16.585 13.19 16.5076 13.2601 16.0522C13.3315 15.5878 13.3333 14.9248 13.3333 13.9421V7.04834C13.3333 5.51632 13.3315 4.43211 13.217 3.61084C13.1052 2.80997 12.8966 2.35167 12.548 2.01579C12.1962 1.67687 11.7115 1.47143 10.8691 1.3623C10.0109 1.25114 8.88006 1.25 7.29167 1.25Z" fill="var(--fill-0, #5A5D67)"/>
</g>
</svg>
