<svg preserveAspectRatio="none" width="100%" height="100%" overflow="visible" style="display: block;" viewBox="0 0 16.125 16.125" fill="none" xmlns="http://www.w3.org/2000/svg">
<g id="elements">
<path id="Icon" d="M10.3125 2.8125C10.3125 3.22671 10.6483 3.5625 11.0625 3.5625C11.4766 3.56231 11.8125 3.2266 11.8125 2.8125V1.5H10.3125V2.8125ZM10.3125 7.5C10.0018 7.5 9.75 7.75184 9.75 8.0625C9.75 8.37316 10.0018 8.625 10.3125 8.625H11.8125C12.1231 8.62499 12.375 8.37315 12.375 8.0625C12.375 7.75185 12.1231 7.50001 11.8125 7.5H10.3125ZM10.3125 5.25C10.0018 5.25 9.75 5.50184 9.75 5.8125C9.75 6.12316 10.0018 6.375 10.3125 6.375H11.8125C12.1231 6.37499 12.375 6.12315 12.375 5.8125C12.375 5.50185 12.1231 5.25001 11.8125 5.25H10.3125ZM15.375 8.0625C15.375 8.54005 15.3512 8.962 15.2725 9.32031C15.1923 9.68493 15.0478 10.0186 14.7832 10.2832C14.5186 10.5478 14.1849 10.6923 13.8203 10.7725C13.462 10.8512 13.04 10.875 12.5625 10.875H9.5625C9.08495 10.875 8.663 10.8512 8.30469 10.7725C7.94006 10.6923 7.60637 10.5478 7.3418 10.2832C7.07723 10.0186 6.93266 9.68493 6.85254 9.32031C6.77382 8.962 6.75 8.54005 6.75 8.0625V1.5H5.625V8.0625C5.625 8.56465 5.64881 9.08311 5.75391 9.56152C5.86314 10.0588 6.08169 10.6149 6.5459 11.0791C7.01011 11.5433 7.56624 11.7619 8.06348 11.8711C8.54189 11.9762 9.06035 12 9.5625 12H10.4248C10.6364 12 10.7427 12 10.8086 12.0654C10.8745 12.1313 10.875 12.2381 10.875 12.4502V13.3125C10.875 13.79 10.8512 14.212 10.7725 14.5703C10.6923 14.9349 10.5478 15.2686 10.2832 15.5332C10.0186 15.7978 9.68493 15.9423 9.32031 16.0225C8.962 16.1012 8.54004 16.125 8.0625 16.125H3.5625C3.08495 16.125 2.663 16.1012 2.30469 16.0225C1.94006 15.9423 1.60637 15.7978 1.3418 15.5332C1.07723 15.2686 0.93266 14.9349 0.852539 14.5703C0.773824 14.212 0.75 13.79 0.75 13.3125V13.125H2.8125C3.123 13.1248 3.375 12.873 3.375 12.5625C3.375 12.252 3.123 12.0002 2.8125 12H0.75V10.125H2.8125C3.123 10.1248 3.375 9.87304 3.375 9.5625C3.375 9.25196 3.123 9.00019 2.8125 9H0.75V7.125H2.8125C3.123 7.12481 3.375 6.87304 3.375 6.5625C3.375 6.25196 3.123 6.00019 2.8125 6H0.75V1.5C0.335786 1.5 0 1.16421 0 0.75C0 0.335787 0.335786 0 0.75 0H15.375C15.7892 1.28526e-05 16.125 0.335795 16.125 0.75C16.125 1.16421 15.7892 1.49999 15.375 1.5V8.0625Z" fill="var(--fill-0, #7C57FC)"/>
</g>
</svg>
