<svg preserveAspectRatio="none" width="100%" height="100%" overflow="visible" style="display: block;" viewBox="0 0 16.312 15.5626" fill="none" xmlns="http://www.w3.org/2000/svg">
<g id="elements">
<path id="Icon" d="M6.56374 11.8125C6.97779 11.8127 7.31373 12.1484 7.31374 12.5625C7.31374 12.9988 7.42439 13.3846 7.57155 13.6807C7.72803 13.9953 7.89222 14.1458 7.93874 14.1748C8.29079 14.3928 8.39974 14.8549 8.1819 15.207C7.96388 15.5591 7.50179 15.668 7.14967 15.4502C6.78578 15.2248 6.45984 14.8125 6.22878 14.3477C5.98811 13.8635 5.81374 13.2511 5.81374 12.5625C5.81374 12.1483 6.14952 11.8125 6.56374 11.8125ZM9.18776 11.8125C9.60183 11.8127 9.93776 12.1484 9.93776 12.5625C9.93776 12.658 9.96293 12.8311 10.0139 12.9941C10.0331 13.0556 10.0518 13.1014 10.0657 13.1309C10.3301 13.3689 10.3951 13.7688 10.2014 14.082C9.98335 14.4342 9.52038 14.5433 9.16823 14.3252C8.9495 14.1897 8.82398 13.9872 8.76003 13.8701C8.68471 13.7322 8.62605 13.5822 8.58229 13.4424C8.4966 13.1685 8.43776 12.8419 8.43776 12.5625C8.43776 12.1483 8.77355 11.8125 9.18776 11.8125ZM4.31276 11.8125C4.72683 11.8127 5.06276 12.1484 5.06276 12.5625C5.06276 12.797 5.12479 12.9566 5.17506 13.0498C5.20092 13.0977 5.2241 13.1301 5.23659 13.1455L5.24342 13.1533C5.53118 13.4365 5.54395 13.899 5.26784 14.1973C4.98634 14.5011 4.51115 14.5188 4.20729 14.2373C4.08276 14.1218 3.93004 13.9021 3.85475 13.7627C3.70264 13.4809 3.56276 13.078 3.56276 12.5625C3.56276 12.1483 3.89855 11.8125 4.31276 11.8125ZM7.25221 0C7.77782 7.47923e-06 8.24273 0.027413 8.68288 0.142578C9.13455 0.26083 9.53408 0.463943 9.94557 0.780273C10.7404 1.3914 11.3351 2.07804 11.7825 2.81348C11.8351 2.81142 11.8887 2.8147 11.9426 2.82422C13.5724 3.11191 14.6788 3.80122 15.3733 4.72461C16.0565 5.63318 16.279 6.68597 16.3098 7.59961C16.3291 8.17068 16.2322 8.82854 15.6126 9.22266C15.3503 9.38945 15.0518 9.46632 14.7678 9.50781C14.4804 9.54982 14.151 9.5625 13.7923 9.5625H13.0696C13 9.91738 12.8493 10.2417 12.5305 10.4795C12.2817 10.665 11.9827 10.7579 11.6721 10.8086C11.3602 10.8595 10.9904 10.875 10.5676 10.875H2.5569C2.13439 10.875 1.76519 10.8594 1.45338 10.8086C1.14282 10.7579 0.842828 10.6651 0.594009 10.4795C0.0551257 10.0774 -0.0107143 9.42845 0.00123597 8.80176C0.0565745 5.90085 0.426968 2.89615 3.17897 0.780273C3.59055 0.463828 3.98989 0.260855 4.44167 0.142578C4.88199 0.0273115 5.34746 0 5.87331 0H7.25221ZM12.553 4.52148C12.9155 5.65883 13.0499 6.86219 13.1008 8.0625H13.7923C14.1278 8.0625 14.3716 8.04966 14.551 8.02344C14.6908 8.00301 14.7605 7.97827 14.7903 7.96484C14.8015 7.92468 14.8169 7.83255 14.8108 7.65039C14.7863 6.92647 14.6123 6.2086 14.1741 5.62598C13.8514 5.19699 13.35 4.79394 12.553 4.52148Z" fill="var(--fill-0, #7C57FC)"/>
</g>
</svg>
