<svg preserveAspectRatio="none" width="100%" height="100%" overflow="visible" style="display: block;" viewBox="0 0 10.9999 10.9999" fill="none" xmlns="http://www.w3.org/2000/svg">
<g id="elements">
<path id="Icon" d="M9.57709 0.244074C9.90247 -0.0813135 10.4303 -0.0812146 10.7558 0.244074C11.0812 0.569511 11.0812 1.09735 10.7558 1.42278L6.67865 5.49993L10.7558 9.57708C11.0812 9.90252 11.0812 10.4304 10.7558 10.7558C10.4304 11.0812 9.90252 11.0812 9.57709 10.7558L5.49994 6.67864L1.42279 10.7558C1.09735 11.0812 0.569515 11.0812 0.244078 10.7558C-0.0812109 10.4303 -0.0813098 9.90247 0.244078 9.57708L4.32123 5.49993L0.244078 1.42278C-0.0813592 1.09735 -0.0813592 0.569511 0.244078 0.244074C0.569515 -0.0813556 1.09735 -0.0813605 1.42279 0.244074L5.49994 4.32122L9.57709 0.244074Z" fill="var(--fill-0, black)"/>
</g>
</svg>
