<svg preserveAspectRatio="none" width="100%" height="100%" overflow="visible" style="display: block;" viewBox="0 0 27.4014 13" fill="none" xmlns="http://www.w3.org/2000/svg">
<path id="Subtract" d="M21 0C23.2091 3.54341e-07 25 1.79086 25 4V9C25 11.2091 23.2091 13 21 13H4C1.79086 13 8.05333e-08 11.2091 0 9V4C0 1.79086 1.79086 0 4 0H21ZM13.4434 2.9541L13.0967 7.00684H14.415C14.6592 6.60163 15.1182 6.35742 15.6504 6.35742C16.412 6.35755 16.9443 6.90439 16.9443 7.68555C16.9443 8.45206 16.412 8.98913 15.6406 8.98926C14.957 8.98926 14.4297 8.57908 14.3467 7.9834H12.9844C13.0283 9.25781 14.1172 10.1562 15.6309 10.1562C17.2469 10.1561 18.3506 9.14054 18.3506 7.64648C18.3506 6.27451 17.3836 5.28334 16.0361 5.2832C15.3184 5.2832 14.7569 5.58113 14.4688 6.05469H14.4395L14.6006 4.12598H17.9258V2.9541H13.4434ZM9.34473 2.79785C7.80679 2.79796 6.74219 3.74031 6.74219 5.07324V5.09766H8.10938V5.07324C8.10938 4.42391 8.61244 3.94544 9.2959 3.94531C9.9502 3.94531 10.4141 4.36523 10.4141 4.89258C10.4141 5.38086 10.1943 5.7373 9.48145 6.4502L6.8252 9.00879V10H11.9473V8.82812H8.76855V8.79883L10.4873 7.14355C11.2637 6.37207 11.8496 5.71289 11.8496 4.83398C11.8496 3.65723 10.8291 2.79785 9.34473 2.79785ZM26 4C26.8491 4.35744 27.4014 5.18912 27.4014 6.11035C27.4013 7.03151 26.849 7.86329 26 8.2207V4Z" fill="var(--fill-0, #D9D9D9)"/>
</svg>
