<svg preserveAspectRatio="none" width="100%" height="100%" overflow="visible" style="display: block;" viewBox="0 0 11.3271 6.39003" fill="none" xmlns="http://www.w3.org/2000/svg">
<g id="elements">
<path id="Icon" d="M1.2029 0.268468C1.30278 0.404205 1.601 0.809415 1.7787 1.04308C2.13461 1.51107 2.62114 2.1331 3.1466 2.75379C3.67472 3.37762 4.23009 3.98568 4.72463 4.43376C4.9726 4.65844 5.19076 4.82954 5.37115 4.94139C5.54081 5.04658 5.64152 5.06927 5.64152 5.06927C5.64152 5.06927 5.7398 5.04906 5.91203 4.94815C6.09516 4.84085 6.31752 4.67525 6.57103 4.45683C7.0766 4.02124 7.64699 3.42724 8.19053 2.81679C8.73133 2.20942 9.23324 1.59972 9.60073 1.14076C9.78421 0.911607 10.092 0.514536 10.1953 0.381335C10.4034 0.105978 10.7958 0.0509281 11.0712 0.259078C11.3465 0.467227 11.401 0.859187 11.1929 1.13454L11.1912 1.13664C11.083 1.27635 10.7637 1.68823 10.5765 1.92204C10.2007 2.39137 9.68412 3.01906 9.12409 3.64803C8.5668 4.27393 7.95402 4.91524 7.38694 5.40383C7.10412 5.64749 6.81779 5.8662 6.54396 6.02665C6.28742 6.17697 5.96314 6.324 5.62441 6.31976C5.28568 6.31553 4.96518 6.16044 4.71247 6.00376C4.44274 5.83653 4.16196 5.61074 3.88532 5.36008C3.33062 4.85749 2.73405 4.20107 2.19257 3.56145C1.64842 2.9187 1.14769 2.27831 0.783741 1.79975C0.602301 1.56117 0.293416 1.14142 0.188868 0.999345L0.187516 0.997507C-0.013692 0.717038 0.0502748 0.32616 0.330744 0.124953C0.611205 -0.0762487 1.00168 -0.0119782 1.2029 0.268468Z" fill="var(--fill-0, #7C57FC)"/>
</g>
</svg>
