<svg preserveAspectRatio="none" width="100%" height="100%" overflow="visible" style="display: block;" viewBox="0 0 17.75 18" fill="none" xmlns="http://www.w3.org/2000/svg">
<g id="user-add">
<path id="combo shape" d="M7 10C10.866 10 14 11.7909 14 14C14 16.2091 10.866 18 7 18C3.13401 18 0 16.2091 0 14C0 11.7909 3.13401 10 7 10ZM15 4.25C15.4142 4.25 15.75 4.58579 15.75 5V6.25H17C17.4142 6.25 17.75 6.58579 17.75 7C17.75 7.41421 17.4142 7.75 17 7.75H15.75V9C15.75 9.41421 15.4142 9.75 15 9.75C14.5858 9.75 14.25 9.41421 14.25 9V7.75H13C12.5858 7.75 12.25 7.41421 12.25 7C12.25 6.58579 12.5858 6.25 13 6.25H14.25V5C14.25 4.58579 14.5858 4.25 15 4.25ZM7 0C9.20914 0 11 1.79086 11 4C11 6.20914 9.20914 8 7 8C4.79086 8 3 6.20914 3 4C3 1.79086 4.79086 0 7 0Z" fill="var(--fill-0, #7C57FC)"/>
</g>
</svg>
