<svg preserveAspectRatio="none" width="100%" height="100%" overflow="visible" style="display: block;" viewBox="0 0 17.916 17.916" fill="none" xmlns="http://www.w3.org/2000/svg">
<g id="elements">
<path id="Icon" d="M8.95801 0C13.9056 1.12749e-07 17.916 4.01046 17.916 8.95801C17.916 13.9056 13.9056 17.916 8.95801 17.916C4.01046 17.916 0 13.9056 0 8.95801C4.59049e-07 4.01046 4.01046 0 8.95801 0ZM8.95801 1.25C4.70081 1.25 1.25 4.70081 1.25 8.95801C1.25 13.2152 4.70081 16.666 8.95801 16.666C13.2152 16.666 16.666 13.2152 16.666 8.95801C16.666 4.70081 13.2152 1.25 8.95801 1.25ZM8.35547 7.5C8.52632 7.49993 8.71125 7.49954 8.86719 7.52051C9.04987 7.54509 9.2831 7.6084 9.47949 7.80469C9.67599 8.00119 9.7391 8.2352 9.76367 8.41797C9.7846 8.57391 9.78522 8.75889 9.78516 8.92969V13.125C9.78499 13.4699 9.50508 13.7498 9.16016 13.75C8.81508 13.75 8.53532 13.47 8.53516 13.125V8.95801C8.53516 8.87561 8.53511 8.80878 8.53418 8.75098C8.4763 8.75004 8.40874 8.75 8.32617 8.75C7.98125 8.74982 7.70134 8.46993 7.70117 8.125C7.70117 7.77993 7.98114 7.50018 8.32617 7.5C8.33569 7.5 8.34585 7.5 8.35547 7.5ZM8.95898 4.79102C9.41922 4.79102 9.79199 5.16476 9.79199 5.625C9.79182 6.08509 9.41911 6.45801 8.95898 6.45801H8.95117C8.49119 6.45783 8.11834 6.08498 8.11816 5.625C8.11816 5.16487 8.49108 4.79119 8.95117 4.79102H8.95898Z" fill="var(--fill-0, #5E5E5E)"/>
</g>
</svg>
