<svg preserveAspectRatio="none" width="100%" height="100%" overflow="visible" style="display: block;" viewBox="0 0 17.9167 17.9168" fill="none" xmlns="http://www.w3.org/2000/svg">
<g id="elements">
<g id="Icon">
<path fill-rule="evenodd" clip-rule="evenodd" d="M12.7083 7.5C15.5581 7.5 17.9167 9.71734 17.9167 12.5098C17.9167 13.8475 17.371 15.0592 16.4909 15.953C16.4549 15.9896 16.4349 16.0231 16.4266 16.0441C16.4209 16.0584 16.4227 16.0614 16.4225 16.0563C16.4797 16.3507 16.6073 16.6229 16.7904 16.8481C16.9295 17.0192 16.9681 17.2515 16.8921 17.4585C16.816 17.6653 16.6367 17.817 16.4201 17.8573C15.6178 18.0065 14.7876 17.8717 14.0763 17.4935C13.9882 17.4466 13.9297 17.4165 13.8867 17.395C13.8465 17.4017 13.7917 17.4114 13.7101 17.4268C13.3799 17.4888 13.0446 17.5191 12.7083 17.5187C9.85853 17.5187 7.50001 15.3022 7.5 12.5098C7.5 9.71734 9.85852 7.5 12.7083 7.5ZM12.7083 8.75C10.4961 8.75 8.75 10.4593 8.75 12.5098C8.75001 14.5602 10.4969 16.2695 12.7091 16.2695C12.9677 16.2699 13.2257 16.2456 13.4798 16.1979C13.5785 16.1794 13.6751 16.161 13.7557 16.1499C13.8137 16.1419 13.8945 16.1334 13.9852 16.1377L14.0788 16.1466L14.174 16.167C14.2649 16.1914 14.342 16.2259 14.3945 16.2508C14.4716 16.2874 14.5644 16.3375 14.6631 16.39C14.8564 16.4928 15.0634 16.5663 15.2759 16.6121C15.2428 16.5044 15.2149 16.3947 15.1937 16.2834C15.0968 15.7701 15.3439 15.3365 15.5998 15.0765C16.2646 14.4014 16.6667 13.4987 16.6667 12.5098C16.6667 10.4593 14.9206 8.75 12.7083 8.75Z" fill="var(--fill-0, #5A5D67)"/>
<path d="M8.19092 0C12.1663 0 15.5135 2.70618 16.2378 6.33626C16.3052 6.67471 16.0855 7.0036 15.7471 7.07113C15.4086 7.13855 15.0797 6.91885 15.0122 6.5804C14.4111 3.56816 11.6047 1.25 8.19092 1.25C4.32635 1.25007 1.25 4.21399 1.25 7.80029C1.25007 9.52775 1.95878 11.1023 3.12581 12.277C3.49245 12.6462 3.81661 13.23 3.68896 13.9006L3.68815 13.9014C3.61518 14.2811 3.49458 14.6481 3.33171 14.9943C3.96659 14.9651 4.59296 14.7969 5.15706 14.4995C5.32337 14.4118 5.46668 14.3356 5.5835 14.2806C5.6934 14.2289 5.83576 14.1675 5.99121 14.1439C6.19065 14.1137 6.39843 14.1472 6.56413 14.1756C6.90427 14.234 7.13268 14.5573 7.07438 14.8975C7.01598 15.2377 6.69274 15.4661 6.35254 15.4077C6.26837 15.3933 6.217 15.3862 6.18327 15.3833L6.18164 15.3825C6.16867 15.3877 6.14774 15.3971 6.11654 15.4118C6.03129 15.4519 5.91692 15.5121 5.73975 15.6055C4.64587 16.1821 3.37002 16.3865 2.13949 16.1597C1.92198 16.1196 1.74185 15.967 1.66585 15.7593C1.58991 15.5516 1.62897 15.3191 1.76921 15.1481C2.1166 14.7245 2.35546 14.2143 2.46094 13.6654C2.48397 13.5411 2.43292 13.353 2.23877 13.1576C0.855385 11.765 6.99229e-05 9.88013 0 7.80029C0 3.46195 3.69933 6.57397e-05 8.19092 0Z" fill="var(--fill-0, #5A5D67)"/>
</g>
</g>
</svg>
