<svg preserveAspectRatio="none" width="100%" height="100%" overflow="visible" style="display: block;" viewBox="0 0 17.916 17.915" fill="none" xmlns="http://www.w3.org/2000/svg">
<g id="elements">
<path id="Icon" d="M10.9424 0.22168C14.9347 1.12499 17.9159 4.6932 17.916 8.95898C17.916 9.33224 17.8931 9.70078 17.8486 10.0625C17.6995 9.95329 17.5661 9.87028 17.458 9.81445C17.4325 9.80129 17.406 9.7898 17.3789 9.78027C16.2381 9.37936 15.3453 9.81529 14.6924 10.1816C14.6095 10.2282 14.5327 10.2728 14.46 10.3145C14.2268 10.448 14.037 10.5562 13.8389 10.6377C13.6003 10.7358 13.4185 10.762 13.2461 10.7275C11.7456 10.4275 10.6146 10.4028 9.83594 10.7627C9.41975 10.9551 9.11384 11.2524 8.92285 11.6367C8.73931 12.0062 8.67969 12.42 8.67969 12.8301C8.67969 13.5738 8.67441 13.8359 8.62012 14.0537C8.56895 14.2587 8.4706 14.44 8.14551 14.999C7.92233 15.3828 7.71744 15.8577 7.74512 16.373C7.77483 16.9255 8.06266 17.4026 8.57324 17.7852C8.62203 17.8248 8.67792 17.8688 8.74023 17.915C3.89352 17.7992 0 13.8336 0 8.95898C5.05949e-05 7.09934 0.567022 5.37112 1.53711 3.93945C2.176 3.6287 2.74383 3.59343 3.02539 3.63477C3.0335 3.63595 3.04166 3.63683 3.0498 3.6377C3.50052 3.68526 3.75234 3.88523 4.42383 4.59473C5.81178 6.06127 7.35722 6.31278 8.50195 5.70801C8.9193 5.48751 9.18781 5.20542 9.35156 4.875C9.48465 4.60629 9.53419 4.3242 9.56641 4.14062L9.57617 4.08301C9.61406 3.87515 9.6439 3.7793 9.69434 3.70312C9.73539 3.64131 9.82942 3.53555 10.1064 3.42578C10.7327 3.17759 11.1435 2.70498 11.2988 2.13281C11.4463 1.58951 11.3512 1.00872 11.0879 0.506836C11.0497 0.415451 11.0009 0.319885 10.9424 0.22168ZM15.3047 11.2734C15.8925 10.9437 16.3475 10.7619 16.9219 10.9473C17.0564 11.0242 17.2942 11.1952 17.5625 11.4648C16.6551 14.5876 14.0946 17.0069 10.8906 17.7109C10.2003 17.416 9.62721 17.034 9.35449 16.8105C9.34668 16.8042 9.33819 16.798 9.33008 16.792C9.04613 16.5815 9.00011 16.4186 8.99414 16.3076C8.98598 16.155 9.04719 15.9374 9.22656 15.6289L9.26367 15.5654C9.53793 15.0942 9.73577 14.7554 9.83496 14.3574C9.93118 13.9713 9.93084 13.5439 9.93066 12.915V12.8311C9.9307 12.5319 9.97559 12.33 10.043 12.1943C10.1031 12.0734 10.1947 11.9754 10.3613 11.8984C10.7483 11.7197 11.5268 11.6601 13.002 11.9551C13.4982 12.0543 13.9409 11.9499 14.3154 11.7959C14.5968 11.6801 14.8817 11.5159 15.127 11.375C15.189 11.3394 15.2484 11.305 15.3047 11.2734ZM8.91699 0C9.55869 0.364822 9.86038 0.799861 9.93945 1.00098C9.94878 1.02466 9.95953 1.04795 9.97168 1.07031C10.1205 1.34444 10.1451 1.60853 10.0918 1.80469C10.0431 1.98381 9.91814 2.15565 9.64551 2.26367C9.19012 2.44417 8.86505 2.68999 8.65137 3.0127C8.44722 3.32105 8.38579 3.6438 8.34668 3.8584L8.34082 3.89062C8.30049 4.11228 8.28115 4.21888 8.23145 4.31934C8.19482 4.39323 8.12538 4.49296 7.91797 4.60254C7.39666 4.87787 6.44295 4.90903 5.33203 3.73535C4.69011 3.05708 4.15035 2.50077 3.19336 2.39551C3.09986 2.38235 2.99701 2.3737 2.88672 2.37109C4.47311 0.908504 6.59101 0.0104097 8.91699 0Z" fill="var(--fill-0, #121212)"/>
</g>
</svg>
