<svg preserveAspectRatio="none" width="100%" height="100%" overflow="visible" style="display: block;" viewBox="0 0 19.1667 15.834" fill="none" xmlns="http://www.w3.org/2000/svg">
<g id="elements">
<path id="Icon" d="M2.71776 10.4512C5.13625 9.06968 8.19679 9.06958 10.6152 10.4512C10.6886 10.4931 10.7811 10.5425 10.8867 10.5996C11.3617 10.8565 12.1074 11.2596 12.6172 11.7383C12.9346 12.0364 13.2629 12.4533 13.3232 12.9824C13.3883 13.5548 13.1234 14.0717 12.6475 14.5068C11.8483 15.2373 10.8765 15.834 9.6162 15.834H3.71679C2.45654 15.834 1.48466 15.2372 0.685538 14.5068C0.209511 14.0717 -0.0553694 13.5549 0.00975673 12.9824C0.0700436 12.4533 0.398372 12.0364 0.715811 11.7383C1.22559 11.2597 1.97032 10.8565 2.4453 10.5996C2.55108 10.5424 2.64435 10.4931 2.71776 10.4512ZM12.2031 9.54199C12.2811 9.35625 12.6229 9.38974 13.3057 9.45703C14.3642 9.56139 15.4008 9.83513 16.3428 10.2773C16.4161 10.3118 16.5087 10.3531 16.6152 10.4004C17.0987 10.6151 17.8666 10.9555 18.3926 11.3613C18.7135 11.609 19.0857 11.9829 19.1553 12.4844C19.2325 13.0426 18.9111 13.5163 18.4219 13.8838C17.5963 14.5038 16.6035 15 15.3271 15C14.8775 15 14.6524 15.0002 14.5674 14.8994C14.5621 14.8932 14.5593 14.8894 14.5547 14.8828C14.4789 14.7762 14.566 14.5507 14.7412 14.1006C14.8884 13.7226 14.9539 13.3038 14.8975 12.8496C14.7755 11.8693 14.1287 11.1861 13.6875 10.8066C13.4915 10.6381 13.268 10.4763 13.0371 10.3252C12.4291 9.92722 12.1251 9.72773 12.2031 9.54199ZM6.66601 0C8.92252 0 10.7518 1.82032 10.7519 4.06543C10.7519 6.31064 8.92259 8.13086 6.66601 8.13086C4.40948 8.13079 2.58007 6.3106 2.58007 4.06543C2.58018 1.82036 4.40955 6.63391e-05 6.66601 0ZM12.793 1.66699C14.7483 1.66717 16.3329 3.11122 16.333 4.89258C16.333 6.67403 14.7483 8.11799 12.793 8.11816C12.226 8.11816 11.6899 7.99705 11.2148 7.78125C10.9867 7.67764 10.8725 7.62594 10.8398 7.5127C10.8073 7.39922 10.8931 7.28397 11.0644 7.05469C11.7081 6.19345 12.084 5.15272 12.084 4.03223C12.0839 3.4543 11.9841 2.8977 11.7988 2.37598C11.7049 2.11167 11.6583 1.97953 11.7246 1.87891C11.7909 1.77829 11.9168 1.75755 12.168 1.7168C12.3707 1.68392 12.5798 1.66699 12.793 1.66699Z" fill="var(--fill-0, #6B6C7A)"/>
</g>
</svg>
