<svg preserveAspectRatio="none" width="100%" height="100%" overflow="visible" style="display: block;" viewBox="0 0 21.5001 21.5" fill="none" xmlns="http://www.w3.org/2000/svg">
<path id="Vector" d="M12.7501 0.75H4.75006C2.54092 0.75 0.750056 2.54086 0.750056 4.75V16.75C0.750056 18.9591 2.54092 20.75 4.75006 20.75H16.7501C18.9592 20.75 20.7501 18.9591 20.7501 16.75V8.75M17.7501 0.75V6.75M20.7501 3.75L14.7501 3.75M20.7501 12.75L17.811 10.6339C16.2839 9.53434 14.1967 9.64798 12.798 10.9069L8.70214 14.5931C7.30337 15.852 5.21625 15.9657 3.68906 14.8661L0.750056 12.75M9.75006 7.25C9.75006 8.63071 8.63077 9.75 7.25006 9.75C5.86934 9.75 4.75006 8.63071 4.75006 7.25C4.75006 5.86929 5.86934 4.75 7.25006 4.75C8.63077 4.75 9.75006 5.86929 9.75006 7.25Z" stroke="var(--stroke-0, #7C57FC)" stroke-width="1.5" stroke-linecap="round"/>
</svg>
