<svg preserveAspectRatio="none" width="100%" height="100%" overflow="visible" style="display: block;" viewBox="0 0 17.916 17.5003" fill="none" xmlns="http://www.w3.org/2000/svg">
<g id="elements">
<path id="Icon" d="M13.541 7.91733C15.9079 7.91733 17.916 9.86955 17.916 12.2611C17.916 13.4867 17.3951 14.5069 16.6895 15.3304C15.9891 16.1477 15.0854 16.7982 14.2539 17.307L14.2441 17.3128L14.2344 17.3177C14.0228 17.4371 13.7838 17.5003 13.541 17.5003C13.2983 17.5003 13.0592 17.4371 12.8477 17.3177L12.8369 17.3119L12.8262 17.305C11.9991 16.793 11.0951 16.1452 10.3945 15.3304C9.68813 14.5088 9.16605 13.4906 9.16602 12.2611C9.16602 9.86966 11.1743 7.91751 13.541 7.91733ZM13.541 9.16733C11.8492 9.16751 10.416 10.5754 10.416 12.2611C10.4161 13.1097 10.7704 13.8493 11.3428 14.515C11.9174 15.1832 12.6898 15.7498 13.4697 16.2337C13.4916 16.2446 13.516 16.2503 13.541 16.2503C13.5667 16.2503 13.592 16.2441 13.6143 16.2328C14.3933 15.755 15.1658 15.1873 15.7402 14.5169C16.3126 13.8489 16.666 13.1065 16.666 12.2611C16.666 10.5753 15.233 9.16733 13.541 9.16733ZM5.61426 0.00131126C6.03637 -0.0124687 6.42338 0.0833188 6.83594 0.243499C7.23038 0.396663 7.6877 0.625678 8.24512 0.904632L11.0469 2.30698C11.2449 2.40607 11.3662 2.46349 11.4502 2.50033C11.4528 2.5003 11.4554 2.50033 11.458 2.50033C11.5652 2.50033 11.6647 2.5299 11.7529 2.57748C11.8441 2.58351 11.9811 2.58627 12.2256 2.58627H14.002C14.7496 2.58625 15.3753 2.58597 15.8721 2.65463C16.3985 2.72743 16.8722 2.8881 17.251 3.27768C17.6274 3.66484 17.7799 4.14507 17.8496 4.67807C17.9159 5.18545 17.916 5.82537 17.916 6.59701V7.29233C17.9158 7.6373 17.636 7.91733 17.291 7.91733C16.9461 7.91715 16.6663 7.63719 16.666 7.29233V6.63998C16.666 5.81462 16.6648 5.25612 16.6104 4.8392C16.558 4.43905 16.4671 4.2637 16.3555 4.14877C16.2461 4.03627 16.0824 3.94564 15.7012 3.89291C15.3001 3.83744 14.7618 3.83627 13.958 3.83627H12.1738C12.143 3.83629 12.1127 3.83435 12.083 3.83432V6.45834C12.083 6.80352 11.8032 7.08334 11.458 7.08334C11.1128 7.08334 10.833 6.80352 10.833 6.45834V3.59116C10.7391 3.54716 10.6398 3.50052 10.5342 3.4476C10.519 3.43999 10.5038 3.43193 10.4883 3.42416L7.71192 2.03549C7.12201 1.74029 6.71717 1.53799 6.38379 1.40854C6.33712 1.39042 6.29233 1.37533 6.25 1.36069V12.558C6.66911 12.6332 7.05368 12.7935 7.39063 12.9593C7.57608 13.0506 7.75651 13.1486 7.92383 13.2396L7.94922 13.2533C8.11061 13.341 8.25876 13.4216 8.4043 13.4945C8.71298 13.6489 8.83807 14.0247 8.6836 14.3333C8.52906 14.6419 8.15334 14.7671 7.84473 14.6126C7.67945 14.5299 7.5138 14.4399 7.35742 14.3548L7.32715 14.3382C7.15819 14.2464 6.99863 14.159 6.83887 14.0804C6.51668 13.9219 6.23076 13.8139 5.95996 13.7767C5.34025 13.6917 4.83393 13.9879 4.05664 14.4417L4.00977 14.4691C3.49436 14.77 3.06577 15.0197 2.71094 15.181C2.35197 15.3441 1.96097 15.4689 1.54883 15.3949C1.10351 15.3148 0.70439 15.0738 0.421876 14.721C0.163308 14.398 0.0770653 13.9984 0.0380874 13.5999C-0.000535494 13.205 -1.08829e-05 12.6998 1.48035e-06 12.0882V5.17905C-1.1732e-05 4.71653 4.54197e-05 4.32498 0.0312515 4.00131C0.0643801 3.65811 0.136088 3.34144 0.307619 3.03842C0.47969 2.73462 0.713394 2.5121 0.990236 2.31088C1.24988 2.12219 1.58173 1.92818 1.97168 1.70053C1.98 1.69567 1.9887 1.69077 1.99707 1.68588L3.0459 1.07358C3.58506 0.758791 4.02704 0.50113 4.41113 0.3226C4.81266 0.135983 5.19234 0.0151423 5.61426 0.00131126ZM4.9375 1.45639C4.61272 1.60738 4.2216 1.83539 3.65137 2.1683L2.62793 2.76498C2.20575 3.01146 1.92857 3.17415 1.72559 3.32162C1.53431 3.46063 1.44877 3.55882 1.39453 3.65463C1.33988 3.75129 1.29886 3.87831 1.27539 4.12143C1.25065 4.37803 1.25 4.70853 1.25 5.20737V12.055C1.25 12.7081 1.25026 13.1521 1.28223 13.4789C1.31445 13.8078 1.37094 13.9065 1.39746 13.9398C1.49444 14.0609 1.62791 14.1388 1.77051 14.1644C1.8006 14.1697 1.90186 14.1757 2.19336 14.0433C2.48299 13.9117 2.85644 13.6951 3.40918 13.3724C3.45316 13.3467 3.49811 13.3194 3.54395 13.2923C3.95441 13.0503 4.43966 12.7648 5 12.6156V1.42905C4.97987 1.43801 4.95855 1.44661 4.9375 1.45639ZM13.5488 11.4583C14.0091 11.4583 14.3818 11.8321 14.3818 12.2923C14.3816 12.7524 14.0089 13.1253 13.5488 13.1253H13.541C13.0811 13.1252 12.7082 12.7523 12.708 12.2923C12.708 11.8322 13.0809 11.4585 13.541 11.4583H13.5488Z" fill="var(--fill-0, #82858C)"/>
</g>
</svg>
