<svg preserveAspectRatio="none" width="100%" height="100%" overflow="visible" style="display: block;" viewBox="0 0 16 16" fill="none" xmlns="http://www.w3.org/2000/svg">
<g id="berry-cherry-cooking-svgrepo-com 1">
<path id="Vector" d="M14.8736 11.821C14.7424 13.4978 13.4048 14.3026 13.1328 14.4498C11.6848 15.2402 9.248 14.965 8.0704 13.3074C7.4208 12.3954 7.0944 10.9442 7.7264 9.93936L7.7344 9.92336C7.9616 9.55376 8.488 8.92976 9.4592 8.90896H9.4944C9.8416 8.90896 10.2416 9.01456 10.5952 9.10736C10.8432 9.17296 11.0576 9.22896 11.2176 9.24016C11.3184 9.24656 11.4624 9.22096 11.6448 9.18896C12.1904 9.09296 13.1008 8.93296 13.8976 9.49616C14.9824 10.2658 14.88 11.7586 14.8736 11.821Z" fill="var(--fill-0, black)"/>
<path id="Vector_2" d="M8.2416 9.14416C7.9296 9.36496 7.7232 9.63856 7.5984 9.84016L7.5904 9.85296C7.2672 10.3682 7.1776 10.9666 7.2384 11.5522C7.232 11.5554 7.2256 11.5586 7.2208 11.5634C6.0352 12.5314 4.696 12.2818 4.176 12.1298L4.1456 12.1218C2.4896 11.709 0.8544 9.92016 1.1552 8.01456C1.3216 6.96496 2.1152 5.75856 3.312 5.48336C3.5184 5.43536 4.5968 5.23536 5.464 5.96176C5.7296 6.18576 5.9264 6.51216 6.0992 6.80016C6.2224 7.00816 6.3296 7.18576 6.4464 7.30256C6.5216 7.37776 6.6528 7.45136 6.8192 7.54576C7.3072 7.81936 8.0432 8.23376 8.2352 9.12656C8.2368 9.13296 8.2384 9.13936 8.2416 9.14416Z" fill="var(--fill-0, black)"/>
<path id="Vector_3" d="M11.4928 9.05456C11.3984 9.07056 11.3152 9.08176 11.256 9.08176C11.2464 9.08176 11.2368 9.08016 11.2288 9.08016C11.184 9.07696 11.1312 9.07056 11.0752 9.05936C11.5664 7.80496 11.7696 5.79856 10.0624 3.25776C10.0592 3.25136 10.0544 3.24656 10.048 3.24176C10.1472 2.84816 10.1808 2.57296 10.1888 2.50576C10.1936 2.46096 10.1616 2.42256 10.1184 2.41776C10.0736 2.41136 10.0352 2.44496 10.0304 2.48816C10.0112 2.65936 9.8192 4.20336 8.7424 5.57456C8.0688 6.43216 7.008 7.07056 6.6416 7.25296C6.608 7.23056 6.5792 7.20816 6.56 7.18896C6.5072 7.13616 6.456 7.06736 6.4032 6.98576C6.4336 6.96976 6.4656 6.95216 6.4992 6.93456C6.8816 6.72976 7.5216 6.38896 8.3024 5.57136C9.2256 4.60496 9.4016 3.12496 9.1424 2.72176C9.0176 2.52656 8.8176 2.50736 8.6576 2.49296C8.448 2.47536 8.3216 2.46256 8.2992 2.17776C8.2784 1.92976 8.3952 1.71056 8.6272 1.56336C8.9392 1.36336 9.4976 1.29936 10.0384 1.60656C10.376 1.79696 10.3728 2.12176 10.3712 2.43536C10.3696 2.64496 10.368 2.84336 10.472 2.98576L10.5168 3.04656C10.7728 3.39376 11.3712 4.20336 11.7296 5.61616C12.112 7.12816 11.7504 8.50576 11.4928 9.05456Z" fill="var(--fill-0, black)"/>
<path id="Vector_4" d="M6.7856 2.49296C6.7728 2.49936 6.76 2.50256 6.7472 2.50256C6.7184 2.50256 6.6912 2.48656 6.6768 2.46096C6.6752 2.45936 6.5632 2.25936 6.3616 2.07536C6.328 2.04656 6.3264 1.99536 6.3552 1.96336C6.3856 1.92976 6.4352 1.92816 6.4688 1.95696C6.6912 2.15856 6.8112 2.37456 6.816 2.38416C6.8384 2.42256 6.824 2.47056 6.7856 2.49296Z" fill="var(--fill-0, black)"/>
<path id="Vector_5" d="M6.9472 4.01776C6.7808 4.21456 6.6944 4.24976 6.5632 4.30256L6.5216 4.32016C6.512 4.32496 6.5008 4.32656 6.4912 4.32656C6.4592 4.32656 6.4304 4.30736 6.4176 4.27696C6.4 4.23696 6.4192 4.18896 6.4608 4.17296L6.5024 4.15536C6.6224 4.10576 6.6832 4.08016 6.8256 3.91536C6.8544 3.88016 6.9056 3.87696 6.9392 3.90576C6.9728 3.93456 6.976 3.98416 6.9472 4.01776Z" fill="var(--fill-0, black)"/>
<path id="Vector_6" d="M9.008 2.80816C8.9664 2.74256 8.912 2.70736 8.8512 2.68816C8.6384 2.97456 7.8896 3.40816 7.1376 3.40816C6.9376 3.40816 6.736 3.37776 6.5456 3.30576C6.0336 3.11056 5.6832 2.83856 5.344 2.57616C5.0752 2.36656 4.8208 2.16976 4.5104 2.03536C4.4688 2.01616 4.4512 1.96976 4.4688 1.92976C4.4864 1.88816 4.5328 1.87056 4.5744 1.88816C4.9024 2.03216 5.1648 2.23376 5.4416 2.44976C5.7712 2.70576 6.1136 2.96976 6.6016 3.15536C7.0992 3.34416 7.6576 3.22096 8.0816 3.03056C7.8992 2.46736 6.72 0.75376 4.776 1.19056C4.4752 1.25776 4.2128 1.32016 3.9824 1.37456C3.0064 1.60336 2.5888 1.70096 2.1552 1.58576C2.1952 1.78736 2.3008 1.95856 2.4688 2.09616C2.8048 2.36656 3.2928 2.43376 3.5248 2.43696C3.4064 2.30256 3.28 2.21616 3.1248 2.16176C3.0832 2.14736 3.0608 2.10256 3.0752 2.06096C3.0896 2.01776 3.136 1.99696 3.1776 2.01136C3.6816 2.18896 3.9136 2.64016 4.288 3.56016C4.68 4.52336 6.0512 5.42096 7.1632 5.08816C8.296 4.74896 8.2768 3.55536 8.2752 3.54256C8.2752 3.51056 8.2944 3.48016 8.3232 3.46736C8.3984 3.43376 8.784 3.25776 9.056 3.00176C9.0608 2.99696 9.0656 2.99376 9.0704 2.99376V2.99216C9.0576 2.91376 9.0352 2.85136 9.008 2.80816ZM6.3552 1.96336C6.3856 1.92976 6.4352 1.92816 6.4688 1.95696C6.6912 2.15856 6.8112 2.37456 6.816 2.38416C6.8384 2.42256 6.824 2.47056 6.7856 2.49296C6.7728 2.49936 6.76 2.50256 6.7472 2.50256C6.7184 2.50256 6.6912 2.48656 6.6768 2.46096C6.6752 2.45936 6.5632 2.25936 6.3616 2.07536C6.328 2.04656 6.3264 1.99536 6.3552 1.96336ZM5.008 3.05296C5.0048 3.05296 4.9584 3.06096 4.8672 3.06096C4.7952 3.06096 4.6976 3.05616 4.5728 3.04016C4.528 3.03536 4.4976 2.99536 4.504 2.95056C4.5088 2.90736 4.5488 2.87696 4.5936 2.88176C4.8528 2.91536 4.9792 2.89616 4.9808 2.89616C5.024 2.88816 5.0656 2.91696 5.072 2.96176C5.08 3.00496 5.0512 3.04496 5.008 3.05296ZM6.9472 4.01776C6.7808 4.21456 6.6944 4.24976 6.5632 4.30256L6.5216 4.32016C6.512 4.32496 6.5008 4.32656 6.4912 4.32656C6.4592 4.32656 6.4304 4.30736 6.4176 4.27696C6.4 4.23696 6.4192 4.18896 6.4608 4.17296L6.5024 4.15536C6.6224 4.10576 6.6832 4.08016 6.8256 3.91536C6.8544 3.88016 6.9056 3.87696 6.9392 3.90576C6.9728 3.93456 6.976 3.98416 6.9472 4.01776Z" fill="var(--fill-0, black)"/>
<path id="Vector_7" d="M5.072 2.96176C5.08 3.00496 5.0512 3.04496 5.008 3.05296C5.0048 3.05296 4.9584 3.06096 4.8672 3.06096C4.7952 3.06096 4.6976 3.05616 4.5728 3.04016C4.528 3.03536 4.4976 2.99536 4.504 2.95056C4.5088 2.90736 4.5488 2.87696 4.5936 2.88176C4.8528 2.91536 4.9792 2.89616 4.9808 2.89616C5.024 2.88816 5.0656 2.91696 5.072 2.96176Z" fill="var(--fill-0, black)"/>
</g>
</svg>
