<svg preserveAspectRatio="none" width="100%" height="100%" overflow="visible" style="display: block;" viewBox="0 0 21.5 21.5" fill="none" xmlns="http://www.w3.org/2000/svg">
<g id="elements">
<path id="Icon" d="M10.75 0C16.6871 0 21.5 4.81294 21.5 10.75C21.5 16.6871 16.6871 21.5 10.75 21.5C4.81294 21.5 0 16.6871 0 10.75C0 4.81294 4.81294 0 10.75 0ZM15.457 6.04297C15.0665 5.65244 14.4335 5.65244 14.043 6.04297L10.75 9.33594L8.95703 7.54297C8.5665 7.15247 7.93348 7.15246 7.54297 7.54297C7.15247 7.9335 7.15246 8.56652 7.54297 8.95703L9.33594 10.75L9.04297 11.043C8.65244 11.4335 8.65244 12.0665 9.04297 12.457C9.43349 12.8476 10.0665 12.8476 10.457 12.457L10.75 12.1641L11.043 12.457C11.4335 12.8473 12.0666 12.8473 12.457 12.457C12.8475 12.0666 12.8473 11.4335 12.457 11.043L12.1641 10.75L15.457 7.45703C15.8476 7.06651 15.8476 6.43349 15.457 6.04297Z" fill="var(--fill-0, #82858C)"/>
</g>
</svg>
