<svg preserveAspectRatio="none" width="100%" height="100%" overflow="visible" style="display: block;" viewBox="0 0 19.5 16" fill="none" xmlns="http://www.w3.org/2000/svg">
<g id="filter">
<path id="combo shape" d="M5.75 12C6.85457 12 7.75 12.8954 7.75 14C7.75 15.1046 6.85457 16 5.75 16C4.9108 16 4.19327 15.4828 3.89648 14.75H0.75C0.335786 14.75 0 14.4142 0 14C0 13.5858 0.335786 13.25 0.75 13.25H3.89648C4.19327 12.5172 4.9108 12 5.75 12ZM17.75 13.25C18.1642 13.25 18.5 13.5858 18.5 14C18.5 14.4142 18.1642 14.75 17.75 14.75H9.75C9.33579 14.75 9 14.4142 9 14C9 13.5858 9.33579 13.25 9.75 13.25H17.75ZM14.75 6C15.5892 6 16.3067 6.51725 16.6035 7.25H18.75C19.1642 7.25 19.5 7.58579 19.5 8C19.5 8.41421 19.1642 8.75 18.75 8.75H16.6035C16.3067 9.48275 15.5892 10 14.75 10C13.6454 10 12.75 9.10457 12.75 8C12.75 6.89543 13.6454 6 14.75 6ZM10.75 7.25C11.1642 7.25 11.5 7.58579 11.5 8C11.5 8.41421 11.1642 8.75 10.75 8.75H0.75C0.335786 8.75 0 8.41421 0 8C0 7.58579 0.335786 7.25 0.75 7.25H10.75ZM9.75 0C10.5892 0 11.3067 0.517246 11.6035 1.25H18.75C19.1642 1.25 19.5 1.58579 19.5 2C19.5 2.41421 19.1642 2.75 18.75 2.75H11.6035C11.3067 3.48275 10.5892 4 9.75 4C8.9108 4 8.19327 3.48275 7.89648 2.75H0.75C0.335786 2.75 0 2.41421 0 2C0 1.58579 0.335786 1.25 0.75 1.25H7.89648C8.19327 0.517246 8.9108 0 9.75 0Z" fill="var(--fill-0, #616161)"/>
</g>
</svg>
