<svg preserveAspectRatio="none" width="100%" height="100%" overflow="visible" style="display: block;" viewBox="0 0 16 16" fill="none" xmlns="http://www.w3.org/2000/svg">
<g id="bakery-shop-bakery-bread-shop-boulangerie-svgrepo-com 1" clip-path="url(#clip0_3635_20202)">
<path id="Vector" d="M4.41869 12.4871C3.93662 12.4871 3.50938 12.0624 3.43381 11.472C3.422 11.3783 3.41594 11.2832 3.41594 11.1873C3.41594 9.9415 4.44238 8.86331 5.93825 8.33862L5.66569 9.65362C5.63694 9.79206 5.72181 9.93212 5.83719 9.93569C5.90112 9.93769 5.9635 9.89587 5.99694 9.82825L6.85219 8.09962C7.17094 8.04231 7.50294 8.00725 7.84494 8.00012L7.50256 9.65325C7.47675 9.77731 7.54494 9.9085 7.64625 9.93188C7.719 9.94869 7.79594 9.90594 7.8345 9.82788C7.83456 9.82775 8.71944 8.03794 8.71944 8.03794C9.03781 8.07256 9.34512 8.13031 9.63844 8.20856L9.33906 9.65331C9.288 9.89906 9.56531 10.0416 9.67106 9.82794C9.67125 9.8275 10.3526 8.45025 10.3526 8.45025C11.6891 9.00737 12.5841 10.0243 12.5841 11.1874C12.5841 11.2833 12.578 11.3784 12.5658 11.4721C12.4906 12.0626 12.0634 12.4873 11.5813 12.4873L4.41869 12.4871ZM0.125 3.90625H15.875V4.40625C15.8562 5.29112 15.3056 6.00681 14.5 6.25338V14.6562H15.875V15.7812H0.125V14.6562H1.5V6.25475C0.726562 5.98762 0.125 5.26113 0.125 4.40625V3.90625ZM2.625 6.25588V14.6562H13.375V6.25C12.5483 6.01638 11.9404 5.267 11.9404 4.36538C11.9404 5.01838 11.3385 6.33081 9.98019 6.33081C8.47687 6.33081 8.01369 5.05613 8.01369 4.36538C8.01369 5.10631 7.41912 6.33225 6.06356 6.33225C4.50287 6.33225 4.08063 4.77025 4.08063 4.36538C4.08063 5.27469 3.46263 6.02913 2.625 6.25588ZM13.927 1.46875H13.9375V0.21875H2.125V1.46875L0.125 3.46875H15.875L13.927 1.46875Z" fill="var(--fill-0, black)"/>
</g>
<defs>
<clipPath id="clip0_3635_20202">
<rect width="16" height="16" fill="white"/>
</clipPath>
</defs>
</svg>
