<svg preserveAspectRatio="none" width="100%" height="100%" overflow="visible" style="display: block;" viewBox="0 0 15 13.334" fill="none" xmlns="http://www.w3.org/2000/svg">
<g id="elements">
<path id="Icon" d="M0.84082 11.667C1.30095 11.667 1.67365 12.0399 1.67383 12.5C1.67383 12.9602 1.30106 13.334 0.84082 13.334H0.833008C0.37292 13.3338 0 12.9601 0 12.5C0.000175823 12.04 0.373029 11.6672 0.833008 11.667H0.84082ZM14.167 11.667C14.627 11.6672 14.9998 12.04 15 12.5C15 12.9601 14.6271 13.3338 14.167 13.334H4.16699C3.70675 13.334 3.33301 12.9602 3.33301 12.5C3.33318 12.0399 3.70686 11.667 4.16699 11.667H14.167ZM0.84082 5.83398C1.30106 5.83399 1.67383 6.20676 1.67383 6.66699C1.67383 7.12723 1.30106 7.5 0.84082 7.5H0.833008C0.37292 7.49982 9.66162e-08 7.12712 0 6.66699C0 6.20686 0.37292 5.83416 0.833008 5.83398H0.84082ZM14.167 5.83398C14.6271 5.83416 15 6.20686 15 6.66699C15 7.12712 14.6271 7.49982 14.167 7.5H4.16699C3.70675 7.5 3.33301 7.12723 3.33301 6.66699C3.33301 6.20675 3.70675 5.83398 4.16699 5.83398H14.167ZM0.84082 0C1.30106 1.07315e-06 1.67383 0.373748 1.67383 0.833984C1.67365 1.29407 1.30095 1.66699 0.84082 1.66699H0.833008C0.373029 1.66682 0.000175855 1.29396 0 0.833984C0 0.373856 0.37292 0.000175829 0.833008 0H0.84082ZM14.167 0C14.6271 0.000175608 15 0.373855 15 0.833984C14.9998 1.29396 14.627 1.66682 14.167 1.66699H4.16699C3.70686 1.66699 3.33318 1.29407 3.33301 0.833984C3.33301 0.373747 3.70675 -3.68823e-08 4.16699 0H14.167Z" fill="var(--fill-0, #7C57FC)"/>
</g>
</svg>
