<svg preserveAspectRatio="none" width="100%" height="100%" overflow="visible" style="display: block;" viewBox="0 0 16 16" fill="none" xmlns="http://www.w3.org/2000/svg">
<g id="restaurant-svgrepo-com 2" clip-path="url(#clip0_3650_20560)">
<path id="path11774" d="M3.73333 1.90735e-07L2.66667 5.86667C2.51051 6.72533 4.56693 7.1264 4.53333 8L4.26667 14.9333C4.22571 15.9993 5.33333 16 5.33333 16C5.33333 16 6.44096 15.9993 6.4 14.9333L6.13333 8C6.09984 7.12789 7.98229 6.74048 8 5.86667L6.93333 1.90735e-07H6.4L6.66667 4.26667L5.86667 4.8L5.6 1.90735e-07H5.06667L4.8 4.8L4 4.26667L4.26667 1.90735e-07H3.73333ZM12.8 1.90735e-07C12.0145 1.90735e-07 10.7049 0.69856 10.1812 1.74581C9.74485 2.53131 9.6 4.28608 9.6 5.33333V8C9.6 8.87275 10.7636 9.06667 11.2 9.06667L10.6667 14.9333C10.5701 15.9956 11.7333 16 11.7333 16C11.7333 16 12.8 16 12.8 14.9333V1.90735e-07Z" fill="var(--fill-0, #7C57FC)"/>
</g>
<defs>
<clipPath id="clip0_3650_20560">
<rect width="16" height="16" fill="white"/>
</clipPath>
</defs>
</svg>
