<svg width="20" height="20" viewBox="0 0 20 20" fill="none" xmlns="http://www.w3.org/2000/svg">
<path d="M3.45538 2.79596C5.93953 1.27219 8.16805 1.87948 9.51433 2.89051C9.73581 3.05683 9.88782 3.17067 10.001 3.24754C10.1141 3.17067 10.2661 3.05683 10.4876 2.89051C11.8339 1.87948 14.0624 1.27219 16.5466 2.79596C18.2643 3.8496 19.2308 6.0505 18.8916 8.57926C18.5509 11.1202 16.9062 13.9941 13.4232 16.5721C12.2137 17.4678 11.326 18.1253 10.001 18.1253C8.67593 18.1253 7.78824 17.4678 6.57876 16.5721C3.09575 13.9941 1.4511 11.1202 1.11031 8.57926C0.771155 6.0505 1.73768 3.8496 3.45538 2.79596Z" fill="#DF0000"/>
</svg>
