<svg width="14" height="14" viewBox="0 0 14 14" fill="none" xmlns="http://www.w3.org/2000/svg">
<path fill-rule="evenodd" clip-rule="evenodd" d="M6.9974 1.60352C7.4001 1.60352 7.72656 1.92997 7.72656 2.33268L7.72656 6.27018L11.6641 6.27018C12.0668 6.27018 12.3932 6.59664 12.3932 6.99935C12.3932 7.40206 12.0668 7.72852 11.6641 7.72852L7.72656 7.72852L7.72656 11.666C7.72656 12.0687 7.4001 12.3952 6.9974 12.3952C6.59469 12.3952 6.26823 12.0687 6.26823 11.666L6.26823 7.72852L2.33073 7.72852C1.92802 7.72852 1.60156 7.40206 1.60156 6.99935C1.60156 6.59664 1.92802 6.27018 2.33073 6.27018L6.26823 6.27018L6.26823 2.33268C6.26823 1.92997 6.59469 1.60352 6.9974 1.60352Z" fill="#6A40F7" stroke="white" stroke-width="0.3" stroke-linecap="round" stroke-linejoin="round"/>
</svg>
