<svg width="24" height="24" viewBox="0 0 24 24" fill="none" xmlns="http://www.w3.org/2000/svg">
<path d="M11 1C5.47715 1 1 5.47715 1 11C1 16.5228 5.47715 21 11 21C13.4015 21 15.6051 20.1532 17.3291 18.7422L21.293 22.707C21.6835 23.0976 22.3165 23.0976 22.707 22.707C23.0976 22.3165 23.0976 21.6835 22.707 21.293L18.7432 17.3281C20.1536 15.6043 21 13.4011 21 11C21 5.47715 16.5228 1 11 1ZM11 3C15.4183 3 19 6.58172 19 11C19 15.4183 15.4183 19 11 19C6.58172 19 3 15.4183 3 11C3 6.58172 6.58172 3 11 3Z" fill="#616161"/>
</svg>
