<svg width="24" height="24" viewBox="0 0 24 24" fill="none" xmlns="http://www.w3.org/2000/svg">
<path d="M5.5 7.25C6.47 7.25 7.25 8.03 7.25 9V19C7.25 19.97 6.47 20.75 5.5 20.75H4.5C3.53 20.75 2.75 19.97 2.75 19V9C2.75 8.03 3.53 7.25 4.5 7.25H5.5ZM12.5 3.25C13.47 3.25 14.25 4.03 14.25 5V19C14.25 19.97 13.47 20.75 12.5 20.75H11.5C10.53 20.75 9.75 19.97 9.75 19V5C9.75 4.03 10.53 3.25 11.5 3.25H12.5ZM19.5 10.25C20.47 10.25 21.25 11.03 21.25 12V19C21.25 19.97 20.47 20.75 19.5 20.75H18.5C17.53 20.75 16.75 19.97 16.75 19V12C16.75 11.03 17.53 10.25 18.5 10.25H19.5Z" fill="#7C57FC"/>
</svg>
