<svg preserveAspectRatio="none" width="100%" height="100%" overflow="visible" style="display: block;" viewBox="0 0 16.125 16.125" fill="none" xmlns="http://www.w3.org/2000/svg">
<g id="elements">
<path id="Icon" fill-rule="evenodd" clip-rule="evenodd" d="M8.0625 0C3.6097 0 0 3.6097 0 8.0625C0 12.5153 3.6097 16.125 8.0625 16.125C12.5153 16.125 16.125 12.5153 16.125 8.0625C16.125 3.6097 12.5153 0 8.0625 0ZM8.8125 5.0625C8.8125 4.64829 8.47671 4.3125 8.0625 4.3125C7.64829 4.3125 7.3125 4.64829 7.3125 5.0625V7.3125H5.0625C4.64829 7.3125 4.3125 7.64829 4.3125 8.0625C4.3125 8.47671 4.64829 8.8125 5.0625 8.8125H7.3125V11.0625C7.3125 11.4767 7.64829 11.8125 8.0625 11.8125C8.47671 11.8125 8.8125 11.4767 8.8125 11.0625V8.8125H11.0625C11.4767 8.8125 11.8125 8.47671 11.8125 8.0625C11.8125 7.64829 11.4767 7.3125 11.0625 7.3125H8.8125V5.0625Z" fill="var(--fill-0, black)"/>
</g>
</svg>
