<svg preserveAspectRatio="none" width="100%" height="100%" overflow="visible" style="display: block;" viewBox="0 0 18 22" fill="none" xmlns="http://www.w3.org/2000/svg">
<g id="elements">
<path id="Icon" d="M2 9.75C2 13.616 5.13401 16.75 9 16.75C12.866 16.75 16 13.616 16 9.75H18C18 14.3826 14.5 18.1979 10 18.6953V20H12V22H6V20H8V18.6953C3.50005 18.1979 0 14.3826 0 9.75H2ZM9 0C11.9214 0 14.3336 2.17876 14.7012 5H11V6.5H14.75V9H11V10.5H14.7012C14.3336 13.3212 11.9214 15.5 9 15.5C5.82436 15.5 3.25 12.9256 3.25 9.75V5.75C3.25 2.57436 5.82436 0 9 0Z" fill="var(--fill-0, #161616)"/>
</g>
</svg>
