<svg preserveAspectRatio="none" width="100%" height="100%" overflow="visible" style="display: block;" viewBox="0 0 17.5 21.5" fill="none" xmlns="http://www.w3.org/2000/svg">
<g id="elements">
<path id="Icon" fill-rule="evenodd" clip-rule="evenodd" d="M0.75 9C1.16421 9 1.5 9.33579 1.5 9.75C1.5 13.7541 4.74593 17 8.75 17C12.7541 17 16 13.7541 16 9.75C16 9.33579 16.3358 9 16.75 9C17.1642 9 17.5 9.33579 17.5 9.75C17.5 14.3299 13.9814 18.0879 9.5 18.4683V20H11.75C12.1642 20 12.5 20.3358 12.5 20.75C12.5 21.1642 12.1642 21.5 11.75 21.5H5.75C5.33579 21.5 5 21.1642 5 20.75C5 20.3358 5.33579 20 5.75 20H8V18.4683C3.5186 18.0879 0 14.3299 0 9.75C0 9.33579 0.335786 9 0.75 9Z" fill="var(--fill-0, #161616)"/>
<path id="Tone" opacity="0.4" fill-rule="evenodd" clip-rule="evenodd" d="M8.75 1.5C6.40279 1.5 4.5 3.40279 4.5 5.75V9.75C4.5 12.0972 6.4028 14 8.75 14C10.8413 14 12.5798 12.4895 12.934 10.5H10.75C10.3358 10.5 10 10.1642 10 9.75C10 9.33579 10.3358 9 10.75 9H13V6.5H10.75C10.3358 6.5 10 6.16421 10 5.75C10 5.33579 10.3358 5 10.75 5H12.934C12.5798 3.0105 10.8413 1.5 8.75 1.5ZM3 5.75C3 2.57437 5.57437 0 8.75 0C11.9256 0 14.5 2.57436 14.5 5.75V9.75C14.5 12.9256 11.9256 15.5 8.75 15.5C5.57436 15.5 3 12.9256 3 9.75V5.75Z" fill="var(--fill-0, #161616)"/>
</g>
</svg>
