<svg preserveAspectRatio="none" width="100%" height="100%" overflow="visible" style="display: block;" viewBox="0 0 17.5 17.5" fill="none" xmlns="http://www.w3.org/2000/svg">
<g id="elements">
<path id="Icon" d="M6.75 0C7.16421 0 7.5 0.335786 7.5 0.75V16.75C7.5 17.1642 7.16421 17.5 6.75 17.5H0.75C0.335786 17.5 0 17.1642 0 16.75V0.75C0 0.335786 0.335786 0 0.75 0H6.75ZM16.75 0C17.1642 0 17.5 0.335786 17.5 0.75V16.75C17.5 17.1642 17.1642 17.5 16.75 17.5H10.75C10.3358 17.5 10 17.1642 10 16.75V0.75C10 0.335786 10.3358 0 10.75 0H16.75Z" fill="var(--fill-0, #161616)"/>
</g>
</svg>
