<svg preserveAspectRatio="none" width="100%" height="100%" overflow="visible" style="display: block;" viewBox="0 0 57.3333 57.3334" fill="none" xmlns="http://www.w3.org/2000/svg">
<g id="elements">
<path id="Icon" fill-rule="evenodd" clip-rule="evenodd" d="M0 27.5112C0 12.2357 12.9206 0 28.6667 0C44.4127 0 57.3333 12.2357 57.3333 27.5112C57.3333 42.7868 44.4127 55.0225 28.6667 55.0225C26.811 55.0247 24.9609 54.8531 23.1386 54.5109C22.5061 54.3921 22.1042 54.3172 21.8052 54.2762C21.5822 54.242 21.3582 54.325 21.274 54.3708C20.9686 54.5159 20.5618 54.7317 19.939 55.0629C16.1211 57.0932 11.6668 57.8133 7.37057 57.0142C6.67682 56.8852 6.1024 56.4001 5.85902 55.7377C5.61564 55.0754 5.73931 54.3338 6.18446 53.7863C7.43193 52.2519 8.28969 50.4035 8.66901 48.4139C8.77165 47.8667 8.53938 47.1234 7.82537 46.3983C2.98591 41.4841 0 34.8384 0 27.5112ZM18 26C16.5272 26 15.3333 27.1939 15.3333 28.6667C15.3333 30.1394 16.5272 31.3333 18 31.3333H18.0239C19.4967 31.3333 20.6906 30.1394 20.6906 28.6667C20.6906 27.1939 19.4967 26 18.0239 26H18ZM28.6547 26C27.1819 26 25.988 27.1939 25.988 28.6667C25.988 30.1394 27.1819 31.3333 28.6547 31.3333H28.6786C30.1514 31.3333 31.3453 30.1394 31.3453 28.6667C31.3453 27.1939 30.1514 26 28.6786 26H28.6547ZM36.6427 28.6667C36.6427 27.1939 37.8366 26 39.3094 26H39.3333C40.8061 26 42 27.1939 42 28.6667C42 30.1394 40.8061 31.3333 39.3333 31.3333H39.3094C37.8366 31.3333 36.6427 30.1394 36.6427 28.6667Z" fill="var(--fill-0, #616161)"/>
</g>
</svg>
