<svg preserveAspectRatio="none" width="100%" height="100%" overflow="visible" style="display: block;" viewBox="0 0 17.5 17.5" fill="none" xmlns="http://www.w3.org/2000/svg">
<g id="elements">
<path id="Tone" opacity="0.4" d="M3.75 0.75C5.16421 0.75 5.87121 0.750113 6.31055 1.18945C6.74989 1.62879 6.75 2.33579 6.75 3.75V13.75C6.75 15.1642 6.74989 15.8712 6.31055 16.3105C5.87121 16.7499 5.16421 16.75 3.75 16.75C2.33579 16.75 1.62879 16.7499 1.18945 16.3105C0.750113 15.8712 0.75 15.1642 0.75 13.75V3.75C0.75 2.33579 0.750113 1.62879 1.18945 1.18945C1.62879 0.750113 2.33579 0.75 3.75 0.75ZM13.75 0.75C15.1642 0.75 15.8712 0.750113 16.3105 1.18945C16.7499 1.62879 16.75 2.33579 16.75 3.75V13.75C16.75 15.1642 16.7499 15.8712 16.3105 16.3105C15.8712 16.7499 15.1642 16.75 13.75 16.75C12.3358 16.75 11.6288 16.7499 11.1895 16.3105C10.7501 15.8712 10.75 15.1642 10.75 13.75V3.75C10.75 2.33579 10.7501 1.62879 11.1895 1.18945C11.6288 0.750113 12.3358 0.75 13.75 0.75Z" fill="var(--fill-0, #161616)"/>
<path id="Icon" d="M3.79981 1.95586e-06C4.46449 -3.53436e-05 5.03745 -0.000138061 5.4961 0.0615254C5.98765 0.12764 6.45864 0.276998 6.84082 0.659182C7.22301 1.04137 7.37236 1.51236 7.43848 2.00391C7.50014 2.46255 7.50004 3.03552 7.5 3.7002V13.7998C7.50004 14.4645 7.50014 15.0374 7.43848 15.4961C7.37236 15.9876 7.22301 16.4586 6.84082 16.8408C6.45864 17.223 5.98765 17.3724 5.4961 17.4385C5.03745 17.5001 4.46449 17.5 3.79981 17.5H3.7002C3.03552 17.5 2.46255 17.5001 2.00391 17.4385C1.51236 17.3724 1.04137 17.223 0.659182 16.8408C0.276997 16.4586 0.12764 15.9876 0.0615254 15.4961C-0.000138076 15.0374 -3.53436e-05 14.4645 1.95589e-06 13.7998V3.7002C-3.53433e-05 3.03552 -0.00013784 2.46255 0.0615254 2.00391C0.12764 1.51236 0.276997 1.04137 0.659182 0.659182C1.04137 0.276997 1.51236 0.12764 2.00391 0.0615254C2.46255 -0.000137847 3.03552 -3.53434e-05 3.7002 1.95586e-06H3.79981ZM13.7998 1.95586e-06C14.4645 -3.53436e-05 15.0374 -0.000138061 15.4961 0.0615254C15.9876 0.12764 16.4586 0.276998 16.8408 0.659182C17.223 1.04137 17.3724 1.51236 17.4385 2.00391C17.5001 2.46255 17.5 3.03552 17.5 3.7002V13.7998C17.5 14.4645 17.5001 15.0374 17.4385 15.4961C17.3724 15.9876 17.223 16.4586 16.8408 16.8408C16.4586 17.223 15.9876 17.3724 15.4961 17.4385C15.0374 17.5001 14.4645 17.5 13.7998 17.5H13.7002C13.0355 17.5 12.4626 17.5001 12.0039 17.4385C11.5124 17.3724 11.0414 17.223 10.6592 16.8408C10.277 16.4586 10.1276 15.9876 10.0615 15.4961C9.99986 15.0374 9.99996 14.4645 10 13.7998V3.7002C9.99996 3.03552 9.99986 2.46255 10.0615 2.00391C10.1276 1.51236 10.277 1.04137 10.6592 0.659182C11.0414 0.276997 11.5124 0.12764 12.0039 0.0615254C12.4626 -0.000137847 13.0355 -3.53434e-05 13.7002 1.95586e-06H13.7998ZM3.75 1.5C3.02178 1.5 2.55097 1.50123 2.2041 1.54785C1.8788 1.59159 1.77682 1.66264 1.71973 1.71973C1.66264 1.77682 1.59159 1.8788 1.54785 2.2041C1.50123 2.55097 1.5 3.02178 1.5 3.75V13.75C1.5 14.4782 1.50123 14.949 1.54785 15.2959C1.59159 15.6212 1.66264 15.7232 1.71973 15.7803C1.77682 15.8374 1.8788 15.9084 2.2041 15.9522C2.55097 15.9988 3.02178 16 3.75 16C4.47822 16 4.94903 15.9988 5.2959 15.9522C5.6212 15.9084 5.72318 15.8374 5.78028 15.7803C5.83737 15.7232 5.90841 15.6212 5.95215 15.2959C5.99877 14.949 6 14.4782 6 13.75V3.75C6 3.02178 5.99877 2.55097 5.95215 2.2041C5.90841 1.8788 5.83737 1.77682 5.78028 1.71973C5.72318 1.66264 5.6212 1.59159 5.2959 1.54785C4.94903 1.50123 4.47822 1.5 3.75 1.5ZM13.75 1.5C13.0218 1.5 12.551 1.50123 12.2041 1.54785C11.8788 1.59159 11.7768 1.66264 11.7197 1.71973C11.6626 1.77682 11.5916 1.8788 11.5479 2.2041C11.5012 2.55097 11.5 3.02178 11.5 3.75V13.75C11.5 14.4782 11.5012 14.949 11.5479 15.2959C11.5916 15.6212 11.6626 15.7232 11.7197 15.7803C11.7768 15.8374 11.8788 15.9084 12.2041 15.9522C12.551 15.9988 13.0218 16 13.75 16C14.4782 16 14.949 15.9988 15.2959 15.9522C15.6212 15.9084 15.7232 15.8374 15.7803 15.7803C15.8374 15.7232 15.9084 15.6212 15.9522 15.2959C15.9988 14.949 16 14.4782 16 13.75V3.75C16 3.02178 15.9988 2.55097 15.9522 2.2041C15.9084 1.8788 15.8374 1.77682 15.7803 1.71973C15.7232 1.66264 15.6212 1.59159 15.2959 1.54785C14.949 1.50123 14.4782 1.5 13.75 1.5Z" fill="var(--fill-0, #161616)"/>
</g>
</svg>
