<svg preserveAspectRatio="none" width="100%" height="100%" overflow="visible" style="display: block;" viewBox="0 0 17.5 17.5" fill="none" xmlns="http://www.w3.org/2000/svg">
<g id="element">
<path id="Icon" d="M5.75 0C6.7165 0 7.5 0.783502 7.5 1.75V15.75C7.5 16.7165 6.7165 17.5 5.75 17.5H1.75C0.783502 17.5 0 16.7165 0 15.75V1.75C0 0.783502 0.783502 6.44255e-08 1.75 0H5.75ZM15.75 0C16.7165 0 17.5 0.783502 17.5 1.75V15.75C17.5 16.7165 16.7165 17.5 15.75 17.5H11.75C10.7835 17.5 10 16.7165 10 15.75V1.75C10 0.783502 10.7835 6.44255e-08 11.75 0H15.75ZM1.75 1.5C1.61193 1.5 1.5 1.61193 1.5 1.75V15.75C1.5 15.8881 1.61193 16 1.75 16H5.75C5.88807 16 6 15.8881 6 15.75V1.75C6 1.61193 5.88807 1.5 5.75 1.5H1.75ZM11.75 1.5C11.6119 1.5 11.5 1.61193 11.5 1.75V15.75C11.5 15.8881 11.6119 16 11.75 16H15.75C15.8881 16 16 15.8881 16 15.75V1.75C16 1.61193 15.8881 1.5 15.75 1.5H11.75Z" fill="var(--fill-0, #161616)"/>
</g>
</svg>
