<svg preserveAspectRatio="none" width="100%" height="100%" overflow="visible" style="display: block;" viewBox="0 0 17.1416 12.0992" fill="none" xmlns="http://www.w3.org/2000/svg">
<path id="Wifi" d="M6.16309 9.03375C7.55319 7.74419 9.5894 7.74419 10.9795 9.03375C11.0492 9.1031 11.0899 9.20104 11.0918 9.30426C11.0937 9.40761 11.0565 9.50724 10.9893 9.57965L8.81251 11.9888C8.74877 12.0596 8.66196 12.0991 8.5713 12.0992C8.48053 12.0992 8.39292 12.0596 8.32911 11.9888L6.15235 9.57965C6.08517 9.5072 6.04786 9.40757 6.04981 9.30426C6.05181 9.20089 6.09314 9.10306 6.16309 9.03375ZM3.13477 6.16071C6.19853 3.32363 10.9431 3.32368 14.0068 6.16071C14.076 6.22724 14.1162 6.31887 14.1172 6.41461C14.1182 6.51027 14.0804 6.60258 14.0127 6.67047L12.7246 7.96539C12.5919 8.09737 12.3782 8.0999 12.2422 7.97125C11.2361 7.06424 9.92666 6.56199 8.56934 6.56207C7.21301 6.56269 5.90482 7.06489 4.89942 7.97125C4.7634 8.09984 4.54964 8.09742 4.417 7.96539L3.12989 6.67047C3.06196 6.60265 3.02449 6.51039 3.0254 6.41461C3.02632 6.31886 3.06558 6.22723 3.13477 6.16071ZM0.108406 3.22028C4.83942 -1.07343 12.3032 -1.07343 17.0342 3.22028C17.1024 3.28399 17.141 3.37075 17.1416 3.46149C17.1422 3.5524 17.1047 3.64012 17.0371 3.70465L15.7393 4.94489C15.6056 5.07199 15.3886 5.07306 15.2529 4.94782C13.4505 3.32509 11.0583 2.42058 8.5713 2.42047C6.08398 2.42048 3.6914 3.32488 1.88868 4.94782C1.75303 5.0733 1.53595 5.07233 1.40235 4.94489L0.1045 3.70465C0.0369285 3.64007 -0.000623761 3.5524 7.84013e-06 3.46149C0.000669069 3.37058 0.0399203 3.28399 0.108406 3.22028Z" fill="var(--fill-0, black)"/>
</svg>
