<svg preserveAspectRatio="none" width="100%" height="100%" overflow="visible" style="display: block;" viewBox="0 0 17.5 17.5" fill="none" xmlns="http://www.w3.org/2000/svg">
<g id="elements">
<path id="Icon" d="M13.7006 1.69376e-06L13.75 5.30772e-06L13.7994 1.69376e-06H13.7994C14.4643 -3.37946e-05 15.0371 -6.43693e-05 15.4958 0.0616107C15.9875 0.12771 16.4587 0.276768 16.841 0.659015C17.2232 1.04126 17.3723 1.51252 17.4384 2.00416C17.5001 2.46291 17.5 3.03577 17.5 3.70064V13.7994C17.5 14.4642 17.5001 15.0371 17.4384 15.4958C17.3723 15.9875 17.2232 16.4587 16.841 16.841C16.4587 17.2232 15.9875 17.3723 15.4958 17.4384C15.0371 17.5001 14.4642 17.5 13.7994 17.5H13.7006C13.0358 17.5 12.4629 17.5001 12.0042 17.4384C11.5125 17.3723 11.0413 17.2232 10.659 16.841C10.2768 16.4587 10.1277 15.9875 10.0616 15.4958C9.99994 15.0371 9.99997 14.4643 10 13.7994V13.7994V3.70063V3.70058C9.99997 3.03574 9.99994 2.46289 10.0616 2.00416C10.1277 1.51252 10.2768 1.04126 10.659 0.659015C11.0413 0.276768 11.5125 0.12771 12.0042 0.0616107C12.4629 -6.43693e-05 13.0357 -3.37946e-05 13.7006 1.69376e-06H13.7006Z" fill="var(--fill-0, #161616)"/>
<path id="Tone" opacity="0.4" d="M3.70073 1.69376e-06L3.75011 5.30772e-06L3.79948 1.69376e-06H3.79953C4.46437 -3.37946e-05 5.03722 -6.43693e-05 5.49595 0.0616107C5.98759 0.12771 6.45885 0.276768 6.8411 0.659015C7.22334 1.04126 7.3724 1.51252 7.4385 2.00416C7.50018 2.46291 7.50014 3.03577 7.50011 3.70064V13.7994C7.50014 14.4642 7.50018 15.0371 7.4385 15.4958C7.3724 15.9875 7.22334 16.4587 6.8411 16.841C6.45885 17.2232 5.98759 17.3723 5.49595 17.4384C5.0372 17.5001 4.46434 17.5 3.79947 17.5H3.70074C3.03587 17.5 2.46301 17.5001 2.00426 17.4384C1.51263 17.3723 1.04136 17.2232 0.659116 16.841C0.276869 16.4587 0.127811 15.9875 0.0617118 15.4958C3.67649e-05 15.0371 6.73396e-05 14.4643 0.000102828 13.7994V13.7994V3.70063V3.70058C6.73396e-05 3.03574 3.67649e-05 2.46289 0.0617118 2.00416C0.127811 1.51252 0.276869 1.04126 0.659116 0.659015C1.04136 0.276768 1.51263 0.12771 2.00426 0.0616107C2.463 -6.43693e-05 3.03584 -3.37946e-05 3.70068 1.69376e-06H3.70073Z" fill="var(--fill-0, #161616)"/>
</g>
</svg>
