<svg width="24" height="24" viewBox="0 0 24 24" fill="none" xmlns="http://www.w3.org/2000/svg">
<path d="M12 22.75C17.9371 22.75 22.75 17.9371 22.75 12C22.75 6.06294 17.9371 1.25 12 1.25C6.06294 1.25 1.25 6.06294 1.25 12C1.25 17.9371 6.06294 22.75 12 22.75ZM8 10.25C7.30964 10.25 6.75 9.69036 6.75 9C6.75 8.30964 7.30964 7.75 8 7.75H8.00879C8.69914 7.75 9.25879 8.30964 9.25879 9C9.25879 9.69036 8.69914 10.25 8.00879 10.25H8ZM15.9912 10.25C15.3009 10.25 14.7412 9.69036 14.7412 9C14.7412 8.30964 15.3009 7.75 15.9912 7.75H16C16.6904 7.75 17.25 8.30964 17.25 9C17.25 9.69036 16.6904 10.25 16 10.25H15.9912ZM12 17.75C10.1185 17.75 8.44805 16.8451 7.40039 15.4502C7.15173 15.119 7.21864 14.6491 7.5498 14.4004C7.881 14.1517 8.35087 14.2186 8.59961 14.5498C9.37618 15.5837 10.6103 16.25 12 16.25C13.3897 16.25 14.6238 15.5837 15.4004 14.5498C15.6491 14.2186 16.119 14.1517 16.4502 14.4004C16.7814 14.6491 16.8483 15.119 16.5996 15.4502C15.5519 16.8451 13.8816 17.75 12 17.75Z" fill="white"/>
</svg>
