<svg width="24" height="24" viewBox="0 0 24 24" fill="none" xmlns="http://www.w3.org/2000/svg">
<path d="M8 4C8.60801 4 9.09687 4.28124 9.46777 4.65527C9.81813 5.00866 10.1033 5.48162 10.3564 5.99512C10.8556 7.00763 11.3757 8.48954 12.0254 10.3428L14.9443 18.6689C15.1271 19.1901 14.8522 19.7606 14.3311 19.9434C13.8099 20.1261 13.2394 19.8521 13.0566 19.3311L10.8369 13H5.16309L2.94434 19.3311C2.76159 19.8522 2.19011 20.1261 1.66895 19.9434C1.14811 19.7604 0.873982 19.19 1.05664 18.6689L3.97559 10.3438C4.62537 8.49026 5.14531 7.00769 5.64453 5.99512C5.89776 5.48152 6.18275 5.00869 6.5332 4.65527C6.90405 4.2813 7.39212 4.00008 8 4ZM19.0762 9C19.466 8.99983 19.7738 8.99956 20.0479 9.04297C21.5452 9.28026 22.7197 10.4548 22.957 11.9521C23.0005 12.2263 23.0002 12.5348 23 12.9248V18.5C23 19.0523 22.5523 19.5 22 19.5C21.6833 19.5 21.401 19.3528 21.2178 19.123C20.4795 19.674 19.5633 20 18.5713 20C16.6758 19.9999 15 18.5148 15 16.5C15 14.567 16.567 13 18.5 13H21C21 12.4977 20.9968 12.3626 20.9814 12.2656C20.8798 11.6238 20.3762 11.1202 19.7344 11.0186C19.6374 11.0032 19.5023 11 19 11C18.4977 11 18.3626 11.0032 18.2656 11.0186C17.7522 11.0999 17.3264 11.4388 17.125 11.9004C16.904 12.4063 16.3146 12.6377 15.8086 12.417C15.3025 12.1962 15.0714 11.6067 15.292 11.1006C15.7615 10.0247 16.7528 9.23303 17.9521 9.04297C18.2262 8.99956 18.534 8.99983 18.9238 9H19.0762ZM18.5 15C17.6716 15 17 15.6716 17 16.5C17 17.3223 17.6903 17.9999 18.5713 18C19.912 18 20.999 16.9137 21 15.5732V15H18.5ZM7.95312 6.06348C7.82864 6.18905 7.65743 6.43489 7.43848 6.87891C7.00562 7.75683 6.53117 9.09794 5.86426 11H10.1357C9.46884 9.09797 8.99535 7.75682 8.5625 6.87891C8.34345 6.43466 8.17138 6.18903 8.04688 6.06348C8.02808 6.04453 8.01252 6.03002 8 6.01953C7.98747 6.03004 7.97194 6.0445 7.95312 6.06348Z" fill="white"/>
</svg>
