<svg width="100%" height="100%" viewBox="0 0 359.588 258.57" fill="none" xmlns="http://www.w3.org/2000/svg">
  <path d="M151.174 16.7247C178.344 18.2416 201.254 33.3284 212.536 54.3922C220.569 52.1264 229.183 51.1228 238.089 51.62C276.044 53.739 305.687 82.3369 306.926 116.72C329.636 129.122 344.334 152.433 342.891 178.286C341.132 209.789 315.974 234.875 283.719 240.13L283.616 241.97L79.4631 230.573L79.4759 230.342C42.4014 225.448 14.7425 195.093 16.6975 160.075C18.4717 128.296 44.0547 103.047 76.7154 98.0963C75.2124 92.1259 74.5781 85.8717 74.936 79.4613C76.9952 42.5773 111.128 14.489 151.174 16.7247Z" fill="#D1BEFE" fill-opacity="0.35"/>
  <ellipse cx="183.746" cy="163.985" rx="131.292" ry="52.7006" transform="rotate(3.19547 183.746 163.985)" fill="white" fill-opacity="0.8"/>
</svg>
